<?xml version="1.0" encoding="utf-8"?>
<!-- Generator: Adobe Illustrator 18.1.1, SVG Export Plug-In . SVG Version: 6.00 Build 0)  -->
<!DOCTYPE svg PUBLIC "-//W3C//DTD SVG 1.1//EN" "http://www.w3.org/Graphics/SVG/1.1/DTD/svg11.dtd">
<svg version="1.1" id="Capa_1" xmlns="http://www.w3.org/2000/svg" xmlns:xlink="http://www.w3.org/1999/xlink" x="0px" y="0px"
	 viewBox="-280 372.3 49.7 49.7" enable-background="new -280 372.3 49.7 49.7" xml:space="preserve">
<g>
	<g>
		<g>
			<path fill="#6D6868" d="M-259.1,393c0-1.9-1.3-1.9-1.3-1.9h-0.7h-4.6h0v4.1h5C-259.9,395.2-259.1,394.9-259.1,393z"/>
			<path fill="#6D6868" d="M-246.8,395.2c-2.8,0-3.2,2.8-3.2,2.8h6C-244,398-244,395.2-246.8,395.2z"/>
			<path fill="#6D6868" d="M-260.4,398h-5.3v4.9h4.7c0.1,0,0.2,0,0.3,0c0.8,0,2.2-0.2,2.2-2.4C-258.5,398-260.4,398-260.4,398z"/>
			<path fill="#6D6868" d="M-255.2,372.3c-13.7,0-24.8,11.1-24.8,24.8c0,13.7,11.1,24.8,24.8,24.8c13.7,0,24.8-11.1,24.8-24.8
				C-230.3,383.5-241.5,372.3-255.2,372.3z M-250.8,389h7.5v2.3h-7.5V389z M-254.6,400.8c0,5.6-5.8,5.4-5.8,5.4h-5.3h-0.2h-4v-18.3
				h4h0.2h5.3c2.9,0,5.2,1.6,5.2,4.9c0,3.3-2.8,3.5-2.8,3.5C-254.3,396.2-254.6,400.8-254.6,400.8z M-240.5,400.5h-9.5
				c0,3.4,3.2,3.2,3.2,3.2c3,0,2.9-2,2.9-2h3.2c0,5.2-6.3,4.9-6.3,4.9c-7.5,0-7-7-7-7s0-7,7-7C-239.5,392.5-240.5,400.5-240.5,400.5
				z"/>
		</g>
	</g>
</g>
</svg>
