<?xml version="1.0" encoding="utf-8"?>
<!-- Generator: Adobe Illustrator 18.1.1, SVG Export Plug-In . SVG Version: 6.00 Build 0)  -->
<!DOCTYPE svg PUBLIC "-//W3C//DTD SVG 1.1//EN" "http://www.w3.org/Graphics/SVG/1.1/DTD/svg11.dtd">
<svg version="1.1" id="Layer_1" xmlns="http://www.w3.org/2000/svg" xmlns:xlink="http://www.w3.org/1999/xlink" x="0px" y="0px"
	 viewBox="0 0 144 144" enable-background="new 0 0 144 144" xml:space="preserve">
<rect x="-0.3" fill="#5B5959" width="144" height="144"/>
<g>
	<path fill="#D6CED0" d="M8.4,8.6c0,0,0.5,0.5,1.5,1.3c1,0.9,2.4,2.2,4.2,3.8c3.6,3.3,8.8,8.1,14.9,13.8c3.1,2.9,6.4,6,9.8,9.3
		c3.5,3.3,7.1,6.8,10.9,10.5c3.7,3.7,7.7,7.4,11.6,11.3c3.9,3.9,7.9,7.8,11.9,11.8c3.9,4,7.9,8,11.8,11.9c3.9,3.9,7.6,7.8,11.3,11.6
		c3.7,3.7,7.2,7.4,10.5,10.9c3.3,3.5,6.5,6.8,9.3,9.8c5.8,6.1,10.5,11.3,13.8,14.9c1.6,1.8,2.9,3.3,3.8,4.2c0.9,1,1.3,1.5,1.3,1.5
		s-0.5-0.5-1.5-1.3c-1-0.9-2.4-2.2-4.2-3.8c-3.6-3.3-8.8-8.1-14.9-13.8c-3.1-2.9-6.4-6-9.8-9.3c-3.5-3.3-7.1-6.8-10.9-10.5
		c-3.7-3.7-7.7-7.4-11.6-11.3c-3.9-3.9-7.9-7.8-11.9-11.8c-3.9-4-7.9-8-11.8-11.9c-3.9-3.9-7.6-7.8-11.3-11.6
		c-3.7-3.7-7.2-7.4-10.5-10.9c-3.3-3.5-6.5-6.8-9.3-9.8C21.6,23.1,16.8,18,13.5,14.4c-1.6-1.8-2.9-3.3-3.8-4.2
		C8.8,9.2,8.4,8.6,8.4,8.6z"/>
</g>
<g>
	<path fill="#D6CED0" d="M135.1,8.6c0,0-0.5,0.5-1.3,1.5c-0.9,1-2.2,2.4-3.8,4.2c-3.3,3.6-8.1,8.8-13.8,14.9c-2.9,3.1-6,6.4-9.3,9.8
		c-3.3,3.5-6.8,7.1-10.5,10.9c-3.7,3.7-7.4,7.7-11.3,11.6c-3.9,3.9-7.8,7.9-11.8,11.9c-4,3.9-8,7.9-11.9,11.8
		c-3.9,3.9-7.8,7.6-11.6,11.3c-3.7,3.7-7.4,7.2-10.9,10.5c-3.5,3.3-6.8,6.5-9.8,9.3c-6.1,5.8-11.3,10.5-14.9,13.8
		c-1.8,1.6-3.3,2.9-4.2,3.8c-1,0.9-1.5,1.3-1.5,1.3s0.5-0.5,1.3-1.5c0.9-1,2.2-2.4,3.8-4.2c3.3-3.6,8.1-8.8,13.8-14.9
		c2.9-3.1,6-6.4,9.3-9.8c3.3-3.5,6.8-7.1,10.5-10.9c3.7-3.7,7.4-7.7,11.3-11.6c3.9-3.9,7.8-7.9,11.8-11.9c4-3.9,8-7.9,11.9-11.8
		c3.9-3.9,7.8-7.6,11.6-11.3c3.7-3.7,7.4-7.2,10.9-10.5c3.5-3.3,6.8-6.5,9.8-9.3c6.1-5.8,11.3-10.5,14.9-13.8
		c1.8-1.6,3.3-2.9,4.2-3.8C134.5,9.1,135.1,8.6,135.1,8.6z"/>
</g>
</svg>
