<?xml version="1.0" encoding="utf-8"?>
<!-- Generator: Adobe Illustrator 18.1.1, SVG Export Plug-In . SVG Version: 6.00 Build 0)  -->
<!DOCTYPE svg PUBLIC "-//W3C//DTD SVG 1.1//EN" "http://www.w3.org/Graphics/SVG/1.1/DTD/svg11.dtd">
<svg version="1.1" id="Capa_1" xmlns="http://www.w3.org/2000/svg" xmlns:xlink="http://www.w3.org/1999/xlink" x="0px" y="0px"
	 viewBox="-280 372.3 49.7 49.7" enable-background="new -280 372.3 49.7 49.7" xml:space="preserve">
<g>
	<g>
		<g>
			<path fill="#6D6868" d="M-255.2,402.1c2.7,0,5-2.2,5-5c0-1.1-0.4-2.1-0.9-2.9c-0.9-1.3-2.4-2.1-4-2.1c-1.7,0-3.1,0.8-4,2.1
				c-0.6,0.8-0.9,1.8-0.9,2.9C-260.1,399.9-257.9,402.1-255.2,402.1z"/>
			<polygon fill="#6D6868" points="-244.3,391.1 -244.3,386.9 -244.3,386.3 -244.9,386.3 -249.1,386.3 -249.1,391.1 			"/>
			<path fill="#6D6868" d="M-255.2,372.3c-13.7,0-24.8,11.1-24.8,24.8c0,13.7,11.1,24.8,24.8,24.8c13.7,0,24.8-11.1,24.8-24.8
				C-230.3,383.5-241.5,372.3-255.2,372.3z M-241.1,394.3v11.6c0,3-2.4,5.5-5.5,5.5h-17.3c-3,0-5.5-2.4-5.5-5.5v-11.6v-5.8
				c0-3,2.4-5.5,5.5-5.5h17.3c3,0,5.5,2.4,5.5,5.5V394.3z"/>
			<path fill="#6D6868" d="M-247.5,397.2c0,4.3-3.5,7.7-7.7,7.7s-7.7-3.5-7.7-7.7c0-1,0.2-2,0.6-2.9h-4.2v11.6
				c0,1.5,1.2,2.7,2.7,2.7h17.3c1.5,0,2.7-1.2,2.7-2.7v-11.6h-4.2C-247.7,395.2-247.5,396.1-247.5,397.2z"/>
		</g>
	</g>
</g>
</svg>
