<?xml version="1.0" encoding="utf-8"?>
<!-- Generator: Adobe Illustrator 18.1.1, SVG Export Plug-In . SVG Version: 6.00 Build 0)  -->
<!DOCTYPE svg PUBLIC "-//W3C//DTD SVG 1.1//EN" "http://www.w3.org/Graphics/SVG/1.1/DTD/svg11.dtd">
<svg version="1.1" id="Layer_1" xmlns="http://www.w3.org/2000/svg" xmlns:xlink="http://www.w3.org/1999/xlink" x="0px" y="0px"
	 viewBox="0 0 1224 792" enable-background="new 0 0 1224 792" xml:space="preserve">
<g id="Layer_1_1_">
</g>
<g id="Isolation_Mode">
	<g>
		<path fill="#FAD3D4" d="M320.2,323.2c-0.7,0-1.1,0-1.8,0c-13.1-1.1-26.3-5.8-39.4-7.3c-21.5-2.6-44.1,3.6-60.2,17.9
			c-14.6,12.8-23.3,31.4-28.8,50c-10.2,36.1-9.8,74-9.1,111.6c0.4,28.4,1.5,58,15.3,82.8c11.3,20.1,29.9,34.6,45.9,51.8
			c13.9,15,26.6,32.1,44.5,41.2c20.1,10.2,45.6,8.8,64.5-3.6c15.7-10.2,25.5-26.6,37.6-40.8c16.4-19.3,37.2-35.7,49.2-58.3
			c13.1-24.4,14.6-53.2,14.6-81c0-35.4-1.5-71.5-11.3-105.4c-4.7-17.1-11.7-33.9-23.7-46.7C387.7,303.5,355.6,325.3,320.2,323.2z"/>
		<g>
			<path fill="#941A1D" d="M371.3,582c-6.6,17.5-20.1,32.5-36.8,40.8c-9.5,4.7-20.4,7.3-31,6.2c-16.4-1.8-31-12.4-40.5-25.5
				c-3.3-4.7-6.2-9.8-10.9-13.1c-2.2-1.5-4.7-3.6-3.6-6.2c1.1-2.2,4-1.8,6.2-0.7c5.5,1.8,7.7,2.9,13.1,2.2c2.6-0.4,5.8-2.6,8-4
				c6.2-3.3,15.3-4.4,22.2-4c4.7,0,9.1,1.8,13.9,1.8c9.1,0,16.8-3.3,25.9-1.5c10.2,1.8,20.4,3.6,30.6,1.5c1.1-0.4,2.9,0,2.9,1.1
				c0,0.4,0,0.4,0,0.7C371.6,581.3,371.6,581.7,371.3,582z"/>
			<path fill="#F6FBFD" d="M258.6,588.2c0,0,57.2,41.2,103.6-2.2C362.2,586.4,302.4,609,258.6,588.2z"/>
		</g>
		<path fill="#6F493B" d="M196.2,432.2c0,0,15.7-21.5,36.8-21.5c21.1,0,44.5,12,58.7,15.3c14.2,3.3,8,16-8.4,11.3
			c-16.4-4.7-33.2-16.8-51-14.6S194.4,443.5,196.2,432.2z"/>
		<path fill="#6F493B" d="M355.6,427.1c1.5-0.4,2.9-0.7,4.4-1.1c14.6-2.6,29.9-2.9,44.9-0.7c6.9,1.1,13.9,2.9,20.4,5.5
			c5.5,2.2,13.1,5.8,17.5,9.8c1.1,1.1-8.8,1.1-9.1,1.1c-3.3-1.1-5.8-2.6-8.8-4c-8.4-4-18.2-5.1-27.3-4.4c-9.1,0.7-18.2,1.8-27,4.7
			c-4.4,1.5-8.8,2.9-13.5,2.2c-4.4-0.7-9.1-2.9-8-6.9C349.4,430,352.3,428.2,355.6,427.1z"/>
		<path fill="#941A1D" d="M183.8,631.3c0,0-120.7-55.8-4.4-191.8c0,0-69.6-165.2,75.8-234.8c0,0-34.3-119.2,78.8-125.8
			c113-6.6,47.8,116.7,47.8,116.7s167,16,76.6,254.2c0,0,65.6,21.9,14.2,87.1c0,0-18.6,12,20.8,51.4c0,0-42.7-28.1-25.9-57.6
			c0,0,36.8-41.6-18.2-72.6c0,0,6.6-167.4-118.5-122.9c0,0-4,3.6-24.4-6.2c0,0-124.7-52.5-117,113
			C189.7,442.8,80.6,562.4,183.8,631.3z"/>
		<path fill="#B32024" d="M390.6,331.5c0,0,76.6-46.7,53.2-107.9c0,0,67.8,49.2-17.1,136.7C426.7,360,416.5,339.2,390.6,331.5z"/>
		<path fill="#B32024" d="M210.1,346.9c0,0-39.7-41.6-27-77.7c0,0,11.7-26.6,51.4-52.9C234.5,216.3,186.8,271.7,210.1,346.9z"/>
		<path fill="#B32024" d="M316.2,333.7c0,0-51-25.9-25.2-63.1s44.1-54.3,12-74c0,0,38.7,19.3,51.8-10.9c0,0,4.4,68.6-41.9,83.9
			S316.2,333.7,316.2,333.7z"/>
		<g>
			<path fill="#231F20" d="M456.6,441.7c-37.2-2.2-72.6-8.8-108.7,4.7c-6.2,2.2-12.4,5.1-19,6.2c-12,1.8-24.1-2.9-35.7-6.6
				c-36.8-11.7-76.2-15.3-114.5-10.6c-2.2,4.4-4.4,9.5-2.6,13.9c1.1,2.6,3.3,4.7,5.1,6.9c5.8,8,4.7,19.3,9.1,28.1
				c5.8,10.9,19,15.7,31,17.9c19.3,4,39.4,4.7,59.1,2.6c4-0.4,8-1.1,11.3-2.9c3.3-2.2,5.8-5.5,8-8.8c3.3-5.5,6.2-10.9,8.4-17.1
				c1.5-4,2.9-8,6.2-10.6c6.2-4,14.6,1.1,17.9,7.3c3.6,6.2,4.7,13.9,8.8,20.1c6.6,9.8,20.1,13.1,31.7,14.6
				c20.4,2.2,41.2,0.4,60.9-4.4c2.6-0.7,5.1-1.5,7.3-2.9c2.2-1.5,3.3-4,4.4-6.2c4-7.7,6.6-16,8-24.8c0.4-2.2,0.7-4.4,1.8-5.8
				c0.7-1.1,2.2-1.8,2.9-2.9c1.5-1.8,2.2-4.4,2.6-6.6C461.7,449.7,459.9,444.9,456.6,441.7C457,441.7,456.6,441.7,456.6,441.7z
				 M300.2,467.9c0,0-6.6,29.9-16.8,31.4c-10.2,1.5-82,5.8-86.1-16c0,0-16.8-36.5,6.6-42.7s79.9,6.9,79.9,6.9
				S304.9,452.6,300.2,467.9z M423.8,500.7c-25.5,5.1-63.8,9.8-76.2-8.8c0,0-20.4-35.4,12.4-44.9c32.8-9.5,78.8-1.1,78.8-1.1
				s9.8,4,8.8,16.4C447.5,462.4,449.3,495.6,423.8,500.7z"/>
			
				<ellipse transform="matrix(6.102257e-02 -0.9981 0.9981 6.102257e-02 -269.3777 601.3265)" fill="#ED3024" cx="184.9" cy="443.8" rx="2.2" ry="5.8"/>
		</g>
		
			<ellipse transform="matrix(6.102257e-02 -0.9981 0.9981 6.102257e-02 -25.0495 877.1021)" fill="#ED3024" cx="453.7" cy="451.9" rx="2.2" ry="5.8"/>
		<path fill="#B32024" d="M255.3,204.6c0,0,139.3-25.5,78.8-125.8c0,0-39.7-0.4-56.2,18.6C277.9,97.8,382.6,132.4,255.3,204.6z"/>
		<g>
			<g>
				<path fill="#FFFFFF" d="M361.1,477.4c-0.4-0.7-0.4-1.8,0-2.9c1.5-6.9,21.1-13.5,28.4-13.9c11.3-0.7,41.2,8.4,28.4,21.5
					C407.4,493.4,365.4,495.6,361.1,477.4z"/>
				<circle fill="#006073" cx="390.6" cy="475.9" r="12.8"/>
				<circle fill="#231F20" cx="390.6" cy="476.3" r="5.8"/>
			</g>
			<path fill="#231F20" d="M361.1,477.4c0,0-1.5-5.1,4.7-8.4c0,0,1.5-4-0.4-4c0,0,1.8,0.4,1.8,3.3c0,0,2.9-0.7,1.1-5.8
				c0,0,2.6,1.8,2.2,4.4c0,0,2.2-5.1,0.7-6.6c0,0,1.8,1.1,1.5,5.1c0,0,3.6-3.3,1.5-7.7c0,0,1.8,3.6,1.5,5.8c0,0,3.6-2.9,1.1-7.7
				c0,0,1.8,1.8,1.8,6.9c0,0,5.1-4,2.9-9.8c0,0,4,3.3,1.1,8.4c0,0,4-4.4,3.6-8c0,0,0.4,5.8-1.5,7.7c0,0,6.9-2.6,4.7-13.5
				c0,0,6.2,6.9,1.8,11.3c0,0,6.2-5.8,3.3-13.9c0,0,3.6,3.6,2.6,11.7c0,0,7.3-7.7,3.6-13.5c0,0,5.5,9.1-0.7,15.7c0,0,9.1-4,8-12.8
				c0,0,4,6.9-0.7,13.5c0,0,5.1-4.7,5.5-10.2c0,0,0.7,8.4-2.2,12.8c0,0,8-8.4,6.9-13.1c0,0,2.6,5.5-2.2,13.5c0,0,8-5.1,9.1-10.9
				c0,0,0.4,8.8-6.2,14.6c0,0,6.2-0.4,9.1-6.6c0,0-0.4,5.8-5.5,9.8c0,0,11.7-4.7,12-13.1c0,0,2.2,6.9-7.7,14.2
				c0,0,16.8-5.8,17.1-16.8c0,0-0.4,15.3-13.1,22.6c0,0,5.1,2.2,5.1,5.5c0,0-4.4-5.8-9.8-3.6c0,0,5.1,1.5,5.1,3.3
				c0,0-5.5-3.6-8.8-1.8c0,0,5.5,0.7,5.1,4.4c0,0-1.8-5.8-9.8-1.8c0,0,9.5-24.1-32.1-18.2C378.6,465,362.5,469,361.1,477.4z"/>
		</g>
		<g>
			<g>
				<path fill="#FFFFFF" d="M278.3,479.2c0.4-0.7,0.4-1.8,0.4-2.9c-0.7-7.3-19.7-16-26.6-17.1c-11.3-2.2-41.9,3.3-30.6,17.9
					C230.5,489.1,271.7,496.7,278.3,479.2z"/>
				<circle fill="#006073" cx="249.1" cy="474.1" r="12.8"/>
				<circle fill="#231F20" cx="249.1" cy="474.5" r="5.8"/>
			</g>
			<path fill="#231F20" d="M278.3,479.2c0,0,1.8-4.7-3.6-8.8c0,0-1.1-4,1.1-4c0,0-1.8,0-2.2,3.3c0,0-2.6-1.1-0.4-5.8
				c0,0-2.9,1.5-2.6,4.4c0,0-1.5-5.1,0-6.6c0,0-1.8,0.7-2.2,5.1c0,0-2.9-3.6-0.4-7.7c0,0-2.6,3.3-2.2,5.8c0,0-3.3-3.3-0.4-7.7
				c0,0-1.8,1.5-2.6,6.6c0,0-4.7-4.7-1.8-9.8c0,0-4.4,2.9-2.2,8.4c0,0-3.3-4.7-2.6-8.4c0,0-1.1,5.8,0.4,7.7c0,0-6.6-3.3-2.9-14.2
				c0,0-6.9,6.2-3.3,10.9c0,0-5.5-6.6-1.5-14.2c0,0-4,3.3-4,11.3c0,0-6.2-8.4-2.2-13.9c0,0-6.6,8.4-1.1,15.7c0,0-8.8-5.1-6.2-13.5
				c0,0-4.7,6.6-1.1,13.5c0,0-4.4-5.5-4.4-10.9c0,0-1.8,8,0.7,12.8c0,0-6.9-9.1-5.5-13.9c0,0-2.9,5.1,0.7,13.5c0,0-7.3-5.8-7.7-12
				c0,0-1.5,8.8,4.4,15.3c0,0-6.2-1.1-8.4-7.7c0,0-0.4,5.8,4,10.6c0,0-10.9-6.2-10.2-14.2c0,0-2.9,6.6,5.8,15c0,0-15.7-8-15-19
				c0,0-1.5,15.3,10.2,24.1c0,0-5.5,1.8-5.8,4.7c0,0,5.1-5.1,10.2-2.2c0,0-5.1,0.7-5.5,2.6c0,0,5.8-2.9,8.8-0.7c0,0-5.5,0-5.8,3.6
				c0,0,2.2-5.5,9.8-0.7c0,0-6.2-25.2,34.3-14.2C262.2,464.6,277.9,470.5,278.3,479.2z"/>
		</g>
	</g>
</g>
<g opacity="0.9">
	<g>
		<g>
			<path fill="#FFFDEE" d="M992,322.7c0-2.2,1.6-12.9,1.6-12.9c22.6-12.7,51.7-29.6,56.6-63.6c1.4-9.4-3.8-19.6-12.1-24.4
				c-6.9-4-15.7-3.7-23-0.4c-7.3,3.2-13.1,9.2-17.4,15.9c-11.4,17.6-12.7,40.7-13.7,61.7c-12.8,2.4-26.7,2.9-38.5-2.8
				s-19.6-21.2-12.7-32.3c8.8,0.2,18.2-1.7,24.5-7.9c6.3-6.2,7.9-17.6,1.5-23.7c-4.9-4.7-12.9-4.9-18.9-1.7
				c-5.9,3.2-9.9,9.3-12.1,15.6c-0.7,2-1.4,4.3-3.1,5.6c-3.8,3-9.1-0.4-12.8-3.6c-3.7-3.2-9.5-6.1-12.8-2.5c-3.2,3.5,0,8.8,1.4,13.4
				c2.9,9.2-3.3,17.4-9.2,23.7c-5.2,5.5-11.3,8.2-18.8,8.6c-22.9,1.3-24.5-9.4-24.6-9.4c0,0,60.6-82.9,72.7-145.9
				c4.3-22.6,12.3-59.2-2.8-79.4c-4.3-5.7-10.6-9.6-17.8-9.9c-7.6-0.3-13.4,5.9-18,11.3c-4.9,5.8-9.1,12.3-12,19.3
				C851.1,123.7,832.9,212,832.6,262c0,4.3,1,13.6,1,13.6c0.1,1-8.7,15.2-24.2,15.5c-8.6,0.2-19.2-6.1-21.3-8.6
				c0.5,0,3.5-3.9,3.9-4.4c1.2-1.5,2.4-2.9,3.6-4.5c6.9-9.2,12.5-19.4,17.3-29.8c13.6-29.9,19.1-62.9,27.1-94.6
				c7.3-28.9,12.2-59.7,8.8-89.5c-0.9-7.4-3.5-16.8-10.6-20.6c-12.6-6.8-25.3,4.3-31.9,13.9c-20.3,29.2-33,101-38.5,150.6
				c-2.6,23.4-2.6,47.4,2.3,66.9c0.7,2.7,3.3,12.3,3.3,12.3c0,1.2-15.9,13.7-20.2,15.6c-8.5,3.6-18,5.3-27,3.1
				c-14.8-3.6-26.8-19.9-21.7-34.3c12.3-3.1,24.3-7.9,35.4-14.2c12.4-7,25.2-19.8,21.1-33.5c-3.7-12-19.5-16.7-31.2-12.2
				c-11.7,4.5-24.7,15.3-31,26.1c-6.3,10.7-8.6,27.2-8.6,27.2s-4.2,3.7-9.3,3.9c-3.6-24.7-26.7-52.3-51.5-55.8
				c14.8-52.9,25.9-111.7,1.6-161c-4.1-8.2-11.3-18.1-21.2-19.2c-9.7-1-16.4,7-20.7,14.5c-10.4,18.2-12,41.4-14.4,61.8
				c-2.6,21.9-3.9,44-3.7,66.1c0.2,33.1,4.4,66.5-0.3,99.3c-2.3,16.1-7.1,32.1-15.1,46.4c-4.1,7.4-14.2,25.9-23.5,34
				c6.5-2.4,26.7-13.9,34.4-31c3.7,17.2,1.8,35.6-5.2,51.7c25.9-25.6,14.4-70.8,32-102.7c5.9-10.6,16.1-20,28.3-20.4
				c20.4-0.7,33.1,22.3,35.9,42.5c5,37.2-6.8,74.3-12.3,111.5c-2.7,18.2-3.1,38.9,9.3,52.4c9.6,10.5,25.7,13.9,39.2,9.7
				c13.6-4.2,24.5-15.3,29.9-28.5c-12,10-24.5,20.4-41.7,20.4c-2.3,0-4.6-0.3-6.9-1.1c-20.9-6.8-20.9-28.4-17.7-46
				c8.8-48.4,30.9-94.4,24.7-137.9c3.6,0,7.2-1,7.2-1c-2.7,19.2,12.5,42.2,34.1,44.4c19.9,2,40.1-6.2,53.6-20.8
				c0.8-0.9,2.9-3.2,2.9-3.2s13.3,11.6,30.1,11.4c15.2-0.2,29.6-15.1,29.6-15.1c-1.7,1.4,6.2,9.8,7,10.5c8.4,7,20.7,7.9,30.9,5
				c14.9-4.2,27.8-15.4,33.5-29.9c1.3-3.2,2.2-6.6,4.6-9.1c2.3-2.5,6.5-3.7,9.1-1.5c-4.5,10.6-4.1,23.5,2.5,33
				c5.8,8.4,15.7,13.4,25.8,15.3s20.4,1.3,30.6,0.7c-0.6,4-1.3,8-1.9,12.1c-24.3,3.7-48.7,7.4-72.1,15.2
				c-23.3,7.8-45.7,19.9-62.1,38.2c-16.4,18.3-30,43.1-26.7,67.5c3.2,24.4,24.7,47.3,48.7,52.9c16.4,3.8,34-0.4,48.3-9.2
				c14.3-8.8,25.6-21.9,34.4-36.2c20.5-33.1,28.9-72,36.9-110.1c41.6,2.4,81.4,26.7,102.5,62.7c-5.5-21.9-19.9-40.9-37.9-54.5
				C1035.2,335.8,1014.7,325.8,992,322.7z M999.6,265.5c1.6-5.3,3.7-10.4,7-15c2.2-3,5.6-7,9.6-7.3c6.7-0.5,8.7,10.2,8,15.1
				c-2.6,17-21.8,31.5-29.9,37.6c0,0-0.3,0.2-0.3,0.2C995.8,286.3,996.6,275.4,999.6,265.5z M939.4,243.4c2.1-1.8,6.1-2.6,7.5,0.3
				c3.8,8-10.5,8.7-11.7,7.9C935.2,251.6,937,245.5,939.4,243.4z M708.8,247.9c2.9-9.2,12-17.1,22.1-15.2c3.9,0.7,3.4,6,1.6,8
				c-6.3,7.1-17.5,12.8-26.2,16.2C707,253.3,708.6,248.7,708.8,247.9z M581.2,259.6c0.1-0.2-0.2-29.7-0.2-32
				c0.4-14.4,0.2-28.9,0.3-43.3c0.1-24.8,1.4-49.4,5.6-73.8c1.1-6.5,4.4-30,15.6-21.4c4.5,3.4,7.3,8.6,9.2,13.8
				c3.9,10.8,4.4,22.6,4.6,33.9C616.8,180.3,608.8,226,581.2,259.6z M778,266.5c-0.8-3.6-1.3-7.3-1.7-10.9
				c-2.6-29.1-0.7-58.5,3.9-87.3c4.2-26.2,8.9-54.8,22.5-78c3-5.2,11.9-14.4,17.3-6.7c3,4.2,3.2,10,3.2,15
				c0.1,38.3-33.1,165-42.8,175.4C780.6,273.8,778.1,267.2,778,266.5z M842.2,266.6c-0.8-7.5,0.2-10.5,0.5-17.7
				c0.3-7.7,1.1-15.9,2.5-23.2c4.9-25.8,14.9-89.7,23.8-114.4c3.2-8.9,9.6-24,21.6-21.6c6.4,1.3,7.6,9.9,7.1,15.8
				C892,172.8,842.3,266.6,842.2,266.6z M876.2,448.8c-22.3-3.3-22.6-23.7-16.8-40.2c9.3-26.4,34.6-45.3,59.8-55.6
				c21.2-8.6,59.3-12,59.3-12S950.8,459.9,876.2,448.8z"/>
		</g>
	</g>
	<path fill="#FFFDEE" d="M485.2,111.6c15.1,6.2,29,6.6,44.5,2.3c15.5-4.3,29.7-14.8,38.1-29.6c5.8-10.2,8.7-23.3,4.2-34.4
		c-3.7-9-11.9-15.3-20.6-17.9c-8.8-2.5-22-3.6-30.7-1.3c-21,5.6-39,18.9-48.3,40.5c-7.8-11.2-7.7-27.2-2.5-39.9s14.6-22.7,24.4-31.7
		c-13.1,7.3-25.5,16.7-33.8,29.8c-8.4,13.1-11.7,36.4-6.9,51.6c2.7,8.6,10.6,19.6,10.6,19.6s-3.6,29.9,36.3,69.4
		c22.8,22.6,35.5,67.1,25.9,99.6c-7.2,24.5-27,53.8-52.3,56.2c16-28.9,10.9-78.3-25.9-90.2c-50.6-16.4-97.2,44.6-62.8,97.5
		c11.1,17.1,38.5,27.6,55,27.5c-23.3,47.8-96.8,35.3-116,25.9c91.2,53.7,138.4-24,138.4-24c21.4-0.1,42.8-9,59.4-23.2
		c19.1-16.3,33.1-44.1,37.4-73.8c4.3-29.7-1.3-60.9-14.8-83C527.4,154.3,499.7,142.1,485.2,111.6z M492.2,71.4
		c9.1-11.7,22.4-18.3,34.4-19.8c6.7-0.8,15,0.1,19.6,5.1c0.6,0.6,1,1.2,1.5,2c1.7,2.8,2.4,6.7,1.5,10.6c-1.1,4.6-4.1,8.7-7.5,11.8
		c-4.9,4.4-10.8,7.4-16.4,9.4c-14.9,5.4-31.1,1.3-39.6-7.3C484.5,82.1,491.4,72.5,492.2,71.4z M458.2,290.7c0.7,21.2-7.5,38-7.5,38
		c-12-0.1-23.1-1.5-32-6.5c-19.7-11.1-17.8-50.7,4.6-58.3c8.7-3,19.8-1.4,26.9,5.4C455.7,274.6,457.9,283,458.2,290.7z"/>
	<path fill="#FFFDEE" d="M1003.1,571.6c-0.2-0.9,40.1-33.1,49-68.5c5.2-20.7,6.2-43,0.7-63.9c-3.9-14.8-12.9-28.3-28.2-32.9
		c-10-3-21.1,1.4-28.5,8.8c-8.3,8.3-12.6,19.8-15.6,31.1c-9.3,34.5-8.8,71.6,1.4,105.9c0.7,2.5,2.2,6.6,2.3,6.7c1,2.7-6.2,10.3-8,12
		c-5.2,5.2-12.2,9.6-19.7,10.5c-16.7,2.1-26.4-13.1-26.5-28.1c0-19.9,17.6-34.3,37.2-32.7c-7.7-9.4-22.2-9.8-33.5-5.4
		c-14.2,5.6-25.7,17.7-30.4,32.2c-4.9,15-5.5,29.6,5.9,41.7c25.1,26.7,65.7,17,85.1-9.8c1.6-2.2,8.4,28.3,47.4,57.3
		C1009.8,599.1,1003.1,571.6,1003.1,571.6z M995.2,553.2c-5-17.4-9.2-33.6-7.5-52c1.1-11.8,2.7-23.9,8.8-34.3
		c4.2-7.2,11.6-15.6,21-13.5c15.9,3.6,14.1,36.4,11.1,45.6C1016.8,534,995.2,553.2,995.2,553.2z"/>
	<path fill="#FFFDEE" d="M835.9,618.3l2.6-14c13.3-2.8,46.6-21.7,56.3-54.1c4-13.3-2-30.5-15.4-34.4c-9.1-2.6-20.4,1.2-27.5,7.2
		c-10.2,8.5-16.9,24.3-19.4,37.1c-1.7,8.6-4.2,32.9-4.2,32.9c-0.8,1-9.8,1.7-13.4,1.7c-6.5,0-13.2-1.2-19.5-2.4
		c-27.1-5.2-17.8-34.6-17.7-34.6c0,0,29.8,3.1,31.4-20.9c0.8-12.3-15.9-16.8-24-11.9c-4.2,2.5-7.2,7-9.6,11.3
		c-3.5,6.5-3.7,9.2-3.7,9.2s-10.4,1.7-16.5-4.6c-8-18.4-25.7-31.8-47-33.2c-30.4-2-56.7,21-58.7,51.4c-2,30.4,21,56.7,51.4,58.7
		c30.4,2,56.7-21,58.7-51.4c0.2-3.5,0.1-6.9-0.3-10.2c3.5-2,6.9-3,9.8-0.6c0,0.1-1.6,5-1.6,5.1C755.4,614,827.3,606,827.3,606
		l-2.1,12.3c-31.2,0.6-73,10.5-100.8,24.9c-27.8,14.4-52,38.9-58.4,69.5c-6.4,30.6,9.7,66.5,39.5,75.9c21.3,6.7,45.2-1,62.5-15
		c17.3-14.1,29.1-33.8,39-53.8c12.1-24.5,25.1-83,25.1-83s58.8-3,101.4,64.6C916.9,634.3,835.9,618.3,835.9,618.3z M844.8,560.9
		c1.7-5.3,4-10.3,7.3-14.8c2.2-3,5.8-6.8,9.7-7c8-0.4,7.5,8.9,6.7,14.5c-1.5,9.7-6.3,17.4-12.6,24.8c-2.4,2.8-5,5.5-8,7.8
		c-2.7,2.1-6.1,3.9-9.1,5.2c-0.1,0-0.3,0.2-0.3,0.2C840.5,581.7,841.6,570.8,844.8,560.9z M785.1,537.5c2.1-1.7,6.2-2.4,7.5,0.5
		c3.6,8.1-10.7,8.5-11.9,7.6C780.8,545.7,782.7,539.5,785.1,537.5z M714.5,589.5c-17.4-1.2-30.5-16.2-29.4-33.6
		c1.2-17.4,16.2-30.5,33.5-29.4c17.4,1.2,30.5,16.2,29.4,33.5C746.9,577.5,731.9,590.6,714.5,589.5z M717.3,741.4
		c-22.2-3.8-22.1-24.2-15.9-40.6c9.9-26.2,35.6-44.5,61-54.2c21.4-8.1,59.5-10.7,59.5-10.7S791.7,754.2,717.3,741.4z"/>
	<path fill="#FFFDEE" d="M575.8,455.2c20.3-16,25.3-43.4,7.4-62.6c-14.3-15.3-39-21-60.1-19.1c-12.8,1.2-31.4,6.5-42.8,20.9
		c20.4-9.1,47.1-14.1,64.9-1.5c27.8,19.6,9.6,52.3-13.2,61.7c-3.7,1.5-7.4,3.2-11.3,4.3c-1.1-18.2-4.5-33.9-4.5-33.9
		s-4.9,15.9-5.3,35.9c-5.3,1.4-11.9,2.6-15.2,3.6c-1.1,0.3-2.9,0.9-8.4,1.8c11.8,0.6,17.4,0.2,23.5,0.9c-0.8,15.1,5.6,32.5,5.4,33.4
		c0,0,4.5-14.9,4.1-32.5c41.2,8.4,80.9,44.1,71,84.9c-10.9,45-72.4,72-111.5,43.7c11.3-8,20.3-22.3,18.7-35.2
		c-1.2-10.7-7.6-19.8-19.6-21.5c-11.9-1.7-24.9,1.7-30.8,12.2c-3.9,6.9-5,15.2-3.2,22.8c2.1,8.6,8.3,16.1,13.8,23.2
		c-14.7,12.3-31.2,19.5-58,2.8c39.3,31.4,60.2,8.7,65.5,5.1c6.2,5.7,13.7,10.6,20.7,13.5c7.3,3,15,5.7,22.8,7.6
		c15.2,3.7,31.7,3.6,47.1,0.8c14.2-2.6,27.8-7.6,39.8-14.9c12.9-7.9,23.6-17.4,31.4-27.7c4.1-5.4,7.7-11,10.6-16.9
		C660.9,524,642.7,463.2,575.8,455.2z M470.4,588.1c-9.8-6.4-17.1-31.1,0.4-33.3c10.3-1.3,13.9,7.1,12.4,14.7
		C481.6,576.6,476.9,583.9,470.4,588.1z"/>
</g>
</svg>
