<?xml version="1.0" encoding="utf-8"?>
<!-- Generator: Adobe Illustrator 18.1.1, SVG Export Plug-In . SVG Version: 6.00 Build 0)  -->
<!DOCTYPE svg PUBLIC "-//W3C//DTD SVG 1.1//EN" "http://www.w3.org/Graphics/SVG/1.1/DTD/svg11.dtd">
<svg version="1.1" xmlns="http://www.w3.org/2000/svg" xmlns:xlink="http://www.w3.org/1999/xlink" x="0px" y="0px"
	 viewBox="0 0 360 360" enable-background="new 0 0 360 360" xml:space="preserve">
<g id="Layer_1">
	<rect fill="#D5E2E1" width="360" height="360"/>
	<g>
		
			<image overflow="visible" opacity="0.2" width="1625" height="1129" xlink:href="23DD4AFE2136A7B9.png"  transform="matrix(0.24 0 0 0.24 -386.0211 -30.9169)">
		</image>
		<g>
			
				<image overflow="visible" width="2394" height="1603" xlink:href="../../lotlocator/3.png"  transform="matrix(0.1885 -8.815577e-03 8.815577e-03 0.1885 -436.3266 -38.8568)">
			</image>
		</g>
	</g>
	<g>
		
			<image overflow="visible" opacity="0.2" width="1626" height="1128" xlink:href="23DD4AFE2136A7BE.png"  transform="matrix(0.24 0 0 0.24 16.3613 -29.0264)">
		</image>
		<g>
			
				<image overflow="visible" width="2394" height="1603" xlink:href="../../lotlocator/5.png"  transform="matrix(0.1885 -9.267323e-03 9.267323e-03 0.1885 -34.1536 -36.4748)">
			</image>
		</g>
	</g>
	<g>
		
			<image overflow="visible" opacity="0.2" width="1602" height="1152" xlink:href="23DD4AFE2136A7BA.png"  transform="matrix(0.24 0 0 0.24 -48.945 127.7816)">
		</image>
		<g>
			
				<image overflow="visible" width="2394" height="1603" xlink:href="../../lotlocator/6.png"  transform="matrix(0.1887 2.837918e-03 -2.837918e-03 0.1887 -93.6583 107.3212)">
			</image>
		</g>
	</g>
</g>
<g id="Isolation_Mode">
	<g>
		<defs>
			<rect id="SVGID_203_" x="0" y="-398" width="360" height="360"/>
		</defs>
		<clipPath id="SVGID_2_">
			<use xlink:href="#SVGID_203_"  overflow="visible"/>
		</clipPath>
		<g clip-path="url(#SVGID_2_)">
			<g>
				<defs>
					<rect id="SVGID_205_" x="-2383.9" y="-456" width="2880.3" height="1924.1"/>
				</defs>
				<clipPath id="SVGID_4_">
					<use xlink:href="#SVGID_205_"  overflow="visible"/>
				</clipPath>
				<rect x="-2360.9" y="-435.7" clip-path="url(#SVGID_4_)" fill="#8DC63F" width="2833" height="1881"/>
				<polygon clip-path="url(#SVGID_4_)" fill="#83A656" points="-932.3,-435.7 -1618.3,-24.6 -2121.2,290.5 -1578.6,611.4 
					-1080.5,317.7 123.7,1016.3 472.1,810.7 472.1,-435.7 				"/>
				<g clip-path="url(#SVGID_4_)">
					<defs>
						<rect id="SVGID_207_" x="-2360.9" y="-435.7" width="2833" height="1881"/>
					</defs>
					<clipPath id="SVGID_6_">
						<use xlink:href="#SVGID_207_"  overflow="visible"/>
					</clipPath>
				</g>
				<g clip-path="url(#SVGID_4_)">
					<defs>
						<rect id="SVGID_212_" x="-2360.9" y="-435.7" width="2833" height="1881"/>
					</defs>
					<clipPath id="SVGID_8_">
						<use xlink:href="#SVGID_212_"  overflow="visible"/>
					</clipPath>
				</g>
				<g clip-path="url(#SVGID_4_)">
					<defs>
						<rect id="SVGID_217_" x="-2360.9" y="-435.7" width="2833" height="1881"/>
					</defs>
					<clipPath id="SVGID_10_">
						<use xlink:href="#SVGID_217_"  overflow="visible"/>
					</clipPath>
				</g>
				<g clip-path="url(#SVGID_4_)">
					<defs>
						<rect id="SVGID_222_" x="-2360.9" y="-435.7" width="2833" height="1881"/>
					</defs>
					<clipPath id="SVGID_12_">
						<use xlink:href="#SVGID_222_"  overflow="visible"/>
					</clipPath>
				</g>
				<g clip-path="url(#SVGID_4_)">
					<defs>
						<rect id="SVGID_227_" x="-2360.9" y="-435.7" width="2833" height="1881"/>
					</defs>
					<clipPath id="SVGID_14_">
						<use xlink:href="#SVGID_227_"  overflow="visible"/>
					</clipPath>
				</g>
				<g clip-path="url(#SVGID_4_)">
					<defs>
						<rect id="SVGID_232_" x="-2360.9" y="-435.7" width="2833" height="1881"/>
					</defs>
					<clipPath id="SVGID_15_">
						<use xlink:href="#SVGID_232_"  overflow="visible"/>
					</clipPath>
				</g>
				<g clip-path="url(#SVGID_4_)">
					<defs>
						<rect id="SVGID_237_" x="-2360.9" y="-435.7" width="2833" height="1881"/>
					</defs>
					<clipPath id="SVGID_17_">
						<use xlink:href="#SVGID_237_"  overflow="visible"/>
					</clipPath>
				</g>
				<g clip-path="url(#SVGID_4_)">
					<defs>
						<rect id="SVGID_242_" x="-2360.9" y="-435.7" width="2833" height="1881"/>
					</defs>
					<clipPath id="SVGID_19_">
						<use xlink:href="#SVGID_242_"  overflow="visible"/>
					</clipPath>
				</g>
				<g clip-path="url(#SVGID_4_)">
					<defs>
						<rect id="SVGID_247_" x="-2360.9" y="-435.7" width="2833" height="1881"/>
					</defs>
					<clipPath id="SVGID_20_">
						<use xlink:href="#SVGID_247_"  overflow="visible"/>
					</clipPath>
					<polygon clip-path="url(#SVGID_20_)" fill="#BCBEBF" points="320.7,460.1 -58.9,684.6 -58.9,425.7 320.7,209.8 					"/>
					<polygon clip-path="url(#SVGID_20_)" fill="#2E2D2D" points="262.3,350 208.5,381.8 208.5,318.2 262.3,286.4 					"/>
				</g>
				<g clip-path="url(#SVGID_4_)">
					<defs>
						<rect id="SVGID_252_" x="-2360.9" y="-435.7" width="2833" height="1881"/>
					</defs>
					<clipPath id="SVGID_22_">
						<use xlink:href="#SVGID_252_"  overflow="visible"/>
					</clipPath>
				</g>
				<g clip-path="url(#SVGID_4_)">
					<defs>
						<rect id="SVGID_257_" x="-2360.9" y="-435.7" width="2833" height="1881"/>
					</defs>
					<clipPath id="SVGID_24_">
						<use xlink:href="#SVGID_257_"  overflow="visible"/>
					</clipPath>
					<polygon clip-path="url(#SVGID_24_)" fill="#EAE9E8" points="272.8,353 198.6,397.5 198.6,386.4 272.8,341.9 					"/>
					<polygon clip-path="url(#SVGID_24_)" fill="#B6B3B3" points="252.1,354.1 262.5,348.1 262.5,286.3 252.1,292.4 					"/>
					<polygon clip-path="url(#SVGID_24_)" fill="#EAE9E8" points="272.8,280.2 198.6,324 198.6,312.7 272.8,269.1 					"/>
					<polygon clip-path="url(#SVGID_24_)" fill="#EAE9E8" points="198.6,387.6 208.5,381.8 208.5,318.2 198.6,324 					"/>
					<polygon clip-path="url(#SVGID_24_)" fill="#EAE9E8" points="262.5,349.9 272.8,343.8 272.8,280.2 262.5,286.3 					"/>
					<polygon clip-path="url(#SVGID_24_)" fill="#CECCCC" points="198.6,312.7 195.7,311 269.8,267.3 272.8,269.1 					"/>
					<polygon clip-path="url(#SVGID_24_)" fill="#B6B3B3" points="198.6,397.5 195.7,395.8 195.7,311 198.6,312.7 					"/>
					<polygon clip-path="url(#SVGID_24_)" fill="#808285" points="262.5,348.1 208.5,380.5 208.5,371.8 252.1,345.2 					"/>
					<polygon clip-path="url(#SVGID_24_)" fill="#B62025" points="333.1,210.9 -46.5,435.4 -329.7,266.3 49.9,41.8 					"/>
					<polygon clip-path="url(#SVGID_24_)" fill="#B62025" points="-329.6,266.4 -586.8,-140.3 -203.4,-357.4 49.9,41.8 					"/>
					<polygon clip-path="url(#SVGID_24_)" fill="#EDEDED" points="320.7,258.3 303.4,268.5 303.4,249.4 320.7,239.1 					"/>
					<polygon clip-path="url(#SVGID_24_)" fill="#B52E37" points="61.2,372.4 58.5,374 -223.5,203.6 -221.2,202.2 					"/>
					<polygon clip-path="url(#SVGID_24_)" fill="#A81E2A" points="62.5,371.6 61.2,372.4 -221.2,202.2 -220.1,201.5 					"/>
					<polygon clip-path="url(#SVGID_24_)" fill="#B52E37" points="98.8,350.1 96.1,351.7 -186,181.3 -183.7,179.9 					"/>
					<polygon clip-path="url(#SVGID_24_)" fill="#A81E2A" points="100.1,349.4 98.8,350.1 -183.7,179.9 -182.5,179.3 					"/>
					<polygon clip-path="url(#SVGID_24_)" fill="#B52E37" points="137.5,327.2 134.9,328.8 -147.3,158.4 -145.1,156.9 					"/>
					<polygon clip-path="url(#SVGID_24_)" fill="#A81E2A" points="138.9,326.4 137.5,327.2 -145.1,156.9 -144,156.4 					"/>
					<polygon clip-path="url(#SVGID_24_)" fill="#B52E37" points="171,307.4 168.3,309 -113.8,138.6 -111.5,137.2 					"/>
					<polygon clip-path="url(#SVGID_24_)" fill="#A81E2A" points="172.3,306.7 171,307.4 -111.5,137.2 -110.3,136.5 					"/>
					<polygon clip-path="url(#SVGID_24_)" fill="#B52E37" points="206.8,286.4 204.2,287.9 -78,117.5 -75.7,116.1 					"/>
					<polygon clip-path="url(#SVGID_24_)" fill="#A81E2A" points="208.2,285.6 206.8,286.4 -75.7,116.1 -74.5,115.4 					"/>
					<polygon clip-path="url(#SVGID_24_)" fill="#B52E37" points="237.3,268.3 234.6,269.9 -47.6,99.5 -45.2,98.1 					"/>
					<polygon clip-path="url(#SVGID_24_)" fill="#A81E2A" points="238.6,267.5 237.3,268.3 -45.2,98.1 -44.1,97.4 					"/>
					<polygon clip-path="url(#SVGID_24_)" fill="#B52E37" points="272.2,247.6 269.6,249.1 -12.5,78.7 -10.3,77.4 					"/>
					<polygon clip-path="url(#SVGID_24_)" fill="#A81E2A" points="273.6,246.8 272.2,247.6 -10.3,77.4 -8.9,76.6 					"/>
					<polygon clip-path="url(#SVGID_24_)" fill="#B52E37" points="298.9,231.9 296.2,233.5 14.2,63 16.4,61.7 					"/>
					<polygon clip-path="url(#SVGID_24_)" fill="#A81E2A" points="300.2,231.1 298.9,231.9 16.4,61.7 17.5,61 					"/>
					<polygon clip-path="url(#SVGID_24_)" fill="#B52E37" points="28.1,391.9 25.4,393.5 -256.6,223.2 -254.3,221.8 					"/>
					<polygon clip-path="url(#SVGID_24_)" fill="#A81E2A" points="29.4,391.2 28.1,391.9 -254.3,221.8 -253.1,221.1 					"/>
					<polygon clip-path="url(#SVGID_24_)" fill="#B52E37" points="16.4,61.6 14.1,63 -240.9,-336.1 -238.5,-337.5 					"/>
					<polygon clip-path="url(#SVGID_24_)" fill="#A81E2A" points="17.5,61 16.4,61.6 -238.5,-337.5 -237.3,-338.2 					"/>
				</g>
				<g clip-path="url(#SVGID_4_)">
					<defs>
						<rect id="SVGID_268_" x="-2360.9" y="-435.7" width="2833" height="1881"/>
					</defs>
					<clipPath id="SVGID_25_">
						<use xlink:href="#SVGID_268_"  overflow="visible"/>
					</clipPath>
				</g>
			</g>
		</g>
	</g>
</g>
</svg>
