<?xml version="1.0" encoding="utf-8"?>
<!-- Generator: Adobe Illustrator 18.1.1, SVG Export Plug-In . SVG Version: 6.00 Build 0)  -->
<!DOCTYPE svg PUBLIC "-//W3C//DTD SVG 1.1//EN" "http://www.w3.org/Graphics/SVG/1.1/DTD/svg11.dtd">
<svg version="1.1" xmlns="http://www.w3.org/2000/svg" xmlns:xlink="http://www.w3.org/1999/xlink" x="0px" y="0px"
	 viewBox="0 0 360 360" enable-background="new 0 0 360 360" xml:space="preserve">
<g id="Layer_1">
	<rect fill="#FFFFFF" width="360" height="360"/>
	<g>
		
			<image overflow="visible" opacity="0.2" width="1608" height="1146" xlink:href="23E5B60ADB44FC00.png"  transform="matrix(0.24 0 0 0.24 -55.7042 -259.7954)">
		</image>
		<g>
			
				<image overflow="visible" width="2394" height="1603" xlink:href="../../lotlocator/2.png"  transform="matrix(0.1887 0 0 0.1887 -101.8305 -277.291)">
			</image>
		</g>
	</g>
	<g>
		
			<image overflow="visible" opacity="0.2" width="1608" height="1146" xlink:href="23E5B60ADB44FC07.png"  transform="matrix(0.24 0 0 0.24 348.3007 -261.0721)">
		</image>
		<g>
			
				<image overflow="visible" width="2394" height="1603" xlink:href="../../lotlocator/4.png"  transform="matrix(0.1887 0 0 0.1887 302.1743 -278.5677)">
			</image>
		</g>
	</g>
	<g>
		<polygon fill="#72D54A" points="123.4,187.9 123.4,179.6 123.4,179.6 128.5,179.6 133.2,179.6 133.2,182.7 133.2,182.7 
			130.3,182.7 127.2,182.7 127.2,187.6 130.5,187.6 132.6,187.6 132.6,187.6 132.6,189.2 132.6,190.8 132.6,190.8 130.5,190.8 
			127.2,190.8 127.2,195.6 127.2,196 131.5,196 133.4,196 133.4,196 133.4,199.1 128.8,199.1 123.4,199.1 123.4,199.1 123.4,190.4 
					"/>
		<polygon fill="#72D54A" points="24.1,202.2 21.5,202.2 15,202.2 15,205.7 15.2,205.7 16.8,205.7 20.8,205.7 20.8,214.3 20.8,224 
			20.8,224.1 22.9,224.1 24.9,224.1 24.9,224 24.9,214.3 24.9,205.7 29,205.7 30.7,205.7 30.8,205.7 30.8,202.2 		"/>
		<g>
			<defs>
				<rect id="SVGID_189_" x="15" y="40.9" width="152.5" height="183.6"/>
			</defs>
			<clipPath id="SVGID_2_">
				<use xlink:href="#SVGID_189_"  overflow="visible"/>
			</clipPath>
			<path clip-path="url(#SVGID_2_)" fill="#72D54A" d="M33.2,219.8c-1.1,2.8-1.6,4.1-1.7,4.2v0.1h-2h-2.2V224
				c0.1-0.2,0.6-1.4,4.2-9.8l5.2-12.5h0.6l5.2,12.5c3.5,8.4,4,9.6,4,9.8v0.1h-2.1h-2.4V224c-0.1-0.2-0.5-1.4-1.6-4.2H33.2z
				 M39,216.4L39,216.4c-1.6-4.2-2-5.4-2.2-6.3h0c-0.2,0.9-0.7,2.1-2.3,6.2v0.1H39z"/>
			<path clip-path="url(#SVGID_2_)" fill="#72D54A" d="M45.5,213c0-6.5,4.7-11.2,12.3-11.2c0.8,0,1.4,0.1,1.9,0.1
				c0.6,0.1,1.3,0.2,1.7,0.3c-0.1,1.2-0.1,2.3-0.1,3.8h-0.1c-0.3-0.1-0.7-0.1-1.1-0.2c-0.6-0.1-1.4-0.2-2.2-0.2c-4.9,0-8,2.9-8,7.5
				c0,4.5,3,7.6,7.6,7.6c0.9,0,1.7,0,2.5-0.2c0.4-0.1,0.8-0.2,1.2-0.3h0.1c0,0.8,0.1,2.9,0.1,3.7c-0.4,0.1-1.2,0.3-1.8,0.4
				c-1,0.1-1.7,0.2-2.6,0.2C50.6,224.4,45.5,220.1,45.5,213L45.5,213z"/>
			<path clip-path="url(#SVGID_2_)" fill="#72D54A" d="M63.7,211.4v-9.2v-0.1h2.1h2v0.1v7.6v1.5h0.1l3.8-5c2.1-2.7,2.8-3.7,3-4v-0.1
				h2.4h2.5v0.1c-0.2,0.2-1.2,1.5-3.5,4.3l-4.8,5.9l5.2,6.3c3.3,4,4.1,5,4.4,5.3v0.1h-2.6h-2.6v0c-0.2-0.2-1.2-1.5-4-5.1l-3.8-4.8
				h-0.1v2v7.8v0.1h-2h-2.1V224v-9.8V211.4z"/>
			<path clip-path="url(#SVGID_2_)" fill="#72D54A" d="M82.4,211.4v-9.2v-0.1h2.1h2v0.1v9.2v2.8v6.1c0,0.1,0,0.2,0.1,0.2h4.5h1.2
				h0.8h0.1v3.6h-5h-5.8V224v-9.7V211.4z"/>
		</g>
		<polygon fill="#72D54A" points="100.9,202.2 95.4,202.2 95.4,202.2 95.4,211.4 95.4,214.3 95.4,224 95.4,224.1 101.3,224.1 
			106.3,224.1 106.3,220.5 106.2,220.5 104.2,220.5 99.5,220.5 99.5,220.1 99.5,214.7 103.1,214.7 105.4,214.7 105.4,214.7 
			105.4,212.9 105.4,211.2 105.4,211.2 103.1,211.2 99.5,211.2 99.5,205.7 102.9,205.7 106,205.7 106.1,205.7 106.1,202.2 		"/>
		<g>
			<defs>
				<rect id="SVGID_191_" x="15" y="40.9" width="152.5" height="183.6"/>
			</defs>
			<clipPath id="SVGID_4_">
				<use xlink:href="#SVGID_191_"  overflow="visible"/>
			</clipPath>
			<path clip-path="url(#SVGID_4_)" fill="#855D31" d="M36.5,65.9c-3.6,3.1-6.9,7.7-9.3,11.9c-2.5,4.5-4,9.8-3,14.9
				c0.9,4.9,4.6,9.6,9.6,10c3.3,0.2,6.7-1.7,8.2-4.7c1.5-3,1.2-6.8-0.7-9.5c-0.8-1.2-1.9-2.1-2.8-3.2c-2.1-2.7-3-6.2-3.1-9.6
				C35.3,72.3,36.4,69.1,36.5,65.9"/>
			<path clip-path="url(#SVGID_4_)" fill="#855D31" d="M62.1,50.6c-3.6,3.1-6.9,7.7-9.3,11.9c-2.5,4.5-4,9.8-3,14.9
				c0.9,4.9,4.6,9.6,9.6,10c3.3,0.2,6.7-1.7,8.2-4.7c1.5-2.9,1.2-6.8-0.7-9.5C66,72.1,65,71.1,64.1,70c-2.1-2.7-3-6.2-3.1-9.6
				C60.9,57,62,53.8,62.1,50.6"/>
			<path clip-path="url(#SVGID_4_)" fill="#855D31" d="M95,40.9C91.1,43.7,87.5,48,84.8,52c-2.9,4.3-4.8,9.4-4.3,14.6
				c0.5,4.9,3.8,10,8.7,10.7c3.3,0.5,6.8-1.1,8.6-3.9c1.8-2.8,1.8-6.6,0.1-9.5c-0.7-1.2-1.7-2.3-2.5-3.5c-1.9-2.9-2.5-6.4-2.2-9.9
				C93.3,47.2,94.7,44.1,95,40.9"/>
			<path clip-path="url(#SVGID_4_)" fill="#855D31" d="M17.3,133.3c0,0,0.2-0.7,0.5-2c0.1-0.7,0.4-1.4,0.7-2.4
				c0.1-0.2,0.2-0.5,0.2-0.7c0.1-0.2,0.2-0.5,0.3-0.8c0.2-0.5,0.4-1.1,0.7-1.7c1-2.3,2.5-5,4.7-7.9c2.2-2.8,5-5.8,8.6-8.4
				c0.2-0.2,0.4-0.3,0.7-0.5c0.2-0.2,0.5-0.3,0.7-0.5c0.5-0.3,1-0.6,1.4-0.9c0.2-0.2,0.5-0.3,0.8-0.5c0.3-0.1,0.5-0.3,0.8-0.4
				c0.3-0.1,0.5-0.3,0.8-0.4c0.3-0.1,0.5-0.3,0.8-0.4c1.1-0.5,2.2-1.1,3.4-1.5c0.3-0.1,0.6-0.2,0.9-0.3c0.3-0.1,0.6-0.2,0.9-0.3
				c0.6-0.2,1.2-0.4,1.8-0.6l0.5-0.1l0.5-0.1c0.3-0.1,0.6-0.2,0.9-0.2c0.6-0.2,1.3-0.3,1.9-0.4c1.2-0.3,2.4-0.6,3.6-0.9
				c2.3-0.6,4.4-1.3,6.2-2.5l0.3-0.2l0.1-0.1c0,0,0.1,0,0,0l0.1,0l0.2-0.1l0.4-0.3c0.1-0.1,0.2-0.2,0.4-0.3l0.3-0.3l0.4-0.3l0.7-0.6
				c1-0.8,2-1.6,3.1-2.5c1.1-0.9,2.3-1.8,3.6-2.6c0.6-0.4,1.3-0.8,2-1.2c0.2-0.1,0.4-0.2,0.5-0.3l0.3-0.1l0.1-0.1l0.1,0l0.2-0.1
				l0.9-0.4c5.7-2.5,11.9-3.5,18-3.4c6.1,0.2,12.3,1.5,17.9,4.4c0.1,0,0.2,0.1,0.3,0.2l0.3,0.2l0.3,0.2c0.1,0.1,0.2,0.1,0.3,0.2
				c0.3,0.2,0.7,0.5,1,0.7l0.5,0.4l0.5,0.4c0.3,0.2,0.6,0.5,0.9,0.7c1.1,1,2.1,2,3.1,2.8c0.9,0.9,1.8,1.6,2.7,2.3l0.2,0.1l0.1,0.1
				c0,0,0.1,0.1-0.1,0l0.1,0l0.4,0.3c0.3,0.2,0.6,0.4,0.8,0.4l0.3,0.2c0.1,0.1,0.2,0.1,0.3,0.2c0.2,0.1,0.5,0.2,0.7,0.3
				c1,0.4,2,0.7,3.2,0.9c1.1,0.2,2.3,0.4,3.6,0.6c1.3,0.2,2.6,0.4,3.9,0.6c0.3,0.1,0.7,0.1,1,0.2c0.3,0.1,0.7,0.2,1,0.2
				c0.3,0.1,0.7,0.2,1,0.3l0.5,0.1l0.1,0l0.1,0l0.1,0l0.2,0.1c2.4,0.8,4.7,1.8,6.9,2.9c1.1,0.6,2.1,1.1,3.1,1.7
				c0.2,0.2,0.5,0.3,0.7,0.5c0.3,0.2,0.5,0.3,0.8,0.5c0.4,0.3,0.9,0.6,1.3,0.9c0.2,0.1,0.4,0.3,0.7,0.5c0.2,0.2,0.4,0.3,0.7,0.5
				c0.5,0.3,0.9,0.7,1.3,1c0.4,0.3,0.8,0.7,1.2,1c0.4,0.4,0.8,0.7,1.1,1.1c0.3,0.4,0.7,0.7,1,1.1s0.7,0.7,1,1.1
				c0.2,0.2,0.3,0.4,0.5,0.5c0.1,0.2,0.3,0.4,0.4,0.5c0.3,0.4,0.6,0.7,0.8,1.1c2.1,2.9,3.6,5.6,4.6,7.9c0.3,0.6,0.5,1.1,0.7,1.6
				c0.1,0.3,0.2,0.5,0.3,0.8c0.1,0.2,0.2,0.5,0.2,0.7c0.1,0.2,0.2,0.5,0.2,0.7c0.1,0.2,0.1,0.4,0.2,0.6c0.1,0.4,0.2,0.8,0.3,1.1
				c0.2,0.6,0.3,1.1,0.3,1.5c0.1,0.3,0.1,0.5,0.1,0.5s-0.3-0.6-0.9-1.8c-0.6-1.2-1.5-2.9-2.9-4.9c-1.4-2-3.2-4.3-5.6-6.6
				c-1.2-1.1-2.5-2.3-4-3.4c-0.4-0.3-0.8-0.5-1.1-0.8c-0.4-0.3-0.8-0.5-1.2-0.8c-0.4-0.3-0.8-0.5-1.2-0.8c-0.2-0.1-0.4-0.2-0.6-0.4
				c-0.2-0.1-0.4-0.2-0.6-0.4c-0.5-0.2-0.9-0.5-1.4-0.8c0,0,0.1,0,0,0l0,0l-0.1,0l-0.2-0.1l-0.3-0.2c-0.2-0.1-0.5-0.2-0.7-0.3
				c-0.9-0.4-1.9-0.9-2.9-1.3c-2-0.8-4.1-1.5-6.3-2l-0.2-0.1l-0.1,0c0,0,0,0,0,0l-0.1,0l-0.4-0.1c-0.3-0.1-0.5-0.1-0.8-0.2
				c-0.3,0-0.5-0.1-0.8-0.1c-0.3,0-0.6-0.1-0.8-0.1c-1.1-0.1-2.3-0.2-3.6-0.3c-1.3-0.1-2.6-0.2-4-0.4c-1.4-0.2-2.9-0.5-4.4-1
				c-0.4-0.1-0.7-0.3-1.1-0.4c-0.2-0.1-0.4-0.2-0.6-0.3l-0.6-0.3c-0.5-0.2-0.7-0.3-1-0.5l-0.4-0.2l-0.1,0l-0.2-0.1l-0.1-0.1
				l-0.3-0.2c-1.4-0.9-2.5-1.8-3.6-2.7c-1.1-0.9-2.1-1.8-3-2.6c-0.2-0.2-0.5-0.4-0.7-0.6l-0.3-0.3l-0.3-0.2
				c-0.2-0.2-0.5-0.3-0.7-0.4c-0.1,0-0.1-0.1-0.2-0.1l-0.1-0.1l-0.1-0.1c0,0-0.1-0.1-0.2-0.1L105,97l-0.1-0.1l-0.1,0
				c-0.1-0.1,0.1,0,0,0l-0.2-0.1l-0.8-0.4c-0.6-0.3-1.2-0.4-1.7-0.6c-0.6-0.2-1.2-0.4-1.8-0.5c-0.6-0.2-1.2-0.3-1.8-0.5
				c-2.5-0.6-5-0.9-7.6-0.9c-2.6-0.1-5.1,0.1-7.6,0.5l-0.9,0.2l-0.9,0.2L80.5,95c-0.3,0.1-0.6,0.2-0.9,0.2l-0.9,0.2
				c-0.3,0.1-0.5,0.2-0.8,0.3l-0.8,0.3c-0.3,0.1-0.6,0.3-1,0.4l-1,0.4l-0.7,0.3c-0.5,0.3-1,0.5-1.5,0.8c-1,0.6-2.1,1.3-3.1,2.1
				c-1.1,0.8-2.1,1.6-3.3,2.4c-0.3,0.2-0.6,0.4-0.9,0.6l-0.4,0.3l-0.5,0.3c-0.2,0.1-0.3,0.2-0.5,0.3l-0.4,0.3l-0.2,0.1l-0.1,0
				c-0.1,0.1-0.1,0-0.1,0.1l-0.1,0.1l-0.5,0.3c-1.4,0.8-2.8,1.3-4.2,1.8c-1.4,0.4-2.8,0.7-4.1,1c-1.3,0.2-2.6,0.4-3.8,0.6
				c-0.6,0.1-1.2,0.2-1.8,0.3c-0.3,0-0.6,0.1-0.9,0.2l-0.4,0.1l-0.4,0.1c-0.5,0.1-1.1,0.2-1.6,0.4c-0.3,0.1-0.5,0.1-0.8,0.2
				c-0.3,0.1-0.5,0.2-0.8,0.2c-1.1,0.3-2.1,0.7-3.1,1c-0.3,0.1-0.5,0.2-0.7,0.3c-0.2,0.1-0.5,0.2-0.7,0.3c-0.2,0.1-0.5,0.2-0.7,0.3
				c-0.2,0.1-0.5,0.2-0.7,0.3c-0.5,0.2-0.9,0.5-1.4,0.7c-0.2,0.1-0.5,0.2-0.7,0.3c-0.2,0.1-0.4,0.3-0.7,0.4c-3.5,2-6.4,4.3-8.8,6.6
				c-2.4,2.3-4.2,4.6-5.6,6.6c-1.3,2-2.3,3.7-2.9,4.9C17.6,132.6,17.3,133.3,17.3,133.3"/>
			<path clip-path="url(#SVGID_4_)" fill="#855D31" d="M143.1,65.2c3.6,3.1,6.9,7.7,9.3,11.9c2.5,4.5,4,9.8,3,14.9
				c-0.9,4.9-4.6,9.6-9.6,10c-3.3,0.2-6.7-1.7-8.2-4.7c-1.5-2.9-1.2-6.8,0.7-9.5c0.8-1.2,1.9-2.1,2.8-3.2c2.1-2.7,3-6.2,3.1-9.6
				C144.3,71.6,143.2,68.4,143.1,65.2"/>
			<path clip-path="url(#SVGID_4_)" fill="#855D31" d="M118.4,50.2c3.6,3.1,6.9,7.7,9.3,11.9c2.5,4.5,4,9.8,3,14.9
				c-0.9,4.9-4.6,9.6-9.6,10c-3.3,0.2-6.7-1.7-8.2-4.7c-1.5-3-1.2-6.8,0.7-9.5c0.8-1.2,1.9-2.1,2.8-3.2c2.1-2.7,3-6.2,3.1-9.6
				C119.5,56.6,118.4,53.4,118.4,50.2"/>
			<path clip-path="url(#SVGID_4_)" fill="#72D54A" d="M26.6,193.5c0,2-1.2,3.6-2.7,4.5c-1.3,0.7-2.8,1.1-5.7,1.1
				c-0.7,0-1.2,0-1.9-0.1c-0.3,0-0.8-0.1-1.4-0.1v-0.1v-8.6v-2.5v-8.1v-0.1c0.4,0,0.9-0.1,1.4-0.1c0.7-0.1,1.8-0.1,2.6-0.1
				c1.1,0,2.4,0.2,3.4,0.5c1.1,0.4,3.4,1.5,3.4,4.7c0,2-1.2,3.6-3,4.2v0.1C24.8,189.2,26.6,190.9,26.6,193.5L26.6,193.5z
				 M22.2,184.9c0-1.6-1.1-2.4-2.6-2.4c-0.3,0-0.8,0-1,0v4.8c0.2,0,0.5,0,0.7,0c0.4,0,0.8-0.1,1.3-0.2
				C21.3,187,22.2,186.2,22.2,184.9L22.2,184.9z M22.8,193.1c0-1.3-0.9-2.1-1.8-2.4c-0.5-0.1-1.1-0.2-1.5-0.2c-0.2,0-0.7,0-0.9,0
				v5.3c0,0,0,0,0,0c0.3,0,0.6,0,0.9,0c0.5,0,1.2-0.1,1.7-0.4C21.9,195.2,22.8,194.5,22.8,193.1L22.8,193.1z"/>
			<path clip-path="url(#SVGID_4_)" fill="#72D54A" d="M27.6,187.7v-8.2v-0.1c0.4,0,1-0.1,1.5-0.1c0.6,0,1.6-0.1,2.2-0.1
				c1.5,0,2.7,0.1,3.8,0.5c1.5,0.4,3.7,1.8,3.7,5.2c0,2.4-1.3,3.9-2.1,4.5c-0.5,0.4-1.1,0.7-1.5,0.9v0.1c0.2,0.2,0.5,0.7,4.5,6.4
				c0.6,0.8,1.4,1.9,1.5,2.1v0.1h-2.1h-1.5H37c-1.4-2.2-3.1-4.7-5.2-7.8h-0.6v1v6.8v0.1h-1.8h-1.8v-0.1v-8.7V187.7z M35.1,185.4
				c0-1.8-1.2-2.9-3.1-2.9c-0.4,0-0.7,0-1,0v5.9c0.2,0,0.4,0,0.7,0c0.7,0,1.4-0.2,1.9-0.5C34.4,187.6,35.1,186.8,35.1,185.4
				L35.1,185.4z"/>
			<path clip-path="url(#SVGID_4_)" fill="#72D54A" d="M60.2,189.1c0,5.7-4.3,10.2-10.2,10.2c-5.7,0-10.1-4.4-10.1-10
				c0-5.7,4.4-10.1,10.4-10.1C56.1,179.2,60.2,183.5,60.2,189.1L60.2,189.1z M56.4,189.2c0-3.7-2.6-6.6-6.2-6.6
				c-3.7,0-6.3,2.9-6.3,6.6c0,3.7,2.7,6.6,6.4,6.6C53.9,195.9,56.4,192.9,56.4,189.2L56.4,189.2z"/>
			<path clip-path="url(#SVGID_4_)" fill="#72D54A" d="M78,199.4h-0.5c-4.7-10.1-5.4-11.7-5.8-13h0c-0.5,1.3-1.1,2.9-5.9,13h-0.5
				l-3.5-12.1c-1.9-6.5-2.2-7.6-2.2-7.8v0h2h1.8v0c0.1,0.3,0.5,1.3,1.9,6.4c0.5,1.9,0.8,3.2,1.2,4.7h0.1c0.5-1.4,1.1-2.7,2-4.8
				c1.2-2.5,2.3-4.6,3.1-6.2h0.5c0.7,1.6,1.7,3.6,3.2,6.3c0.8,1.8,1.4,3.3,1.9,4.6h0.1c0.4-1.6,0.7-2.9,1.1-4.4
				c1.4-5.4,1.8-6.4,1.9-6.6v0h1.7h1.8v0c-0.1,0.3-0.4,1.3-2.2,7.8L78,199.4z"/>
			<path clip-path="url(#SVGID_4_)" fill="#72D54A" d="M101.2,199.2h-0.5c-4.4-4.3-7-6.9-8.8-8.7c-1.2-1.2-2.1-2.1-3.5-3.6h0
				c0,1,0,1.8,0,3.7v8.3v0h-1.8H85v0v-8.7v-11h0.5c4.6,4.5,7.3,7.2,9,8.9c1.1,1.1,2.1,2.1,3.3,3.4h0.1c0-1.2,0-2,0-4.2v-7.9v-0.1
				h1.9h1.6v0.1v8.2V199.2z"/>
			<path clip-path="url(#SVGID_4_)" fill="#72D54A" d="M120.9,193.5c0,2-1.2,3.6-2.7,4.5c-1.3,0.7-2.8,1.1-5.7,1.1
				c-0.7,0-1.2,0-1.9-0.1c-0.3,0-0.8-0.1-1.4-0.1v-0.1v-8.6v-2.5v-8.1v-0.1c0.3,0,0.9-0.1,1.4-0.1c0.7-0.1,1.8-0.1,2.6-0.1
				c1.1,0,2.4,0.2,3.4,0.5c1.1,0.4,3.4,1.5,3.4,4.7c0,2-1.2,3.6-3,4.2v0.1C119.1,189.2,120.9,190.9,120.9,193.5L120.9,193.5z
				 M116.4,184.9c0-1.6-1.1-2.4-2.6-2.4c-0.3,0-0.8,0-1,0v4.8c0.2,0,0.5,0,0.7,0c0.4,0,0.8-0.1,1.3-0.2
				C115.6,187,116.4,186.2,116.4,184.9L116.4,184.9z M117.1,193.1c0-1.3-0.9-2.1-1.8-2.4c-0.5-0.1-1.1-0.2-1.5-0.2
				c-0.2,0-0.7,0-0.9,0v5.3c0,0,0,0,0,0c0.3,0,0.6,0,0.9,0c0.5,0,1.2-0.1,1.7-0.4C116.1,195.2,117.1,194.5,117.1,193.1L117.1,193.1z
				"/>
			<path clip-path="url(#SVGID_4_)" fill="#72D54A" d="M127.5,217.9c0,2.3-1.3,4-2.9,5c-1.4,0.8-3.1,1.2-6.2,1.2
				c-0.7,0-1.3,0-2.1-0.1c-0.3,0-0.8-0.1-1.5-0.1v-0.1v-9.7v-2.8v-9.1v-0.1c0.4,0,1-0.1,1.5-0.1c0.7-0.1,1.9-0.1,2.8-0.1
				c1.2,0,2.7,0.2,3.7,0.5c1.2,0.4,3.8,1.7,3.8,5.3c0,2.2-1.3,4.1-3.3,4.7v0.1C125.5,213.1,127.5,215,127.5,217.9L127.5,217.9z
				 M122.6,208.3c0-1.8-1.2-2.7-2.9-2.7c-0.3,0-0.8,0-1.1,0.1v5.4c0.3,0,0.5,0,0.8,0c0.5,0,0.9-0.1,1.4-0.2
				C121.7,210.6,122.6,209.7,122.6,208.3L122.6,208.3z M123.3,217.4c0-1.4-1-2.4-2-2.7c-0.5-0.1-1.2-0.3-1.7-0.3c-0.2,0-0.7,0-1,0v6
				c0,0,0,0.1,0,0.1c0.3,0,0.7,0,1,0c0.6,0,1.3-0.1,1.9-0.4C122.3,219.8,123.3,219,123.3,217.4L123.3,217.4z"/>
			<path clip-path="url(#SVGID_4_)" fill="#72D54A" d="M150.7,213c0,6.4-4.7,11.4-11.1,11.4c-6.2,0-11-5-11-11.3
				c0-6.4,4.9-11.3,11.3-11.3C146.2,201.9,150.7,206.7,150.7,213L150.7,213z M146.5,213.1c0-4.1-2.9-7.4-6.8-7.4
				c-4,0-6.9,3.2-6.9,7.4c0,4.1,2.9,7.4,7,7.4S146.5,217.3,146.5,213.1L146.5,213.1z"/>
			<path clip-path="url(#SVGID_4_)" fill="#72D54A" d="M155.7,213l-1.5-2.3c-4.5-7-5.2-8.2-5.4-8.5v-0.1h2.6h2.4v0.1
				c0.2,0.3,0.9,1.5,2.4,4.1c0.5,0.9,1.2,2,1.8,3h0c0.6-1,1.3-2.1,1.8-3c1.5-2.6,2.2-3.8,2.4-4.1v-0.1h2.3h2.2v0.1
				c-0.2,0.3-0.9,1.4-5.2,8.6l-1.2,2.1l1.5,2.4c4.5,7.4,5.2,8.5,5.3,8.8v0.1h-2.5h-2.4V224c-0.1-0.2-0.9-1.5-2.4-4.1
				c-0.8-1.3-1.5-2.5-2-3.5h0c-0.5,1.1-1.1,2.2-1.9,3.5c-1.6,2.8-2.2,4-2.4,4.2v0.1h-2.4h-2.2V224c0.1-0.3,0.8-1.4,5.4-9L155.7,213z
				"/>
			<path clip-path="url(#SVGID_4_)" fill="#855D31" d="M47.2,136.9c-3.5-2.4-5.9-6.3-6.5-10.5c-8.3,5.2-11.7,16.6-8.4,25.8
				c3.3,9.2,12.7,15.6,22.5,16.1c6.4,0.3,12.7-1.6,18.4-4.4c4.3-2.1,8.6-4.8,13.4-5.3c9.2-1.1,17.2,5.5,26,8.2
				c7.3,2.3,15.6,1.8,22.4-1.8c6.8-3.6,12-10.3,13.3-17.9c1.3-7.6-1.6-15.8-7.5-20.7c-0.4,5-3.9,9.6-8.6,11.3
				c3.3-5.6,1.5-13.2-2.8-18.1c-4.3-4.9-10.6-7.5-16.9-9.3c2.6,0.7,6.1,0.2,8.9,0.7c3.1,0.5,6.1,1.2,9,2.2
				c5.5,1.8,10.9,4.2,14.9,8.3c7.2,7.4,10.6,18.6,8.2,28.8c-2.8,11.8-13.2,21.5-25.2,23.4c-7.4,1.2-15.1-0.5-22-3.3
				c-6.6-2.7-13.2-6.6-20.2-5.5c-4.5,0.7-8.4,3.4-12.4,5.4c-6.9,3.4-14.8,5.1-22.5,4.1c-7.7-1-15-4.7-19.9-10.7
				c-4.5-5.5-6.7-12.7-6.3-19.7c0.4-7.1,3.4-13.9,8.2-19.1c8.7-9.5,22.1-12.7,34.8-15.3c-5.8,2.4-11.6,5.3-15.8,9.9
				C47.8,124.2,45.4,130.9,47.2,136.9"/>
			<path clip-path="url(#SVGID_4_)" fill="#72D54A" d="M140.3,195.3c-1,2.5-1.5,3.6-1.6,3.8v0.1h-1.9h-2v-0.1
				c0.1-0.2,0.6-1.3,3.8-8.7l4.8-11.1h0.5l4.7,11.1c3.2,7.5,3.6,8.6,3.7,8.7v0.1h-2h-2.2v-0.1c-0.1-0.2-0.5-1.3-1.5-3.8H140.3z
				 M145.6,192.3L145.6,192.3c-1.4-3.8-1.8-4.8-2-5.6h0c-0.2,0.8-0.6,1.9-2.1,5.5v0.1H145.6z"/>
			<path clip-path="url(#SVGID_4_)" fill="#72D54A" d="M153.8,187.9v-8.2v-0.1c0.4,0,1-0.1,1.5-0.1c0.6,0,1.6-0.1,2.2-0.1
				c1.5,0,2.7,0.1,3.8,0.5c1.5,0.4,3.7,1.8,3.7,5.2c0,2.4-1.3,3.9-2.1,4.5c-0.5,0.4-1.1,0.7-1.5,0.9v0.1c0.2,0.2,0.5,0.7,4.5,6.4
				c0.6,0.8,1.4,1.9,1.5,2.1v0.1h-2.1h-1.5h-0.7c-1.4-2.2-3.1-4.7-5.2-7.8h-0.6v1v6.8v0.1h-1.8h-1.8v-0.1v-8.7V187.9z M161.4,185.5
				c0-1.8-1.2-2.9-3.1-2.9c-0.4,0-0.7,0-1,0v5.9c0.2,0,0.4,0,0.7,0c0.7,0,1.4-0.2,1.9-0.5C160.6,187.8,161.4,186.9,161.4,185.5
				L161.4,185.5z"/>
		</g>
	</g>
	<g>
		<g>
			<defs>
				<rect id="SVGID_193_" x="189.1" y="34.2" width="156" height="194.8"/>
			</defs>
			<clipPath id="SVGID_6_">
				<use xlink:href="#SVGID_193_"  overflow="visible"/>
			</clipPath>
			<g clip-path="url(#SVGID_6_)">
				<defs>
					<rect id="SVGID_195_" x="188.4" y="34" width="158.1" height="196.7"/>
				</defs>
				<clipPath id="SVGID_8_">
					<use xlink:href="#SVGID_195_"  overflow="visible"/>
				</clipPath>
				<g clip-path="url(#SVGID_8_)">
					
						<image overflow="visible" width="488" height="584" xlink:href="23E5B60ADB44FC00.jpg"  transform="matrix(0.3239 0 0 0.3368 188.3542 33.9883)">
					</image>
				</g>
			</g>
		</g>
		<polygon fill="#FFFFFF" points="299.6,186.9 299.6,178.6 299.6,178.6 304.7,178.6 309.4,178.6 309.4,181.8 309.4,181.8 
			306.5,181.8 303.4,181.8 303.4,186.6 306.7,186.6 308.8,186.6 308.8,186.6 308.8,188.2 308.8,189.8 308.8,189.8 306.7,189.8 
			303.4,189.8 303.4,194.6 303.4,195 307.7,195 309.6,195 309.6,195 309.6,198.2 305,198.2 299.6,198.2 299.6,198.1 299.6,189.4 		
			"/>
		<polygon fill="#FFFFFF" points="200.3,201.2 197.7,201.2 191.2,201.2 191.2,204.7 191.4,204.7 193.1,204.7 197.1,204.7 
			197.1,213.3 197.1,223.1 197.1,223.1 199.1,223.1 201.1,223.1 201.1,223.1 201.1,213.3 201.1,204.7 205.2,204.7 206.9,204.7 
			207,204.7 207,201.2 		"/>
		<g>
			<defs>
				<rect id="SVGID_197_" x="189.1" y="34.2" width="156" height="194.8"/>
			</defs>
			<clipPath id="SVGID_10_">
				<use xlink:href="#SVGID_197_"  overflow="visible"/>
			</clipPath>
			<path clip-path="url(#SVGID_10_)" fill="#FFFFFF" d="M209.4,218.8c-1.1,2.8-1.6,4.1-1.7,4.2v0.1h-2h-2.2V223
				c0.1-0.2,0.6-1.4,4.2-9.8l5.2-12.5h0.6l5.2,12.5c3.5,8.4,4,9.6,4,9.8v0.1h-2.1h-2.4V223c-0.1-0.2-0.5-1.4-1.6-4.2H209.4z
				 M215.2,215.4L215.2,215.4c-1.6-4.2-2-5.4-2.2-6.3h0c-0.2,0.9-0.7,2.1-2.3,6.2v0.1H215.2z"/>
			<path clip-path="url(#SVGID_10_)" fill="#FFFFFF" d="M221.7,212.1c0-6.5,4.7-11.2,12.3-11.2c0.8,0,1.4,0.1,1.9,0.1
				c0.6,0.1,1.3,0.2,1.7,0.3c-0.1,1.2-0.1,2.3-0.1,3.8h-0.1c-0.3-0.1-0.7-0.1-1.1-0.2c-0.6-0.1-1.4-0.2-2.2-0.2c-4.9,0-8,2.9-8,7.5
				c0,4.5,3,7.6,7.6,7.6c0.9,0,1.7,0,2.5-0.2c0.4-0.1,0.8-0.2,1.2-0.3h0.1c0,0.8,0.1,2.9,0.1,3.7c-0.4,0.1-1.2,0.3-1.8,0.4
				c-1,0.1-1.7,0.2-2.6,0.2C226.8,223.4,221.7,219.1,221.7,212.1L221.7,212.1z"/>
			<path clip-path="url(#SVGID_10_)" fill="#FFFFFF" d="M239.9,210.5v-9.2v-0.1h2.1h2v0.1v7.6v1.5h0.1l3.8-5c2.1-2.7,2.8-3.7,3-4
				v-0.1h2.4h2.5v0.1c-0.2,0.2-1.2,1.5-3.5,4.3l-4.8,5.9l5.2,6.3c3.3,4,4.1,5,4.4,5.3v0.1h-2.6h-2.6v0c-0.2-0.2-1.2-1.5-4-5.1
				l-3.8-4.8h-0.1v2v7.8v0.1h-2h-2.1V223v-9.8V210.5z"/>
			<path clip-path="url(#SVGID_10_)" fill="#FFFFFF" d="M258.6,210.5v-9.2v-0.1h2.1h2v0.1v9.2v2.8v6.1c0,0.1,0,0.2,0.1,0.2h4.5h1.2
				h0.8h0.1v3.6h-5h-5.8V223v-9.7V210.5z"/>
		</g>
		<polygon fill="#FFFFFF" points="277.1,201.2 271.6,201.2 271.6,201.2 271.6,210.5 271.6,213.3 271.6,223.1 271.6,223.1 
			277.5,223.1 282.5,223.1 282.5,219.5 282.4,219.5 280.4,219.5 275.7,219.5 275.7,219.1 275.7,213.7 279.3,213.7 281.6,213.7 
			281.6,213.7 281.6,211.9 281.6,210.2 281.6,210.2 279.3,210.2 275.7,210.2 275.7,204.7 279.1,204.7 282.2,204.7 282.3,204.7 
			282.3,201.2 		"/>
		<g>
			<defs>
				<rect id="SVGID_199_" x="189.1" y="34.2" width="156" height="194.8"/>
			</defs>
			<clipPath id="SVGID_12_">
				<use xlink:href="#SVGID_199_"  overflow="visible"/>
			</clipPath>
			<path clip-path="url(#SVGID_12_)" fill="#FFFFFF" d="M212.7,64.9c-3.6,3.1-6.9,7.7-9.3,11.9c-2.5,4.5-4,9.8-3,14.9
				c0.9,4.9,4.6,9.6,9.6,10c3.3,0.2,6.7-1.7,8.2-4.7c1.5-3,1.2-6.8-0.7-9.5c-0.8-1.2-1.9-2.1-2.8-3.2c-2.1-2.7-3-6.2-3.1-9.6
				C211.5,71.3,212.6,68.1,212.7,64.9"/>
			<path clip-path="url(#SVGID_12_)" fill="#FFFFFF" d="M238.3,49.6c-3.6,3.1-6.9,7.7-9.3,11.9c-2.5,4.5-4,9.8-3,14.9
				c0.9,4.9,4.6,9.6,9.6,10c3.3,0.2,6.7-1.7,8.2-4.7c1.5-2.9,1.2-6.8-0.7-9.5c-0.8-1.2-1.9-2.1-2.8-3.2c-2.1-2.7-3-6.2-3.1-9.6
				C237.1,56.1,238.2,52.9,238.3,49.6"/>
			<path clip-path="url(#SVGID_12_)" fill="#FFFFFF" d="M271.2,39.9c-3.9,2.8-7.6,7.1-10.2,11.1c-2.9,4.3-4.8,9.4-4.3,14.6
				c0.5,4.9,3.8,10,8.7,10.7c3.3,0.5,6.8-1.1,8.6-3.9c1.8-2.8,1.8-6.6,0.1-9.5c-0.7-1.2-1.7-2.3-2.5-3.5c-1.9-2.9-2.5-6.4-2.2-9.9
				C269.5,46.2,270.9,43.1,271.2,39.9"/>
			<path clip-path="url(#SVGID_12_)" fill="#FFFFFF" d="M193.5,132.3c0,0,0.2-0.7,0.5-2c0.1-0.7,0.4-1.4,0.7-2.4
				c0.1-0.2,0.2-0.5,0.2-0.7c0.1-0.2,0.2-0.5,0.3-0.8c0.2-0.5,0.4-1.1,0.7-1.7c1-2.3,2.5-5,4.7-7.9c2.2-2.8,5-5.8,8.6-8.4
				c0.2-0.2,0.4-0.3,0.7-0.5c0.2-0.2,0.5-0.3,0.7-0.5c0.5-0.3,1-0.6,1.4-0.9c0.2-0.2,0.5-0.3,0.8-0.5c0.3-0.1,0.5-0.3,0.8-0.4
				c0.3-0.1,0.5-0.3,0.8-0.4c0.3-0.1,0.5-0.3,0.8-0.4c1.1-0.5,2.2-1.1,3.4-1.5c0.3-0.1,0.6-0.2,0.9-0.3c0.3-0.1,0.6-0.2,0.9-0.3
				c0.6-0.2,1.2-0.4,1.8-0.6l0.5-0.1l0.5-0.1c0.3-0.1,0.6-0.2,0.9-0.2c0.6-0.2,1.3-0.3,1.9-0.4c1.2-0.3,2.4-0.6,3.6-0.9
				c2.3-0.6,4.4-1.3,6.2-2.5l0.3-0.2l0.1-0.1v0l0.1,0l0.2-0.1l0.4-0.3l0.4-0.3l0.3-0.3l0.4-0.3l0.7-0.6c1-0.8,2-1.6,3.1-2.5
				c1.1-0.9,2.3-1.8,3.6-2.6c0.6-0.4,1.3-0.8,2-1.2c0.2-0.1,0.4-0.2,0.5-0.3l0.3-0.1l0.1-0.1l0.1,0l0.2-0.1l0.9-0.4
				c5.7-2.5,11.9-3.5,18-3.4c6.1,0.2,12.3,1.5,17.9,4.4l0.3,0.2l0.3,0.2l0.3,0.2l0.3,0.2c0.3,0.2,0.7,0.5,1,0.7l0.5,0.4l0.5,0.4
				c0.3,0.2,0.6,0.5,0.9,0.7c1.1,1,2.1,2,3.1,2.8c0.9,0.9,1.8,1.6,2.7,2.3l0.2,0.1l0.1,0.1c0,0,0.1,0.1-0.1,0l0.1,0l0.4,0.3
				c0.3,0.2,0.6,0.4,0.8,0.4l0.3,0.2l0.3,0.2c0.2,0.1,0.5,0.2,0.7,0.3c1,0.4,2,0.7,3.2,0.9c1.1,0.2,2.3,0.4,3.6,0.6
				c1.3,0.2,2.6,0.4,3.9,0.6c0.3,0.1,0.7,0.1,1,0.2c0.3,0.1,0.7,0.2,1,0.2c0.3,0.1,0.7,0.2,1,0.3l0.5,0.1l0.1,0l0.1,0l0.1,0l0.2,0.1
				c2.4,0.8,4.7,1.8,6.9,2.9c1.1,0.6,2.1,1.1,3.1,1.7c0.2,0.2,0.5,0.3,0.7,0.5c0.3,0.2,0.5,0.3,0.8,0.5c0.4,0.3,0.9,0.6,1.3,0.9
				c0.2,0.1,0.4,0.3,0.7,0.5c0.2,0.2,0.4,0.3,0.7,0.5c0.5,0.3,0.9,0.7,1.3,1c0.4,0.3,0.8,0.7,1.2,1c0.4,0.4,0.8,0.7,1.1,1.1
				c0.3,0.4,0.7,0.7,1,1.1c0.3,0.4,0.7,0.7,1,1.1c0.2,0.2,0.3,0.4,0.5,0.5c0.1,0.2,0.3,0.4,0.4,0.5c0.3,0.4,0.6,0.7,0.8,1.1
				c2.1,2.9,3.6,5.6,4.6,7.9c0.3,0.6,0.5,1.1,0.7,1.6c0.1,0.3,0.2,0.5,0.3,0.8c0.1,0.2,0.2,0.5,0.2,0.7c0.1,0.2,0.2,0.5,0.2,0.7
				c0.1,0.2,0.1,0.4,0.2,0.6c0.1,0.4,0.2,0.8,0.3,1.1c0.2,0.6,0.3,1.1,0.3,1.5c0.1,0.3,0.1,0.5,0.1,0.5s-0.3-0.6-0.9-1.8
				c-0.6-1.2-1.5-2.9-2.9-4.9c-1.4-2-3.2-4.3-5.6-6.6c-1.2-1.1-2.5-2.3-4-3.4c-0.4-0.3-0.8-0.5-1.1-0.8c-0.4-0.3-0.8-0.5-1.2-0.8
				c-0.4-0.3-0.8-0.5-1.2-0.8c-0.2-0.1-0.4-0.2-0.6-0.4c-0.2-0.1-0.4-0.2-0.6-0.4c-0.5-0.2-0.9-0.5-1.4-0.8l0,0l0,0l-0.1,0l-0.2-0.1
				l-0.3-0.2c-0.2-0.1-0.5-0.2-0.7-0.3c-0.9-0.4-1.9-0.9-2.9-1.3c-2-0.8-4.1-1.5-6.3-2l-0.2-0.1l-0.1,0l0,0l-0.1,0l-0.4-0.1
				c-0.3-0.1-0.5-0.1-0.8-0.2c-0.3,0-0.5-0.1-0.8-0.1c-0.3,0-0.6-0.1-0.8-0.1c-1.1-0.1-2.3-0.2-3.6-0.3c-1.3-0.1-2.6-0.2-4-0.4
				c-1.4-0.2-2.9-0.5-4.4-1c-0.4-0.1-0.7-0.3-1.1-0.4c-0.2-0.1-0.4-0.2-0.6-0.3l-0.6-0.3c-0.5-0.2-0.7-0.3-1-0.5l-0.4-0.2l-0.1,0
				l-0.2-0.1l-0.1-0.1l-0.3-0.2c-1.4-0.9-2.5-1.8-3.6-2.7c-1.1-0.9-2.1-1.8-3-2.6c-0.2-0.2-0.5-0.4-0.7-0.6l-0.3-0.3L283,97
				c-0.2-0.2-0.5-0.3-0.7-0.4l-0.2-0.1l-0.1-0.1l-0.1-0.1l-0.2-0.1l-0.5-0.2l-0.1-0.1l-0.1,0l0,0l-0.2-0.1l-0.8-0.4
				c-0.6-0.3-1.2-0.4-1.7-0.6c-0.6-0.2-1.2-0.4-1.8-0.5c-0.6-0.2-1.2-0.3-1.8-0.5c-2.5-0.6-5-0.9-7.6-0.9c-2.6-0.1-5.1,0.1-7.6,0.5
				l-0.9,0.2l-0.9,0.2l-0.9,0.2c-0.3,0.1-0.6,0.2-0.9,0.2l-0.9,0.2c-0.3,0.1-0.5,0.2-0.8,0.3l-0.8,0.3c-0.3,0.1-0.6,0.3-1,0.4
				l-1,0.4l-0.7,0.3c-0.5,0.3-1,0.5-1.5,0.8c-1,0.6-2.1,1.3-3.1,2.1c-1.1,0.8-2.1,1.6-3.3,2.4c-0.3,0.2-0.6,0.4-0.9,0.6l-0.4,0.3
				l-0.5,0.3c-0.2,0.1-0.3,0.2-0.5,0.3l-0.4,0.3l-0.2,0.1l-0.1,0l-0.1,0.1l-0.1,0.1l-0.5,0.3c-1.4,0.8-2.8,1.3-4.2,1.8
				c-1.4,0.4-2.8,0.7-4.1,1c-1.3,0.2-2.6,0.4-3.8,0.6c-0.6,0.1-1.2,0.2-1.8,0.3c-0.3,0-0.6,0.1-0.9,0.2l-0.4,0.1l-0.4,0.1
				c-0.5,0.1-1.1,0.2-1.6,0.4c-0.3,0.1-0.5,0.1-0.8,0.2c-0.3,0.1-0.5,0.2-0.8,0.2c-1.1,0.3-2.1,0.7-3.1,1c-0.3,0.1-0.5,0.2-0.7,0.3
				c-0.2,0.1-0.5,0.2-0.7,0.3c-0.2,0.1-0.5,0.2-0.7,0.3c-0.2,0.1-0.5,0.2-0.7,0.3c-0.5,0.2-0.9,0.5-1.4,0.7
				c-0.2,0.1-0.5,0.2-0.7,0.3c-0.2,0.1-0.4,0.3-0.7,0.4c-3.5,2-6.4,4.3-8.8,6.6c-2.4,2.3-4.2,4.6-5.6,6.6c-1.3,2-2.3,3.7-2.9,4.9
				C193.8,131.6,193.5,132.3,193.5,132.3"/>
			<path clip-path="url(#SVGID_12_)" fill="#FFFFFF" d="M319.3,64.2c3.6,3.1,6.9,7.7,9.3,11.9c2.5,4.5,4,9.8,3,14.9
				c-0.9,4.9-4.6,9.6-9.6,10c-3.3,0.2-6.7-1.7-8.2-4.7c-1.5-2.9-1.2-6.8,0.7-9.5c0.8-1.2,1.9-2.1,2.8-3.2c2.1-2.7,3-6.2,3.1-9.6
				C320.5,70.6,319.4,67.4,319.3,64.2"/>
			<path clip-path="url(#SVGID_12_)" fill="#FFFFFF" d="M294.6,49.2c3.6,3.1,6.9,7.7,9.3,11.9c2.5,4.5,4,9.8,3,14.9
				c-0.9,4.9-4.6,9.6-9.6,10c-3.3,0.2-6.7-1.7-8.2-4.7c-1.5-3-1.2-6.8,0.7-9.5c0.8-1.2,1.9-2.1,2.8-3.2c2.1-2.7,3-6.2,3.1-9.6
				C295.7,55.6,294.6,52.4,294.6,49.2"/>
			<path clip-path="url(#SVGID_12_)" fill="#FFFFFF" d="M202.8,192.5c0,2-1.2,3.6-2.7,4.5c-1.3,0.7-2.8,1.1-5.7,1.1
				c-0.7,0-1.2,0-1.9-0.1c-0.3,0-0.8-0.1-1.4-0.1v-0.1v-8.6v-2.5v-8.1v-0.1c0.4,0,0.9-0.1,1.4-0.1c0.7-0.1,1.8-0.1,2.6-0.1
				c1.1,0,2.4,0.2,3.4,0.5c1.1,0.4,3.4,1.5,3.4,4.7c0,2-1.2,3.6-3,4.2v0.1C201,188.2,202.8,189.9,202.8,192.5L202.8,192.5z
				 M198.4,183.9c0-1.6-1.1-2.4-2.6-2.4c-0.3,0-0.8,0-1,0v4.8c0.2,0,0.5,0,0.7,0c0.4,0,0.8-0.1,1.3-0.2
				C197.5,186,198.4,185.2,198.4,183.9L198.4,183.9z M199,192.1c0-1.3-0.9-2.1-1.8-2.4c-0.5-0.1-1.1-0.2-1.5-0.2c-0.2,0-0.7,0-0.9,0
				v5.3l0,0c0.3,0,0.6,0,0.9,0c0.5,0,1.2-0.1,1.7-0.4C198.1,194.2,199,193.5,199,192.1L199,192.1z"/>
			<path clip-path="url(#SVGID_12_)" fill="#FFFFFF" d="M203.8,186.7v-8.2v-0.1c0.4,0,1-0.1,1.5-0.1c0.6,0,1.6-0.1,2.2-0.1
				c1.5,0,2.7,0.1,3.8,0.5c1.5,0.4,3.7,1.8,3.7,5.2c0,2.4-1.3,3.9-2.1,4.5c-0.5,0.4-1.1,0.7-1.5,0.9v0.1c0.2,0.2,0.5,0.7,4.5,6.4
				c0.6,0.8,1.4,1.9,1.5,2.1v0.1h-2.1h-1.5h-0.7c-1.4-2.2-3.1-4.7-5.2-7.8h-0.6v1v6.8v0.1h-1.8h-1.8V198v-8.7V186.7z M211.4,184.4
				c0-1.8-1.2-2.9-3.1-2.9c-0.4,0-0.7,0-1,0v5.9c0.2,0,0.4,0,0.7,0c0.7,0,1.4-0.2,1.9-0.5C210.6,186.6,211.4,185.8,211.4,184.4
				L211.4,184.4z"/>
			<path clip-path="url(#SVGID_12_)" fill="#FFFFFF" d="M236.4,188.1c0,5.7-4.3,10.2-10.2,10.2c-5.7,0-10.1-4.4-10.1-10
				c0-5.7,4.4-10.1,10.4-10.1C232.3,178.2,236.4,182.5,236.4,188.1L236.4,188.1z M232.6,188.2c0-3.7-2.6-6.6-6.2-6.6
				c-3.7,0-6.3,2.9-6.3,6.6c0,3.7,2.7,6.6,6.4,6.6S232.6,191.9,232.6,188.2L232.6,188.2z"/>
			<path clip-path="url(#SVGID_12_)" fill="#FFFFFF" d="M254.2,198.4h-0.5c-4.7-10.1-5.4-11.7-5.8-13h0c-0.5,1.3-1.1,2.9-5.9,13
				h-0.5l-3.5-12.1c-1.9-6.5-2.2-7.6-2.2-7.8v0h2h1.8v0c0.1,0.3,0.5,1.3,1.9,6.4c0.5,1.9,0.8,3.2,1.2,4.7h0.1c0.5-1.4,1.1-2.7,2-4.8
				c1.2-2.5,2.3-4.6,3.1-6.2h0.5c0.7,1.6,1.7,3.6,3.2,6.3c0.8,1.8,1.4,3.3,1.9,4.6h0.1c0.4-1.6,0.7-2.9,1.1-4.4
				c1.4-5.4,1.8-6.4,1.9-6.6v0h1.7h1.8v0c-0.1,0.3-0.4,1.3-2.2,7.8L254.2,198.4z"/>
			<path clip-path="url(#SVGID_12_)" fill="#FFFFFF" d="M277.5,198.3H277c-4.4-4.3-7-6.9-8.8-8.7c-1.2-1.2-2.1-2.1-3.5-3.6h0
				c0,1,0,1.8,0,3.7v8.3v0h-1.8h-1.7v0v-8.7v-11h0.5c4.6,4.5,7.3,7.2,9,8.9c1.1,1.1,2.1,2.1,3.3,3.4h0.1c0-1.2,0-2,0-4.2v-7.9v-0.1
				h1.9h1.6v0.1v8.2V198.3z"/>
			<path clip-path="url(#SVGID_12_)" fill="#FFFFFF" d="M297.1,192.5c0,2-1.2,3.6-2.7,4.5c-1.3,0.7-2.8,1.1-5.7,1.1
				c-0.7,0-1.2,0-1.9-0.1c-0.3,0-0.8-0.1-1.4-0.1v-0.1v-8.6v-2.5v-8.1v-0.1c0.3,0,0.9-0.1,1.4-0.1c0.7-0.1,1.8-0.1,2.6-0.1
				c1.1,0,2.4,0.2,3.4,0.5c1.1,0.4,3.4,1.5,3.4,4.7c0,2-1.2,3.6-3,4.2v0.1C295.3,188.2,297.1,189.9,297.1,192.5L297.1,192.5z
				 M292.7,183.9c0-1.6-1.1-2.4-2.6-2.4c-0.3,0-0.8,0-1,0v4.8c0.2,0,0.5,0,0.7,0c0.4,0,0.8-0.1,1.3-0.2
				C291.8,186,292.7,185.2,292.7,183.9L292.7,183.9z M293.3,192.1c0-1.3-0.9-2.1-1.8-2.4c-0.5-0.1-1.1-0.2-1.5-0.2
				c-0.2,0-0.7,0-0.9,0v5.3l0,0c0.3,0,0.6,0,0.9,0c0.5,0,1.2-0.1,1.7-0.4C292.4,194.2,293.3,193.5,293.3,192.1L293.3,192.1z"/>
			<path clip-path="url(#SVGID_12_)" fill="#FFFFFF" d="M303.7,216.9c0,2.3-1.3,4-2.9,5c-1.4,0.8-3.1,1.2-6.2,1.2
				c-0.7,0-1.3,0-2.1-0.1c-0.3,0-0.8-0.1-1.5-0.1v-0.1v-9.7v-2.8v-9.1v-0.1c0.4,0,1-0.1,1.5-0.1c0.7-0.1,1.9-0.1,2.8-0.1
				c1.2,0,2.7,0.2,3.7,0.5c1.2,0.4,3.8,1.7,3.8,5.3c0,2.2-1.3,4.1-3.3,4.7v0.1C301.7,212.1,303.7,214,303.7,216.9L303.7,216.9z
				 M298.9,207.3c0-1.8-1.2-2.7-2.9-2.7c-0.3,0-0.8,0-1.1,0.1v5.4c0.3,0,0.5,0,0.8,0c0.5,0,0.9-0.1,1.4-0.2
				C297.9,209.6,298.9,208.7,298.9,207.3L298.9,207.3z M299.5,216.4c0-1.4-1-2.4-2-2.7c-0.5-0.1-1.2-0.3-1.7-0.3c-0.2,0-0.7,0-1,0v6
				l0,0.1c0.3,0,0.7,0,1,0c0.6,0,1.3-0.1,1.9-0.4C298.5,218.9,299.5,218,299.5,216.4L299.5,216.4z"/>
			<path clip-path="url(#SVGID_12_)" fill="#FFFFFF" d="M326.9,212c0,6.4-4.7,11.4-11.1,11.4c-6.2,0-11-5-11-11.3
				c0-6.4,4.9-11.3,11.3-11.3C322.4,200.9,326.9,205.7,326.9,212L326.9,212z M322.7,212.1c0-4.1-2.9-7.4-6.8-7.4
				c-4,0-6.9,3.2-6.9,7.4c0,4.1,2.9,7.4,7,7.4S322.7,216.3,322.7,212.1L322.7,212.1z"/>
			<path clip-path="url(#SVGID_12_)" fill="#FFFFFF" d="M331.9,212.1l-1.5-2.3c-4.5-7-5.2-8.2-5.4-8.5v-0.1h2.6h2.4v0.1
				c0.2,0.3,0.9,1.5,2.4,4.1c0.5,0.9,1.2,2,1.8,3h0c0.6-1,1.3-2.1,1.8-3c1.5-2.6,2.2-3.8,2.4-4.1v-0.1h2.3h2.2v0.1
				c-0.2,0.3-0.9,1.4-5.2,8.6l-1.2,2.1l1.5,2.4c4.5,7.4,5.2,8.5,5.3,8.8v0.1h-2.5h-2.4v-0.1c-0.1-0.2-0.9-1.5-2.4-4.1
				c-0.8-1.3-1.5-2.5-2-3.5h0c-0.5,1.1-1.1,2.2-1.9,3.5c-1.6,2.8-2.2,4-2.4,4.2v0.1h-2.4h-2.2v-0.1c0.1-0.3,0.8-1.4,5.4-9
				L331.9,212.1z"/>
			<path clip-path="url(#SVGID_12_)" fill="#FFFFFF" d="M223.4,136c-3.5-2.4-5.9-6.3-6.5-10.5c-8.3,5.2-11.7,16.6-8.4,25.8
				c3.3,9.2,12.7,15.6,22.5,16.1c6.4,0.3,12.7-1.6,18.4-4.4c4.3-2.1,8.6-4.8,13.4-5.3c9.2-1.1,17.2,5.5,26,8.2
				c7.3,2.3,15.6,1.8,22.4-1.8c6.8-3.6,12-10.3,13.3-17.9c1.3-7.6-1.6-15.8-7.5-20.7c-0.4,5-3.9,9.6-8.6,11.3
				c3.3-5.6,1.5-13.2-2.8-18.1s-10.6-7.5-16.9-9.3c2.6,0.7,6.1,0.2,8.9,0.7c3.1,0.5,6.1,1.2,9,2.2c5.5,1.8,10.9,4.2,14.9,8.3
				c7.2,7.4,10.6,18.6,8.2,28.8c-2.8,11.8-13.2,21.5-25.2,23.4c-7.4,1.2-15.1-0.5-22-3.3c-6.6-2.7-13.2-6.6-20.2-5.5
				c-4.5,0.7-8.4,3.4-12.4,5.4c-6.9,3.4-14.8,5.1-22.5,4.1c-7.7-1-15-4.7-19.9-10.7c-4.5-5.5-6.7-12.7-6.3-19.7
				c0.4-7.1,3.4-13.9,8.2-19.1c8.7-9.5,22.1-12.7,34.8-15.3c-5.8,2.4-11.6,5.3-15.8,9.9C224,123.2,221.6,130,223.4,136"/>
			<path clip-path="url(#SVGID_12_)" fill="#FFFFFF" d="M316.5,194.3c-1,2.5-1.5,3.6-1.6,3.8v0.1h-1.9h-2v-0.1
				c0.1-0.2,0.6-1.3,3.8-8.7l4.8-11.1h0.5l4.7,11.1c3.2,7.5,3.6,8.6,3.7,8.7v0.1h-2h-2.2v-0.1c-0.1-0.2-0.5-1.3-1.5-3.8H316.5z
				 M321.8,191.3L321.8,191.3c-1.4-3.8-1.8-4.8-2-5.6h0c-0.2,0.8-0.6,1.9-2.1,5.5v0.1H321.8z"/>
			<path clip-path="url(#SVGID_12_)" fill="#FFFFFF" d="M330,186.9v-8.2v-0.1c0.4,0,1-0.1,1.5-0.1c0.6,0,1.6-0.1,2.2-0.1
				c1.5,0,2.7,0.1,3.8,0.5c1.5,0.4,3.7,1.8,3.7,5.2c0,2.4-1.3,3.9-2.1,4.5c-0.5,0.4-1.1,0.7-1.5,0.9v0.1c0.2,0.2,0.5,0.7,4.5,6.4
				c0.6,0.8,1.4,1.9,1.5,2.1v0.1h-2.1h-1.5h-0.7c-1.4-2.2-3.1-4.7-5.2-7.8h-0.6v1v6.8v0.1h-1.8H330v-0.1v-8.7V186.9z M337.6,184.5
				c0-1.8-1.2-2.9-3.1-2.9c-0.4,0-0.7,0-1,0v5.9c0.2,0,0.4,0,0.7,0c0.7,0,1.4-0.2,1.9-0.5C336.8,186.8,337.6,186,337.6,184.5
				L337.6,184.5z"/>
		</g>
	</g>
	<g>
		<defs>
			<rect id="SVGID_201_" x="10" y="250.2" width="340" height="81.8"/>
		</defs>
		<clipPath id="SVGID_14_">
			<use xlink:href="#SVGID_201_"  overflow="visible"/>
		</clipPath>
		<path clip-path="url(#SVGID_14_)" d="M21.8,265.5c-2.2,1.9-4.2,4.7-5.7,7.3c-1.5,2.8-2.4,6-1.8,9.1c0.5,3,2.8,5.9,5.8,6.1
			c2,0.1,4.1-1,5-2.8c0.9-1.8,0.8-4.1-0.4-5.8c-0.5-0.7-1.2-1.3-1.7-2c-1.3-1.6-1.8-3.8-1.9-5.9C21.1,269.4,21.7,267.5,21.8,265.5"
			/>
		<path clip-path="url(#SVGID_14_)" d="M37.4,256.1c-2.2,1.9-4.2,4.7-5.7,7.3c-1.5,2.8-2.4,6-1.8,9.1c0.5,3,2.8,5.9,5.8,6.1
			c2,0.1,4.1-1,5-2.8c0.9-1.8,0.8-4.1-0.4-5.8c-0.5-0.7-1.2-1.3-1.7-2c-1.3-1.6-1.8-3.8-1.9-5.9C36.7,260.1,37.3,258.1,37.4,256.1"
			/>
		<path clip-path="url(#SVGID_14_)" d="M57.5,250.2c-2.4,1.7-4.6,4.3-6.3,6.8c-1.8,2.6-2.9,5.8-2.6,8.9c0.3,3,2.3,6.1,5.3,6.6
			c2,0.3,4.1-0.7,5.2-2.4c1.1-1.7,1.1-4,0.1-5.8c-0.4-0.8-1.1-1.4-1.5-2.1c-1.2-1.7-1.5-3.9-1.4-6C56.5,254.1,57.3,252.2,57.5,250.2
			"/>
		<path clip-path="url(#SVGID_14_)" d="M10,306.6c0,0,0.1-0.4,0.3-1.2c0.1-0.4,0.2-0.9,0.4-1.4c0-0.1,0.1-0.3,0.1-0.4
			c0.1-0.2,0.1-0.3,0.2-0.5c0.1-0.3,0.3-0.7,0.4-1c0.6-1.4,1.5-3.1,2.9-4.8c1.3-1.7,3-3.5,5.2-5.1c0.1-0.1,0.3-0.2,0.4-0.3
			c0.1-0.1,0.3-0.2,0.4-0.3c0.3-0.2,0.6-0.4,0.9-0.6c0.1-0.1,0.3-0.2,0.5-0.3c0.2-0.1,0.3-0.2,0.5-0.3c0.2-0.1,0.3-0.2,0.5-0.3
			c0.2-0.1,0.3-0.2,0.5-0.3c0.7-0.3,1.3-0.7,2.1-0.9c0.2-0.1,0.4-0.1,0.5-0.2c0.2-0.1,0.4-0.1,0.6-0.2c0.4-0.1,0.7-0.2,1.1-0.4
			l0.3-0.1L28,288c0.2,0,0.4-0.1,0.6-0.1c0.4-0.1,0.8-0.2,1.1-0.3c0.7-0.2,1.5-0.3,2.2-0.5c1.4-0.4,2.7-0.8,3.8-1.5l0.2-0.1l0.1,0
			c0,0,0,0,0,0l0,0l0.1-0.1l0.3-0.2c0.1-0.1,0.1-0.1,0.2-0.2l0.2-0.2l0.2-0.2l0.5-0.3c0.6-0.5,1.2-1,1.9-1.5
			c0.7-0.5,1.4-1.1,2.2-1.6c0.4-0.3,0.8-0.5,1.2-0.7c0.1-0.1,0.2-0.1,0.3-0.2l0.2-0.1l0.1,0l0,0l0.1,0l0.6-0.3
			c3.5-1.5,7.3-2.1,11-2.1c3.7,0.1,7.5,0.9,10.9,2.7c0,0,0.1,0.1,0.2,0.1l0.2,0.1l0.2,0.1c0.1,0,0.1,0.1,0.2,0.1
			c0.2,0.1,0.4,0.3,0.6,0.4l0.3,0.2l0.3,0.2c0.2,0.2,0.4,0.3,0.5,0.5c0.7,0.6,1.3,1.2,1.9,1.7c0.6,0.5,1.1,1,1.7,1.4l0.1,0.1l0.1,0
			c0,0,0.1,0.1,0,0l0,0l0.3,0.2c0.2,0.1,0.4,0.2,0.5,0.3l0.2,0.1c0.1,0,0.1,0.1,0.2,0.1c0.1,0.1,0.3,0.1,0.4,0.2
			c0.6,0.2,1.2,0.4,1.9,0.6c0.7,0.1,1.4,0.3,2.2,0.4c0.8,0.1,1.6,0.2,2.4,0.4c0.2,0,0.4,0.1,0.6,0.1c0.2,0,0.4,0.1,0.6,0.1
			c0.2,0,0.4,0.1,0.6,0.2l0.3,0.1l0.1,0l0,0l0,0l0.1,0c1.5,0.5,2.9,1.1,4.2,1.8c0.7,0.3,1.3,0.7,1.9,1.1c0.2,0.1,0.3,0.2,0.4,0.3
			c0.2,0.1,0.3,0.2,0.5,0.3c0.3,0.2,0.5,0.4,0.8,0.6c0.1,0.1,0.3,0.2,0.4,0.3c0.1,0.1,0.3,0.2,0.4,0.3c0.3,0.2,0.5,0.4,0.8,0.6
			c0.2,0.2,0.5,0.4,0.7,0.6c0.2,0.2,0.5,0.4,0.7,0.6c0.2,0.2,0.4,0.4,0.6,0.7c0.2,0.2,0.4,0.4,0.6,0.7c0.1,0.1,0.2,0.2,0.3,0.3
			c0.1,0.1,0.2,0.2,0.3,0.3c0.2,0.2,0.4,0.4,0.5,0.7c1.3,1.7,2.2,3.4,2.8,4.8c0.2,0.4,0.3,0.7,0.4,1c0.1,0.2,0.1,0.3,0.2,0.5
			c0.1,0.2,0.1,0.3,0.2,0.4c0,0.1,0.1,0.3,0.1,0.4c0,0.1,0.1,0.3,0.1,0.4c0.1,0.2,0.1,0.5,0.2,0.7c0.1,0.4,0.2,0.7,0.2,0.9
			c0,0.2,0.1,0.3,0.1,0.3s-0.2-0.4-0.5-1.1c-0.4-0.7-0.9-1.7-1.8-3c-0.8-1.2-2-2.6-3.4-4c-0.7-0.7-1.5-1.4-2.4-2.1
			c-0.2-0.2-0.5-0.3-0.7-0.5c-0.2-0.2-0.5-0.3-0.7-0.5c-0.2-0.2-0.5-0.3-0.7-0.5c-0.1-0.1-0.3-0.1-0.4-0.2c-0.1-0.1-0.2-0.1-0.4-0.2
			c-0.3-0.2-0.6-0.3-0.9-0.5c0,0,0,0,0,0l0,0l-0.1,0l-0.1-0.1l-0.2-0.1c-0.1-0.1-0.3-0.1-0.4-0.2c-0.6-0.3-1.2-0.5-1.8-0.8
			c-1.2-0.5-2.5-0.9-3.9-1.2l-0.1,0l0,0c0,0,0,0,0,0l-0.1,0l-0.2,0c-0.2,0-0.3-0.1-0.5-0.1c-0.2,0-0.3-0.1-0.5-0.1
			c-0.2,0-0.3,0-0.5-0.1c-0.7-0.1-1.4-0.1-2.2-0.2c-0.8-0.1-1.6-0.1-2.5-0.2c-0.9-0.1-1.8-0.3-2.7-0.6c-0.2-0.1-0.5-0.2-0.7-0.3
			c-0.1,0-0.2-0.1-0.4-0.2l-0.4-0.2c-0.3-0.1-0.4-0.2-0.6-0.3l-0.3-0.1l0,0l-0.1-0.1l-0.1,0l-0.2-0.1c-0.8-0.5-1.6-1.1-2.2-1.7
			c-0.7-0.6-1.3-1.1-1.9-1.6c-0.1-0.1-0.3-0.2-0.4-0.3l-0.2-0.2l-0.2-0.1c-0.1-0.1-0.3-0.2-0.4-0.3c0,0-0.1,0-0.1-0.1l-0.1,0l-0.1,0
			c0,0,0,0-0.1-0.1l-0.3-0.1l-0.1,0l0,0c-0.1,0,0.1,0,0,0l-0.1-0.1l-0.5-0.2c-0.3-0.2-0.7-0.3-1.1-0.4c-0.4-0.1-0.7-0.2-1.1-0.3
			c-0.4-0.1-0.7-0.2-1.1-0.3c-1.5-0.3-3.1-0.5-4.6-0.6c-1.6,0-3.1,0.1-4.6,0.3l-0.6,0.1l-0.6,0.1l-0.6,0.1c-0.2,0-0.4,0.1-0.6,0.1
			l-0.6,0.2c-0.2,0.1-0.3,0.1-0.5,0.2l-0.5,0.2c-0.2,0.1-0.4,0.2-0.6,0.2l-0.6,0.2l-0.4,0.2c-0.3,0.2-0.6,0.3-0.9,0.5
			c-0.6,0.4-1.3,0.8-1.9,1.3c-0.6,0.5-1.3,1-2,1.5c-0.2,0.1-0.3,0.3-0.5,0.4l-0.3,0.2l-0.3,0.2c-0.1,0.1-0.2,0.1-0.3,0.2l-0.3,0.2
			l-0.1,0.1l0,0c-0.1,0,0,0-0.1,0l-0.1,0l-0.3,0.2c-0.8,0.5-1.7,0.8-2.6,1.1c-0.9,0.3-1.7,0.5-2.5,0.6c-0.8,0.1-1.6,0.3-2.3,0.4
			c-0.4,0.1-0.7,0.1-1.1,0.2c-0.2,0-0.4,0.1-0.5,0.1l-0.3,0l-0.2,0.1c-0.3,0.1-0.7,0.1-1,0.2c-0.2,0-0.3,0.1-0.5,0.1
			c-0.2,0-0.3,0.1-0.5,0.1c-0.6,0.2-1.3,0.4-1.9,0.6c-0.2,0-0.3,0.1-0.5,0.2c-0.1,0.1-0.3,0.1-0.4,0.2c-0.1,0.1-0.3,0.1-0.4,0.2
			c-0.1,0.1-0.3,0.1-0.4,0.2c-0.3,0.1-0.6,0.3-0.8,0.4c-0.1,0.1-0.3,0.1-0.4,0.2c-0.1,0.1-0.3,0.2-0.4,0.2c-2.1,1.2-3.9,2.6-5.4,4
			c-1.5,1.4-2.6,2.8-3.4,4c-0.8,1.2-1.4,2.2-1.8,3C10.2,306.3,10,306.6,10,306.6"/>
		<path clip-path="url(#SVGID_14_)" d="M86.9,265c2.2,1.9,4.2,4.7,5.7,7.3c1.5,2.8,2.4,6,1.8,9.1c-0.5,3-2.8,5.9-5.8,6.1
			c-2,0.1-4.1-1-5-2.8c-0.9-1.8-0.8-4.1,0.4-5.8c0.5-0.7,1.2-1.3,1.7-2c1.3-1.6,1.8-3.8,1.9-5.9C87.6,269,86.9,267,86.9,265"/>
		<path clip-path="url(#SVGID_14_)" d="M71.8,255.9c2.2,1.9,4.2,4.7,5.7,7.3c1.5,2.8,2.4,6,1.8,9.1c-0.5,3-2.8,5.9-5.8,6.1
			c-2,0.1-4.1-1-5-2.8c-0.9-1.8-0.8-4.1,0.4-5.8c0.5-0.7,1.2-1.3,1.7-2c1.3-1.6,1.8-3.8,1.9-5.9C72.5,259.8,71.8,257.9,71.8,255.9"
			/>
		<path clip-path="url(#SVGID_14_)" d="M28.3,308.9c-2.1-1.5-3.6-3.9-3.9-6.4c-5,3.2-7.2,10.1-5.1,15.7S27,327.8,33,328
			c3.9,0.2,7.7-1,11.2-2.7c2.7-1.3,5.3-2.9,8.2-3.3c5.6-0.7,10.5,3.4,15.9,5c4.5,1.4,9.5,1.1,13.7-1.1c4.2-2.2,7.3-6.3,8.1-10.9
			c0.8-4.6-0.9-9.7-4.6-12.6c-0.2,3-2.4,5.8-5.2,6.9c2-3.4,0.9-8.1-1.7-11c-2.6-3-6.5-4.6-10.3-5.7c1.6,0.4,3.7,0.1,5.4,0.4
			c1.9,0.3,3.7,0.7,5.5,1.3c3.3,1.1,6.6,2.6,9.1,5.1c4.4,4.5,6.4,11.4,5,17.6c-1.7,7.2-8.1,13.1-15.4,14.3c-4.5,0.7-9.2-0.3-13.4-2
			c-4-1.6-8.1-4-12.4-3.4c-2.7,0.4-5.1,2.1-7.6,3.3c-4.2,2.1-9,3.1-13.7,2.5c-4.7-0.6-9.2-2.9-12.2-6.5c-2.7-3.3-4.1-7.7-3.9-12.1
			c0.2-4.3,2.1-8.5,5-11.7c5.3-5.8,13.5-7.8,21.2-9.3c-3.5,1.5-7.1,3.2-9.7,6.1C28.7,301.1,27.2,305.2,28.3,308.9"/>
		<g clip-path="url(#SVGID_14_)">
			<text transform="matrix(1 0 0 1 99.5098 285.2453)" font-family="'PenumbraSansStd-Semibold'" font-size="38.1366">Br</text>
		</g>
		<g clip-path="url(#SVGID_14_)">
			<text transform="matrix(1 0 0 1 144.2442 285.2453)" font-family="'PenumbraSansStd-Semibold'" font-size="38.1366">own Bear</text>
		</g>
		<g clip-path="url(#SVGID_14_)">
			<text transform="matrix(1 0 0 1 102.8653 321.8556)" font-family="'PenumbraSansStd-Semibold'" font-size="41.9503">Ta</text>
		</g>
		<g clip-path="url(#SVGID_14_)">
			<text transform="matrix(1 0 0 1 151.4444 321.8556)" font-family="'PenumbraSansStd-Semibold'" font-size="41.9503">ckle Bo</text>
		</g>
		<g clip-path="url(#SVGID_14_)">
			<text transform="matrix(1 0 0 1 322.0137 321.8556)" font-family="'PenumbraSansStd-Semibold'" font-size="41.9503">x</text>
		</g>
	</g>
</g>
<g id="Isolation_Mode">
	<g>
		<defs>
			<rect id="SVGID_203_" x="796" y="-796" width="360" height="360"/>
		</defs>
		<clipPath id="SVGID_15_">
			<use xlink:href="#SVGID_203_"  overflow="visible"/>
		</clipPath>
		<g clip-path="url(#SVGID_15_)">
			<g>
				<defs>
					<rect id="SVGID_205_" x="-1587.9" y="-854" width="2880.3" height="1924.1"/>
				</defs>
				<clipPath id="SVGID_17_">
					<use xlink:href="#SVGID_205_"  overflow="visible"/>
				</clipPath>
				<rect x="-1564.9" y="-833.7" clip-path="url(#SVGID_17_)" fill="#8DC63F" width="2833" height="1881"/>
				<polygon clip-path="url(#SVGID_17_)" fill="#83A656" points="-136.3,-833.7 -822.3,-422.6 -1325.2,-107.5 -782.6,213.4 
					-284.5,-80.3 919.7,618.3 1268.1,412.7 1268.1,-833.7 				"/>
				<g clip-path="url(#SVGID_17_)">
					<defs>
						<rect id="SVGID_207_" x="-1564.9" y="-833.7" width="2833" height="1881"/>
					</defs>
					<clipPath id="SVGID_19_">
						<use xlink:href="#SVGID_207_"  overflow="visible"/>
					</clipPath>
				</g>
				<g clip-path="url(#SVGID_17_)">
					<defs>
						<rect id="SVGID_212_" x="-1564.9" y="-833.7" width="2833" height="1881"/>
					</defs>
					<clipPath id="SVGID_20_">
						<use xlink:href="#SVGID_212_"  overflow="visible"/>
					</clipPath>
				</g>
				<g clip-path="url(#SVGID_17_)">
					<defs>
						<rect id="SVGID_217_" x="-1564.9" y="-833.7" width="2833" height="1881"/>
					</defs>
					<clipPath id="SVGID_22_">
						<use xlink:href="#SVGID_217_"  overflow="visible"/>
					</clipPath>
				</g>
				<g clip-path="url(#SVGID_17_)">
					<defs>
						<rect id="SVGID_222_" x="-1564.9" y="-833.7" width="2833" height="1881"/>
					</defs>
					<clipPath id="SVGID_24_">
						<use xlink:href="#SVGID_222_"  overflow="visible"/>
					</clipPath>
				</g>
				<g clip-path="url(#SVGID_17_)">
					<defs>
						<rect id="SVGID_227_" x="-1564.9" y="-833.7" width="2833" height="1881"/>
					</defs>
					<clipPath id="SVGID_25_">
						<use xlink:href="#SVGID_227_"  overflow="visible"/>
					</clipPath>
				</g>
				<g clip-path="url(#SVGID_17_)">
					<defs>
						<rect id="SVGID_232_" x="-1564.9" y="-833.7" width="2833" height="1881"/>
					</defs>
					<clipPath id="SVGID_27_">
						<use xlink:href="#SVGID_232_"  overflow="visible"/>
					</clipPath>
				</g>
				<g clip-path="url(#SVGID_17_)">
					<defs>
						<rect id="SVGID_237_" x="-1564.9" y="-833.7" width="2833" height="1881"/>
					</defs>
					<clipPath id="SVGID_29_">
						<use xlink:href="#SVGID_237_"  overflow="visible"/>
					</clipPath>
				</g>
				<g clip-path="url(#SVGID_17_)">
					<defs>
						<rect id="SVGID_242_" x="-1564.9" y="-833.7" width="2833" height="1881"/>
					</defs>
					<clipPath id="SVGID_30_">
						<use xlink:href="#SVGID_242_"  overflow="visible"/>
					</clipPath>
				</g>
				<g clip-path="url(#SVGID_17_)">
					<defs>
						<rect id="SVGID_247_" x="-1564.9" y="-833.7" width="2833" height="1881"/>
					</defs>
					<clipPath id="SVGID_32_">
						<use xlink:href="#SVGID_247_"  overflow="visible"/>
					</clipPath>
					<polygon clip-path="url(#SVGID_32_)" fill="#885A37" points="1.2,580 -266.9,421.4 1.2,262.9 269.3,421.4 					"/>
					<polygon clip-path="url(#SVGID_32_)" fill="#723F1A" points="161.3,357.5 -106.4,516.3 -113.2,512.3 154.6,353.6 					"/>
					<polygon clip-path="url(#SVGID_32_)" fill="#67452A" points="154.6,353.6 -113.2,512.3 -117,510.1 150.9,351.3 					"/>
					<polygon clip-path="url(#SVGID_32_)" fill="#723F1A" points="142.2,346.2 -125.9,504.8 -132.6,500.8 135.5,342.2 					"/>
					<polygon clip-path="url(#SVGID_32_)" fill="#67452A" points="135.5,342.2 -132.6,500.8 -136.4,498.6 131.7,340 					"/>
					<polygon clip-path="url(#SVGID_32_)" fill="#723F1A" points="122.8,334.8 -145.3,493.3 -152,489.3 116.1,330.8 					"/>
					<polygon clip-path="url(#SVGID_32_)" fill="#67452A" points="116.1,330.8 -152,489.3 -155.8,487.1 112.3,328.5 					"/>
					<polygon clip-path="url(#SVGID_32_)" fill="#723F1A" points="101.8,322.3 -169,479.3 -175.8,475.3 95,318.3 					"/>
					<polygon clip-path="url(#SVGID_32_)" fill="#67452A" points="95,318.3 -175.8,475.3 -179.6,473 91.2,316 					"/>
					<polygon clip-path="url(#SVGID_32_)" fill="#723F1A" points="82.5,310.9 -188.5,467.8 -195.3,463.7 75.7,306.9 					"/>
					<polygon clip-path="url(#SVGID_32_)" fill="#67452A" points="75.7,306.9 -195.3,463.7 -199.1,461.5 71.9,304.6 					"/>
					<polygon clip-path="url(#SVGID_32_)" fill="#723F1A" points="63,299.4 -208,456.2 -214.8,452.2 56.2,295.4 					"/>
					<polygon clip-path="url(#SVGID_32_)" fill="#67452A" points="56.2,295.4 -214.8,452.2 -218.6,450 52.4,293.1 					"/>
					<polygon clip-path="url(#SVGID_32_)" fill="#723F1A" points="43.6,287.9 -227.5,444.7 -234.3,440.7 36.8,283.9 					"/>
					<polygon clip-path="url(#SVGID_32_)" fill="#67452A" points="36.8,283.9 -234.3,440.7 -238,438.5 32.9,281.6 					"/>
					<polygon clip-path="url(#SVGID_32_)" fill="#723F1A" points="23.7,276.1 -246.9,433.2 -253.7,429.2 16.9,272.1 					"/>
					<polygon clip-path="url(#SVGID_32_)" fill="#67452A" points="16.9,272.1 -253.7,429.2 -257.5,427 13.1,269.9 					"/>
					<polygon clip-path="url(#SVGID_32_)" fill="#C3913D" points="0.4,66.1 4.8,63.5 4.8,53.4 0.4,56 					"/>
					<polygon clip-path="url(#SVGID_32_)" fill="#C3913D" points="0.4,66.1 -89.9,12.6 -89.9,2.4 0.4,55.9 					"/>
					<polygon clip-path="url(#SVGID_32_)" fill="#CDA25F" points="4.8,53.4 0.4,55.9 -89.9,2.4 -85.5,-0.2 					"/>
					<polygon clip-path="url(#SVGID_32_)" fill="#C3913D" points="0.4,36.1 4.8,33.5 4.8,23.3 0.4,25.9 					"/>
					<polygon clip-path="url(#SVGID_32_)" fill="#C3913D" points="0.4,36.1 -89.9,-17.4 -89.9,-27.6 0.4,25.9 					"/>
					<polygon clip-path="url(#SVGID_32_)" fill="#CDA25F" points="4.8,23.3 0.4,25.9 -89.9,-27.6 -85.5,-30.3 					"/>
					<polygon clip-path="url(#SVGID_32_)" fill="#C3913D" points="0.4,6 4.8,3.4 4.8,-6.8 0.4,-4.2 					"/>
					<polygon clip-path="url(#SVGID_32_)" fill="#C3913D" points="0.4,6 -89.9,-47.5 -89.9,-57.7 0.4,-4.2 					"/>
					<polygon clip-path="url(#SVGID_32_)" fill="#D7B681" points="6.2,86.8 6.2,-13.3 13.6,-17.7 13.6,82.4 					"/>
					<polygon clip-path="url(#SVGID_32_)" fill="#C3913D" points="-0.7,82.7 6.2,86.8 6.2,-13.2 -0.7,-17.3 					"/>
					<polygon clip-path="url(#SVGID_32_)" fill="#C3913D" points="98.2,124.4 102.7,121.8 102.7,111.7 98.2,114.3 					"/>
					<polygon clip-path="url(#SVGID_32_)" fill="#C3913D" points="98.3,124.5 7.9,70.9 7.9,60.8 98.3,114.3 					"/>
					<polygon clip-path="url(#SVGID_32_)" fill="#CDA25F" points="102.7,111.7 98.3,114.3 7.9,60.8 12.4,58.1 					"/>
					<polygon clip-path="url(#SVGID_32_)" fill="#C3913D" points="98.2,94.4 102.7,91.8 102.7,81.6 98.2,84.2 					"/>
					<polygon clip-path="url(#SVGID_32_)" fill="#C3913D" points="98.3,94.4 7.9,40.9 7.9,30.7 98.3,84.2 					"/>
					<polygon clip-path="url(#SVGID_32_)" fill="#CDA25F" points="102.7,81.6 98.3,84.2 7.9,30.7 12.4,28 					"/>
					<polygon clip-path="url(#SVGID_32_)" fill="#C3913D" points="98.2,64.3 102.7,61.7 102.7,51.5 98.2,54.2 					"/>
					<polygon clip-path="url(#SVGID_32_)" fill="#C3913D" points="98.3,64.3 7.9,10.8 7.9,0.6 98.3,54.1 					"/>
					<polygon clip-path="url(#SVGID_32_)" fill="#CDA25F" points="102.7,51.5 98.3,54.1 7.9,0.6 12.4,-2 					"/>
					<polygon clip-path="url(#SVGID_32_)" fill="#CDA25F" points="334,173 327.2,169 334.6,164.6 341.5,168.6 					"/>
					<polygon clip-path="url(#SVGID_32_)" fill="#D7B681" points="334,273.1 334,173 341.5,168.6 341.5,268.7 					"/>
					<polygon clip-path="url(#SVGID_32_)" fill="#C3913D" points="327.2,269 334,273.1 334,173 327.2,169 					"/>
					<polygon clip-path="url(#SVGID_32_)" fill="#C3913D" points="426.1,310.7 335.8,257.2 335.8,247 426.1,300.6 					"/>
					<polygon clip-path="url(#SVGID_32_)" fill="#CDA25F" points="430.5,298 426.1,300.6 335.8,247 340.2,244.4 					"/>
					<polygon clip-path="url(#SVGID_32_)" fill="#C3913D" points="426.1,280.7 335.8,227.2 335.8,217 426.1,270.5 					"/>
					<polygon clip-path="url(#SVGID_32_)" fill="#CDA25F" points="430.5,267.9 426.1,270.5 335.8,217 340.2,214.3 					"/>
					<polygon clip-path="url(#SVGID_32_)" fill="#C3913D" points="426.1,250.6 335.8,197.1 335.8,186.9 426.1,240.4 					"/>
					<polygon clip-path="url(#SVGID_32_)" fill="#CDA25F" points="430.5,237.8 426.1,240.4 335.8,186.9 340.2,184.2 					"/>
					<polygon clip-path="url(#SVGID_32_)" fill="#CDA25F" points="102.9,43.3 96,39.3 103.5,34.9 110.3,39 					"/>
					<polygon clip-path="url(#SVGID_32_)" fill="#D7B681" points="102.7,143.4 102.9,43.3 110.3,39 110.1,139 					"/>
					<polygon clip-path="url(#SVGID_32_)" fill="#C3913D" points="95.8,139.3 102.7,143.4 102.9,43.4 96,39.3 					"/>
					<path clip-path="url(#SVGID_32_)" fill="none" stroke="#BE4F38" stroke-width="3" stroke-miterlimit="10" d="M112.6,60.7
						l65.2,91.4c0.5,0.7,0.7,1.5,0.7,2.4v68.6c0,3.4-3.6,5-5.5,2.5l-65.2-90c-0.5-0.7-0.8-1.6-0.8-2.5v-70
						C107,59.6,110.7,58,112.6,60.7z"/>
					
						<line clip-path="url(#SVGID_32_)" fill="none" stroke="#BE4F38" stroke-width="3" stroke-miterlimit="10" x1="107" y1="76.4" x2="178.7" y2="176.3"/>
					
						<line clip-path="url(#SVGID_32_)" fill="none" stroke="#BE4F38" stroke-width="3" stroke-miterlimit="10" x1="107" y1="96.6" x2="178.7" y2="196.5"/>
					
						<line clip-path="url(#SVGID_32_)" fill="none" stroke="#BE4F38" stroke-width="3" stroke-miterlimit="10" x1="107" y1="116.8" x2="178.7" y2="216.7"/>
					<path clip-path="url(#SVGID_32_)" fill="none" stroke="#BE4F38" stroke-width="3" stroke-miterlimit="10" d="M320.4,185.5
						L215,276.9c-0.8,0.7-1.2,1.5-1.2,2.4v68.6c0,3.4,5.8,5,8.9,2.5l105.4-90c0.9-0.7,1.3-1.6,1.3-2.5v-70
						C329.4,184.4,323.5,182.8,320.4,185.5z"/>
					
						<line clip-path="url(#SVGID_32_)" fill="none" stroke="#BE4F38" stroke-width="3" stroke-miterlimit="10" x1="329.4" y1="201.2" x2="213.6" y2="301.1"/>
					
						<line clip-path="url(#SVGID_32_)" fill="none" stroke="#BE4F38" stroke-width="3" stroke-miterlimit="10" x1="329.4" y1="221.4" x2="213.6" y2="321.3"/>
					
						<line clip-path="url(#SVGID_32_)" fill="none" stroke="#BE4F38" stroke-width="3" stroke-miterlimit="10" x1="329.4" y1="241.6" x2="213.6" y2="341.5"/>
					<polygon clip-path="url(#SVGID_32_)" fill="#8E9092" points="738.8,29.5 738.8,287.8 -20.3,-161.2 -20.3,-420.4 203.5,-549.2 
						467.7,-131.6 					"/>
				</g>
				<g clip-path="url(#SVGID_17_)">
					<defs>
						<rect id="SVGID_252_" x="-1564.9" y="-833.7" width="2833" height="1881"/>
					</defs>
					<clipPath id="SVGID_34_">
						<use xlink:href="#SVGID_252_"  overflow="visible"/>
					</clipPath>
				</g>
				<g clip-path="url(#SVGID_17_)">
					<defs>
						<rect id="SVGID_257_" x="-1564.9" y="-833.7" width="2833" height="1881"/>
					</defs>
					<clipPath id="SVGID_35_">
						<use xlink:href="#SVGID_257_"  overflow="visible"/>
					</clipPath>
					<polygon clip-path="url(#SVGID_35_)" fill="#5B5D5F" points="377.3,65.3 70,-119.7 61,-113 377.3,74 					"/>
					<polygon clip-path="url(#SVGID_35_)" fill="#C3913D" points="439.9,109.1 132.7,-72.6 132.7,-286.1 439.9,-104.3 					"/>
				</g>
				<g clip-path="url(#SVGID_17_)">
					<defs>
						<rect id="SVGID_268_" x="-1564.9" y="-833.7" width="2833" height="1881"/>
					</defs>
					<clipPath id="SVGID_37_">
						<use xlink:href="#SVGID_268_"  overflow="visible"/>
					</clipPath>
				</g>
			</g>
		</g>
	</g>
</g>
</svg>
