<?xml version="1.0" encoding="utf-8"?>
<!-- Generator: Adobe Illustrator 18.1.1, SVG Export Plug-In . SVG Version: 6.00 Build 0)  -->
<!DOCTYPE svg PUBLIC "-//W3C//DTD SVG 1.1//EN" "http://www.w3.org/Graphics/SVG/1.1/DTD/svg11.dtd">
<svg version="1.1" xmlns="http://www.w3.org/2000/svg" xmlns:xlink="http://www.w3.org/1999/xlink" x="0px" y="0px"
	 viewBox="0 0 360 360" enable-background="new 0 0 360 360" xml:space="preserve">
<g id="Layer_1">
	<g>
		<g>
			
				<image overflow="visible" width="2394" height="1603" xlink:href="../../lotlocator/3.png"  transform="matrix(0.1885 -8.815577e-03 8.815577e-03 0.1885 -436.3266 359.1432)">
			</image>
		</g>
	</g>
	<g>
		<g>
			
				<image overflow="visible" width="2394" height="1603" xlink:href="../../lotlocator/5.png"  transform="matrix(0.1885 -9.267323e-03 9.267323e-03 0.1885 -34.1536 361.5252)">
			</image>
		</g>
	</g>
</g>
<g id="Isolation_Mode">
	<g>
		<defs>
			<rect id="SVGID_203_" x="0" y="0" width="360" height="360"/>
		</defs>
		<clipPath id="SVGID_2_">
			<use xlink:href="#SVGID_203_"  overflow="visible"/>
		</clipPath>
		<g clip-path="url(#SVGID_2_)">
			<g>
				<defs>
					<rect id="SVGID_205_" x="-2383.9" y="-58" width="2880.3" height="1924.1"/>
				</defs>
				<clipPath id="SVGID_4_">
					<use xlink:href="#SVGID_205_"  overflow="visible"/>
				</clipPath>
				<rect x="-2360.9" y="-37.7" clip-path="url(#SVGID_4_)" fill="#8DC63F" width="2833" height="1881"/>
				<polygon clip-path="url(#SVGID_4_)" fill="#83A656" points="-932.3,-37.7 -1618.3,373.4 -2121.2,688.5 -1578.6,1009.4 
					-1080.5,715.7 123.7,1414.3 472.1,1208.7 472.1,-37.7 				"/>
				<g clip-path="url(#SVGID_4_)">
					<defs>
						<rect id="SVGID_207_" x="-2360.9" y="-37.7" width="2833" height="1881"/>
					</defs>
					<clipPath id="SVGID_6_">
						<use xlink:href="#SVGID_207_"  overflow="visible"/>
					</clipPath>
				</g>
				<g clip-path="url(#SVGID_4_)">
					<defs>
						<rect id="SVGID_212_" x="-2360.9" y="-37.7" width="2833" height="1881"/>
					</defs>
					<clipPath id="SVGID_8_">
						<use xlink:href="#SVGID_212_"  overflow="visible"/>
					</clipPath>
				</g>
				<g clip-path="url(#SVGID_4_)">
					<defs>
						<rect id="SVGID_217_" x="-2360.9" y="-37.7" width="2833" height="1881"/>
					</defs>
					<clipPath id="SVGID_10_">
						<use xlink:href="#SVGID_217_"  overflow="visible"/>
					</clipPath>
				</g>
				<g clip-path="url(#SVGID_4_)">
					<defs>
						<rect id="SVGID_222_" x="-2360.9" y="-37.7" width="2833" height="1881"/>
					</defs>
					<clipPath id="SVGID_12_">
						<use xlink:href="#SVGID_222_"  overflow="visible"/>
					</clipPath>
				</g>
				<g clip-path="url(#SVGID_4_)">
					<defs>
						<rect id="SVGID_227_" x="-2360.9" y="-37.7" width="2833" height="1881"/>
					</defs>
					<clipPath id="SVGID_14_">
						<use xlink:href="#SVGID_227_"  overflow="visible"/>
					</clipPath>
				</g>
				<g clip-path="url(#SVGID_4_)">
					<defs>
						<rect id="SVGID_232_" x="-2360.9" y="-37.7" width="2833" height="1881"/>
					</defs>
					<clipPath id="SVGID_15_">
						<use xlink:href="#SVGID_232_"  overflow="visible"/>
					</clipPath>
				</g>
				<g clip-path="url(#SVGID_4_)">
					<defs>
						<rect id="SVGID_237_" x="-2360.9" y="-37.7" width="2833" height="1881"/>
					</defs>
					<clipPath id="SVGID_17_">
						<use xlink:href="#SVGID_237_"  overflow="visible"/>
					</clipPath>
				</g>
				<g clip-path="url(#SVGID_4_)">
					<defs>
						<rect id="SVGID_242_" x="-2360.9" y="-37.7" width="2833" height="1881"/>
					</defs>
					<clipPath id="SVGID_19_">
						<use xlink:href="#SVGID_242_"  overflow="visible"/>
					</clipPath>
				</g>
				<g clip-path="url(#SVGID_4_)">
					<defs>
						<rect id="SVGID_247_" x="-2360.9" y="-37.7" width="2833" height="1881"/>
					</defs>
					<clipPath id="SVGID_20_">
						<use xlink:href="#SVGID_247_"  overflow="visible"/>
					</clipPath>
				</g>
				<g clip-path="url(#SVGID_4_)">
					<defs>
						<rect id="SVGID_252_" x="-2360.9" y="-37.7" width="2833" height="1881"/>
					</defs>
					<clipPath id="SVGID_22_">
						<use xlink:href="#SVGID_252_"  overflow="visible"/>
					</clipPath>
				</g>
				<g clip-path="url(#SVGID_4_)">
					<defs>
						<rect id="SVGID_257_" x="-2360.9" y="-37.7" width="2833" height="1881"/>
					</defs>
					<clipPath id="SVGID_24_">
						<use xlink:href="#SVGID_257_"  overflow="visible"/>
					</clipPath>
					<polygon clip-path="url(#SVGID_24_)" fill="#B62025" points="-329.6,664.4 -586.8,257.7 -203.4,40.6 49.9,439.8 					"/>
					<polygon clip-path="url(#SVGID_24_)" fill="#B52E37" points="16.4,459.6 14.1,461 -240.9,61.9 -238.5,60.5 					"/>
					<polygon clip-path="url(#SVGID_24_)" fill="#A81E2A" points="17.5,459 16.4,459.6 -238.5,60.5 -237.3,59.8 					"/>
				</g>
				<g clip-path="url(#SVGID_4_)">
					<defs>
						<rect id="SVGID_268_" x="-2360.9" y="-37.7" width="2833" height="1881"/>
					</defs>
					<clipPath id="SVGID_25_">
						<use xlink:href="#SVGID_268_"  overflow="visible"/>
					</clipPath>
					<polygon clip-path="url(#SVGID_25_)" fill="#56C5CA" points="298.3,282.3 173.9,355.8 30.3,270.9 90.8,235.1 -60.8,145.5 
						171.6,8 440,166.7 271.5,266.4 					"/>
					<polygon clip-path="url(#SVGID_25_)" fill="none" stroke="#A37855" stroke-width="2.999" stroke-miterlimit="10" points="
						298.3,282.3 173.9,355.8 30.3,270.9 90.8,235.1 -60.8,145.5 171.6,8 440,166.7 271.5,266.4 					"/>
					<path clip-path="url(#SVGID_25_)" fill="#427839" d="M-0.6,128.9c0,0-0.4-5.3-0.7-13.2c-0.1-4-0.2-8.6-0.1-13.6
						c0.1-5,0.3-10.3,0.7-15.6c0.1-2.7,0.5-5.3,0.7-7.9c0.2-2.6,0.7-5.1,1-7.6c0.4-2.5,1-4.8,1.5-7c0.6-2.2,1.2-4.3,1.8-6.2
						c0.6-1.9,1.4-3.6,1.9-5.1c0.5-1.5,1.2-2.8,1.8-3.8c1.1-2.1,1.7-3.2,1.7-3.2l0.2,0.1c0,0-0.5,1.2-1.2,3.4
						c-0.4,1.1-0.9,2.4-1.3,3.9c-0.4,1.5-1,3.2-1.5,5.2c-0.4,1.9-1,4-1.4,6.2c-0.4,2.2-0.9,4.5-1.3,7c-0.4,2.4-0.9,4.9-1.2,7.5
						c-0.4,2.6-0.8,5.2-1,7.8c-0.6,5.2-0.9,10.5-1.2,15.4c-0.2,4.9-0.4,9.6-0.4,13.5c-0.1,7.9,0.1,13.2,0.1,13.2L-0.6,128.9z"/>
					<path clip-path="url(#SVGID_25_)" fill="#427839" d="M24.3,117.5c0,0-0.4-5.3-0.7-13.2c-0.1-4-0.2-8.6-0.1-13.6
						c0.1-5,0.3-10.3,0.7-15.6c0.1-2.7,0.5-5.3,0.7-7.9c0.2-2.6,0.7-5.1,1-7.6c0.4-2.5,1-4.8,1.5-7c0.6-2.2,1.2-4.3,1.8-6.2
						c0.6-1.9,1.4-3.6,1.9-5.1c0.5-1.5,1.2-2.8,1.8-3.8c1.1-2.1,1.7-3.2,1.7-3.2l0.2,0.1c0,0-0.5,1.2-1.2,3.4
						c-0.4,1.1-0.9,2.4-1.3,3.9c-0.4,1.5-1,3.2-1.5,5.2c-0.4,1.9-1,4-1.4,6.2c-0.4,2.2-0.9,4.5-1.3,7c-0.4,2.4-0.9,4.9-1.2,7.5
						c-0.4,2.6-0.8,5.2-1,7.8c-0.6,5.2-0.9,10.5-1.2,15.4c-0.2,4.9-0.4,9.6-0.4,13.5c-0.1,7.9,0.1,13.2,0.1,13.2L24.3,117.5z"/>
					<path clip-path="url(#SVGID_25_)" fill="#427839" d="M13.3,133c0,0-0.4-5.3-0.7-13.2c-0.1-4-0.2-8.6-0.1-13.6
						c0.1-5,0.3-10.3,0.7-15.6c0.1-2.7,0.5-5.3,0.7-7.9c0.2-2.6,0.7-5.1,1-7.6c0.4-2.5,1-4.8,1.5-7c0.6-2.2,1.2-4.3,1.8-6.2
						c0.6-1.9,1.4-3.6,1.9-5.1c0.5-1.5,1.2-2.8,1.8-3.8c1.1-2.1,1.7-3.2,1.7-3.2l0.2,0.1c0,0-0.5,1.2-1.2,3.4
						c-0.4,1.1-0.9,2.4-1.3,3.9c-0.4,1.5-1,3.2-1.5,5.2c-0.4,1.9-1,4-1.4,6.2c-0.4,2.2-0.9,4.5-1.3,7c-0.4,2.4-0.9,4.9-1.2,7.5
						c-0.4,2.6-0.8,5.2-1,7.8c-0.6,5.2-0.9,10.5-1.2,15.4c-0.2,4.9-0.4,9.6-0.4,13.5c-0.1,7.9,0.1,13.2,0.1,13.2L13.3,133z"/>
					<path clip-path="url(#SVGID_25_)" fill="#427839" d="M6,139.6c0,0-0.4-5.3-0.7-13.2c-0.1-4-0.2-8.6-0.1-13.6
						c0.1-5,0.3-10.3,0.7-15.6c0.1-2.7,0.5-5.3,0.7-7.9c0.2-2.6,0.7-5.1,1-7.6c0.4-2.5,1-4.8,1.5-7c0.6-2.2,1.2-4.3,1.8-6.2
						c0.6-1.9,1.4-3.6,1.9-5.1c0.5-1.5,1.2-2.8,1.8-3.8c1.1-2.1,1.7-3.2,1.7-3.2l0.2,0.1c0,0-0.5,1.2-1.2,3.4
						c-0.4,1.1-0.9,2.4-1.3,3.9c-0.4,1.5-1,3.2-1.5,5.2c-0.4,1.9-1,4-1.4,6.2c-0.4,2.2-0.9,4.5-1.3,7c-0.4,2.4-0.9,4.9-1.2,7.5
						c-0.4,2.6-0.8,5.2-1,7.8c-0.6,5.2-0.9,10.5-1.2,15.4c-0.2,4.9-0.4,9.6-0.4,13.5c-0.1,7.9,0.1,13.2,0.1,13.2L6,139.6z"/>
					<path clip-path="url(#SVGID_25_)" fill="#427839" d="M-7.8,141.8c0,0-0.4-5.3-0.7-13.2c-0.1-4-0.2-8.6-0.1-13.6
						c0.1-5,0.3-10.3,0.7-15.6c0.1-2.7,0.5-5.3,0.7-7.9c0.2-2.6,0.7-5.1,1-7.6c0.4-2.5,1-4.8,1.5-7c0.6-2.2,1.2-4.3,1.8-6.2
						c0.6-1.9,1.4-3.6,1.9-5.1c0.5-1.5,1.2-2.8,1.8-3.8c1.1-2.1,1.7-3.2,1.7-3.2l0.2,0.1c0,0-0.5,1.2-1.2,3.4
						c-0.4,1.1-0.9,2.4-1.3,3.9c-0.4,1.5-1,3.2-1.5,5.2c-0.4,1.9-1,4-1.4,6.2c-0.4,2.2-0.9,4.5-1.3,7c-0.4,2.4-0.9,4.9-1.2,7.5
						c-0.4,2.6-0.8,5.2-1,7.8c-0.6,5.2-0.9,10.5-1.2,15.4c-0.2,4.9-0.4,9.6-0.4,13.5c-0.1,7.9,0.1,13.2,0.1,13.2L-7.8,141.8z"/>
					<path clip-path="url(#SVGID_25_)" fill="#427839" d="M3.1,135.4c0,0-0.4-5.3-0.7-13.2c-0.1-4-0.2-8.6-0.1-13.6
						c0.1-5,0.3-10.3,0.7-15.6c0.1-2.7,0.5-5.3,0.7-7.9c0.2-2.6,0.7-5.1,1-7.6c0.4-2.5,1-4.8,1.5-7c0.6-2.2,1.2-4.3,1.8-6.2
						c0.6-1.9,1.4-3.6,1.9-5.1c0.5-1.5,1.2-2.8,1.8-3.8c1.1-2.1,1.7-3.2,1.7-3.2l0.2,0.1c0,0-0.5,1.2-1.2,3.4
						c-0.4,1.1-0.9,2.4-1.3,3.9c-0.4,1.5-1,3.2-1.5,5.2c-0.4,1.9-1,4-1.4,6.2c-0.4,2.2-0.9,4.5-1.3,7c-0.4,2.4-0.9,4.9-1.2,7.5
						c-0.4,2.6-0.8,5.2-1,7.8c-0.6,5.2-0.9,10.5-1.2,15.4c-0.2,4.9-0.4,9.6-0.4,13.5c-0.1,7.9,0.1,13.2,0.1,13.2L3.1,135.4z"/>
					<path clip-path="url(#SVGID_25_)" fill="#427839" d="M31.4,112c0,0-0.6-3.3-2-6.2c-0.7-1.4-1.6-2.7-2.3-3.7
						c-0.4-0.5-0.7-0.8-1-1.1c-0.2-0.3-0.4-0.4-0.4-0.4l0-0.1c0,0,0.2,0.1,0.5,0.2c0.3,0.1,0.8,0.5,1.2,0.9c0.5,0.4,1,1,1.4,1.6
						c0.4,0.7,0.8,1.4,1.1,2.2C31.3,108.6,31.5,112,31.4,112L31.4,112z"/>
					<path clip-path="url(#SVGID_25_)" fill="#427839" d="M29.6,111.6c0,0-0.4-0.7-0.8-1.7c-0.4-1.1-0.8-2.6-0.8-4.2
						c0-0.8,0.1-1.6,0.3-2.3c0.2-0.3,0.2-0.7,0.5-1c0.2-0.3,0.4-0.6,0.6-0.8c0.4-0.4,0.8-0.7,1.1-0.8c0.3-0.1,0.5-0.2,0.5-0.2l0,0.1
						c0,0-0.1,0.1-0.3,0.4c-0.2,0.2-0.5,0.6-0.8,1c-0.2,0.2-0.3,0.5-0.4,0.7c-0.1,0.3-0.2,0.6-0.4,0.9c-0.2,0.6-0.4,1.3-0.4,2.1
						c-0.1,1.5,0.2,3,0.4,4.1C29.4,110.9,29.7,111.6,29.6,111.6L29.6,111.6z"/>
					<path clip-path="url(#SVGID_25_)" fill="#427839" d="M31.3,110.3c0,0,0-0.7-0.1-1.8c-0.1-1.1-0.4-2.5-0.8-3.9
						c-0.2-0.7-0.5-1.4-0.7-2c-0.2-0.6-0.4-1.2-0.6-1.7c-0.3-1-0.6-1.8-0.6-1.8l0.1,0c0,0,0.1,0.1,0.3,0.4c0.2,0.3,0.5,0.6,0.7,1.1
						c0.6,1,1.1,2.4,1.3,3.9c0.3,1.5,0.5,2.9,0.5,4.1C31.4,109.6,31.3,110.3,31.3,110.3L31.3,110.3z"/>
					<path clip-path="url(#SVGID_25_)" fill="#427839" d="M27.6,107.5c0,0-0.6-3.3-2-6.2c-0.7-1.4-1.6-2.7-2.3-3.7
						c-0.4-0.5-0.7-0.8-1-1.1c-0.2-0.3-0.4-0.4-0.4-0.4l0-0.1c0,0,0.2,0.1,0.5,0.2c0.3,0.1,0.8,0.5,1.2,0.9c0.5,0.4,1,1,1.4,1.6
						c0.4,0.7,0.8,1.4,1.1,2.2C27.5,104.2,27.7,107.5,27.6,107.5L27.6,107.5z"/>
					<path clip-path="url(#SVGID_25_)" fill="#427839" d="M25.8,107.2c0,0-0.4-0.7-0.8-1.7c-0.4-1.1-0.8-2.6-0.8-4.2
						c0-0.8,0.1-1.6,0.3-2.3c0.2-0.3,0.2-0.7,0.5-1c0.2-0.3,0.4-0.6,0.6-0.8c0.4-0.4,0.8-0.7,1.1-0.8c0.3-0.1,0.5-0.2,0.5-0.2l0,0.1
						c0,0-0.1,0.1-0.3,0.4c-0.2,0.2-0.5,0.6-0.8,1c-0.2,0.2-0.3,0.5-0.4,0.7c-0.1,0.3-0.2,0.6-0.4,0.9c-0.2,0.6-0.4,1.3-0.4,2.1
						c-0.1,1.5,0.2,3,0.4,4.1C25.6,106.4,25.9,107.1,25.8,107.2L25.8,107.2z"/>
					<path clip-path="url(#SVGID_25_)" fill="#427839" d="M27.5,105.9c0,0,0-0.7-0.1-1.8c-0.1-1.1-0.4-2.5-0.8-3.9
						c-0.2-0.7-0.5-1.4-0.7-2c-0.2-0.6-0.4-1.2-0.6-1.7c-0.3-1-0.6-1.8-0.6-1.8l0.1,0c0,0,0.1,0.1,0.3,0.4c0.2,0.3,0.5,0.6,0.7,1.1
						c0.6,1,1.1,2.4,1.3,3.9c0.3,1.5,0.5,2.9,0.5,4.1C27.7,105.1,27.6,105.9,27.5,105.9L27.5,105.9z"/>
					<path clip-path="url(#SVGID_25_)" fill="#427839" d="M30.5,105.5c0,0-0.6-3.3-2-6.2c-0.7-1.4-1.6-2.7-2.3-3.7
						c-0.4-0.5-0.7-0.8-1-1.1c-0.2-0.3-0.4-0.4-0.4-0.4l0-0.1c0,0,0.2,0.1,0.5,0.2c0.3,0.1,0.8,0.5,1.2,0.9c0.5,0.4,1,1,1.4,1.6
						c0.4,0.7,0.8,1.4,1.1,2.2C30.3,102.2,30.5,105.5,30.5,105.5L30.5,105.5z"/>
					<path clip-path="url(#SVGID_25_)" fill="#427839" d="M28.7,105.2c0,0-0.4-0.7-0.8-1.7c-0.4-1.1-0.8-2.6-0.8-4.2
						c0-0.8,0.1-1.6,0.3-2.3c0.2-0.3,0.2-0.7,0.5-1c0.2-0.3,0.4-0.6,0.6-0.8c0.4-0.4,0.8-0.7,1.1-0.8c0.3-0.1,0.5-0.2,0.5-0.2l0,0.1
						c0,0-0.1,0.1-0.3,0.4c-0.2,0.2-0.5,0.6-0.8,1c-0.2,0.2-0.3,0.5-0.4,0.7c-0.1,0.3-0.2,0.6-0.4,0.9c-0.2,0.6-0.4,1.3-0.4,2.1
						c-0.1,1.5,0.2,3,0.4,4.1C28.5,104.5,28.7,105.2,28.7,105.2L28.7,105.2z"/>
					<path clip-path="url(#SVGID_25_)" fill="#427839" d="M30.3,103.9c0,0,0-0.7-0.1-1.8c-0.1-1.1-0.4-2.5-0.8-3.9
						c-0.2-0.7-0.5-1.4-0.7-2c-0.2-0.6-0.4-1.2-0.6-1.7c-0.3-1-0.6-1.8-0.6-1.8l0.1,0c0,0,0.1,0.1,0.3,0.4c0.2,0.3,0.5,0.6,0.7,1.1
						c0.6,1,1.1,2.4,1.3,3.9c0.3,1.5,0.5,2.9,0.5,4.1C30.5,103.2,30.4,103.9,30.3,103.9L30.3,103.9z"/>
					<path clip-path="url(#SVGID_25_)" fill="#427839" d="M37.9,115.8c0,0-0.6-3.3-2-6.2c-0.7-1.4-1.6-2.7-2.3-3.7
						c-0.4-0.5-0.7-0.8-1-1.1c-0.2-0.3-0.4-0.4-0.4-0.4l0-0.1c0,0,0.2,0.1,0.5,0.2c0.3,0.1,0.8,0.5,1.2,0.9c0.5,0.4,1,1,1.4,1.6
						c0.4,0.7,0.8,1.4,1.1,2.2C37.8,112.5,38,115.8,37.9,115.8L37.9,115.8z"/>
					<path clip-path="url(#SVGID_25_)" fill="#427839" d="M36.1,115.5c0,0-0.4-0.7-0.8-1.7c-0.4-1.1-0.8-2.6-0.8-4.2
						c0-0.8,0.1-1.6,0.3-2.3c0.2-0.3,0.2-0.7,0.5-1c0.2-0.3,0.4-0.6,0.6-0.8c0.4-0.4,0.8-0.7,1.1-0.8c0.3-0.1,0.5-0.2,0.5-0.2l0,0.1
						c0,0-0.1,0.1-0.3,0.4c-0.2,0.2-0.5,0.6-0.8,1c-0.2,0.2-0.3,0.5-0.4,0.7c-0.1,0.3-0.2,0.6-0.4,0.9c-0.2,0.6-0.4,1.3-0.4,2.1
						c-0.1,1.5,0.2,3,0.4,4.1C35.9,114.7,36.2,115.4,36.1,115.5L36.1,115.5z"/>
					<path clip-path="url(#SVGID_25_)" fill="#427839" d="M37.8,114.1c0,0,0-0.7-0.1-1.8c-0.1-1.1-0.4-2.5-0.8-3.9
						c-0.2-0.7-0.5-1.4-0.7-2c-0.2-0.6-0.4-1.2-0.6-1.7c-0.3-1-0.6-1.8-0.6-1.8l0.1,0c0,0,0.1,0.1,0.3,0.4c0.2,0.3,0.5,0.6,0.7,1.1
						c0.6,1,1.1,2.4,1.3,3.9c0.3,1.5,0.5,2.9,0.5,4.1C37.9,113.4,37.8,114.2,37.8,114.1L37.8,114.1z"/>
					<path clip-path="url(#SVGID_25_)" fill="#427839" d="M34.1,111.3c0,0-0.6-3.3-2-6.2c-0.7-1.4-1.6-2.7-2.3-3.7
						c-0.4-0.5-0.7-0.8-1-1.1c-0.2-0.3-0.4-0.4-0.4-0.4l0-0.1c0,0,0.2,0.1,0.5,0.2c0.3,0.1,0.8,0.5,1.2,0.9c0.5,0.4,1,1,1.4,1.6
						c0.4,0.7,0.8,1.4,1.1,2.2C34,108,34.2,111.3,34.1,111.3L34.1,111.3z"/>
					<path clip-path="url(#SVGID_25_)" fill="#427839" d="M32.3,111c0,0-0.4-0.7-0.8-1.7c-0.4-1.1-0.8-2.6-0.8-4.2
						c0-0.8,0.1-1.6,0.3-2.3c0.2-0.3,0.2-0.7,0.5-1c0.2-0.3,0.4-0.6,0.6-0.8c0.4-0.4,0.8-0.7,1.1-0.8c0.3-0.1,0.5-0.2,0.5-0.2l0,0.1
						c0,0-0.1,0.1-0.3,0.4c-0.2,0.2-0.5,0.6-0.8,1c-0.2,0.2-0.3,0.5-0.4,0.7s-0.2,0.6-0.4,0.9c-0.2,0.6-0.4,1.3-0.4,2.1
						c-0.1,1.5,0.2,3,0.4,4.1C32.1,110.3,32.4,111,32.3,111L32.3,111z"/>
					<path clip-path="url(#SVGID_25_)" fill="#427839" d="M34,109.7c0,0,0-0.7-0.1-1.8c-0.1-1.1-0.4-2.5-0.8-3.9
						c-0.2-0.7-0.5-1.4-0.7-2c-0.2-0.6-0.4-1.2-0.6-1.7c-0.3-1-0.6-1.8-0.6-1.8l0.1,0c0,0,0.1,0.1,0.3,0.4c0.2,0.3,0.5,0.6,0.7,1.1
						c0.6,1,1.1,2.4,1.3,3.9c0.3,1.5,0.5,2.9,0.5,4.1C34.2,108.9,34.1,109.7,34,109.7L34,109.7z"/>
					<path clip-path="url(#SVGID_25_)" fill="#427839" d="M37,109.3c0,0-0.6-3.3-2-6.2c-0.7-1.4-1.6-2.7-2.3-3.7
						c-0.4-0.5-0.7-0.8-1-1.1c-0.2-0.3-0.4-0.4-0.4-0.4l0-0.1c0,0,0.2,0.1,0.5,0.2c0.3,0.1,0.8,0.5,1.2,0.9c0.5,0.4,1,1,1.4,1.6
						c0.4,0.7,0.8,1.4,1.1,2.2C36.8,106,37,109.3,37,109.3L37,109.3z"/>
					<path clip-path="url(#SVGID_25_)" fill="#427839" d="M35.2,109c0,0-0.4-0.7-0.8-1.7c-0.4-1.1-0.8-2.6-0.8-4.2
						c0-0.8,0.1-1.6,0.3-2.3c0.2-0.3,0.2-0.7,0.5-1c0.2-0.3,0.4-0.6,0.6-0.8c0.4-0.4,0.8-0.7,1.1-0.8c0.3-0.1,0.5-0.2,0.5-0.2l0,0.1
						c0,0-0.1,0.1-0.3,0.4c-0.2,0.2-0.5,0.6-0.8,1c-0.2,0.2-0.3,0.5-0.4,0.7c-0.1,0.3-0.2,0.6-0.4,0.9c-0.2,0.6-0.4,1.3-0.4,2.1
						c-0.1,1.5,0.2,3,0.4,4.1C35,108.3,35.2,109,35.2,109L35.2,109z"/>
					<path clip-path="url(#SVGID_25_)" fill="#427839" d="M36.8,107.7c0,0,0-0.7-0.1-1.8c-0.1-1.1-0.4-2.5-0.8-3.9
						c-0.2-0.7-0.5-1.4-0.7-2c-0.2-0.6-0.4-1.2-0.6-1.7c-0.3-1-0.6-1.8-0.6-1.8l0.1,0c0,0,0.1,0.1,0.3,0.4c0.2,0.3,0.5,0.6,0.7,1.1
						c0.6,1,1.1,2.4,1.3,3.9c0.3,1.5,0.5,2.9,0.5,4.1C37,107,36.9,107.7,36.8,107.7L36.8,107.7z"/>
					<path clip-path="url(#SVGID_25_)" fill="#427839" d="M35.7,122.6c0,0-0.6-3.3-2-6.2c-0.7-1.4-1.6-2.7-2.3-3.7
						c-0.4-0.5-0.7-0.8-1-1.1c-0.2-0.3-0.4-0.4-0.4-0.4l0-0.1c0,0,0.2,0.1,0.5,0.2c0.3,0.1,0.8,0.5,1.2,0.9c0.5,0.4,1,1,1.4,1.6
						c0.4,0.7,0.8,1.4,1.1,2.2C35.6,119.3,35.8,122.6,35.7,122.6L35.7,122.6z"/>
					<path clip-path="url(#SVGID_25_)" fill="#427839" d="M34,122.3c0,0-0.4-0.7-0.8-1.7c-0.4-1.1-0.8-2.6-0.8-4.2
						c0-0.8,0.1-1.6,0.3-2.3c0.2-0.3,0.2-0.7,0.5-1c0.2-0.3,0.4-0.6,0.6-0.8c0.4-0.4,0.8-0.7,1.1-0.8c0.3-0.1,0.5-0.2,0.5-0.2l0,0.1
						c0,0-0.1,0.1-0.3,0.4c-0.2,0.2-0.5,0.6-0.8,1c-0.2,0.2-0.3,0.5-0.4,0.7c-0.1,0.3-0.2,0.6-0.4,0.9c-0.2,0.6-0.4,1.3-0.4,2.1
						c-0.1,1.5,0.2,3,0.4,4.1C33.7,121.5,34,122.2,34,122.3L34,122.3z"/>
					<path clip-path="url(#SVGID_25_)" fill="#427839" d="M35.6,120.9c0,0,0-0.7-0.1-1.8c-0.1-1.1-0.4-2.5-0.8-3.9
						c-0.2-0.7-0.5-1.4-0.7-2c-0.2-0.6-0.4-1.2-0.6-1.7c-0.3-1-0.6-1.8-0.6-1.8l0.1,0c0,0,0.1,0.1,0.3,0.4c0.2,0.3,0.5,0.6,0.7,1.1
						c0.6,1,1.1,2.4,1.3,3.9c0.3,1.5,0.5,2.9,0.5,4.1C35.8,120.2,35.7,120.9,35.6,120.9L35.6,120.9z"/>
					<path clip-path="url(#SVGID_25_)" fill="#427839" d="M32,118.1c0,0-0.6-3.3-2-6.2c-0.7-1.4-1.6-2.7-2.3-3.7
						c-0.4-0.5-0.7-0.8-1-1.1c-0.2-0.3-0.4-0.4-0.4-0.4l0-0.1c0,0,0.2,0.1,0.5,0.2c0.3,0.1,0.8,0.5,1.2,0.9c0.5,0.4,1,1,1.4,1.6
						c0.4,0.7,0.8,1.4,1.1,2.2C31.8,114.8,32.1,118.1,32,118.1L32,118.1z"/>
					<path clip-path="url(#SVGID_25_)" fill="#427839" d="M30.2,117.8c0,0-0.4-0.7-0.8-1.7c-0.4-1.1-0.8-2.6-0.8-4.2
						c0-0.8,0.1-1.6,0.3-2.3c0.2-0.3,0.2-0.7,0.5-1c0.2-0.3,0.4-0.6,0.6-0.8c0.4-0.4,0.8-0.7,1.1-0.8c0.3-0.1,0.5-0.2,0.5-0.2l0,0.1
						c0,0-0.1,0.1-0.3,0.4c-0.2,0.2-0.5,0.6-0.8,1c-0.2,0.2-0.3,0.5-0.4,0.7c-0.1,0.3-0.2,0.6-0.4,0.9c-0.2,0.6-0.4,1.3-0.4,2.1
						c-0.1,1.5,0.2,3,0.4,4.1C30,117.1,30.3,117.8,30.2,117.8L30.2,117.8z"/>
					<path clip-path="url(#SVGID_25_)" fill="#427839" d="M31.9,116.5c0,0,0-0.7-0.1-1.8c-0.1-1.1-0.4-2.5-0.8-3.9
						c-0.2-0.7-0.5-1.4-0.7-2c-0.2-0.6-0.4-1.2-0.6-1.7c-0.3-1-0.6-1.8-0.6-1.8l0.1,0c0,0,0.1,0.1,0.3,0.4c0.2,0.3,0.5,0.6,0.7,1.1
						c0.6,1,1.1,2.4,1.3,3.9c0.3,1.5,0.5,2.9,0.5,4.1C32,115.7,31.9,116.5,31.9,116.5L31.9,116.5z"/>
					<path clip-path="url(#SVGID_25_)" fill="#427839" d="M34.8,116.1c0,0-0.6-3.3-2-6.2c-0.7-1.4-1.6-2.7-2.3-3.7
						c-0.4-0.5-0.7-0.8-1-1.1c-0.2-0.3-0.4-0.4-0.4-0.4l0-0.1c0,0,0.2,0.1,0.5,0.2c0.3,0.1,0.8,0.5,1.2,0.9c0.5,0.4,1,1,1.4,1.6
						c0.4,0.7,0.8,1.4,1.1,2.2C34.7,112.8,34.9,116.1,34.8,116.1L34.8,116.1z"/>
					<path clip-path="url(#SVGID_25_)" fill="#427839" d="M33,115.8c0,0-0.4-0.7-0.8-1.7c-0.4-1.1-0.8-2.6-0.8-4.2
						c0-0.8,0.1-1.6,0.3-2.3c0.2-0.3,0.2-0.7,0.5-1c0.2-0.3,0.4-0.6,0.6-0.8c0.4-0.4,0.8-0.7,1.1-0.8c0.3-0.1,0.5-0.2,0.5-0.2l0,0.1
						c0,0-0.1,0.1-0.3,0.4c-0.2,0.2-0.5,0.6-0.8,1c-0.2,0.2-0.3,0.5-0.4,0.7c-0.1,0.3-0.2,0.6-0.4,0.9c-0.2,0.6-0.4,1.3-0.4,2.1
						c-0.1,1.5,0.2,3,0.4,4.1C32.8,115.1,33.1,115.8,33,115.8L33,115.8z"/>
					<path clip-path="url(#SVGID_25_)" fill="#427839" d="M34.7,114.5c0,0,0-0.7-0.1-1.8c-0.1-1.1-0.4-2.5-0.8-3.9
						c-0.2-0.7-0.5-1.4-0.7-2c-0.2-0.6-0.4-1.2-0.6-1.7c-0.3-1-0.6-1.8-0.6-1.8l0.1,0c0,0,0.1,0.1,0.3,0.4c0.2,0.3,0.5,0.6,0.7,1.1
						c0.6,1,1.1,2.4,1.3,3.9c0.3,1.5,0.5,2.9,0.5,4.1C34.9,113.8,34.8,114.5,34.7,114.5L34.7,114.5z"/>
					<path clip-path="url(#SVGID_25_)" fill="#427839" d="M26.9,128.8c0,0,0.2-5.3,0.1-13.2c-0.1-4-0.2-8.6-0.4-13.5
						c-0.3-4.9-0.6-10.2-1.2-15.4c-0.2-2.6-0.7-5.2-1-7.8c-0.3-2.6-0.8-5.1-1.2-7.5c-0.4-2.4-0.9-4.7-1.3-7c-0.4-2.2-1-4.3-1.4-6.2
						c-0.5-1.9-1-3.6-1.5-5.2c-0.4-1.6-0.9-2.8-1.3-3.9c-0.8-2.2-1.2-3.4-1.2-3.4l0.2-0.1c0,0,0.7,1.1,1.7,3.2
						c0.6,1,1.2,2.3,1.8,3.8c0.6,1.5,1.4,3.2,1.9,5.1c0.5,1.9,1.2,4,1.8,6.2c0.5,2.2,1.1,4.6,1.5,7c0.3,2.5,0.8,5,1,7.6
						c0.3,2.6,0.6,5.2,0.7,7.9c0.4,5.3,0.6,10.6,0.7,15.6c0.1,5,0,9.6-0.1,13.6c-0.2,7.9-0.7,13.2-0.7,13.2L26.9,128.8z"/>
					<path clip-path="url(#SVGID_25_)" fill="#427839" d="M18.5,135.4c0,0,0.2-5.3,0.1-13.2c-0.1-4-0.2-8.6-0.4-13.5
						c-0.3-4.9-0.6-10.2-1.2-15.4c-0.2-2.6-0.6-5.2-1-7.8c-0.3-2.6-0.8-5.1-1.2-7.5c-0.4-2.4-0.9-4.7-1.3-7c-0.4-2.2-1-4.3-1.4-6.2
						c-0.5-1.9-1-3.6-1.5-5.2c-0.4-1.6-0.9-2.8-1.3-3.9c-0.8-2.2-1.2-3.4-1.2-3.4l0.2-0.1c0,0,0.7,1.1,1.7,3.2
						c0.6,1,1.2,2.3,1.8,3.8c0.6,1.5,1.4,3.2,1.9,5.1c0.5,1.9,1.2,4,1.8,6.2c0.5,2.2,1.1,4.6,1.5,7c0.3,2.5,0.8,5,1,7.6
						c0.3,2.6,0.6,5.2,0.7,7.9c0.4,5.3,0.6,10.6,0.7,15.6c0.1,5,0,9.6-0.1,13.6c-0.2,7.9-0.7,13.2-0.7,13.2L18.5,135.4z"/>
					<path clip-path="url(#SVGID_25_)" fill="#427839" d="M7.7,128.8c0,0,0.2-5.3,0.1-13.2c-0.1-4-0.2-8.6-0.4-13.5
						c-0.3-4.9-0.6-10.2-1.2-15.4c-0.2-2.6-0.6-5.2-1-7.8c-0.3-2.6-0.8-5.1-1.2-7.5c-0.4-2.4-0.9-4.7-1.3-7c-0.4-2.2-1-4.3-1.4-6.2
						c-0.5-1.9-1-3.6-1.5-5.2c-0.4-1.6-0.9-2.8-1.3-3.9c-0.8-2.2-1.2-3.4-1.2-3.4l0.2-0.1c0,0,0.7,1.1,1.7,3.2
						c0.6,1,1.2,2.3,1.8,3.8c0.6,1.5,1.4,3.2,1.9,5.1c0.5,1.9,1.2,4,1.8,6.2c0.5,2.2,1.1,4.6,1.5,7c0.3,2.5,0.8,5,1,7.6
						c0.3,2.6,0.6,5.2,0.7,7.9c0.4,5.3,0.6,10.6,0.7,15.6c0.1,5,0,9.6-0.1,13.6c-0.2,7.9-0.7,13.2-0.7,13.2L7.7,128.8z"/>
					<path clip-path="url(#SVGID_25_)" fill="#427839" d="M21.4,127.4c0,0,0.2-5.3,0.1-13.2c-0.1-4-0.2-8.6-0.4-13.5
						c-0.3-4.9-0.6-10.2-1.2-15.4c-0.2-2.6-0.6-5.2-1-7.8c-0.3-2.6-0.8-5.1-1.2-7.5c-0.4-2.4-0.9-4.7-1.3-7c-0.4-2.2-1-4.3-1.4-6.2
						c-0.5-1.9-1-3.6-1.5-5.2c-0.4-1.6-0.9-2.8-1.3-3.9c-0.8-2.2-1.2-3.4-1.2-3.4l0.2-0.1c0,0,0.7,1.1,1.7,3.2
						c0.6,1,1.2,2.3,1.8,3.8c0.6,1.5,1.4,3.2,1.9,5.1c0.5,1.9,1.2,4,1.8,6.2c0.5,2.2,1.1,4.6,1.5,7c0.3,2.5,0.8,5,1,7.6
						c0.3,2.6,0.6,5.2,0.7,7.9c0.4,5.3,0.6,10.6,0.7,15.6c0.1,5,0,9.6-0.1,13.6c-0.2,7.9-0.7,13.2-0.7,13.2L21.4,127.4z"/>
					<path clip-path="url(#SVGID_25_)" fill="#427839" d="M348.9,130.8c0,0,2.2-4.7,4.9-11.9c1.4-3.6,2.9-7.9,4.4-12.5
						c0.7-2.3,1.5-4.7,2.2-7.1c0.7-2.4,1.4-4.9,2-7.4c0.6-2.5,1.1-5,1.6-7.5c0.5-2.5,0.8-4.9,1.2-7.3c0.4-2.4,0.5-4.7,0.8-6.9
						c0.3-2.2,0.2-4.3,0.4-6.2c0.1-1.9-0.1-3.7-0.1-5.2c0-1.6-0.2-2.9-0.4-4c-0.3-2.2-0.4-3.5-0.4-3.5l0.2-0.1c0,0,0.4,1.2,1.1,3.4
						c0.2,0.6,0.3,1.2,0.5,1.8c0.2,0.7,0.2,1.4,0.4,2.2c0.2,1.6,0.6,3.4,0.6,5.4c0,2,0.1,4.1,0,6.4c-0.2,2.2-0.3,4.6-0.7,7.1
						c-0.5,2.4-0.8,4.9-1.4,7.4c-0.6,2.5-1.2,5-1.9,7.5c-0.7,2.5-1.4,5-2.2,7.4c-0.7,2.4-1.6,4.8-2.4,7.1c-1.7,4.6-3.4,8.8-4.9,12.3
						c-3.1,7.1-5.5,11.7-5.5,11.7L348.9,130.8z"/>
					<path clip-path="url(#SVGID_25_)" fill="#427839" d="M357.6,148.3c0,0,2.2-4.7,4.9-11.9c1.4-3.6,2.9-7.9,4.4-12.5
						c0.7-2.3,1.5-4.7,2.2-7.1c0.7-2.4,1.4-4.9,2-7.4c0.6-2.5,1.1-5,1.6-7.5c0.5-2.5,0.8-4.9,1.2-7.3c0.4-2.4,0.5-4.7,0.8-6.9
						c0.3-2.2,0.2-4.3,0.4-6.2c0.1-1.9-0.1-3.7-0.1-5.2c0-1.6-0.2-2.9-0.4-4c-0.3-2.2-0.4-3.5-0.4-3.5l0.2-0.1c0,0,0.4,1.2,1.1,3.4
						c0.2,0.6,0.3,1.2,0.5,1.8c0.2,0.7,0.2,1.4,0.4,2.2c0.2,1.6,0.6,3.4,0.6,5.4c0,2,0.1,4.1,0,6.4c-0.2,2.2-0.3,4.6-0.7,7.1
						c-0.5,2.4-0.8,4.9-1.4,7.4c-0.6,2.5-1.2,5-1.9,7.5c-0.7,2.5-1.4,5-2.2,7.4c-0.7,2.4-1.6,4.8-2.4,7.1c-1.7,4.6-3.4,8.8-4.9,12.3
						c-3.1,7.1-5.5,11.7-5.5,11.7L357.6,148.3z"/>
					<path clip-path="url(#SVGID_25_)" fill="#427839" d="M341.8,123.7c0,0,0.4-0.8,1.2-2c0.8-1.2,2-2.6,3.5-3.9
						c0.7-0.6,1.5-1.2,2.2-1.7c0.8-0.5,1.6-0.7,2.2-0.9c1.4-0.4,2.3-0.3,2.3-0.3l0,0.1c0,0-0.2,0.1-0.6,0.3
						c-0.4,0.2-0.9,0.4-1.5,0.7c-0.6,0.3-1.3,0.7-2,1.1c-0.7,0.4-1.5,0.9-2.3,1.4c-1.5,1.1-2.8,2.4-3.7,3.5
						C342.4,123,341.9,123.8,341.8,123.7L341.8,123.7z"/>
					<path clip-path="url(#SVGID_25_)" fill="#427839" d="M344.3,123.9c0,0,0.6-0.5,1.3-1.4c0.7-0.9,1.7-2.2,2.1-3.6
						c0.2-0.7,0.3-1.4,0.2-2.1c-0.1-0.6-0.2-1.3-0.5-1.7c-0.1-0.2-0.2-0.5-0.3-0.7c-0.1-0.2-0.3-0.3-0.4-0.5
						c-0.2-0.3-0.3-0.5-0.3-0.5l0.1-0.1c0,0,0.2,0.1,0.5,0.3c0.3,0.2,0.7,0.5,1.1,1c0.2,0.2,0.3,0.6,0.5,0.9
						c0.2,0.3,0.2,0.7,0.3,1.1c0,0.8-0.2,1.7-0.5,2.4c-0.7,1.5-1.7,2.7-2.6,3.6C345,123.5,344.4,124,344.3,123.9L344.3,123.9z"/>
					<path clip-path="url(#SVGID_25_)" fill="#427839" d="M342.6,122.3c0,0,0.2-0.8,0.7-1.9c0.5-1.1,1.3-2.5,2.2-3.7
						c0.5-0.6,1-1.3,1.5-1.8c0.5-0.5,1.1-0.9,1.6-1.3c0.5-0.3,0.9-0.6,1.2-0.7c0.3-0.1,0.5-0.2,0.5-0.2l0.1,0.1c0,0-0.5,0.6-1.3,1.4
						c-0.4,0.4-0.9,0.9-1.4,1.4c-0.5,0.5-1.1,1-1.6,1.6c-1,1.1-1.9,2.4-2.5,3.4C343,121.6,342.7,122.3,342.6,122.3L342.6,122.3z"/>
					<path clip-path="url(#SVGID_25_)" fill="#427839" d="M348.4,120.7c0,0,0.4-0.8,1.2-2c0.8-1.2,2-2.6,3.5-3.9
						c0.7-0.6,1.5-1.2,2.2-1.7c0.8-0.5,1.6-0.7,2.2-0.9c1.4-0.4,2.3-0.3,2.3-0.3l0,0.1c0,0-0.2,0.1-0.6,0.3
						c-0.4,0.2-0.9,0.4-1.5,0.7c-0.6,0.3-1.3,0.7-2,1.1c-0.7,0.4-1.5,0.9-2.3,1.4c-1.5,1.1-2.8,2.4-3.7,3.5
						C348.9,120,348.4,120.8,348.4,120.7L348.4,120.7z"/>
					<path clip-path="url(#SVGID_25_)" fill="#427839" d="M350.8,120.9c0,0,0.6-0.5,1.3-1.4c0.7-0.9,1.7-2.2,2.1-3.6
						c0.2-0.7,0.3-1.4,0.2-2.1c-0.1-0.6-0.2-1.3-0.5-1.7c-0.1-0.2-0.2-0.5-0.3-0.7c-0.1-0.2-0.3-0.3-0.4-0.5
						c-0.2-0.3-0.3-0.5-0.3-0.5l0.1-0.1c0,0,0.2,0.1,0.5,0.3c0.3,0.2,0.7,0.5,1.1,1c0.2,0.2,0.3,0.6,0.5,0.9
						c0.2,0.3,0.2,0.7,0.3,1.1c0,0.8-0.2,1.7-0.5,2.4c-0.7,1.5-1.7,2.7-2.6,3.6C351.5,120.5,350.9,121,350.8,120.9L350.8,120.9z"/>
					<path clip-path="url(#SVGID_25_)" fill="#427839" d="M349.1,119.3c0,0,0.2-0.8,0.7-1.9c0.5-1.1,1.3-2.5,2.2-3.7
						c0.5-0.6,1-1.3,1.5-1.8c0.5-0.5,1.1-0.9,1.6-1.3c0.5-0.3,0.9-0.6,1.2-0.7c0.3-0.1,0.5-0.2,0.5-0.2l0.1,0.1c0,0-0.5,0.6-1.3,1.4
						c-0.4,0.4-0.9,0.9-1.4,1.4c-0.5,0.5-1.1,1-1.6,1.6c-1,1.1-1.9,2.4-2.5,3.4C349.5,118.6,349.2,119.3,349.1,119.3L349.1,119.3z"
						/>
					<path clip-path="url(#SVGID_25_)" fill="#427839" d="M345.4,118.1c0,0,0.4-0.8,1.2-2c0.8-1.2,2-2.6,3.5-3.9
						c0.7-0.6,1.5-1.2,2.2-1.7c0.8-0.5,1.6-0.7,2.2-0.9c1.4-0.4,2.3-0.3,2.3-0.3l0,0.1c0,0-0.2,0.1-0.6,0.3
						c-0.4,0.2-0.9,0.4-1.5,0.7c-0.6,0.3-1.3,0.7-2,1.1c-0.7,0.4-1.5,0.9-2.3,1.4c-1.5,1.1-2.8,2.4-3.7,3.5
						C346,117.3,345.5,118.1,345.4,118.1L345.4,118.1z"/>
					<path clip-path="url(#SVGID_25_)" fill="#427839" d="M347.9,118.3c0,0,0.6-0.5,1.3-1.4c0.7-0.9,1.7-2.2,2.1-3.6
						c0.2-0.7,0.3-1.4,0.2-2.1c-0.1-0.6-0.2-1.3-0.5-1.7c-0.1-0.2-0.2-0.5-0.3-0.7c-0.1-0.2-0.3-0.3-0.4-0.5
						c-0.2-0.3-0.3-0.5-0.3-0.5l0.1-0.1c0,0,0.2,0.1,0.5,0.3c0.3,0.2,0.7,0.5,1.1,1c0.2,0.2,0.3,0.6,0.5,0.9
						c0.2,0.3,0.2,0.7,0.3,1.1c0,0.8-0.2,1.7-0.5,2.4c-0.7,1.5-1.7,2.7-2.6,3.6C348.5,117.9,347.9,118.3,347.9,118.3L347.9,118.3z"
						/>
					<path clip-path="url(#SVGID_25_)" fill="#427839" d="M346.1,116.6c0,0,0.2-0.8,0.7-1.9c0.5-1.1,1.3-2.5,2.2-3.7
						c0.5-0.6,1-1.3,1.5-1.8c0.5-0.5,1.1-0.9,1.6-1.3c0.5-0.3,0.9-0.6,1.2-0.7c0.3-0.1,0.5-0.2,0.5-0.2l0.1,0.1c0,0-0.5,0.6-1.3,1.4
						c-0.4,0.4-0.9,0.9-1.4,1.4c-0.5,0.5-1.1,1-1.6,1.6c-1,1.1-1.9,2.4-2.5,3.4C346.5,115.9,346.2,116.6,346.1,116.6L346.1,116.6z"
						/>
					<path clip-path="url(#SVGID_25_)" fill="#427839" d="M332,125.4c0,0,0.4-0.8,1.2-2c0.8-1.2,2-2.6,3.5-3.9
						c0.7-0.6,1.5-1.2,2.2-1.7c0.8-0.5,1.6-0.7,2.2-0.9c1.4-0.4,2.3-0.3,2.3-0.3l0,0.1c0,0-0.2,0.1-0.6,0.3
						c-0.4,0.2-0.9,0.4-1.5,0.7c-0.6,0.3-1.3,0.7-2,1.1c-0.7,0.4-1.5,0.9-2.3,1.4c-1.5,1.1-2.8,2.4-3.7,3.5
						C332.6,124.6,332.1,125.4,332,125.4L332,125.4z"/>
					<path clip-path="url(#SVGID_25_)" fill="#427839" d="M334.5,125.5c0,0,0.6-0.5,1.3-1.4c0.7-0.9,1.7-2.2,2.1-3.6
						c0.2-0.7,0.3-1.4,0.2-2.1c-0.1-0.6-0.2-1.3-0.5-1.7c-0.1-0.2-0.2-0.5-0.3-0.7c-0.1-0.2-0.3-0.3-0.4-0.5
						c-0.2-0.3-0.3-0.5-0.3-0.5l0.1-0.1c0,0,0.2,0.1,0.5,0.3c0.3,0.2,0.7,0.5,1.1,1c0.2,0.2,0.3,0.6,0.5,0.9
						c0.2,0.3,0.2,0.7,0.3,1.1c0,0.8-0.2,1.7-0.5,2.4c-0.7,1.5-1.7,2.7-2.6,3.6C335.2,125.2,334.5,125.6,334.5,125.5L334.5,125.5z"
						/>
					<path clip-path="url(#SVGID_25_)" fill="#427839" d="M332.8,123.9c0,0,0.2-0.8,0.7-1.9c0.5-1.1,1.3-2.5,2.2-3.7
						c0.5-0.6,1-1.3,1.5-1.8c0.5-0.5,1.1-0.9,1.6-1.3c0.5-0.3,0.9-0.6,1.2-0.7c0.3-0.1,0.5-0.2,0.5-0.2l0.1,0.1c0,0-0.5,0.6-1.3,1.4
						c-0.4,0.4-0.9,0.9-1.4,1.4c-0.5,0.5-1.1,1-1.6,1.6c-1,1.1-1.9,2.4-2.5,3.4C333.1,123.2,332.9,123.9,332.8,123.9L332.8,123.9z"
						/>
					<path clip-path="url(#SVGID_25_)" fill="#427839" d="M338.5,122.3c0,0,0.4-0.8,1.2-2c0.8-1.2,2-2.6,3.5-3.9
						c0.7-0.6,1.5-1.2,2.2-1.7c0.8-0.5,1.6-0.7,2.2-0.9c1.4-0.4,2.3-0.3,2.3-0.3l0,0.1c0,0-0.2,0.1-0.6,0.3
						c-0.4,0.2-0.9,0.4-1.5,0.7c-0.6,0.3-1.3,0.7-2,1.1c-0.7,0.4-1.5,0.9-2.3,1.4c-1.5,1.1-2.8,2.4-3.7,3.5
						C339.1,121.6,338.6,122.4,338.5,122.3L338.5,122.3z"/>
					<path clip-path="url(#SVGID_25_)" fill="#427839" d="M341,122.5c0,0,0.6-0.5,1.3-1.4c0.7-0.9,1.7-2.2,2.1-3.6
						c0.2-0.7,0.3-1.4,0.2-2.1c-0.1-0.6-0.2-1.3-0.5-1.7c-0.1-0.2-0.2-0.5-0.3-0.7c-0.1-0.2-0.3-0.3-0.4-0.5
						c-0.2-0.3-0.3-0.5-0.3-0.5l0.1-0.1c0,0,0.2,0.1,0.5,0.3c0.3,0.2,0.7,0.5,1.1,1c0.2,0.2,0.3,0.6,0.5,0.9
						c0.2,0.3,0.2,0.7,0.3,1.1c0,0.8-0.2,1.7-0.5,2.4c-0.7,1.5-1.7,2.7-2.6,3.6C341.7,122.1,341.1,122.6,341,122.5L341,122.5z"/>
					<path clip-path="url(#SVGID_25_)" fill="#427839" d="M339.3,120.9c0,0,0.2-0.8,0.7-1.9c0.5-1.1,1.3-2.5,2.2-3.7
						c0.5-0.6,1-1.3,1.5-1.8c0.5-0.5,1.1-0.9,1.6-1.3c0.5-0.3,0.9-0.6,1.2-0.7c0.3-0.1,0.5-0.2,0.5-0.2l0.1,0.1c0,0-0.5,0.6-1.3,1.4
						c-0.4,0.4-0.9,0.9-1.4,1.4c-0.5,0.5-1.1,1-1.6,1.6c-1,1.1-1.9,2.4-2.5,3.4C339.6,120.2,339.4,120.9,339.3,120.9L339.3,120.9z"
						/>
					<path clip-path="url(#SVGID_25_)" fill="#427839" d="M335.6,119.7c0,0,0.4-0.8,1.2-2c0.8-1.2,2-2.6,3.5-3.9
						c0.7-0.6,1.5-1.2,2.2-1.7c0.8-0.5,1.6-0.7,2.2-0.9c1.4-0.4,2.3-0.3,2.3-0.3l0,0.1c0,0-0.2,0.1-0.6,0.3
						c-0.4,0.2-0.9,0.4-1.5,0.7c-0.6,0.3-1.3,0.7-2,1.1c-0.7,0.4-1.5,0.9-2.3,1.4c-1.5,1.1-2.8,2.4-3.7,3.5
						C336.1,118.9,335.6,119.7,335.6,119.7L335.6,119.7z"/>
					<path clip-path="url(#SVGID_25_)" fill="#427839" d="M338,119.9c0,0,0.6-0.5,1.3-1.4c0.7-0.9,1.7-2.2,2.1-3.6
						c0.2-0.7,0.3-1.4,0.2-2.1c-0.1-0.6-0.2-1.3-0.5-1.7c-0.1-0.2-0.2-0.5-0.3-0.7c-0.1-0.2-0.3-0.3-0.4-0.5
						c-0.2-0.3-0.3-0.5-0.3-0.5l0.1-0.1c0,0,0.2,0.1,0.5,0.3c0.3,0.2,0.7,0.5,1.1,1c0.2,0.2,0.3,0.6,0.5,0.9
						c0.2,0.3,0.2,0.7,0.3,1.1c0,0.8-0.2,1.7-0.5,2.4c-0.7,1.5-1.7,2.7-2.6,3.6C338.7,119.5,338.1,119.9,338,119.9L338,119.9z"/>
					<path clip-path="url(#SVGID_25_)" fill="#427839" d="M336.3,118.2c0,0,0.2-0.8,0.7-1.9c0.5-1.1,1.3-2.5,2.2-3.7
						c0.5-0.6,1-1.3,1.5-1.8c0.5-0.5,1.1-0.9,1.6-1.3c0.5-0.3,0.9-0.6,1.2-0.7c0.3-0.1,0.5-0.2,0.5-0.2l0.1,0.1c0,0-0.5,0.6-1.3,1.4
						c-0.4,0.4-0.9,0.9-1.4,1.4c-0.5,0.5-1.1,1-1.6,1.6c-1,1.1-1.9,2.4-2.5,3.4C336.7,117.5,336.4,118.2,336.3,118.2L336.3,118.2z"
						/>
					<path clip-path="url(#SVGID_25_)" fill="#427839" d="M332.3,132.2c0,0,0.4-0.8,1.2-2c0.8-1.2,2-2.6,3.5-3.9
						c0.7-0.6,1.5-1.2,2.2-1.7c0.8-0.5,1.6-0.7,2.2-0.9c1.4-0.4,2.3-0.3,2.3-0.3l0,0.1c0,0-0.2,0.1-0.6,0.3
						c-0.4,0.2-0.9,0.4-1.5,0.7c-0.6,0.3-1.3,0.7-2,1.1c-0.7,0.4-1.5,0.9-2.3,1.4c-1.5,1.1-2.8,2.4-3.7,3.5
						C332.9,131.5,332.4,132.3,332.3,132.2L332.3,132.2z"/>
					<path clip-path="url(#SVGID_25_)" fill="#427839" d="M334.8,132.4c0,0,0.6-0.5,1.3-1.4c0.7-0.9,1.7-2.2,2.1-3.6
						c0.2-0.7,0.3-1.4,0.2-2.1c-0.1-0.6-0.2-1.3-0.5-1.7c-0.1-0.2-0.2-0.5-0.3-0.7c-0.1-0.2-0.3-0.3-0.4-0.5
						c-0.2-0.3-0.3-0.5-0.3-0.5l0.1-0.1c0,0,0.2,0.1,0.5,0.3c0.3,0.2,0.7,0.5,1.1,1c0.2,0.2,0.3,0.6,0.5,0.9
						c0.2,0.3,0.2,0.7,0.3,1.1c0,0.8-0.2,1.7-0.5,2.4c-0.7,1.5-1.7,2.7-2.6,3.6C335.5,132.1,334.9,132.5,334.8,132.4L334.8,132.4z"
						/>
					<path clip-path="url(#SVGID_25_)" fill="#427839" d="M333.1,130.8c0,0,0.2-0.8,0.7-1.9c0.5-1.1,1.3-2.5,2.2-3.7
						c0.5-0.6,1-1.3,1.5-1.8c0.5-0.5,1.1-0.9,1.6-1.3c0.5-0.3,0.9-0.6,1.2-0.7c0.3-0.1,0.5-0.2,0.5-0.2l0.1,0.1c0,0-0.5,0.6-1.3,1.4
						c-0.4,0.4-0.9,0.9-1.4,1.4c-0.5,0.5-1.1,1-1.6,1.6c-1,1.1-1.9,2.4-2.5,3.4C333.5,130.1,333.2,130.8,333.1,130.8L333.1,130.8z"
						/>
					<path clip-path="url(#SVGID_25_)" fill="#427839" d="M338.8,129.2c0,0,0.4-0.8,1.2-2c0.8-1.2,2-2.6,3.5-3.9
						c0.7-0.6,1.5-1.2,2.2-1.7c0.8-0.5,1.6-0.7,2.2-0.9c1.4-0.4,2.3-0.3,2.3-0.3l0,0.1c0,0-0.2,0.1-0.6,0.3
						c-0.4,0.2-0.9,0.4-1.5,0.7c-0.6,0.3-1.3,0.7-2,1.1c-0.7,0.4-1.5,0.9-2.3,1.4c-1.5,1.1-2.8,2.4-3.7,3.5
						C339.4,128.5,338.9,129.3,338.8,129.2L338.8,129.2z"/>
					<path clip-path="url(#SVGID_25_)" fill="#427839" d="M341.3,129.4c0,0,0.6-0.5,1.3-1.4c0.7-0.9,1.7-2.2,2.1-3.6
						c0.2-0.7,0.3-1.4,0.2-2.1c-0.1-0.6-0.2-1.3-0.5-1.7c-0.1-0.2-0.2-0.5-0.3-0.7c-0.1-0.2-0.3-0.3-0.4-0.5
						c-0.2-0.3-0.3-0.5-0.3-0.5l0.1-0.1c0,0,0.2,0.1,0.5,0.3c0.3,0.2,0.7,0.5,1.1,1c0.2,0.2,0.3,0.6,0.5,0.9
						c0.2,0.3,0.2,0.7,0.3,1.1c0,0.8-0.2,1.7-0.5,2.4c-0.7,1.5-1.7,2.7-2.6,3.6C342,129,341.4,129.5,341.3,129.4L341.3,129.4z"/>
					<path clip-path="url(#SVGID_25_)" fill="#427839" d="M339.6,127.8c0,0,0.2-0.8,0.7-1.9c0.5-1.1,1.3-2.5,2.2-3.7
						c0.5-0.6,1-1.3,1.5-1.8c0.5-0.5,1.1-0.9,1.6-1.3c0.5-0.3,0.9-0.6,1.2-0.7c0.3-0.1,0.5-0.2,0.5-0.2l0.1,0.1c0,0-0.5,0.6-1.3,1.4
						c-0.4,0.4-0.9,0.9-1.4,1.4c-0.5,0.5-1.1,1-1.6,1.6c-1,1.1-1.9,2.4-2.5,3.4C340,127.1,339.7,127.8,339.6,127.8L339.6,127.8z"/>
					<path clip-path="url(#SVGID_25_)" fill="#427839" d="M335.9,126.6c0,0,0.4-0.8,1.2-2c0.8-1.2,2-2.6,3.5-3.9
						c0.7-0.6,1.5-1.2,2.2-1.7c0.8-0.5,1.6-0.7,2.2-0.9c1.4-0.4,2.3-0.3,2.3-0.3l0,0.1c0,0-0.2,0.1-0.6,0.3
						c-0.4,0.2-0.9,0.4-1.5,0.7c-0.6,0.3-1.3,0.7-2,1.1c-0.7,0.4-1.5,0.9-2.3,1.4c-1.5,1.1-2.8,2.4-3.7,3.5
						C336.5,125.8,336,126.6,335.9,126.6L335.9,126.6z"/>
					<path clip-path="url(#SVGID_25_)" fill="#427839" d="M338.3,126.8c0,0,0.6-0.5,1.3-1.4c0.7-0.9,1.7-2.2,2.1-3.6
						c0.2-0.7,0.3-1.4,0.2-2.1c-0.1-0.6-0.2-1.3-0.5-1.7c-0.1-0.2-0.2-0.5-0.3-0.7c-0.1-0.2-0.3-0.3-0.4-0.5
						c-0.2-0.3-0.3-0.5-0.3-0.5l0.1-0.1c0,0,0.2,0.1,0.5,0.3c0.3,0.2,0.7,0.5,1.1,1c0.2,0.2,0.3,0.6,0.5,0.9
						c0.2,0.3,0.2,0.7,0.3,1.1c0,0.8-0.2,1.7-0.5,2.4c-0.7,1.5-1.7,2.7-2.6,3.6C339,126.4,338.4,126.8,338.3,126.8L338.3,126.8z"/>
					<path clip-path="url(#SVGID_25_)" fill="#427839" d="M336.6,125.1c0,0,0.2-0.8,0.7-1.9c0.5-1.1,1.3-2.5,2.2-3.7
						c0.5-0.6,1-1.3,1.5-1.8c0.5-0.5,1.1-0.9,1.6-1.3c0.5-0.3,0.9-0.6,1.2-0.7c0.3-0.1,0.5-0.2,0.5-0.2l0.1,0.1c0,0-0.5,0.6-1.3,1.4
						c-0.4,0.4-0.9,0.9-1.4,1.4c-0.5,0.5-1.1,1-1.6,1.6c-1,1.1-1.9,2.4-2.5,3.4C337,124.4,336.7,125.1,336.6,125.1L336.6,125.1z"/>
					<path clip-path="url(#SVGID_25_)" fill="#427839" d="M341.4,140.6c0,0,1.4-5.3,4.2-13c1.4-3.8,3.1-8.3,5.1-13
						c1-2.4,2.1-4.8,3.2-7.2c1.1-2.5,2.4-4.9,3.6-7.3c1.2-2.4,2.6-4.8,3.9-7.1c1.4-2.3,2.8-4.5,4.2-6.7c1.6-2,3-4.1,4.5-5.9
						c1.6-1.7,3-3.4,4.4-4.9c1.5-1.4,2.9-2.7,4.1-3.8c1.2-1.2,2.4-1.9,3.4-2.6c1.9-1.4,3-2.1,3-2.1l0.1,0.2c0,0-1,1-2.6,2.6
						c-0.8,0.9-1.9,1.7-3,3c-1.1,1.2-2.3,2.6-3.6,4.1c-1.2,1.6-2.6,3.3-4,5.1c-1.3,1.9-2.8,3.8-4.2,5.9c-1.4,2.1-2.9,4.2-4.3,6.4
						c-1.4,2.3-2.8,4.5-4.2,6.9c-1.3,2.4-2.7,4.7-3.8,7.1c-1.2,2.4-2.4,4.7-3.5,7c-2.2,4.6-4,9-5.6,12.7c-3.1,7.5-4.7,12.7-4.7,12.7
						L341.4,140.6z"/>
					<path clip-path="url(#SVGID_25_)" fill="#427839" d="M349.9,149c0,0,1.4-5.3,4.2-13c1.4-3.8,3.1-8.3,5.1-13
						c1-2.4,2.1-4.8,3.2-7.2c1.1-2.5,2.4-4.9,3.6-7.3c1.2-2.4,2.6-4.8,3.9-7.1c1.4-2.3,2.8-4.5,4.2-6.7c1.6-2,3-4.1,4.5-5.9
						c1.6-1.7,3-3.4,4.4-4.9c1.5-1.4,2.9-2.7,4.1-3.8c1.2-1.2,2.4-1.9,3.4-2.6c1.9-1.4,3-2.1,3-2.1l0.1,0.2c0,0-1,1-2.6,2.6
						c-0.8,0.9-1.9,1.7-3,3c-1.1,1.2-2.3,2.6-3.6,4.1c-1.2,1.6-2.6,3.3-4,5.1c-1.3,1.9-2.8,3.8-4.2,5.9c-1.4,2.1-2.9,4.2-4.3,6.4
						c-1.4,2.3-2.8,4.5-4.2,6.9c-1.3,2.4-2.7,4.7-3.8,7.1c-1.2,2.4-2.4,4.7-3.5,7c-2.2,4.6-4,9-5.6,12.7c-3.1,7.5-4.7,12.7-4.7,12.7
						L349.9,149z"/>
					<path clip-path="url(#SVGID_25_)" fill="#427839" d="M349,140.8c0,0,1.4-5.3,4.2-13c1.4-3.8,3.1-8.3,5.1-13
						c1-2.4,2.1-4.8,3.2-7.2c1.1-2.5,2.4-4.9,3.6-7.3c1.2-2.4,2.6-4.8,3.9-7.1c1.4-2.3,2.8-4.5,4.2-6.7c1.6-2,3-4.1,4.5-5.9
						c1.6-1.7,3-3.4,4.4-4.9c1.5-1.4,2.9-2.7,4.1-3.8c1.2-1.2,2.4-1.9,3.4-2.6c1.9-1.4,3-2.1,3-2.1l0.1,0.2c0,0-1,1-2.6,2.6
						c-0.8,0.9-1.9,1.7-3,3c-1.1,1.2-2.3,2.6-3.6,4.1c-1.2,1.6-2.6,3.3-4,5.1c-1.3,1.9-2.8,3.8-4.2,5.9c-1.4,2.1-2.9,4.2-4.3,6.4
						c-1.4,2.3-2.8,4.5-4.2,6.9c-1.3,2.4-2.7,4.7-3.8,7.1c-1.2,2.4-2.4,4.7-3.5,7c-2.2,4.6-4,9-5.6,12.7c-3.1,7.5-4.7,12.7-4.7,12.7
						L349,140.8z"/>
					<path clip-path="url(#SVGID_25_)" fill="#427839" d="M160,343.3c0,0,0.1-6.2,0.8-15.5c0.3-4.6,0.7-10.1,1.4-15.8
						c0.6-5.8,1.4-12,2.4-18.1c0.4-3.1,1-6.1,1.5-9.2c0.5-3,1.2-6,1.8-8.8c0.7-2.8,1.5-5.5,2.2-8.1c0.8-2.6,1.7-4.9,2.5-7.1
						c0.7-2.2,1.8-4.1,2.5-5.9c0.4-0.9,0.7-1.7,1.1-2.4c0.4-0.7,0.8-1.4,1.1-2c1.3-2.4,2.1-3.7,2.1-3.7l0.2,0.1c0,0-0.6,1.4-1.6,3.9
						c-0.5,1.2-1.2,2.7-1.7,4.5c-0.6,1.8-1.4,3.7-2,6c-0.6,2.2-1.4,4.6-2.1,7.1c-0.6,2.6-1.4,5.2-2,8.1c-0.6,2.8-1.4,5.7-2,8.7
						c-0.6,3-1.3,6-1.9,9c-1.2,6.1-2.1,12.2-2.9,17.9c-0.8,5.7-1.4,11.1-1.9,15.7c-1,9.2-1.3,15.4-1.3,15.4L160,343.3z"/>
					<path clip-path="url(#SVGID_25_)" fill="#427839" d="M156.3,324.6c0,0,0.8-6.1,1.6-15.4c0.4-4.6,0.7-10,1-15.8
						c0.3-5.8,0.5-12,0.5-18.2c0-3.1-0.1-6.2-0.1-9.2c0-3-0.3-6-0.4-8.9c-0.1-2.9-0.4-5.7-0.5-8.3c-0.2-2.6-0.5-5.1-0.7-7.4
						c-0.2-2.3-0.6-4.4-0.9-6.2c-0.2-1.9-0.6-3.5-0.9-4.8c-0.6-2.7-0.9-4.2-0.9-4.2l0.2-0.1c0,0,0.5,1.4,1.4,4
						c0.2,0.6,0.5,1.4,0.7,2.1c0.2,0.8,0.4,1.7,0.6,2.6c0.4,1.9,1.1,3.9,1.4,6.2c0.3,2.3,0.8,4.8,1.1,7.5c0.3,2.7,0.6,5.5,0.7,8.4
						c0.1,2.9,0.3,5.9,0.2,9c0,3.1,0,6.2-0.2,9.3c-0.2,6.2-0.6,12.4-1,18.2c-0.4,5.8-1,11.2-1.6,15.8c-1.1,9.2-2.1,15.4-2.1,15.4
						L156.3,324.6z"/>
					<path clip-path="url(#SVGID_25_)" fill="#427839" d="M132.9,308.8c0,0,0.8-6.1,1.6-15.4c0.4-4.6,0.7-10,1-15.8
						c0.3-5.8,0.5-12,0.5-18.2c0-3.1-0.1-6.2-0.1-9.2c0-3-0.3-6-0.4-8.9c-0.1-2.9-0.4-5.7-0.5-8.3c-0.2-2.6-0.5-5.1-0.7-7.4
						c-0.2-2.3-0.6-4.4-0.9-6.2c-0.2-1.9-0.6-3.5-0.9-4.8c-0.6-2.7-0.9-4.2-0.9-4.2l0.2-0.1c0,0,0.5,1.4,1.4,4
						c0.2,0.6,0.5,1.4,0.7,2.1c0.2,0.8,0.4,1.7,0.6,2.6c0.4,1.9,1.1,3.9,1.4,6.2c0.3,2.3,0.8,4.8,1.1,7.5c0.3,2.7,0.6,5.5,0.7,8.4
						c0.1,2.9,0.3,5.9,0.2,9c0,3.1,0,6.2-0.2,9.3c-0.2,6.2-0.6,12.4-1,18.2c-0.4,5.8-1,11.2-1.6,15.8c-1.1,9.2-2.1,15.4-2.1,15.4
						L132.9,308.8z"/>
					<path clip-path="url(#SVGID_25_)" fill="#427839" d="M142.1,328.1c0,0,0.8-6.1,1.6-15.4c0.4-4.6,0.7-10,1-15.8
						c0.3-5.8,0.5-12,0.5-18.2c0-3.1-0.1-6.2-0.1-9.2c0-3-0.3-6-0.4-8.9c-0.1-2.9-0.4-5.7-0.5-8.3c-0.2-2.6-0.5-5.1-0.7-7.4
						c-0.2-2.3-0.6-4.4-0.9-6.2c-0.2-1.9-0.6-3.5-0.9-4.8c-0.5-2.7-0.9-4.2-0.9-4.2l0.2-0.1c0,0,0.5,1.4,1.4,4
						c0.2,0.6,0.5,1.4,0.7,2.1c0.2,0.8,0.4,1.7,0.6,2.6c0.4,1.9,1.1,3.9,1.4,6.2c0.3,2.3,0.8,4.8,1.1,7.5c0.3,2.7,0.6,5.5,0.7,8.4
						c0.1,2.9,0.3,5.9,0.2,9c0,3.1,0,6.2-0.2,9.3c-0.2,6.2-0.6,12.4-1,18.2c-0.4,5.8-1,11.2-1.6,15.8c-1.1,9.2-2.1,15.4-2.1,15.4
						L142.1,328.1z"/>
					<path clip-path="url(#SVGID_25_)" fill="#427839" d="M148.6,336.5c0,0,0.8-6.1,1.6-15.4c0.4-4.6,0.7-10,1-15.8
						c0.3-5.8,0.5-12,0.5-18.2c0-3.1-0.1-6.2-0.1-9.2c0-3-0.3-6-0.4-8.9c-0.1-2.9-0.4-5.7-0.5-8.3c-0.2-2.6-0.5-5.1-0.7-7.4
						c-0.2-2.3-0.6-4.4-0.9-6.2c-0.2-1.9-0.6-3.5-0.9-4.8c-0.6-2.7-0.9-4.2-0.9-4.2l0.2-0.1c0,0,0.5,1.4,1.4,4
						c0.2,0.6,0.5,1.4,0.7,2.1c0.2,0.8,0.4,1.7,0.6,2.6c0.4,1.9,1.1,3.9,1.4,6.2c0.3,2.3,0.8,4.8,1.1,7.5c0.3,2.7,0.6,5.5,0.7,8.4
						c0.1,2.9,0.3,5.9,0.2,9c0,3.1,0,6.2-0.2,9.3c-0.2,6.2-0.6,12.4-1,18.2c-0.4,5.8-1,11.2-1.6,15.8c-1.1,9.2-2.1,15.4-2.1,15.4
						L148.6,336.5z"/>
					<path clip-path="url(#SVGID_25_)" fill="#427839" d="M162.1,340.4c0,0,0.8-6.1,1.6-15.4c0.4-4.6,0.7-10,1-15.8
						c0.3-5.8,0.5-12,0.5-18.2c0-3.1-0.1-6.2-0.1-9.2c0-3-0.3-6-0.4-8.9c-0.1-2.9-0.4-5.7-0.5-8.3c-0.2-2.6-0.5-5.1-0.7-7.4
						c-0.2-2.3-0.6-4.4-0.9-6.2c-0.2-1.9-0.6-3.5-0.9-4.8c-0.6-2.7-0.9-4.2-0.9-4.2l0.2-0.1c0,0,0.5,1.4,1.4,4
						c0.2,0.6,0.5,1.4,0.7,2.1c0.2,0.8,0.4,1.7,0.6,2.6c0.4,1.9,1.1,3.9,1.4,6.2c0.3,2.3,0.8,4.8,1.1,7.5c0.3,2.7,0.6,5.5,0.7,8.4
						c0.1,2.9,0.3,5.9,0.2,9c0,3.1,0,6.2-0.2,9.3c-0.2,6.2-0.6,12.4-1,18.2c-0.4,5.8-1,11.2-1.6,15.8c-1.1,9.2-2.1,15.4-2.1,15.4
						L162.1,340.4z"/>
					<path clip-path="url(#SVGID_25_)" fill="#427839" d="M152,331.9c0,0,0.8-6.1,1.6-15.4c0.4-4.6,0.7-10,1-15.8
						c0.3-5.8,0.5-12,0.5-18.2c0-3.1-0.1-6.2-0.1-9.2c0-3-0.3-6-0.4-8.9c-0.1-2.9-0.4-5.7-0.5-8.3c-0.2-2.6-0.5-5.1-0.7-7.4
						c-0.2-2.3-0.6-4.4-0.9-6.2c-0.2-1.9-0.6-3.5-0.9-4.8c-0.5-2.7-0.9-4.2-0.9-4.2l0.2-0.1c0,0,0.5,1.4,1.4,4
						c0.2,0.6,0.5,1.4,0.7,2.1c0.2,0.8,0.4,1.7,0.6,2.6c0.4,1.9,1.1,3.9,1.4,6.2c0.3,2.3,0.8,4.8,1.1,7.5c0.3,2.7,0.6,5.5,0.7,8.4
						c0.1,2.9,0.3,5.9,0.2,9c0,3.1,0,6.2-0.2,9.3c-0.2,6.2-0.6,12.4-1,18.2c-0.4,5.8-1,11.2-1.6,15.8c-1.1,9.2-2.1,15.4-2.1,15.4
						L152,331.9z"/>
					<path clip-path="url(#SVGID_25_)" fill="#427839" d="M158.5,329.9c0,0,0.1-6.2,0.8-15.5c0.3-4.6,0.7-10.1,1.4-15.8
						c0.6-5.8,1.4-12,2.4-18.1c0.4-3.1,1-6.1,1.5-9.2c0.5-3,1.2-6,1.8-8.8c0.7-2.8,1.5-5.5,2.2-8.1c0.8-2.6,1.7-4.9,2.5-7.1
						c0.7-2.2,1.8-4.1,2.5-5.9c0.4-0.9,0.7-1.7,1.1-2.4c0.4-0.7,0.8-1.4,1.1-2c1.3-2.4,2.1-3.7,2.1-3.7l0.2,0.1c0,0-0.6,1.4-1.6,3.9
						c-0.5,1.2-1.2,2.7-1.7,4.5c-0.6,1.8-1.4,3.7-2,6c-0.6,2.2-1.4,4.6-2.1,7.1c-0.6,2.6-1.4,5.2-2,8.1c-0.6,2.8-1.4,5.7-2,8.7
						c-0.6,3-1.3,6-1.9,9c-1.2,6.1-2.1,12.2-2.9,17.9c-0.8,5.7-1.4,11.1-1.9,15.7c-1,9.2-1.3,15.4-1.3,15.4L158.5,329.9z"/>
					<path clip-path="url(#SVGID_25_)" fill="#427839" d="M164.3,340.4c0,0,0.5-3.7,2.1-7.2c0.4-0.9,0.8-1.7,1.3-2.5
						c0.5-0.7,1.1-1.4,1.6-1.9c0.6-0.4,1-0.8,1.4-1c0.4-0.2,0.6-0.3,0.6-0.3l0,0.1c0,0-0.7,0.6-1.6,1.7c-0.8,1.1-1.8,2.5-2.7,4.2
						C165.3,336.7,164.4,340.4,164.3,340.4L164.3,340.4z"/>
					<path clip-path="url(#SVGID_25_)" fill="#427839" d="M166.1,340.1c0,0,0.4-0.8,0.7-2c0.4-1.2,0.8-2.9,0.9-4.6
						c0-0.9-0.1-1.7-0.2-2.5c-0.1-0.8-0.3-1.4-0.5-2c-0.3-0.6-0.5-1-0.7-1.3c-0.2-0.3-0.3-0.5-0.3-0.5l0.1-0.1c0,0,0.8,0.4,1.6,1.6
						c0.3,0.6,0.7,1.3,0.8,2.2c0.1,0.9,0.1,1.8,0,2.7c-0.2,1.8-0.8,3.5-1.3,4.7C166.6,339.4,166.2,340.2,166.1,340.1L166.1,340.1z"
						/>
					<path clip-path="url(#SVGID_25_)" fill="#427839" d="M164.6,338.5c0,0,0-0.9,0.1-2.1c0.1-1.3,0.4-3,0.9-4.7
						c0.4-1.7,1-3.3,1.7-4.4c0.3-0.6,0.6-1,0.9-1.3c0.2-0.3,0.4-0.5,0.4-0.5l0.1,0c0,0-0.3,0.8-0.7,2c-0.2,0.6-0.5,1.3-0.8,2
						c-0.3,0.7-0.6,1.5-0.9,2.3c-0.6,1.6-1,3.2-1.2,4.5C164.8,337.6,164.7,338.5,164.6,338.5L164.6,338.5z"/>
					<path clip-path="url(#SVGID_25_)" fill="#427839" d="M168.5,335.5c0,0,0.5-3.7,2.1-7.2c0.4-0.9,0.8-1.7,1.3-2.5
						c0.5-0.7,1.1-1.4,1.6-1.9c0.6-0.4,1-0.8,1.4-1c0.4-0.2,0.6-0.3,0.6-0.3l0,0.1c0,0-0.7,0.6-1.6,1.7c-0.8,1.1-1.8,2.5-2.7,4.2
						C169.5,331.9,168.6,335.5,168.5,335.5L168.5,335.5z"/>
					<path clip-path="url(#SVGID_25_)" fill="#427839" d="M170.4,335.3c0,0,0.4-0.8,0.7-2c0.4-1.2,0.8-2.9,0.9-4.6
						c0-0.9-0.1-1.7-0.2-2.5c-0.1-0.8-0.3-1.4-0.5-2c-0.3-0.6-0.5-1-0.7-1.3c-0.2-0.3-0.3-0.5-0.3-0.5l0.1-0.1c0,0,0.8,0.4,1.6,1.6
						c0.3,0.6,0.7,1.3,0.8,2.2c0.1,0.9,0.1,1.8,0,2.7c-0.2,1.8-0.8,3.5-1.3,4.7C170.9,334.5,170.4,335.3,170.4,335.3L170.4,335.3z"
						/>
					<path clip-path="url(#SVGID_25_)" fill="#427839" d="M168.8,333.6c0,0,0-0.9,0.1-2.1c0.1-1.3,0.4-3,0.9-4.7
						c0.4-1.7,1-3.3,1.7-4.4c0.3-0.6,0.6-1,0.9-1.3c0.2-0.3,0.4-0.5,0.4-0.5l0.1,0c0,0-0.3,0.8-0.7,2c-0.2,0.6-0.5,1.3-0.8,2
						c-0.3,0.7-0.6,1.5-0.9,2.3c-0.6,1.6-1,3.2-1.2,4.5C169,332.8,168.9,333.6,168.8,333.6L168.8,333.6z"/>
					<path clip-path="url(#SVGID_25_)" fill="#427839" d="M165.9,332.9c0,0,0.5-3.7,2.1-7.2c0.4-0.9,0.8-1.7,1.3-2.5
						c0.5-0.7,1.1-1.4,1.6-1.9c0.6-0.4,1-0.8,1.4-1c0.4-0.2,0.6-0.3,0.6-0.3l0,0.1c0,0-0.7,0.6-1.6,1.7c-0.8,1.1-1.8,2.5-2.7,4.2
						C166.9,329.3,166,332.9,165.9,332.9L165.9,332.9z"/>
					<path clip-path="url(#SVGID_25_)" fill="#427839" d="M167.7,332.7c0,0,0.4-0.8,0.7-2c0.4-1.2,0.8-2.9,0.9-4.6
						c0-0.9-0.1-1.7-0.2-2.5c-0.1-0.8-0.3-1.4-0.5-2c-0.3-0.6-0.5-1-0.7-1.3c-0.2-0.3-0.3-0.5-0.3-0.5l0.1-0.1c0,0,0.8,0.4,1.6,1.6
						c0.3,0.6,0.7,1.3,0.8,2.2c0.1,0.9,0.1,1.8,0,2.7c-0.2,1.8-0.8,3.5-1.3,4.7C168.3,331.9,167.8,332.7,167.7,332.7L167.7,332.7z"
						/>
					<path clip-path="url(#SVGID_25_)" fill="#427839" d="M166.2,331c0,0,0-0.9,0.1-2.1c0.1-1.3,0.4-3,0.9-4.7
						c0.4-1.7,1-3.3,1.7-4.4c0.3-0.6,0.6-1,0.9-1.3c0.2-0.3,0.4-0.5,0.4-0.5l0.1,0c0,0-0.3,0.8-0.7,2c-0.2,0.6-0.5,1.3-0.8,2
						c-0.3,0.7-0.6,1.5-0.9,2.3c-0.6,1.6-1,3.2-1.2,4.5C166.4,330.1,166.3,331,166.2,331L166.2,331z"/>
					<path clip-path="url(#SVGID_25_)" fill="#427839" d="M129,321.9c0,0,0.1-6.2,0.8-15.5c0.3-4.6,0.7-10.1,1.4-15.8
						s1.4-12,2.4-18.1c0.4-3.1,1-6.1,1.5-9.2c0.5-3,1.2-6,1.8-8.8c0.7-2.8,1.5-5.5,2.2-8.1c0.8-2.6,1.7-4.9,2.5-7.1
						c0.7-2.2,1.8-4.1,2.5-5.9c0.4-0.9,0.7-1.7,1.1-2.4c0.4-0.7,0.8-1.4,1.1-2c1.3-2.4,2.1-3.7,2.1-3.7l0.2,0.1c0,0-0.6,1.4-1.6,3.9
						c-0.5,1.2-1.2,2.7-1.7,4.5c-0.6,1.8-1.4,3.7-2,6c-0.6,2.2-1.4,4.6-2.1,7.1c-0.6,2.6-1.4,5.2-2,8.1c-0.6,2.8-1.4,5.7-2,8.7
						c-0.6,3-1.3,6-1.9,9c-1.2,6.1-2.1,12.2-2.9,17.9c-0.8,5.7-1.4,11.1-1.9,15.7c-1,9.2-1.3,15.4-1.3,15.4L129,321.9z"/>
					<path clip-path="url(#SVGID_25_)" fill="#427839" d="M136.6,330.4c0,0,0.1-6.2,0.8-15.5c0.3-4.6,0.7-10.1,1.4-15.8
						c0.6-5.8,1.4-12,2.4-18.1c0.4-3.1,1-6.1,1.5-9.2c0.5-3,1.2-6,1.8-8.8c0.7-2.8,1.5-5.5,2.2-8.1c0.8-2.6,1.7-4.9,2.5-7.1
						c0.7-2.2,1.8-4.1,2.5-5.9c0.4-0.9,0.7-1.7,1.1-2.4c0.4-0.7,0.8-1.4,1.1-2c1.3-2.4,2.1-3.7,2.1-3.7l0.2,0.1c0,0-0.6,1.4-1.6,3.9
						c-0.5,1.2-1.2,2.7-1.7,4.5c-0.6,1.8-1.4,3.7-2,6c-0.6,2.2-1.4,4.6-2.1,7.1c-0.6,2.6-1.4,5.2-2,8.1c-0.6,2.8-1.4,5.7-2,8.7
						c-0.6,3-1.3,6-1.9,9c-1.2,6.1-2.1,12.2-2.9,17.9c-0.8,5.7-1.4,11.1-1.9,15.7c-1,9.2-1.3,15.4-1.3,15.4L136.6,330.4z"/>
					<path clip-path="url(#SVGID_25_)" fill="#427839" d="M148.1,323.8c0,0,0.1-6.2,0.8-15.5c0.3-4.6,0.7-10.1,1.4-15.8
						s1.4-12,2.4-18.1c0.4-3.1,1-6.1,1.5-9.2c0.5-3,1.2-6,1.8-8.8c0.7-2.8,1.5-5.5,2.2-8.1c0.8-2.6,1.7-4.9,2.5-7.1
						c0.7-2.2,1.8-4.1,2.5-5.9c0.4-0.9,0.7-1.7,1.1-2.4c0.4-0.7,0.8-1.4,1.1-2c1.3-2.4,2.1-3.7,2.1-3.7l0.2,0.1c0,0-0.6,1.4-1.6,3.9
						c-0.5,1.2-1.2,2.7-1.7,4.5c-0.6,1.8-1.4,3.7-2,6c-0.6,2.2-1.4,4.6-2.1,7.1c-0.6,2.6-1.4,5.2-2,8.1c-0.6,2.8-1.4,5.7-2,8.7
						c-0.6,3-1.3,6-1.9,9c-1.2,6.1-2.1,12.2-2.9,17.9c-0.8,5.7-1.4,11.1-1.9,15.7c-1,9.2-1.3,15.4-1.3,15.4L148.1,323.8z"/>
					<path clip-path="url(#SVGID_25_)" fill="#427839" d="M134.6,320.7c0,0,0.1-6.2,0.8-15.5c0.3-4.6,0.7-10.1,1.4-15.8
						c0.6-5.8,1.4-12,2.4-18.1c0.4-3.1,1-6.1,1.5-9.2c0.5-3,1.2-6,1.8-8.8c0.7-2.8,1.5-5.5,2.2-8.1c0.8-2.6,1.7-4.9,2.5-7.1
						c0.7-2.2,1.8-4.1,2.5-5.9c0.4-0.9,0.7-1.7,1.1-2.4c0.4-0.7,0.8-1.4,1.1-2c1.3-2.4,2.1-3.7,2.1-3.7l0.2,0.1c0,0-0.6,1.4-1.6,3.9
						c-0.5,1.2-1.2,2.7-1.7,4.5c-0.6,1.8-1.4,3.7-2,6c-0.6,2.2-1.4,4.6-2.1,7.1c-0.6,2.6-1.4,5.2-2,8.1c-0.6,2.8-1.4,5.7-2,8.7
						c-0.6,3-1.3,6-1.9,9c-1.2,6.1-2.1,12.2-2.9,17.9c-0.8,5.7-1.4,11.1-1.9,15.7c-1,9.2-1.3,15.4-1.3,15.4L134.6,320.7z"/>
					<path clip-path="url(#SVGID_25_)" fill="#427839" d="M131.6,321c0,0,0.1-6.2,0.8-15.5c0.3-4.6,0.7-10.1,1.4-15.8
						c0.6-5.8,1.4-12,2.4-18.1c0.4-3.1,1-6.1,1.5-9.2c0.5-3,1.2-6,1.8-8.8c0.7-2.8,1.5-5.5,2.2-8.1c0.8-2.6,1.7-4.9,2.5-7.1
						c0.7-2.2,1.8-4.1,2.5-5.9c0.4-0.9,0.7-1.7,1.1-2.4c0.4-0.7,0.8-1.4,1.1-2c1.3-2.4,2.1-3.7,2.1-3.7l0.2,0.1c0,0-0.6,1.4-1.6,3.9
						c-0.5,1.2-1.2,2.7-1.7,4.5c-0.6,1.8-1.4,3.7-2,6c-0.6,2.2-1.4,4.6-2.1,7.1c-0.6,2.6-1.4,5.2-2,8.1c-0.6,2.8-1.4,5.7-2,8.7
						c-0.6,3-1.3,6-1.9,9c-1.2,6.1-2.1,12.2-2.9,17.9c-0.8,5.7-1.4,11.1-1.9,15.7c-1,9.2-1.3,15.4-1.3,15.4L131.6,321z"/>
					<path clip-path="url(#SVGID_25_)" fill="#427839" d="M127.9,302.3c0,0,0.8-6.1,1.6-15.4c0.4-4.6,0.7-10,1-15.8
						c0.3-5.8,0.5-12,0.5-18.2c0-3.1-0.1-6.2-0.1-9.2c0-3-0.3-6-0.4-8.9c-0.1-2.9-0.4-5.7-0.5-8.3c-0.2-2.6-0.5-5.1-0.7-7.4
						c-0.2-2.3-0.6-4.4-0.9-6.2c-0.2-1.9-0.6-3.5-0.9-4.8c-0.6-2.7-0.9-4.2-0.9-4.2l0.2-0.1c0,0,0.5,1.4,1.4,4
						c0.2,0.6,0.5,1.4,0.7,2.1c0.2,0.8,0.4,1.7,0.6,2.6c0.4,1.9,1.1,3.9,1.4,6.2c0.3,2.3,0.8,4.8,1.1,7.5c0.3,2.7,0.6,5.5,0.7,8.4
						c0.1,2.9,0.3,5.9,0.2,9c0,3.1,0,6.2-0.2,9.3c-0.2,6.2-0.6,12.4-1,18.2c-0.4,5.8-1,11.2-1.6,15.8c-1.1,9.2-2.1,15.4-2.1,15.4
						L127.9,302.3z"/>
					<path clip-path="url(#SVGID_25_)" fill="#427839" d="M104.4,286.5c0,0,0.8-6.1,1.6-15.4c0.4-4.6,0.7-10,1-15.8
						c0.3-5.8,0.5-12,0.5-18.2c0-3.1-0.1-6.2-0.1-9.2c0-3-0.3-6-0.4-8.9c-0.1-2.9-0.4-5.7-0.5-8.3c-0.2-2.6-0.5-5.1-0.7-7.4
						c-0.2-2.3-0.6-4.4-0.9-6.2c-0.2-1.9-0.6-3.5-0.9-4.8c-0.5-2.7-0.9-4.2-0.9-4.2l0.2-0.1c0,0,0.5,1.4,1.4,4
						c0.2,0.6,0.5,1.4,0.7,2.1c0.2,0.8,0.4,1.7,0.6,2.6c0.4,1.9,1.1,3.9,1.4,6.2c0.3,2.3,0.8,4.8,1.1,7.5c0.3,2.7,0.6,5.5,0.7,8.4
						c0.1,2.9,0.3,5.9,0.2,9c0,3.1,0,6.2-0.2,9.3c-0.2,6.2-0.6,12.4-1,18.2c-0.4,5.8-1,11.2-1.6,15.8c-1.1,9.2-2.1,15.4-2.1,15.4
						L104.4,286.5z"/>
					<path clip-path="url(#SVGID_25_)" fill="#427839" d="M113.7,305.7c0,0,0.8-6.1,1.6-15.4c0.4-4.6,0.7-10,1-15.8
						c0.3-5.8,0.5-12,0.5-18.2c0-3.1-0.1-6.2-0.1-9.2c0-3-0.3-6-0.4-8.9c-0.1-2.9-0.4-5.7-0.5-8.3c-0.2-2.6-0.5-5.1-0.7-7.4
						c-0.2-2.3-0.6-4.4-0.9-6.2c-0.2-1.9-0.6-3.5-0.9-4.8c-0.6-2.7-0.9-4.2-0.9-4.2l0.2-0.1c0,0,0.5,1.4,1.4,4
						c0.2,0.6,0.5,1.4,0.7,2.1c0.2,0.8,0.4,1.7,0.6,2.6c0.4,1.9,1.1,3.9,1.4,6.2c0.3,2.3,0.8,4.8,1.1,7.5c0.3,2.7,0.6,5.5,0.7,8.4
						c0.1,2.9,0.3,5.9,0.2,9c0,3.1,0,6.2-0.2,9.3c-0.2,6.2-0.6,12.4-1,18.2c-0.4,5.8-1,11.2-1.6,15.8c-1.1,9.2-2.1,15.4-2.1,15.4
						L113.7,305.7z"/>
					<path clip-path="url(#SVGID_25_)" fill="#427839" d="M120.2,314.2c0,0,0.8-6.1,1.6-15.4c0.4-4.6,0.7-10,1-15.8
						c0.3-5.8,0.5-12,0.5-18.2c0-3.1-0.1-6.2-0.1-9.2c0-3-0.3-6-0.4-8.9c-0.1-2.9-0.4-5.7-0.5-8.3c-0.2-2.6-0.5-5.1-0.7-7.4
						c-0.2-2.3-0.6-4.4-0.9-6.2c-0.2-1.9-0.6-3.5-0.9-4.8c-0.6-2.7-0.9-4.2-0.9-4.2l0.2-0.1c0,0,0.5,1.4,1.4,4
						c0.2,0.6,0.5,1.4,0.7,2.1c0.2,0.8,0.4,1.7,0.6,2.6c0.4,1.9,1.1,3.9,1.4,6.2c0.3,2.3,0.8,4.8,1.1,7.5c0.3,2.7,0.6,5.5,0.7,8.4
						c0.1,2.9,0.3,5.9,0.2,9c0,3.1,0,6.2-0.2,9.3c-0.2,6.2-0.6,12.4-1,18.2c-0.4,5.8-1,11.2-1.6,15.8c-1.1,9.2-2.1,15.4-2.1,15.4
						L120.2,314.2z"/>
					<path clip-path="url(#SVGID_25_)" fill="#427839" d="M133.6,318.1c0,0,0.8-6.1,1.6-15.4c0.4-4.6,0.7-10,1-15.8
						c0.3-5.8,0.5-12,0.5-18.2c0-3.1-0.1-6.2-0.1-9.2c0-3-0.3-6-0.4-8.9c-0.1-2.9-0.4-5.7-0.5-8.3c-0.2-2.6-0.5-5.1-0.7-7.4
						c-0.2-2.3-0.6-4.4-0.9-6.2c-0.2-1.9-0.6-3.5-0.9-4.8c-0.6-2.7-0.9-4.2-0.9-4.2l0.2-0.1c0,0,0.5,1.4,1.4,4
						c0.2,0.6,0.5,1.4,0.7,2.1c0.2,0.8,0.4,1.7,0.6,2.6c0.4,1.9,1.1,3.9,1.4,6.2c0.3,2.3,0.8,4.8,1.1,7.5c0.3,2.7,0.6,5.5,0.7,8.4
						c0.1,2.9,0.3,5.9,0.2,9c0,3.1,0,6.2-0.2,9.3c-0.2,6.2-0.6,12.4-1,18.2c-0.4,5.8-1,11.2-1.6,15.8c-1.1,9.2-2.1,15.4-2.1,15.4
						L133.6,318.1z"/>
					<path clip-path="url(#SVGID_25_)" fill="#427839" d="M123.5,309.5c0,0,0.8-6.1,1.6-15.4c0.4-4.6,0.7-10,1-15.8
						c0.3-5.8,0.5-12,0.5-18.2c0-3.1-0.1-6.2-0.1-9.2c0-3-0.3-6-0.4-8.9c-0.1-2.9-0.4-5.7-0.5-8.3c-0.2-2.6-0.5-5.1-0.7-7.4
						c-0.2-2.3-0.6-4.4-0.9-6.2c-0.2-1.9-0.6-3.5-0.9-4.8c-0.6-2.7-0.9-4.2-0.9-4.2l0.2-0.1c0,0,0.5,1.4,1.4,4
						c0.2,0.6,0.5,1.4,0.7,2.1c0.2,0.8,0.4,1.7,0.6,2.6c0.4,1.9,1.1,3.9,1.4,6.2c0.3,2.3,0.8,4.8,1.1,7.5c0.3,2.7,0.6,5.5,0.7,8.4
						c0.1,2.9,0.3,5.9,0.2,9c0,3.1,0,6.2-0.2,9.3c-0.2,6.2-0.6,12.4-1,18.2c-0.4,5.8-1,11.2-1.6,15.8c-1.1,9.2-2.1,15.4-2.1,15.4
						L123.5,309.5z"/>
					<path clip-path="url(#SVGID_25_)" fill="#427839" d="M130,307.6c0,0,0.1-6.2,0.8-15.5c0.3-4.6,0.7-10.1,1.4-15.8
						c0.6-5.8,1.4-12,2.4-18.1c0.4-3.1,1-6.1,1.5-9.2c0.5-3,1.2-6,1.8-8.8c0.7-2.8,1.5-5.5,2.2-8.1c0.8-2.6,1.7-4.9,2.5-7.1
						c0.7-2.2,1.8-4.1,2.5-5.9c0.4-0.9,0.7-1.7,1.1-2.4c0.4-0.7,0.8-1.4,1.1-2c1.3-2.4,2.1-3.7,2.1-3.7l0.2,0.1c0,0-0.6,1.4-1.6,3.9
						c-0.5,1.2-1.2,2.7-1.7,4.5c-0.6,1.8-1.4,3.7-2,6c-0.6,2.2-1.4,4.6-2.1,7.1c-0.6,2.6-1.4,5.2-2,8.1c-0.6,2.8-1.4,5.7-2,8.7
						c-0.6,3-1.3,6-1.9,9c-1.2,6.1-2.1,12.2-2.9,17.9c-0.8,5.7-1.4,11.1-1.9,15.7c-1,9.2-1.3,15.4-1.3,15.4L130,307.6z"/>
					<path clip-path="url(#SVGID_25_)" fill="#427839" d="M135.8,318.1c0,0,0.5-3.7,2.1-7.2c0.4-0.9,0.8-1.7,1.3-2.5
						c0.5-0.7,1.1-1.4,1.6-1.9c0.6-0.4,1-0.8,1.4-1c0.4-0.2,0.6-0.3,0.6-0.3l0,0.1c0,0-0.7,0.6-1.6,1.7c-0.8,1.1-1.8,2.5-2.7,4.2
						C136.8,314.4,135.9,318.1,135.8,318.1L135.8,318.1z"/>
					<path clip-path="url(#SVGID_25_)" fill="#427839" d="M137.7,317.8c0,0,0.4-0.8,0.7-2c0.4-1.2,0.8-2.9,0.9-4.6
						c0-0.9-0.1-1.7-0.2-2.5c-0.1-0.8-0.3-1.5-0.5-2c-0.3-0.6-0.5-1-0.7-1.3c-0.2-0.3-0.3-0.5-0.3-0.5l0.1-0.1c0,0,0.8,0.4,1.6,1.6
						c0.3,0.6,0.7,1.3,0.8,2.2c0.1,0.9,0.1,1.8,0,2.7c-0.2,1.8-0.8,3.5-1.3,4.7C138.2,317.1,137.7,317.9,137.7,317.8L137.7,317.8z"
						/>
					<path clip-path="url(#SVGID_25_)" fill="#427839" d="M136.1,316.2c0,0,0-0.9,0.1-2.1c0.1-1.3,0.4-3,0.9-4.7
						c0.4-1.7,1-3.3,1.7-4.4c0.3-0.6,0.6-1,0.9-1.3c0.2-0.3,0.4-0.5,0.4-0.5l0.1,0c0,0-0.3,0.8-0.7,2c-0.2,0.6-0.5,1.3-0.8,2
						c-0.3,0.7-0.6,1.5-0.9,2.3c-0.6,1.6-1,3.2-1.2,4.5C136.3,315.3,136.2,316.2,136.1,316.2L136.1,316.2z"/>
					<path clip-path="url(#SVGID_25_)" fill="#427839" d="M140.1,313.2c0,0,0.5-3.7,2.1-7.2c0.4-0.9,0.8-1.7,1.3-2.5
						c0.5-0.7,1.1-1.4,1.6-1.9c0.6-0.4,1-0.8,1.4-1c0.4-0.2,0.6-0.3,0.6-0.3l0,0.1c0,0-0.7,0.6-1.6,1.7c-0.8,1.1-1.8,2.5-2.7,4.2
						C141.1,309.6,140.2,313.2,140.1,313.2L140.1,313.2z"/>
					<path clip-path="url(#SVGID_25_)" fill="#427839" d="M141.9,313c0,0,0.4-0.8,0.7-2c0.4-1.2,0.8-2.9,0.9-4.6
						c0-0.9-0.1-1.7-0.2-2.5c-0.1-0.8-0.3-1.4-0.5-2c-0.3-0.6-0.5-1-0.7-1.3c-0.2-0.3-0.3-0.5-0.3-0.5l0.1-0.1c0,0,0.8,0.4,1.6,1.6
						c0.3,0.6,0.7,1.3,0.8,2.2c0.1,0.9,0.1,1.8,0,2.7c-0.2,1.8-0.8,3.5-1.3,4.7C142.4,312.2,142,313,141.9,313L141.9,313z"/>
					<path clip-path="url(#SVGID_25_)" fill="#427839" d="M140.4,311.3c0,0,0-0.9,0.1-2.1c0.1-1.3,0.4-3,0.9-4.7
						c0.4-1.7,1-3.3,1.7-4.4c0.3-0.6,0.6-1,0.9-1.3c0.2-0.3,0.4-0.5,0.4-0.5l0.1,0c0,0-0.3,0.8-0.7,2c-0.2,0.6-0.5,1.3-0.8,2
						c-0.3,0.7-0.6,1.5-0.9,2.3c-0.6,1.6-1,3.2-1.2,4.5C140.5,310.4,140.5,311.3,140.4,311.3L140.4,311.3z"/>
					<path clip-path="url(#SVGID_25_)" fill="#427839" d="M137.5,310.6c0,0,0.5-3.7,2.1-7.2c0.4-0.9,0.8-1.7,1.3-2.5
						c0.5-0.7,1.1-1.4,1.6-1.9c0.6-0.4,1-0.8,1.4-1c0.4-0.2,0.6-0.3,0.6-0.3l0,0.1c0,0-0.7,0.6-1.6,1.7c-0.8,1.1-1.8,2.5-2.7,4.2
						C138.5,307,137.5,310.6,137.5,310.6L137.5,310.6z"/>
					<path clip-path="url(#SVGID_25_)" fill="#427839" d="M139.3,310.3c0,0,0.4-0.8,0.7-2c0.4-1.2,0.8-2.9,0.9-4.6
						c0-0.9-0.1-1.7-0.2-2.5c-0.1-0.8-0.3-1.4-0.5-2c-0.3-0.6-0.5-1-0.7-1.3c-0.2-0.3-0.3-0.5-0.3-0.5l0.1-0.1c0,0,0.8,0.4,1.6,1.6
						c0.3,0.6,0.7,1.3,0.8,2.2c0.1,0.9,0.1,1.8,0,2.7c-0.2,1.8-0.8,3.5-1.3,4.7C139.8,309.6,139.4,310.4,139.3,310.3L139.3,310.3z"
						/>
					<path clip-path="url(#SVGID_25_)" fill="#427839" d="M137.8,308.7c0,0,0-0.9,0.1-2.1c0.1-1.3,0.4-3,0.9-4.7
						c0.4-1.7,1-3.3,1.7-4.4c0.3-0.6,0.6-1,0.9-1.3c0.2-0.3,0.4-0.5,0.4-0.5l0.1,0c0,0-0.3,0.8-0.7,2c-0.2,0.6-0.5,1.3-0.8,2
						c-0.3,0.7-0.6,1.5-0.9,2.3c-0.6,1.6-1,3.2-1.2,4.5C137.9,307.8,137.8,308.7,137.8,308.7L137.8,308.7z"/>
					<path clip-path="url(#SVGID_25_)" fill="#427839" d="M98.1,279.4c0,0,0.5-3.7,2.1-7.2c0.4-0.9,0.8-1.7,1.3-2.5
						c0.5-0.7,1.1-1.4,1.6-1.9c0.6-0.4,1-0.8,1.4-1c0.4-0.2,0.6-0.3,0.6-0.3l0,0.1c0,0-0.7,0.6-1.6,1.7c-0.8,1.1-1.8,2.5-2.7,4.2
						C99.1,275.7,98.2,279.4,98.1,279.4L98.1,279.4z"/>
					<path clip-path="url(#SVGID_25_)" fill="#427839" d="M99.9,279.1c0,0,0.4-0.8,0.7-2c0.4-1.2,0.8-2.9,0.9-4.6
						c0-0.9-0.1-1.7-0.2-2.5c-0.1-0.8-0.3-1.4-0.5-2c-0.3-0.6-0.5-1-0.7-1.3c-0.2-0.3-0.3-0.5-0.3-0.5l0.1-0.1c0,0,0.8,0.4,1.6,1.6
						c0.3,0.6,0.7,1.3,0.8,2.2c0.1,0.9,0.1,1.8,0,2.7c-0.2,1.8-0.8,3.5-1.3,4.7C100.4,278.4,100,279.2,99.9,279.1L99.9,279.1z"/>
					<path clip-path="url(#SVGID_25_)" fill="#427839" d="M98.4,277.5c0,0,0-0.9,0.1-2.1c0.1-1.3,0.4-3,0.9-4.7
						c0.4-1.7,1-3.3,1.7-4.4c0.3-0.6,0.6-1,0.9-1.3c0.2-0.3,0.4-0.5,0.4-0.5l0.1,0c0,0-0.3,0.8-0.7,2c-0.2,0.6-0.5,1.3-0.8,2
						c-0.3,0.7-0.6,1.5-0.9,2.3c-0.6,1.6-1,3.2-1.2,4.5C98.5,276.6,98.5,277.5,98.4,277.5L98.4,277.5z"/>
					<path clip-path="url(#SVGID_25_)" fill="#427839" d="M102.3,274.5c0,0,0.5-3.7,2.1-7.2c0.4-0.9,0.8-1.7,1.3-2.5
						c0.5-0.7,1.1-1.4,1.6-1.9c0.6-0.4,1-0.8,1.4-1c0.4-0.2,0.6-0.3,0.6-0.3l0,0.1c0,0-0.7,0.6-1.6,1.7c-0.8,1.1-1.8,2.5-2.7,4.2
						C103.3,270.9,102.4,274.5,102.3,274.5L102.3,274.5z"/>
					<path clip-path="url(#SVGID_25_)" fill="#427839" d="M104.1,274.3c0,0,0.4-0.8,0.7-2c0.4-1.2,0.8-2.9,0.9-4.6
						c0-0.9-0.1-1.7-0.2-2.5c-0.1-0.8-0.3-1.4-0.5-2c-0.3-0.6-0.5-1-0.7-1.3c-0.2-0.3-0.3-0.5-0.3-0.5l0.1-0.1c0,0,0.8,0.4,1.6,1.6
						c0.3,0.6,0.7,1.3,0.8,2.2c0.1,0.9,0.1,1.8,0,2.7c-0.2,1.8-0.8,3.5-1.3,4.7C104.6,273.5,104.2,274.3,104.1,274.3L104.1,274.3z"
						/>
					<path clip-path="url(#SVGID_25_)" fill="#427839" d="M102.6,272.6c0,0,0-0.9,0.1-2.1c0.1-1.3,0.4-3,0.9-4.7
						c0.4-1.7,1-3.3,1.7-4.4c0.3-0.6,0.6-1,0.9-1.3c0.2-0.3,0.4-0.5,0.4-0.5l0.1,0c0,0-0.3,0.8-0.7,2c-0.2,0.6-0.5,1.3-0.8,2
						c-0.3,0.7-0.6,1.5-0.9,2.3c-0.6,1.6-1,3.2-1.2,4.5C102.8,271.8,102.7,272.6,102.6,272.6L102.6,272.6z"/>
					<path clip-path="url(#SVGID_25_)" fill="#427839" d="M99.7,271.9c0,0,0.5-3.7,2.1-7.2c0.4-0.9,0.8-1.7,1.3-2.5
						c0.5-0.7,1.1-1.4,1.6-1.9c0.6-0.4,1-0.8,1.4-1c0.4-0.2,0.6-0.3,0.6-0.3l0,0.1c0,0-0.7,0.6-1.6,1.7c-0.8,1.1-1.8,2.5-2.7,4.2
						C100.7,268.3,99.8,271.9,99.7,271.9L99.7,271.9z"/>
					<path clip-path="url(#SVGID_25_)" fill="#427839" d="M101.5,271.7c0,0,0.4-0.8,0.7-2c0.4-1.2,0.8-2.9,0.9-4.6
						c0-0.9-0.1-1.7-0.2-2.5c-0.1-0.8-0.3-1.4-0.5-2c-0.3-0.6-0.5-1-0.7-1.3c-0.2-0.3-0.3-0.5-0.3-0.5l0.1-0.1c0,0,0.8,0.4,1.6,1.6
						c0.3,0.6,0.7,1.3,0.8,2.2c0.1,0.9,0.1,1.8,0,2.7c-0.2,1.8-0.8,3.5-1.3,4.7C102,270.9,101.6,271.7,101.5,271.7L101.5,271.7z"/>
					<path clip-path="url(#SVGID_25_)" fill="#427839" d="M100,270c0,0,0-0.9,0.1-2.1c0.1-1.3,0.4-3,0.9-4.7c0.4-1.7,1-3.3,1.7-4.4
						c0.3-0.6,0.6-1,0.9-1.3c0.2-0.3,0.4-0.5,0.4-0.5l0.1,0c0,0-0.3,0.8-0.7,2c-0.2,0.6-0.5,1.3-0.8,2c-0.3,0.7-0.6,1.5-0.9,2.3
						c-0.6,1.6-1,3.2-1.2,4.5C100.2,269.1,100.1,270,100,270L100,270z"/>
					<path clip-path="url(#SVGID_25_)" fill="#427839" d="M91.2,283.2c0,0,0.5-3.7,2.1-7.2c0.4-0.9,0.8-1.7,1.3-2.5
						c0.5-0.7,1.1-1.4,1.6-1.9c0.6-0.4,1-0.8,1.4-1c0.4-0.2,0.6-0.3,0.6-0.3l0,0.1c0,0-0.7,0.6-1.6,1.7c-0.8,1.1-1.8,2.5-2.7,4.2
						C92.2,279.6,91.3,283.2,91.2,283.2L91.2,283.2z"/>
					<path clip-path="url(#SVGID_25_)" fill="#427839" d="M93,283c0,0,0.4-0.8,0.7-2c0.4-1.2,0.8-2.9,0.9-4.6c0-0.9-0.1-1.7-0.2-2.5
						c-0.1-0.8-0.3-1.4-0.5-2c-0.3-0.6-0.5-1-0.7-1.3c-0.2-0.3-0.3-0.5-0.3-0.5l0.1-0.1c0,0,0.8,0.4,1.6,1.6
						c0.3,0.6,0.7,1.3,0.8,2.2c0.1,0.9,0.1,1.8,0,2.7c-0.2,1.8-0.8,3.5-1.3,4.7C93.5,282.2,93.1,283,93,283L93,283z"/>
					<path clip-path="url(#SVGID_25_)" fill="#427839" d="M91.5,281.3c0,0,0-0.9,0.1-2.1c0.1-1.3,0.4-3,0.9-4.7
						c0.4-1.7,1-3.3,1.7-4.4c0.3-0.6,0.6-1,0.9-1.3c0.2-0.3,0.4-0.5,0.4-0.5l0.1,0c0,0-0.3,0.8-0.7,2c-0.2,0.6-0.5,1.3-0.8,2
						c-0.3,0.7-0.6,1.5-0.9,2.3c-0.6,1.6-1,3.2-1.2,4.5C91.6,280.5,91.6,281.3,91.5,281.3L91.5,281.3z"/>
					<path clip-path="url(#SVGID_25_)" fill="#427839" d="M95.4,278.3c0,0,0.5-3.7,2.1-7.2c0.4-0.9,0.8-1.7,1.3-2.5
						c0.5-0.7,1.1-1.4,1.6-1.9c0.6-0.4,1-0.8,1.4-1c0.4-0.2,0.6-0.3,0.6-0.3l0,0.1c0,0-0.7,0.6-1.6,1.7c-0.8,1.1-1.8,2.5-2.7,4.2
						C96.4,274.7,95.5,278.4,95.4,278.3L95.4,278.3z"/>
					<path clip-path="url(#SVGID_25_)" fill="#427839" d="M97.2,278.1c0,0,0.4-0.8,0.7-2c0.4-1.2,0.8-2.9,0.9-4.6
						c0-0.9-0.1-1.7-0.2-2.5c-0.1-0.8-0.3-1.5-0.5-2c-0.3-0.6-0.5-1-0.7-1.3c-0.2-0.3-0.3-0.5-0.3-0.5l0.1-0.1c0,0,0.8,0.4,1.6,1.6
						c0.3,0.6,0.7,1.3,0.8,2.2c0.1,0.9,0.1,1.8,0,2.7c-0.2,1.8-0.8,3.5-1.3,4.7C97.8,277.4,97.3,278.1,97.2,278.1L97.2,278.1z"/>
					<path clip-path="url(#SVGID_25_)" fill="#427839" d="M95.7,276.4c0,0,0-0.9,0.1-2.1c0.1-1.3,0.4-3,0.9-4.7
						c0.4-1.7,1-3.3,1.7-4.4c0.3-0.6,0.6-1,0.9-1.3c0.2-0.3,0.4-0.5,0.4-0.5l0.1,0c0,0-0.3,0.8-0.7,2c-0.2,0.6-0.5,1.3-0.8,2
						c-0.3,0.7-0.6,1.5-0.9,2.3c-0.6,1.6-1,3.2-1.2,4.5C95.9,275.6,95.8,276.4,95.7,276.4L95.7,276.4z"/>
					<path clip-path="url(#SVGID_25_)" fill="#427839" d="M92.8,275.7c0,0,0.5-3.7,2.1-7.2c0.4-0.9,0.8-1.7,1.3-2.5
						c0.5-0.7,1.1-1.4,1.6-1.9c0.6-0.4,1-0.8,1.4-1c0.4-0.2,0.6-0.3,0.6-0.3l0,0.1c0,0-0.7,0.6-1.6,1.7c-0.8,1.1-1.8,2.5-2.7,4.2
						C93.8,272.1,92.9,275.8,92.8,275.7L92.8,275.7z"/>
					<path clip-path="url(#SVGID_25_)" fill="#427839" d="M94.6,275.5c0,0,0.4-0.8,0.7-2c0.4-1.2,0.8-2.9,0.9-4.6
						c0-0.9-0.1-1.7-0.2-2.5c-0.1-0.8-0.3-1.4-0.5-2c-0.3-0.6-0.5-1-0.7-1.3c-0.2-0.3-0.3-0.5-0.3-0.5l0.1-0.1c0,0,0.8,0.4,1.6,1.6
						c0.3,0.6,0.7,1.3,0.8,2.2c0.1,0.9,0.1,1.8,0,2.7c-0.2,1.8-0.8,3.5-1.3,4.7C95.2,274.8,94.7,275.5,94.6,275.5L94.6,275.5z"/>
					<path clip-path="url(#SVGID_25_)" fill="#427839" d="M93.1,273.8c0,0,0-0.9,0.1-2.1c0.1-1.3,0.4-3,0.9-4.7
						c0.4-1.7,1-3.3,1.7-4.4c0.3-0.6,0.6-1,0.9-1.3c0.2-0.3,0.4-0.5,0.4-0.5l0.1,0c0,0-0.3,0.8-0.7,2c-0.2,0.6-0.5,1.3-0.8,2
						c-0.3,0.7-0.6,1.5-0.9,2.3c-0.6,1.6-1,3.2-1.2,4.5C93.3,273,93.2,273.8,93.1,273.8L93.1,273.8z"/>
					<path clip-path="url(#SVGID_25_)" fill="#427839" d="M92.6,291.4c0,0,0.5-3.7,2.1-7.2c0.4-0.9,0.8-1.7,1.3-2.5
						c0.5-0.7,1.1-1.4,1.6-1.9c0.6-0.4,1-0.8,1.4-1c0.4-0.2,0.6-0.3,0.6-0.3l0,0.1c0,0-0.7,0.6-1.6,1.7c-0.8,1.1-1.8,2.5-2.7,4.2
						C93.6,287.8,92.6,291.4,92.6,291.4L92.6,291.4z"/>
					<path clip-path="url(#SVGID_25_)" fill="#427839" d="M94.4,291.1c0,0,0.4-0.8,0.7-2c0.4-1.2,0.8-2.9,0.9-4.6
						c0-0.9-0.1-1.7-0.2-2.5c-0.1-0.8-0.3-1.5-0.5-2c-0.3-0.6-0.5-1-0.7-1.3c-0.2-0.3-0.3-0.5-0.3-0.5l0.1-0.1c0,0,0.8,0.4,1.6,1.6
						c0.3,0.6,0.7,1.3,0.8,2.2c0.1,0.9,0.1,1.8,0,2.7c-0.2,1.8-0.8,3.5-1.3,4.7C94.9,290.4,94.5,291.2,94.4,291.1L94.4,291.1z"/>
					<path clip-path="url(#SVGID_25_)" fill="#427839" d="M92.9,289.5c0,0,0-0.9,0.1-2.1c0.1-1.3,0.4-3,0.9-4.7
						c0.4-1.7,1-3.3,1.7-4.4c0.3-0.6,0.6-1,0.9-1.3c0.2-0.3,0.4-0.5,0.4-0.5l0.1,0c0,0-0.3,0.8-0.7,2c-0.2,0.6-0.5,1.3-0.8,2
						c-0.3,0.7-0.6,1.5-0.9,2.3c-0.6,1.6-1,3.2-1.2,4.5C93,288.6,93,289.5,92.9,289.5L92.9,289.5z"/>
					<path clip-path="url(#SVGID_25_)" fill="#427839" d="M96.8,286.5c0,0,0.5-3.7,2.1-7.2c0.4-0.9,0.8-1.7,1.3-2.5
						c0.5-0.7,1.1-1.4,1.6-1.9c0.6-0.4,1-0.8,1.4-1c0.4-0.2,0.6-0.3,0.6-0.3l0,0.1c0,0-0.7,0.6-1.6,1.7c-0.8,1.1-1.8,2.5-2.7,4.2
						C97.8,282.9,96.9,286.5,96.8,286.5L96.8,286.5z"/>
					<path clip-path="url(#SVGID_25_)" fill="#427839" d="M98.6,286.3c0,0,0.4-0.8,0.7-2c0.4-1.2,0.8-2.9,0.9-4.6
						c0-0.9-0.1-1.7-0.2-2.5c-0.1-0.8-0.3-1.4-0.5-2c-0.3-0.6-0.5-1-0.7-1.3c-0.2-0.3-0.3-0.5-0.3-0.5l0.1-0.1c0,0,0.8,0.4,1.6,1.6
						c0.3,0.6,0.7,1.3,0.8,2.2c0.1,0.9,0.1,1.8,0,2.7c-0.2,1.8-0.8,3.5-1.3,4.7C99.1,285.6,98.7,286.3,98.6,286.3L98.6,286.3z"/>
					<path clip-path="url(#SVGID_25_)" fill="#427839" d="M97.1,284.6c0,0,0-0.9,0.1-2.1c0.1-1.3,0.4-3,0.9-4.7
						c0.4-1.7,1-3.3,1.7-4.4c0.3-0.6,0.6-1,0.9-1.3c0.2-0.3,0.4-0.5,0.4-0.5l0.1,0c0,0-0.3,0.8-0.7,2c-0.2,0.6-0.5,1.3-0.8,2
						c-0.3,0.7-0.6,1.5-0.9,2.3c-0.6,1.6-1,3.2-1.2,4.5C97.3,283.8,97.2,284.6,97.1,284.6L97.1,284.6z"/>
					<path clip-path="url(#SVGID_25_)" fill="#427839" d="M94.2,283.9c0,0,0.5-3.7,2.1-7.2c0.4-0.9,0.8-1.7,1.3-2.5
						c0.5-0.7,1.1-1.4,1.6-1.9c0.6-0.4,1-0.8,1.4-1c0.4-0.2,0.6-0.3,0.6-0.3l0,0.1c0,0-0.7,0.6-1.6,1.7c-0.8,1.1-1.8,2.5-2.7,4.2
						C95.2,280.3,94.3,283.9,94.2,283.9L94.2,283.9z"/>
					<path clip-path="url(#SVGID_25_)" fill="#427839" d="M96,283.7c0,0,0.4-0.8,0.7-2c0.4-1.2,0.8-2.9,0.9-4.6
						c0-0.9-0.1-1.7-0.2-2.5c-0.1-0.8-0.3-1.4-0.5-2c-0.3-0.6-0.5-1-0.7-1.3c-0.2-0.3-0.3-0.5-0.3-0.5l0.1-0.1c0,0,0.8,0.4,1.6,1.6
						c0.3,0.6,0.7,1.3,0.8,2.2c0.1,0.9,0.1,1.8,0,2.7c-0.2,1.8-0.8,3.5-1.3,4.7C96.5,283,96.1,283.7,96,283.7L96,283.7z"/>
					<path clip-path="url(#SVGID_25_)" fill="#427839" d="M94.5,282c0,0,0-0.9,0.1-2.1c0.1-1.3,0.4-3,0.9-4.7c0.4-1.7,1-3.3,1.7-4.4
						c0.3-0.6,0.6-1,0.9-1.3c0.2-0.3,0.4-0.5,0.4-0.5l0.1,0c0,0-0.3,0.8-0.7,2c-0.2,0.6-0.5,1.3-0.8,2c-0.3,0.7-0.6,1.5-0.9,2.3
						c-0.6,1.6-1,3.2-1.2,4.5C94.7,281.2,94.6,282,94.5,282L94.5,282z"/>
					<path clip-path="url(#SVGID_25_)" fill="#427839" d="M100.6,299.6c0,0,0.1-6.2,0.8-15.5c0.3-4.6,0.7-10.1,1.4-15.8
						c0.6-5.8,1.4-12,2.4-18.1c0.4-3.1,1-6.1,1.5-9.2c0.5-3,1.2-6,1.8-8.8c0.7-2.8,1.5-5.5,2.2-8.1c0.8-2.6,1.7-4.9,2.5-7.1
						c0.7-2.2,1.8-4.1,2.5-5.9c0.4-0.9,0.7-1.7,1.1-2.4c0.4-0.7,0.8-1.4,1.1-2c1.3-2.4,2.1-3.7,2.1-3.7l0.2,0.1c0,0-0.6,1.4-1.6,3.9
						c-0.5,1.2-1.2,2.7-1.7,4.5c-0.6,1.8-1.4,3.7-2,6c-0.6,2.2-1.4,4.6-2.1,7.1c-0.6,2.6-1.4,5.2-2,8.1c-0.6,2.8-1.4,5.7-2,8.7
						c-0.6,3-1.3,6-1.9,9c-1.2,6.1-2.1,12.2-2.9,17.9c-0.8,5.7-1.4,11.1-1.9,15.7c-1,9.2-1.3,15.4-1.3,15.4L100.6,299.6z"/>
					<path clip-path="url(#SVGID_25_)" fill="#427839" d="M108.2,308c0,0,0.1-6.2,0.8-15.5c0.3-4.6,0.7-10.1,1.4-15.8
						s1.4-12,2.4-18.1c0.4-3.1,1-6.1,1.5-9.2c0.5-3,1.2-6,1.8-8.8c0.7-2.8,1.5-5.5,2.2-8.1c0.8-2.6,1.7-4.9,2.5-7.1
						c0.7-2.2,1.8-4.1,2.5-5.9c0.4-0.9,0.7-1.7,1.1-2.4c0.4-0.7,0.8-1.4,1.1-2c1.3-2.4,2.1-3.7,2.1-3.7l0.2,0.1c0,0-0.6,1.4-1.6,3.9
						c-0.5,1.2-1.2,2.7-1.7,4.5c-0.6,1.8-1.4,3.7-2,6c-0.6,2.2-1.4,4.6-2.1,7.1c-0.6,2.6-1.4,5.2-2,8.1c-0.6,2.8-1.4,5.7-2,8.7
						c-0.6,3-1.3,6-1.9,9c-1.2,6.1-2.1,12.2-2.9,17.9c-0.8,5.7-1.4,11.1-1.9,15.7c-1,9.2-1.3,15.4-1.3,15.4L108.2,308z"/>
					<path clip-path="url(#SVGID_25_)" fill="#427839" d="M119.7,301.5c0,0,0.1-6.2,0.8-15.5c0.3-4.6,0.7-10.1,1.4-15.8
						c0.6-5.8,1.4-12,2.4-18.1c0.4-3.1,1-6.1,1.5-9.2c0.5-3,1.2-6,1.8-8.8c0.7-2.8,1.5-5.5,2.2-8.1c0.8-2.6,1.7-4.9,2.5-7.1
						c0.7-2.2,1.8-4.1,2.5-5.9c0.4-0.9,0.7-1.7,1.1-2.4c0.4-0.7,0.8-1.4,1.1-2c1.3-2.4,2.1-3.7,2.1-3.7l0.2,0.1c0,0-0.6,1.4-1.6,3.9
						c-0.5,1.2-1.2,2.7-1.7,4.5c-0.6,1.8-1.4,3.7-2,6c-0.6,2.2-1.4,4.6-2.1,7.1c-0.6,2.6-1.4,5.2-2,8.1c-0.6,2.8-1.4,5.7-2,8.7
						c-0.6,3-1.3,6-1.9,9c-1.2,6.1-2.1,12.2-2.9,17.9c-0.8,5.7-1.4,11.1-1.9,15.7c-1,9.2-1.3,15.4-1.3,15.4L119.7,301.5z"/>
					<path clip-path="url(#SVGID_25_)" fill="#427839" d="M106.1,298.4c0,0,0.1-6.2,0.8-15.5c0.3-4.6,0.7-10.1,1.4-15.8
						c0.6-5.8,1.4-12,2.4-18.1c0.4-3.1,1-6.1,1.5-9.2c0.5-3,1.2-6,1.8-8.8c0.7-2.8,1.5-5.5,2.2-8.1c0.8-2.6,1.7-4.9,2.5-7.1
						c0.7-2.2,1.8-4.1,2.5-5.9c0.4-0.9,0.7-1.7,1.1-2.4c0.4-0.7,0.8-1.4,1.1-2c1.3-2.4,2.1-3.7,2.1-3.7l0.2,0.1c0,0-0.6,1.4-1.6,3.9
						c-0.5,1.2-1.2,2.7-1.7,4.5c-0.6,1.8-1.4,3.7-2,6c-0.6,2.2-1.4,4.6-2.1,7.1c-0.6,2.6-1.4,5.2-2,8.1c-0.6,2.8-1.4,5.7-2,8.7
						c-0.6,3-1.3,6-1.9,9c-1.2,6.1-2.1,12.2-2.9,17.9c-0.8,5.7-1.4,11.1-1.9,15.7c-1,9.2-1.3,15.4-1.3,15.4L106.1,298.4z"/>
					<polygon clip-path="url(#SVGID_25_)" fill="#AA5A26" points="170,101.8 153.8,92.6 153.8,80.9 170,90.1 					"/>
					<polygon clip-path="url(#SVGID_25_)" fill="#F49436" points="170,90.1 153.8,80.9 155.5,79.8 171.7,89.1 					"/>
					<polygon clip-path="url(#SVGID_25_)" fill="#C97729" points="171.7,100.8 170,101.8 170,90.1 171.7,89.1 					"/>
					<polygon clip-path="url(#SVGID_25_)" fill="#C97729" points="173.1,122.8 143.1,140.7 143.1,117.2 173.1,99.3 					"/>
					<polygon clip-path="url(#SVGID_25_)" fill="#AA5A26" points="143.1,140.7 121.7,128 121.7,104.5 143.1,117.2 					"/>
					<polygon clip-path="url(#SVGID_25_)" fill="#F49436" points="143.1,117.2 121.7,104.5 151.7,86.6 173.1,99.3 					"/>
					<polygon clip-path="url(#SVGID_25_)" fill="#AA5A26" points="150.8,133.8 146.8,131.4 146.8,118.8 150.8,121.2 					"/>
					<polygon clip-path="url(#SVGID_25_)" fill="#F49436" points="150.8,121.2 146.8,118.8 170.4,104.9 174.3,107.3 					"/>
					<polygon clip-path="url(#SVGID_25_)" fill="#CE7D39" points="174.3,119.9 150.8,133.8 150.8,121.2 174.3,107.3 					"/>
					<polygon clip-path="url(#SVGID_25_)" fill="#944220" points="134.8,119.1 122.8,112 122.8,94.8 134.8,101.9 					"/>
					<polygon clip-path="url(#SVGID_25_)" fill="#F29F55" points="134.8,101.9 122.8,94.8 134.8,87.6 146.8,94.8 					"/>
					<polygon clip-path="url(#SVGID_25_)" fill="#C97729" points="146.8,112 134.8,119.1 134.8,101.9 146.8,94.8 					"/>
					<polygon clip-path="url(#SVGID_25_)" fill="#EA8735" points="130.4,104.4 130.4,115.1 123.3,117.1 					"/>
					<polygon clip-path="url(#SVGID_25_)" fill="#F5B974" points="126.8,102 130.4,104.4 123.3,117.1 119.7,114.7 					"/>
					<polygon clip-path="url(#SVGID_25_)" fill="#230E00" points="140.6,108.1 136.8,110.3 136.8,105.9 140.6,103.6 					"/>
					<polygon clip-path="url(#SVGID_25_)" fill="#AA5A26" points="229.2,218.3 213,209.1 213,197.4 229.2,206.6 					"/>
					<polygon clip-path="url(#SVGID_25_)" fill="#F49436" points="229.2,206.6 213,197.4 214.7,196.4 230.9,205.6 					"/>
					<polygon clip-path="url(#SVGID_25_)" fill="#C97729" points="230.9,217.3 229.2,218.4 229.2,206.6 230.9,205.6 					"/>
					<polygon clip-path="url(#SVGID_25_)" fill="#C97729" points="232.4,239.4 202.4,257.2 202.4,233.7 232.4,215.8 					"/>
					<polygon clip-path="url(#SVGID_25_)" fill="#AA5A26" points="202.4,257.2 180.9,244.6 180.9,221 202.4,233.7 					"/>
					<polygon clip-path="url(#SVGID_25_)" fill="#F49436" points="202.4,233.7 180.9,221 210.9,203.1 232.4,215.8 					"/>
					<polygon clip-path="url(#SVGID_25_)" fill="#AA5A26" points="210,250.3 206.1,247.9 206.1,235.3 210,237.7 					"/>
					<polygon clip-path="url(#SVGID_25_)" fill="#F49436" points="210,237.7 206.1,235.3 229.7,221.4 233.6,223.8 					"/>
					<polygon clip-path="url(#SVGID_25_)" fill="#CE7D39" points="233.6,236.5 210,250.3 210,237.7 233.6,223.8 					"/>
					<polygon clip-path="url(#SVGID_25_)" fill="#944220" points="194,235.6 182,228.5 182,211.3 194,218.4 					"/>
					<polygon clip-path="url(#SVGID_25_)" fill="#F29F55" points="194,218.4 182,211.3 194,204.2 206.1,211.3 					"/>
					<polygon clip-path="url(#SVGID_25_)" fill="#C97729" points="206.1,228.5 194,235.6 194,218.4 206.1,211.3 					"/>
					<polygon clip-path="url(#SVGID_25_)" fill="#EA8735" points="189.7,220.9 189.7,231.6 182.5,233.6 					"/>
					<polygon clip-path="url(#SVGID_25_)" fill="#F5B974" points="186.1,218.5 189.7,220.9 182.5,233.6 178.9,231.2 					"/>
					<polygon clip-path="url(#SVGID_25_)" fill="#230E00" points="199.8,224.6 196,226.8 196,222.4 199.8,220.2 					"/>
					<polygon clip-path="url(#SVGID_25_)" fill="#AA5A26" points="79,125.3 70.6,120.5 70.6,114.4 79,119.2 					"/>
					<polygon clip-path="url(#SVGID_25_)" fill="#F49436" points="79,119.2 70.6,114.4 71.5,113.9 79.9,118.7 					"/>
					<polygon clip-path="url(#SVGID_25_)" fill="#C97729" points="79.9,124.8 79,125.3 79,119.2 79.9,118.7 					"/>
					<polygon clip-path="url(#SVGID_25_)" fill="#C97729" points="80.6,136.2 65.1,145.5 65.1,133.3 80.6,124 					"/>
					<polygon clip-path="url(#SVGID_25_)" fill="#AA5A26" points="65.1,145.5 53.9,138.9 53.9,126.7 65.1,133.3 					"/>
					<polygon clip-path="url(#SVGID_25_)" fill="#F49436" points="65.1,133.3 53.9,126.7 69.5,117.4 80.6,124 					"/>
					<polygon clip-path="url(#SVGID_25_)" fill="#AA5A26" points="69,141.9 67,140.7 67,134.1 69,135.4 					"/>
					<polygon clip-path="url(#SVGID_25_)" fill="#F49436" points="69,135.4 67,134.1 79.2,126.9 81.3,128.2 					"/>
					<polygon clip-path="url(#SVGID_25_)" fill="#CE7D39" points="81.3,134.7 69,141.9 69,135.4 81.3,128.2 					"/>
					<polygon clip-path="url(#SVGID_25_)" fill="#944220" points="60.7,134.3 54.5,130.6 54.5,121.7 60.7,125.4 					"/>
					<polygon clip-path="url(#SVGID_25_)" fill="#F29F55" points="60.7,125.4 54.5,121.7 60.7,118 67,121.7 					"/>
					<polygon clip-path="url(#SVGID_25_)" fill="#C97729" points="67,130.6 60.7,134.3 60.7,125.4 67,121.7 					"/>
					<polygon clip-path="url(#SVGID_25_)" fill="#EA8735" points="58.5,126.7 58.5,132.2 54.7,133.2 					"/>
					<polygon clip-path="url(#SVGID_25_)" fill="#F5B974" points="56.6,125.4 58.5,126.7 54.7,133.2 52.9,132 					"/>
					<polygon clip-path="url(#SVGID_25_)" fill="#230E00" points="63.7,128.6 61.8,129.7 61.8,127.4 63.7,126.3 					"/>
					<polygon clip-path="url(#SVGID_25_)" fill="#AA5A26" points="187,61.9 185.7,61.1 185.7,54.7 187,55.4 					"/>
					<polygon clip-path="url(#SVGID_25_)" fill="#F49436" points="187,55.4 185.7,54.7 193.9,49.8 195.2,50.5 					"/>
					<polygon clip-path="url(#SVGID_25_)" fill="#C97729" points="195.2,56.9 187,61.9 187,55.4 195.2,50.5 					"/>
					<polygon clip-path="url(#SVGID_25_)" fill="#CE7D39" points="215.3,77.4 203.6,84.4 203.6,71.4 215.3,64.5 					"/>
					<polygon clip-path="url(#SVGID_25_)" fill="#AA5A26" points="203.6,84.4 184.8,73.3 184.8,60.4 203.6,71.4 					"/>
					<polygon clip-path="url(#SVGID_25_)" fill="#F49436" points="203.6,71.4 184.8,60.4 196.6,53.5 215.3,64.5 					"/>
					<polygon clip-path="url(#SVGID_25_)" fill="#944220" points="199.4,80 187,72.4 187,65.4 199.4,73 					"/>
					<polygon clip-path="url(#SVGID_25_)" fill="#F49436" points="199.4,73 187,65.4 188.9,64.3 201.2,71.9 					"/>
					<polygon clip-path="url(#SVGID_25_)" fill="#C97729" points="201.2,78.9 199.4,80 199.4,73 201.2,72 					"/>
					<polygon clip-path="url(#SVGID_25_)" fill="#944220" points="208.1,73.1 201.4,69.2 201.4,59.7 208.1,63.7 					"/>
					<polygon clip-path="url(#SVGID_25_)" fill="#F29F55" points="208.1,63.7 201.4,59.7 208.1,55.8 214.7,59.7 					"/>
					<polygon clip-path="url(#SVGID_25_)" fill="#C97729" points="214.7,69.2 208.1,73.1 208.1,63.6 214.7,59.7 					"/>
					<polygon clip-path="url(#SVGID_25_)" fill="#230E00" points="206.8,66.8 204.7,65.6 204.7,63.2 206.8,64.4 					"/>
					<polygon clip-path="url(#SVGID_25_)" fill="#F49436" points="211.1,65.3 211.1,70.1 214.1,72.3 					"/>
					<polygon clip-path="url(#SVGID_25_)" fill="#F5B974" points="211.1,65.3 212.4,64.6 215.5,71.5 214.1,72.3 					"/>
					<polygon clip-path="url(#SVGID_25_)" fill="#AA5A26" points="202.5,146 201.2,145.2 201.2,138.8 202.5,139.5 					"/>
					<polygon clip-path="url(#SVGID_25_)" fill="#F49436" points="202.5,139.5 201.2,138.8 209.5,133.8 210.8,134.6 					"/>
					<polygon clip-path="url(#SVGID_25_)" fill="#C97729" points="210.8,141 202.5,146 202.5,139.5 210.8,134.6 					"/>
					<polygon clip-path="url(#SVGID_25_)" fill="#CE7D39" points="230.8,161.5 219.1,168.4 219.1,155.5 230.8,148.5 					"/>
					<polygon clip-path="url(#SVGID_25_)" fill="#AA5A26" points="219.1,168.4 200.3,157.4 200.3,144.5 219.1,155.5 					"/>
					<polygon clip-path="url(#SVGID_25_)" fill="#F49436" points="219.1,155.5 200.3,144.5 212.1,137.5 230.8,148.5 					"/>
					<polygon clip-path="url(#SVGID_25_)" fill="#944220" points="214.9,164 202.5,156.5 202.5,149.5 214.9,157.1 					"/>
					<polygon clip-path="url(#SVGID_25_)" fill="#F49436" points="214.9,157.1 202.5,149.5 204.4,148.4 216.7,156 					"/>
					<polygon clip-path="url(#SVGID_25_)" fill="#C97729" points="216.7,163 214.9,164 214.9,157.1 216.7,156 					"/>
					<polygon clip-path="url(#SVGID_25_)" fill="#944220" points="223.6,157.2 217,153.2 217,143.8 223.6,147.7 					"/>
					<polygon clip-path="url(#SVGID_25_)" fill="#F29F55" points="223.6,147.7 217,143.8 223.6,139.9 230.2,143.8 					"/>
					<polygon clip-path="url(#SVGID_25_)" fill="#C97729" points="230.2,153.3 223.6,157.2 223.6,147.7 230.2,143.8 					"/>
					<polygon clip-path="url(#SVGID_25_)" fill="#230E00" points="222.3,150.9 220.3,149.7 220.3,147.3 222.3,148.5 					"/>
					<polygon clip-path="url(#SVGID_25_)" fill="#F49436" points="226.6,149.4 226.6,154.2 229.6,156.3 					"/>
					<polygon clip-path="url(#SVGID_25_)" fill="#F5B974" points="226.6,149.4 228,148.6 231,155.6 229.6,156.3 					"/>
					<polygon clip-path="url(#SVGID_25_)" fill="#AA5A26" points="273,154.9 271.7,154.1 271.7,147.7 273,148.5 					"/>
					<polygon clip-path="url(#SVGID_25_)" fill="#F49436" points="273,148.5 271.7,147.7 280,142.8 281.3,143.5 					"/>
					<polygon clip-path="url(#SVGID_25_)" fill="#C97729" points="281.3,150 273,154.9 273,148.5 281.3,143.5 					"/>
					<polygon clip-path="url(#SVGID_25_)" fill="#CE7D39" points="301.3,170.4 289.6,177.4 289.6,164.5 301.3,157.5 					"/>
					<polygon clip-path="url(#SVGID_25_)" fill="#AA5A26" points="289.6,177.4 270.8,166.4 270.8,153.4 289.6,164.5 					"/>
					<polygon clip-path="url(#SVGID_25_)" fill="#F49436" points="289.6,164.5 270.8,153.4 282.6,146.5 301.3,157.5 					"/>
					<polygon clip-path="url(#SVGID_25_)" fill="#944220" points="285.4,173 273,165.4 273,158.5 285.4,166.1 					"/>
					<polygon clip-path="url(#SVGID_25_)" fill="#F49436" points="285.4,166.1 273,158.5 274.9,157.4 287.2,165 					"/>
					<polygon clip-path="url(#SVGID_25_)" fill="#C97729" points="287.2,171.9 285.4,173 285.4,166.1 287.2,165 					"/>
					<polygon clip-path="url(#SVGID_25_)" fill="#944220" points="294.1,166.1 287.5,162.2 287.5,152.8 294.1,156.7 					"/>
					<polygon clip-path="url(#SVGID_25_)" fill="#F29F55" points="294.1,156.7 287.5,152.8 294.1,148.9 300.7,152.8 					"/>
					<polygon clip-path="url(#SVGID_25_)" fill="#C97729" points="300.7,162.2 294.1,166.1 294.1,156.7 300.7,152.8 					"/>
					<polygon clip-path="url(#SVGID_25_)" fill="#230E00" points="292.8,159.9 290.8,158.6 290.8,156.2 292.8,157.4 					"/>
					<polygon clip-path="url(#SVGID_25_)" fill="#F49436" points="297.1,158.3 297.1,163.2 300.1,165.3 					"/>
					<polygon clip-path="url(#SVGID_25_)" fill="#F5B974" points="297.1,158.3 298.5,157.6 301.5,164.5 300.1,165.3 					"/>
				</g>
			</g>
		</g>
	</g>
</g>
</svg>
