<?xml version="1.0" encoding="utf-8"?>
<!-- Generator: Adobe Illustrator 18.1.1, SVG Export Plug-In . SVG Version: 6.00 Build 0)  -->
<!DOCTYPE svg PUBLIC "-//W3C//DTD SVG 1.1//EN" "http://www.w3.org/Graphics/SVG/1.1/DTD/svg11.dtd">
<svg version="1.1" xmlns="http://www.w3.org/2000/svg" xmlns:xlink="http://www.w3.org/1999/xlink" x="0px" y="0px"
	 viewBox="0 0 360 360" enable-background="new 0 0 360 360" xml:space="preserve">
<g id="Layer_1">
	<rect x="0.3" fill="#FFFFFF" width="360" height="360"/>
	<g>
		
			<image overflow="visible" opacity="0.2" width="1608" height="1146" xlink:href="23EE21179553504B.png"  transform="matrix(0.24 0 0 0.24 -49.6994 -261.0721)">
		</image>
		<g>
			
				<image overflow="visible" width="2394" height="1603" xlink:href="../../lotlocator/4.png"  transform="matrix(0.1887 0 0 0.1887 -95.8257 -278.5677)">
			</image>
		</g>
	</g>
	<g>
		
			<image overflow="visible" opacity="0.2" width="1602" height="1152" xlink:href="23EE21179553504F.png"  transform="matrix(0.24 0 0 0.24 349.055 -270.2184)">
		</image>
		<g>
			
				<image overflow="visible" width="2394" height="1603" xlink:href="../../lotlocator/6.png"  transform="matrix(0.1887 2.837918e-03 -2.837918e-03 0.1887 304.3417 -290.6788)">
			</image>
		</g>
	</g>
	<g>
		<rect x="0.2" y="0.2" fill="#FFFFFF" width="218.5" height="282.8"/>
		<g>
			<defs>
				<rect id="SVGID_141_" x="0" width="360.1" height="360"/>
			</defs>
			<clipPath id="SVGID_2_">
				<use xlink:href="#SVGID_141_"  overflow="visible"/>
			</clipPath>
			
				<rect x="0.2" y="0.2" clip-path="url(#SVGID_2_)" fill="none" stroke="#000000" stroke-width="0.3571" stroke-miterlimit="10" width="218.5" height="282.8"/>
			<path clip-path="url(#SVGID_2_)" fill="#72D54A" d="M97.8,36.1c0,0.4-0.2,0.7-0.5,0.8c-0.2,0.1-0.5,0.2-1,0.2c-0.1,0-0.2,0-0.3,0
				c0,0-0.1,0-0.2,0v0v-1.6v-0.5v-1.5v0c0.1,0,0.2,0,0.3,0c0.1,0,0.3,0,0.5,0c0.2,0,0.4,0,0.6,0.1c0.2,0.1,0.6,0.3,0.6,0.9
				c0,0.4-0.2,0.7-0.6,0.8v0C97.5,35.4,97.8,35.7,97.8,36.1L97.8,36.1z M97,34.6c0-0.3-0.2-0.4-0.5-0.4c-0.1,0-0.1,0-0.2,0V35
				c0,0,0.1,0,0.1,0c0.1,0,0.2,0,0.2,0C96.8,34.9,97,34.8,97,34.6L97,34.6z M97.1,36.1c0-0.2-0.2-0.4-0.3-0.4c-0.1,0-0.2,0-0.3,0
				c0,0-0.1,0-0.2,0v1c0,0,0,0,0,0c0.1,0,0.1,0,0.2,0c0.1,0,0.2,0,0.3-0.1C96.9,36.5,97.1,36.3,97.1,36.1L97.1,36.1z"/>
			<path clip-path="url(#SVGID_2_)" fill="#72D54A" d="M98,35.1v-1.5v0c0.1,0,0.2,0,0.3,0c0.1,0,0.3,0,0.4,0c0.3,0,0.5,0,0.7,0.1
				c0.3,0.1,0.7,0.3,0.7,1c0,0.4-0.2,0.7-0.4,0.8c-0.1,0.1-0.2,0.1-0.3,0.2v0c0,0,0.1,0.1,0.8,1.2c0.1,0.1,0.2,0.3,0.3,0.4v0h-0.4
				h-0.3h-0.1c-0.3-0.4-0.6-0.9-1-1.4h-0.1v0.2v1.2v0h-0.3H98v0v-1.6V35.1z M99.3,34.7c0-0.3-0.2-0.5-0.6-0.5c-0.1,0-0.1,0-0.2,0
				v1.1c0,0,0.1,0,0.1,0c0.1,0,0.3,0,0.3-0.1C99.2,35.1,99.3,34.9,99.3,34.7L99.3,34.7z"/>
			<path clip-path="url(#SVGID_2_)" fill="#72D54A" d="M103.9,35.3c0,1-0.8,1.9-1.9,1.9c-1,0-1.9-0.8-1.9-1.8c0-1,0.8-1.8,1.9-1.8
				C103.2,33.5,103.9,34.3,103.9,35.3L103.9,35.3z M103.2,35.4c0-0.7-0.5-1.2-1.1-1.2c-0.7,0-1.2,0.5-1.2,1.2c0,0.7,0.5,1.2,1.2,1.2
				C102.8,36.6,103.2,36,103.2,35.4L103.2,35.4z"/>
			<path clip-path="url(#SVGID_2_)" fill="#72D54A" d="M107.2,37.2L107.2,37.2c-1-1.9-1.1-2.1-1.2-2.4h0c-0.1,0.2-0.2,0.5-1.1,2.4
				h-0.1l-0.6-2.2c-0.3-1.2-0.4-1.4-0.4-1.4v0h0.4h0.3v0c0,0,0.1,0.2,0.3,1.2c0.1,0.4,0.2,0.6,0.2,0.9h0c0.1-0.2,0.2-0.5,0.4-0.9
				c0.2-0.5,0.4-0.8,0.6-1.1h0.1c0.1,0.3,0.3,0.7,0.6,1.2c0.1,0.3,0.3,0.6,0.3,0.8h0c0.1-0.3,0.1-0.5,0.2-0.8c0.3-1,0.3-1.2,0.3-1.2
				v0h0.3h0.3v0c0,0.1-0.1,0.2-0.4,1.4L107.2,37.2z"/>
			<path clip-path="url(#SVGID_2_)" fill="#72D54A" d="M111.5,37.2L111.5,37.2c-0.9-0.8-1.4-1.3-1.7-1.6c-0.2-0.2-0.4-0.4-0.6-0.7h0
				c0,0.2,0,0.3,0,0.7v1.5v0h-0.3h-0.3v0v-1.6v-2h0.1c0.8,0.8,1.3,1.3,1.6,1.6c0.2,0.2,0.4,0.4,0.6,0.6h0c0-0.2,0-0.4,0-0.8v-1.4v0
				h0.3h0.3v0v1.5V37.2z"/>
			<path clip-path="url(#SVGID_2_)" fill="#72D54A" d="M115.1,36.1c0,0.4-0.2,0.7-0.5,0.8c-0.2,0.1-0.5,0.2-1,0.2
				c-0.1,0-0.2,0-0.3,0c0,0-0.1,0-0.2,0v0v-1.6v-0.5v-1.5v0c0.1,0,0.2,0,0.3,0c0.1,0,0.3,0,0.5,0c0.2,0,0.4,0,0.6,0.1
				c0.2,0.1,0.6,0.3,0.6,0.9c0,0.4-0.2,0.7-0.6,0.8v0C114.7,35.4,115.1,35.7,115.1,36.1L115.1,36.1z M114.2,34.6
				c0-0.3-0.2-0.4-0.5-0.4c-0.1,0-0.1,0-0.2,0V35c0,0,0.1,0,0.1,0c0.1,0,0.2,0,0.2,0C114.1,34.9,114.2,34.8,114.2,34.6L114.2,34.6z
				 M114.4,36.1c0-0.2-0.2-0.4-0.3-0.4c-0.1,0-0.2,0-0.3,0c0,0-0.1,0-0.2,0v1c0,0,0,0,0,0c0.1,0,0.1,0,0.2,0c0.1,0,0.2,0,0.3-0.1
				C114.2,36.5,114.4,36.3,114.4,36.1L114.4,36.1z"/>
		</g>
		<polygon fill="#72D54A" points="115.3,35.1 115.3,33.6 115.3,33.6 116.3,33.6 117.1,33.6 117.1,34.1 117.1,34.1 116.6,34.1 
			116,34.1 116,35 116.6,35 117,35 117,35 117,35.3 117,35.6 117,35.6 116.6,35.6 116,35.6 116,36.5 116,36.6 116.8,36.6 
			117.1,36.6 117.2,36.6 117.2,37.2 116.3,37.2 115.3,37.2 115.3,37.1 115.3,35.5 		"/>
		<g>
			<defs>
				<rect id="SVGID_143_" x="0" width="360.1" height="360"/>
			</defs>
			<clipPath id="SVGID_4_">
				<use xlink:href="#SVGID_143_"  overflow="visible"/>
			</clipPath>
			<path clip-path="url(#SVGID_4_)" fill="#72D54A" d="M118.4,36.4c-0.2,0.5-0.3,0.7-0.3,0.7v0h-0.3h-0.4v0c0,0,0.1-0.2,0.7-1.6
				l0.9-2h0.1l0.9,2c0.6,1.4,0.7,1.6,0.7,1.6v0h-0.4h-0.4v0c0,0-0.1-0.2-0.3-0.7H118.4z M119.4,35.9L119.4,35.9
				c-0.3-0.7-0.3-0.9-0.4-1h0c0,0.1-0.1,0.3-0.4,1v0H119.4z"/>
			<path clip-path="url(#SVGID_4_)" fill="#72D54A" d="M120.9,35.1v-1.5v0c0.1,0,0.2,0,0.3,0c0.1,0,0.3,0,0.4,0c0.3,0,0.5,0,0.7,0.1
				c0.3,0.1,0.7,0.3,0.7,1c0,0.4-0.2,0.7-0.4,0.8c-0.1,0.1-0.2,0.1-0.3,0.2v0c0,0,0.1,0.1,0.8,1.2c0.1,0.1,0.2,0.3,0.3,0.4v0H123
				h-0.3h-0.1c-0.3-0.4-0.6-0.9-1-1.4h-0.1v0.2v1.2v0h-0.3h-0.3v0v-1.6V35.1z M122.3,34.7c0-0.3-0.2-0.5-0.6-0.5c-0.1,0-0.1,0-0.2,0
				v1.1c0,0,0.1,0,0.1,0c0.1,0,0.3,0,0.3-0.1C122.1,35.1,122.3,34.9,122.3,34.7L122.3,34.7z"/>
		</g>
		<polygon fill="#72D54A" points="97.1,37.7 96.7,37.7 95.5,37.7 95.5,38.4 95.5,38.4 95.8,38.4 96.5,38.4 96.5,39.9 96.5,41.7 
			96.5,41.7 96.9,41.7 97.3,41.7 97.3,41.7 97.3,39.9 97.3,38.4 98,38.4 98.3,38.4 98.4,38.4 98.4,37.7 		"/>
		<g>
			<defs>
				<rect id="SVGID_145_" x="0" width="360.1" height="360"/>
			</defs>
			<clipPath id="SVGID_6_">
				<use xlink:href="#SVGID_145_"  overflow="visible"/>
			</clipPath>
			<path clip-path="url(#SVGID_6_)" fill="#72D54A" d="M98.8,40.9c-0.2,0.5-0.3,0.7-0.3,0.8v0h-0.4h-0.4v0c0,0,0.1-0.3,0.8-1.8
				l1-2.3h0.1l0.9,2.3c0.6,1.5,0.7,1.8,0.7,1.8v0h-0.4h-0.4v0c0,0-0.1-0.3-0.3-0.8H98.8z M99.9,40.3L99.9,40.3
				c-0.3-0.8-0.4-1-0.4-1.2h0c0,0.2-0.1,0.4-0.4,1.1v0H99.9z"/>
			<path clip-path="url(#SVGID_6_)" fill="#72D54A" d="M101.1,39.7c0-1.2,0.9-2.1,2.3-2.1c0.1,0,0.3,0,0.4,0c0.1,0,0.2,0,0.3,0.1
				c0,0.2,0,0.4,0,0.7h0c-0.1,0-0.1,0-0.2,0c-0.1,0-0.3,0-0.4,0c-0.9,0-1.5,0.5-1.5,1.4c0,0.8,0.6,1.4,1.4,1.4c0.2,0,0.3,0,0.5,0
				c0.1,0,0.1,0,0.2-0.1h0c0,0.1,0,0.5,0,0.7c-0.1,0-0.2,0.1-0.3,0.1c-0.2,0-0.3,0-0.5,0C102,41.8,101.1,41,101.1,39.7L101.1,39.7z"
				/>
			<path clip-path="url(#SVGID_6_)" fill="#72D54A" d="M104.4,39.4v-1.7v0h0.4h0.4v0v1.4v0.3h0l0.7-0.9c0.4-0.5,0.5-0.7,0.6-0.7v0
				h0.4h0.5v0c0,0-0.2,0.3-0.6,0.8l-0.9,1.1l0.9,1.2c0.6,0.7,0.8,0.9,0.8,1v0H107h-0.5v0c0,0-0.2-0.3-0.7-0.9l-0.7-0.9h0v0.4v1.4v0
				h-0.4h-0.4v0v-1.8V39.4z"/>
			<path clip-path="url(#SVGID_6_)" fill="#72D54A" d="M107.8,39.4v-1.7v0h0.4h0.4v0v1.7v0.5V41c0,0,0,0,0,0h0.8h0.2h0.1h0v0.7h-0.9
				h-1.1v0v-1.8V39.4z"/>
		</g>
		<polygon fill="#72D54A" points="111.2,37.7 110.2,37.7 110.2,37.7 110.2,39.4 110.2,39.9 110.2,41.7 110.2,41.7 111.3,41.7 
			112.2,41.7 112.2,41.1 112.2,41.1 111.8,41.1 110.9,41.1 110.9,41 110.9,40 111.6,40 112,40 112,40 112,39.7 112,39.4 112,39.4 
			111.6,39.4 110.9,39.4 110.9,38.4 111.6,38.4 112.1,38.4 112.1,38.4 112.1,37.7 		"/>
		<g>
			<defs>
				<rect id="SVGID_147_" x="95.5" y="8.2" width="27.9" height="33.6"/>
			</defs>
			<clipPath id="SVGID_8_">
				<use xlink:href="#SVGID_147_"  overflow="visible"/>
			</clipPath>
			<path clip-path="url(#SVGID_8_)" fill="#72D54A" d="M116.1,40.6c0,0.4-0.2,0.7-0.5,0.9c-0.3,0.1-0.6,0.2-1.1,0.2
				c-0.1,0-0.2,0-0.4,0c-0.1,0-0.2,0-0.3,0v0v-1.8v-0.5v-1.7v0c0.1,0,0.2,0,0.3,0c0.1,0,0.4,0,0.5,0c0.2,0,0.5,0,0.7,0.1
				c0.2,0.1,0.7,0.3,0.7,1c0,0.4-0.2,0.7-0.6,0.9v0C115.7,39.7,116.1,40.1,116.1,40.6L116.1,40.6z M115.2,38.8
				c0-0.3-0.2-0.5-0.5-0.5c-0.1,0-0.2,0-0.2,0v1c0,0,0.1,0,0.1,0c0.1,0,0.2,0,0.3,0C115,39.2,115.2,39.1,115.2,38.8L115.2,38.8z
				 M115.3,40.5c0-0.3-0.2-0.4-0.4-0.5c-0.1,0-0.2,0-0.3,0c0,0-0.1,0-0.2,0v1.1c0,0,0,0,0,0c0.1,0,0.1,0,0.2,0c0.1,0,0.2,0,0.3-0.1
				C115.1,40.9,115.3,40.8,115.3,40.5L115.3,40.5z"/>
			<path clip-path="url(#SVGID_8_)" fill="#72D54A" d="M120.3,39.7c0,1.2-0.9,2.1-2,2.1c-1.1,0-2-0.9-2-2.1c0-1.2,0.9-2.1,2.1-2.1
				C119.5,37.7,120.3,38.5,120.3,39.7L120.3,39.7z M119.6,39.7c0-0.8-0.5-1.3-1.2-1.3c-0.7,0-1.3,0.6-1.3,1.4c0,0.8,0.5,1.4,1.3,1.4
				C119.1,41.1,119.6,40.5,119.6,39.7L119.6,39.7z"/>
		</g>
		<g>
			<defs>
				<rect id="SVGID_149_" x="0" width="360.1" height="360"/>
			</defs>
			<clipPath id="SVGID_10_">
				<use xlink:href="#SVGID_149_"  overflow="visible"/>
			</clipPath>
			<path clip-path="url(#SVGID_10_)" fill="#72D54A" d="M121.2,39.7l-0.3-0.4c-0.8-1.3-1-1.5-1-1.6v0h0.5h0.4v0c0,0,0.2,0.3,0.4,0.7
				c0.1,0.2,0.2,0.4,0.3,0.5h0c0.1-0.2,0.2-0.4,0.3-0.5c0.3-0.5,0.4-0.7,0.4-0.7v0h0.4h0.4v0c0,0.1-0.2,0.3-0.9,1.6l-0.2,0.4
				l0.3,0.4c0.8,1.4,0.9,1.6,1,1.6v0h-0.5h-0.4v0c0,0-0.2-0.3-0.4-0.8c-0.1-0.2-0.3-0.5-0.4-0.6h0c-0.1,0.2-0.2,0.4-0.3,0.6
				c-0.3,0.5-0.4,0.7-0.4,0.8v0h-0.4H120v0c0,0,0.2-0.3,1-1.6L121.2,39.7z"/>
			<path clip-path="url(#SVGID_10_)" fill="#855D31" d="M99.4,12.7c-0.7,0.6-1.3,1.4-1.7,2.2c-0.5,0.8-0.7,1.8-0.6,2.7
				c0.2,0.9,0.8,1.8,1.8,1.8c0.6,0,1.2-0.3,1.5-0.9c0.3-0.5,0.2-1.2-0.1-1.7c-0.2-0.2-0.3-0.4-0.5-0.6c-0.4-0.5-0.6-1.1-0.6-1.8
				C99.2,13.9,99.4,13.3,99.4,12.7"/>
			<path clip-path="url(#SVGID_10_)" fill="#855D31" d="M104.1,9.9c-0.7,0.6-1.3,1.4-1.7,2.2c-0.5,0.8-0.7,1.8-0.6,2.7
				c0.2,0.9,0.8,1.8,1.8,1.8c0.6,0,1.2-0.3,1.5-0.9c0.3-0.5,0.2-1.2-0.1-1.7c-0.2-0.2-0.3-0.4-0.5-0.6c-0.4-0.5-0.6-1.1-0.6-1.8
				C103.9,11.1,104.1,10.5,104.1,9.9"/>
			<path clip-path="url(#SVGID_10_)" fill="#855D31" d="M110.1,8.2c-0.7,0.5-1.4,1.3-1.9,2c-0.5,0.8-0.9,1.7-0.8,2.7
				c0.1,0.9,0.7,1.8,1.6,2c0.6,0.1,1.2-0.2,1.6-0.7c0.3-0.5,0.3-1.2,0-1.7c-0.1-0.2-0.3-0.4-0.5-0.6c-0.3-0.5-0.5-1.2-0.4-1.8
				C109.8,9.3,110.1,8.7,110.1,8.2"/>
			<path clip-path="url(#SVGID_10_)" fill="#855D31" d="M95.9,25.1c0,0,0-0.1,0.1-0.4c0-0.1,0.1-0.3,0.1-0.4c0,0,0-0.1,0-0.1
				c0,0,0-0.1,0.1-0.1c0-0.1,0.1-0.2,0.1-0.3c0.2-0.4,0.5-0.9,0.9-1.4c0.4-0.5,0.9-1.1,1.6-1.5c0,0,0.1-0.1,0.1-0.1
				c0,0,0.1-0.1,0.1-0.1c0.1-0.1,0.2-0.1,0.3-0.2c0,0,0.1-0.1,0.1-0.1c0,0,0.1-0.1,0.1-0.1c0,0,0.1-0.1,0.1-0.1c0,0,0.1-0.1,0.1-0.1
				c0.2-0.1,0.4-0.2,0.6-0.3c0.1,0,0.1,0,0.2-0.1c0.1,0,0.1,0,0.2-0.1c0.1,0,0.2-0.1,0.3-0.1l0.1,0l0.1,0c0.1,0,0.1,0,0.2,0
				c0.1,0,0.2-0.1,0.3-0.1c0.2-0.1,0.4-0.1,0.7-0.2c0.4-0.1,0.8-0.2,1.1-0.4l0.1,0l0,0c0,0,0,0,0,0l0,0l0,0l0.1-0.1c0,0,0,0,0.1,0
				l0.1,0l0.1-0.1l0.1-0.1c0.2-0.1,0.4-0.3,0.6-0.5c0.2-0.2,0.4-0.3,0.7-0.5c0.1-0.1,0.2-0.2,0.4-0.2c0,0,0.1,0,0.1-0.1l0,0l0,0l0,0
				l0,0l0.2-0.1c1-0.5,2.2-0.6,3.3-0.6c1.1,0,2.2,0.3,3.3,0.8c0,0,0,0,0.1,0l0.1,0l0.1,0c0,0,0,0,0.1,0c0.1,0,0.1,0.1,0.2,0.1
				l0.1,0.1l0.1,0.1c0.1,0,0.1,0.1,0.2,0.1c0.2,0.2,0.4,0.4,0.6,0.5c0.2,0.2,0.3,0.3,0.5,0.4l0,0l0,0c0,0,0,0,0,0l0,0l0.1,0
				c0.1,0,0.1,0.1,0.1,0.1l0.1,0c0,0,0,0,0.1,0c0,0,0.1,0,0.1,0.1c0.2,0.1,0.4,0.1,0.6,0.2c0.2,0,0.4,0.1,0.7,0.1
				c0.2,0,0.5,0.1,0.7,0.1c0.1,0,0.1,0,0.2,0c0.1,0,0.1,0,0.2,0c0.1,0,0.1,0,0.2,0.1l0.1,0l0,0l0,0l0,0l0,0c0.4,0.2,0.9,0.3,1.3,0.5
				c0.2,0.1,0.4,0.2,0.6,0.3c0,0,0.1,0.1,0.1,0.1c0,0,0.1,0.1,0.1,0.1c0.1,0.1,0.2,0.1,0.2,0.2c0,0,0.1,0.1,0.1,0.1
				c0,0,0.1,0.1,0.1,0.1c0.1,0.1,0.2,0.1,0.2,0.2c0.1,0.1,0.1,0.1,0.2,0.2c0.1,0.1,0.1,0.1,0.2,0.2c0.1,0.1,0.1,0.1,0.2,0.2
				c0.1,0.1,0.1,0.1,0.2,0.2c0,0,0.1,0.1,0.1,0.1c0,0,0.1,0.1,0.1,0.1c0.1,0.1,0.1,0.1,0.2,0.2c0.4,0.5,0.7,1,0.9,1.4
				c0,0.1,0.1,0.2,0.1,0.3c0,0,0,0.1,0.1,0.1c0,0,0,0.1,0,0.1c0,0,0,0.1,0,0.1c0,0,0,0.1,0,0.1c0,0.1,0,0.1,0.1,0.2
				c0,0.1,0,0.2,0.1,0.3c0,0.1,0,0.1,0,0.1s-0.1-0.1-0.2-0.3c-0.1-0.2-0.3-0.5-0.5-0.9c-0.2-0.4-0.6-0.8-1-1.2
				c-0.2-0.2-0.5-0.4-0.7-0.6c-0.1-0.1-0.1-0.1-0.2-0.1c-0.1-0.1-0.1-0.1-0.2-0.1c-0.1,0-0.1-0.1-0.2-0.1c0,0-0.1,0-0.1-0.1
				c0,0-0.1,0-0.1-0.1c-0.1,0-0.2-0.1-0.3-0.1c0,0,0,0,0,0l0,0l0,0l0,0l-0.1,0c0,0-0.1,0-0.1-0.1c-0.2-0.1-0.3-0.2-0.5-0.2
				c-0.4-0.1-0.8-0.3-1.2-0.4l0,0l0,0c0,0,0,0,0,0l0,0l-0.1,0c0,0-0.1,0-0.1,0c0,0-0.1,0-0.1,0c-0.1,0-0.1,0-0.2,0
				c-0.2,0-0.4,0-0.7-0.1c-0.2,0-0.5,0-0.7-0.1c-0.3,0-0.5-0.1-0.8-0.2c-0.1,0-0.1-0.1-0.2-0.1c0,0-0.1,0-0.1,0l-0.1-0.1
				c-0.1,0-0.1-0.1-0.2-0.1l-0.1,0l0,0l0,0l0,0l0,0c-0.2-0.2-0.5-0.3-0.7-0.5c-0.2-0.2-0.4-0.3-0.6-0.5c0,0-0.1-0.1-0.1-0.1l-0.1,0
				l-0.1,0c0,0-0.1-0.1-0.1-0.1c0,0,0,0,0,0l0,0l0,0c0,0,0,0,0,0l-0.1,0l0,0l0,0c0,0,0,0,0,0l0,0l-0.2-0.1c-0.1,0-0.2-0.1-0.3-0.1
				c-0.1,0-0.2-0.1-0.3-0.1c-0.1,0-0.2-0.1-0.3-0.1c-0.5-0.1-0.9-0.2-1.4-0.2c-0.5,0-0.9,0-1.4,0.1l-0.2,0l-0.2,0l-0.2,0
				c-0.1,0-0.1,0-0.2,0l-0.2,0c-0.1,0-0.1,0-0.2,0l-0.1,0c-0.1,0-0.1,0-0.2,0.1l-0.2,0.1l-0.1,0.1c-0.1,0-0.2,0.1-0.3,0.2
				c-0.2,0.1-0.4,0.2-0.6,0.4c-0.2,0.1-0.4,0.3-0.6,0.4c-0.1,0-0.1,0.1-0.2,0.1l-0.1,0.1l-0.1,0.1c0,0-0.1,0-0.1,0.1l-0.1,0l0,0l0,0
				c0,0,0,0,0,0l0,0l-0.1,0.1c-0.3,0.1-0.5,0.2-0.8,0.3c-0.3,0.1-0.5,0.1-0.8,0.2c-0.2,0-0.5,0.1-0.7,0.1c-0.1,0-0.2,0-0.3,0.1
				c0,0-0.1,0-0.2,0l-0.1,0l-0.1,0c-0.1,0-0.2,0-0.3,0.1c0,0-0.1,0-0.1,0c0,0-0.1,0-0.1,0c-0.2,0-0.4,0.1-0.6,0.2c0,0-0.1,0-0.1,0.1
				c0,0-0.1,0-0.1,0.1c0,0-0.1,0-0.1,0.1c0,0-0.1,0-0.1,0.1c-0.1,0-0.2,0.1-0.3,0.1c0,0-0.1,0-0.1,0.1c0,0-0.1,0-0.1,0.1
				c-0.6,0.4-1.2,0.8-1.6,1.2c-0.4,0.4-0.8,0.8-1,1.2c-0.2,0.4-0.4,0.7-0.5,0.9C95.9,25,95.9,25.1,95.9,25.1"/>
			<path clip-path="url(#SVGID_10_)" fill="#855D31" d="M118.9,12.6c0.7,0.6,1.3,1.4,1.7,2.2c0.5,0.8,0.7,1.8,0.6,2.7
				c-0.2,0.9-0.8,1.8-1.8,1.8c-0.6,0-1.2-0.3-1.5-0.9c-0.3-0.5-0.2-1.2,0.1-1.7c0.2-0.2,0.3-0.4,0.5-0.6c0.4-0.5,0.5-1.1,0.6-1.8
				C119.1,13.8,119,13.2,118.9,12.6"/>
			<path clip-path="url(#SVGID_10_)" fill="#855D31" d="M114.4,9.9c0.7,0.6,1.3,1.4,1.7,2.2c0.5,0.8,0.7,1.8,0.6,2.7
				c-0.2,0.9-0.8,1.8-1.8,1.8c-0.6,0-1.2-0.3-1.5-0.9c-0.3-0.5-0.2-1.2,0.1-1.7c0.2-0.2,0.3-0.4,0.5-0.6c0.4-0.5,0.6-1.1,0.6-1.8
				C114.6,11,114.4,10.5,114.4,9.9"/>
			<path clip-path="url(#SVGID_10_)" fill="#855D31" d="M101.4,25.8c-0.6-0.4-1.1-1.2-1.2-1.9c-1.5,1-2.1,3-1.5,4.7
				c0.6,1.7,2.3,2.9,4.1,2.9c1.2,0.1,2.3-0.3,3.4-0.8c0.8-0.4,1.6-0.9,2.5-1c1.7-0.2,3.2,1,4.8,1.5c1.3,0.4,2.9,0.3,4.1-0.3
				c1.2-0.7,2.2-1.9,2.4-3.3c0.2-1.4-0.3-2.9-1.4-3.8c-0.1,0.9-0.7,1.8-1.6,2.1c0.6-1,0.3-2.4-0.5-3.3c-0.8-0.9-1.9-1.4-3.1-1.7
				c0.5,0.1,1.1,0,1.6,0.1c0.6,0.1,1.1,0.2,1.7,0.4c1,0.3,2,0.8,2.7,1.5c1.3,1.4,1.9,3.4,1.5,5.3c-0.5,2.2-2.4,3.9-4.6,4.3
				c-1.4,0.2-2.8-0.1-4-0.6c-1.2-0.5-2.4-1.2-3.7-1c-0.8,0.1-1.5,0.6-2.3,1c-1.3,0.6-2.7,0.9-4.1,0.8c-1.4-0.2-2.8-0.9-3.7-2
				c-0.8-1-1.2-2.3-1.2-3.6c0.1-1.3,0.6-2.5,1.5-3.5c1.6-1.7,4.1-2.3,6.4-2.8c-1.1,0.4-2.1,1-2.9,1.8
				C101.5,23.4,101,24.7,101.4,25.8"/>
		</g>
		<text transform="matrix(1 0 0 1 150.121 53.3144)" fill="#855D31" font-family="'PenumbraFlareStd-Regular'" font-size="3.5706">www.brownbea</text>
		<text transform="matrix(1 0 0 1 180.3398 53.3144)" fill="#855D31" font-family="'PenumbraFlareStd-Regular'" font-size="3.5706">rt</text>
		<text transform="matrix(1 0 0 1 184.081 53.3144)" fill="#855D31" font-family="'PenumbraFlareStd-Regular'" font-size="3.5706">ac</text>
		<text transform="matrix(1 0 0 1 188.8085 53.3144)" fill="#855D31" font-family="'PenumbraFlareStd-Regular'" font-size="3.5706">kleb</text>
		<text transform="matrix(1 0 0 1 196.4355 53.3144)" fill="#855D31" font-family="'PenumbraFlareStd-Regular'" font-size="3.5706">ox</text>
		<text transform="matrix(1 0 0 1 201.706 53.3144)" fill="#855D31" font-family="'PenumbraFlareStd-Regular'" font-size="3.5706">.c</text>
		<text transform="matrix(1 0 0 1 204.7441 53.3144)" fill="#855D31" font-family="'PenumbraFlareStd-Regular'" font-size="3.5706">om</text>
		<text transform="matrix(1 0 0 1 193.3144 46.1728)" fill="#855D31" font-family="'PenumbraFlareStd-Regular'" font-size="3.5706"> </text>
		<text transform="matrix(1 0 0 1 6.3916 53.3144)" fill="#855D31" font-family="'PenumbraFlareStd-Regular'" font-size="3.5706">83</text>
		<text transform="matrix(1 0 0 1 10.3584 53.3144)" fill="#855D31" font-family="'PenumbraFlareStd-Regular'" font-size="3.5706">6 Deve</text>
		<text transform="matrix(1 0 0 1 22.1445 53.3144)" fill="#855D31" font-family="'PenumbraFlareStd-Regular'" font-size="3.5706">lo</text>
		<text transform="matrix(1 0 0 1 26.8505 53.3144)" fill="#855D31" font-family="'PenumbraFlareStd-Regular'" font-size="3.5706">pm</text>
		<text transform="matrix(1 0 0 1 32.0537 53.3144)" fill="#855D31" font-family="'PenumbraFlareStd-Regular'" font-size="3.5706">ent Dr Kings</text>
		<text transform="matrix(1 0 0 1 55.3828 53.3144)" fill="#855D31" font-family="'PenumbraFlareStd-Regular'" font-size="3.5706">to</text>
		<text transform="matrix(1 0 0 1 60.4755 53.3144)" fill="#855D31" font-family="'PenumbraFlareStd-Regular'" font-size="3.5706">n ON</text>
		<text transform="matrix(1 0 0 1 70.833 53.3144)" fill="#855D31" font-family="'PenumbraFlareStd-Regular'" font-size="3.5706"> 1</text>
		<text transform="matrix(1 0 0 1 115.455 53.3144)" fill="#855D31" font-family="'PenumbraFlareStd-Regular'" font-size="3.5706">-6</text>
		<text transform="matrix(1 0 0 1 118.5537 53.3144)" fill="#855D31" font-family="'PenumbraFlareStd-Regular'" font-size="3.5706">13-3</text>
		<text transform="matrix(1 0 0 1 124.6308 53.3144)" fill="#855D31" font-family="'PenumbraFlareStd-Regular'" font-size="3.5706">89</text>
		<text transform="matrix(1 0 0 1 128.8378 53.3144)" fill="#855D31" font-family="'PenumbraFlareStd-Regular'" font-size="3.5706">-111</text>
		<text transform="matrix(1 0 0 1 133.9472 53.3144)" fill="#855D31" font-family="'PenumbraFlareStd-Regular'" font-size="3.5706">9</text>
		<text transform="matrix(1 0 0 1 83.0478 53.3144)" fill="#855D31" font-family="'PenumbraFlareStd-Regular'" font-size="3.5706">k7M 4W6</text>
		<g>
			<defs>
				<rect id="SVGID_151_" x="0" width="360.1" height="360"/>
			</defs>
			<clipPath id="SVGID_12_">
				<use xlink:href="#SVGID_151_"  overflow="visible"/>
			</clipPath>
			<path clip-path="url(#SVGID_12_)" fill="#FFFFFF" stroke="#72D54A" stroke-width="0.3571" stroke-miterlimit="10" d="M359.9,74.6
				v73.4h-51.4V74.6h2.5c-0.2-0.6-0.2-1.1-0.2-1.7c0-3.4,3.1-6.6,6.6-6.6c0.9,0,1.7,0.2,2.5,0.5c0.4-3.1,2.6-5.1,5.8-5.1
				c1,0,1.9,0.2,2.7,0.6c0.8-2.5,3.2-4.3,5.9-4.3c2.9,0,4.9,1.9,5.6,4.5c0.9-0.6,2.4-0.9,3.6-0.9c3.1,0,5.3,1.9,5.8,4.8
				c0.5-0.1,1-0.2,1.5-0.2c3.4,0,6.6,3.1,6.6,6.6c0,0.6-0.1,1.2-0.2,1.7H359.9z"/>
			<path clip-path="url(#SVGID_12_)" fill="#855D31" d="M318.5,69.7c-1,0.9-2,2.2-2.6,3.4c-0.7,1.3-1.1,2.8-0.9,4.3
				c0.3,1.4,1.3,2.8,2.7,2.8c0.9,0.1,1.9-0.5,2.3-1.3c0.4-0.8,0.4-1.9-0.2-2.7c-0.2-0.3-0.5-0.6-0.8-0.9c-0.6-0.8-0.9-1.8-0.9-2.8
				C318.2,71.6,318.5,70.7,318.5,69.7"/>
		</g>
		<g>
			<defs>
				<rect id="SVGID_153_" x="312.4" y="62.6" width="43.6" height="52.5"/>
			</defs>
			<clipPath id="SVGID_14_">
				<use xlink:href="#SVGID_153_"  overflow="visible"/>
			</clipPath>
			<path clip-path="url(#SVGID_14_)" fill="#855D31" d="M325.8,65.4c-1,0.9-2,2.2-2.6,3.4c-0.7,1.3-1.1,2.8-0.9,4.3
				c0.3,1.4,1.3,2.8,2.7,2.8c0.9,0.1,1.9-0.5,2.3-1.3c0.4-0.8,0.4-1.9-0.2-2.7c-0.2-0.3-0.5-0.6-0.8-0.9c-0.6-0.8-0.9-1.8-0.9-2.8
				C325.5,67.2,325.8,66.3,325.8,65.4"/>
			<path clip-path="url(#SVGID_14_)" fill="#855D31" d="M335.3,62.6c-1.1,0.8-2.2,2-2.9,3.2c-0.8,1.2-1.4,2.7-1.2,4.2
				c0.1,1.4,1.1,2.9,2.5,3.1c0.9,0.1,1.9-0.3,2.5-1.1c0.5-0.8,0.5-1.9,0-2.7c-0.2-0.4-0.5-0.6-0.7-1c-0.5-0.8-0.7-1.8-0.6-2.8
				C334.8,64.4,335.2,63.5,335.3,62.6"/>
		</g>
		<g>
			<defs>
				<rect id="SVGID_155_" x="0" width="360.1" height="360"/>
			</defs>
			<clipPath id="SVGID_15_">
				<use xlink:href="#SVGID_155_"  overflow="visible"/>
			</clipPath>
			<path clip-path="url(#SVGID_15_)" fill="#855D31" d="M313,89c0,0,0-0.2,0.1-0.6c0-0.2,0.1-0.4,0.2-0.7c0-0.1,0-0.1,0.1-0.2
				c0-0.1,0.1-0.1,0.1-0.2c0.1-0.1,0.1-0.3,0.2-0.5c0.3-0.7,0.7-1.4,1.3-2.2c0.6-0.8,1.4-1.7,2.5-2.4c0.1,0,0.1-0.1,0.2-0.1
				s0.1-0.1,0.2-0.1c0.1-0.1,0.3-0.2,0.4-0.3c0.1,0,0.1-0.1,0.2-0.1c0.1,0,0.1-0.1,0.2-0.1c0.1,0,0.1-0.1,0.2-0.1
				c0.1,0,0.1-0.1,0.2-0.1c0.3-0.1,0.6-0.3,1-0.4c0.1,0,0.2-0.1,0.3-0.1c0.1,0,0.2-0.1,0.3-0.1c0.2-0.1,0.4-0.1,0.5-0.2l0.1,0l0.1,0
				c0.1,0,0.2,0,0.3-0.1c0.2,0,0.4-0.1,0.5-0.1c0.3-0.1,0.7-0.2,1-0.2c0.7-0.2,1.3-0.4,1.8-0.7l0.1-0.1l0,0c0,0,0,0,0,0l0,0l0.1,0
				l0.1-0.1c0,0,0.1,0,0.1-0.1l0.1-0.1l0.1-0.1l0.2-0.2c0.3-0.2,0.6-0.5,0.9-0.7c0.3-0.2,0.7-0.5,1-0.8c0.2-0.1,0.4-0.2,0.6-0.3
				c0,0,0.1-0.1,0.2-0.1l0.1,0l0,0l0,0l0,0l0.3-0.1c1.6-0.7,3.4-1,5.2-1c1.8,0.1,3.5,0.4,5.1,1.2c0,0,0.1,0,0.1,0l0.1,0.1l0.1,0.1
				c0,0,0.1,0,0.1,0.1c0.1,0.1,0.2,0.1,0.3,0.2l0.1,0.1l0.1,0.1c0.1,0.1,0.2,0.1,0.3,0.2c0.3,0.3,0.6,0.6,0.9,0.8
				c0.3,0.3,0.5,0.5,0.8,0.6l0,0l0,0c0,0,0,0,0,0l0,0l0.1,0.1c0.1,0,0.2,0.1,0.2,0.1l0.1,0c0,0,0,0,0.1,0c0.1,0,0.1,0.1,0.2,0.1
				c0.3,0.1,0.6,0.2,0.9,0.3c0.3,0.1,0.7,0.1,1,0.2c0.4,0.1,0.7,0.1,1.1,0.2c0.1,0,0.2,0,0.3,0.1c0.1,0,0.2,0,0.3,0.1
				c0.1,0,0.2,0.1,0.3,0.1l0.1,0l0,0l0,0l0,0l0.1,0c0.7,0.2,1.4,0.5,2,0.8c0.3,0.2,0.6,0.3,0.9,0.5c0.1,0,0.1,0.1,0.2,0.1
				c0.1,0,0.1,0.1,0.2,0.1c0.1,0.1,0.2,0.2,0.4,0.3c0.1,0,0.1,0.1,0.2,0.1c0.1,0,0.1,0.1,0.2,0.1c0.1,0.1,0.2,0.2,0.4,0.3
				c0.1,0.1,0.2,0.2,0.3,0.3c0.1,0.1,0.2,0.2,0.3,0.3c0.1,0.1,0.2,0.2,0.3,0.3c0.1,0.1,0.2,0.2,0.3,0.3c0,0.1,0.1,0.1,0.1,0.2
				c0,0.1,0.1,0.1,0.1,0.2c0.1,0.1,0.2,0.2,0.2,0.3c0.6,0.8,1,1.6,1.3,2.3c0.1,0.2,0.1,0.3,0.2,0.5c0,0.1,0.1,0.1,0.1,0.2
				c0,0.1,0,0.1,0.1,0.2c0,0.1,0,0.1,0.1,0.2c0,0.1,0,0.1,0.1,0.2c0,0.1,0.1,0.2,0.1,0.3c0,0.2,0.1,0.3,0.1,0.4c0,0.1,0,0.1,0,0.1
				s-0.1-0.2-0.3-0.5c-0.2-0.3-0.4-0.8-0.8-1.4c-0.4-0.6-0.9-1.2-1.6-1.9c-0.3-0.3-0.7-0.7-1.1-1c-0.1-0.1-0.2-0.2-0.3-0.2
				c-0.1-0.1-0.2-0.2-0.3-0.2c-0.1-0.1-0.2-0.2-0.3-0.2c-0.1,0-0.1-0.1-0.2-0.1c-0.1,0-0.1-0.1-0.2-0.1c-0.1-0.1-0.3-0.1-0.4-0.2
				c0,0,0,0,0,0l0,0l0,0l0,0l-0.1,0c-0.1,0-0.1-0.1-0.2-0.1c-0.3-0.1-0.5-0.2-0.8-0.4c-0.6-0.2-1.2-0.4-1.8-0.6l-0.1,0l0,0
				c0,0,0,0,0,0l0,0l-0.1,0c-0.1,0-0.1,0-0.2,0c-0.1,0-0.2,0-0.2,0c-0.1,0-0.2,0-0.2,0c-0.3,0-0.7-0.1-1-0.1c-0.4,0-0.7-0.1-1.2-0.1
				c-0.4-0.1-0.8-0.1-1.3-0.3c-0.1,0-0.2-0.1-0.3-0.1c-0.1,0-0.1,0-0.2-0.1l-0.2-0.1c-0.1-0.1-0.2-0.1-0.3-0.1l-0.1-0.1l0,0l-0.1,0
				l0,0l-0.1,0c-0.4-0.2-0.7-0.5-1-0.8c-0.3-0.3-0.6-0.5-0.9-0.7c-0.1-0.1-0.1-0.1-0.2-0.2l-0.1-0.1l-0.1-0.1
				c-0.1,0-0.1-0.1-0.2-0.1c0,0,0,0,0,0l0,0l0,0c0,0,0,0,0,0l-0.1-0.1l0,0l0,0c0,0,0,0,0,0l-0.1,0l-0.2-0.1
				c-0.2-0.1-0.3-0.1-0.5-0.2c-0.2-0.1-0.3-0.1-0.5-0.2c-0.2-0.1-0.3-0.1-0.5-0.1c-0.7-0.2-1.4-0.2-2.2-0.3c-0.7,0-1.5,0-2.2,0.1
				l-0.3,0l-0.3,0.1l-0.3,0.1c-0.1,0-0.2,0-0.3,0.1l-0.3,0.1c-0.1,0-0.2,0.1-0.2,0.1l-0.2,0.1c-0.1,0-0.2,0.1-0.3,0.1l-0.3,0.1
				l-0.2,0.1c-0.1,0.1-0.3,0.2-0.4,0.2c-0.3,0.2-0.6,0.4-0.9,0.6c-0.3,0.2-0.6,0.5-0.9,0.7c-0.1,0.1-0.2,0.1-0.2,0.2l-0.1,0.1
				l-0.1,0.1c0,0-0.1,0.1-0.1,0.1l-0.1,0.1l-0.1,0l0,0c0,0,0,0,0,0l0,0l-0.1,0.1c-0.4,0.2-0.8,0.4-1.2,0.5c-0.4,0.1-0.8,0.2-1.2,0.3
				c-0.4,0.1-0.7,0.1-1.1,0.2c-0.2,0-0.3,0.1-0.5,0.1c-0.1,0-0.2,0-0.3,0l-0.1,0l-0.1,0c-0.2,0-0.3,0.1-0.5,0.1
				c-0.1,0-0.2,0-0.2,0.1c-0.1,0-0.1,0-0.2,0.1c-0.3,0.1-0.6,0.2-0.9,0.3c-0.1,0-0.1,0.1-0.2,0.1c-0.1,0-0.1,0.1-0.2,0.1
				c-0.1,0-0.1,0.1-0.2,0.1c-0.1,0-0.1,0.1-0.2,0.1c-0.1,0.1-0.3,0.1-0.4,0.2c-0.1,0-0.1,0.1-0.2,0.1c-0.1,0-0.1,0.1-0.2,0.1
				c-1,0.6-1.8,1.2-2.5,1.9c-0.7,0.7-1.2,1.3-1.6,1.9c-0.4,0.6-0.7,1.1-0.8,1.4C313.1,88.8,313,89,313,89"/>
			<path clip-path="url(#SVGID_15_)" fill="#855D31" d="M349,69.5c1,0.9,2,2.2,2.6,3.4c0.7,1.3,1.1,2.8,0.9,4.3
				c-0.3,1.4-1.3,2.8-2.7,2.8c-0.9,0.1-1.9-0.5-2.3-1.3c-0.4-0.8-0.4-1.9,0.2-2.7c0.2-0.3,0.5-0.6,0.8-0.9c0.6-0.8,0.9-1.8,0.9-2.8
				C349.3,71.4,349,70.5,349,69.5"/>
			<path clip-path="url(#SVGID_15_)" fill="#855D31" d="M341.9,65.2c1,0.9,2,2.2,2.6,3.4c0.7,1.3,1.1,2.8,0.9,4.3
				c-0.3,1.4-1.3,2.8-2.7,2.8c-0.9,0.1-1.9-0.5-2.3-1.3s-0.4-1.9,0.2-2.7c0.2-0.3,0.5-0.6,0.8-0.9c0.6-0.8,0.9-1.8,0.9-2.8
				C342.3,67.1,342,66.2,341.9,65.2"/>
			<path clip-path="url(#SVGID_15_)" fill="#855D31" d="M321.6,90.1c-1-0.7-1.7-1.8-1.8-3c-2.4,1.5-3.3,4.7-2.4,7.4
				c1,2.6,3.6,4.5,6.4,4.6c1.8,0.1,3.6-0.5,5.3-1.3c1.2-0.6,2.5-1.4,3.8-1.5c2.6-0.3,4.9,1.6,7.4,2.4c2.1,0.7,4.5,0.5,6.4-0.5
				c1.9-1,3.4-2.9,3.8-5.1c0.4-2.2-0.4-4.5-2.1-5.9c-0.1,1.4-1.1,2.7-2.5,3.2c0.9-1.6,0.4-3.8-0.8-5.2c-1.2-1.4-3-2.1-4.8-2.6
				c0.8,0.2,1.7,0.1,2.5,0.2c0.9,0.1,1.7,0.3,2.6,0.6c1.6,0.5,3.1,1.2,4.3,2.4c2.1,2.1,3,5.3,2.3,8.2c-0.8,3.4-3.8,6.1-7.2,6.7
				c-2.1,0.3-4.3-0.1-6.3-0.9c-1.9-0.8-3.8-1.9-5.8-1.6c-1.3,0.2-2.4,1-3.6,1.5c-2,1-4.2,1.5-6.4,1.2c-2.2-0.3-4.3-1.3-5.7-3.1
				c-1.3-1.6-1.9-3.6-1.8-5.6c0.1-2,1-4,2.3-5.5c2.5-2.7,6.3-3.6,9.9-4.4c-1.7,0.7-3.3,1.5-4.5,2.8
				C321.8,86.4,321.1,88.3,321.6,90.1"/>
		</g>
		<text transform="matrix(1 0 0 1 314.4365 109.2441)" fill="#72D54A" font-family="'PenumbraFlareStd-Regular'" font-size="6.07">Bob</text>
		<text transform="matrix(1 0 0 1 326.3085 109.2441)" fill="#72D54A" font-family="'PenumbraFlareStd-Regular'" font-size="6.07">  </text>
		<text transform="matrix(1 0 0 1 328.6279 109.2441)" fill="#72D54A" font-family="'PenumbraFlareStd-Regular'" font-size="6.07">McLeod</text>
		<text transform="matrix(1 0 0 1 323.0195 116.5097)" fill="#72D54A" font-family="'PenumbraFlareStd-Regular'" font-size="6.07">owner</text>
		<g>
			<defs>
				<rect id="SVGID_157_" x="0" width="360.1" height="360"/>
			</defs>
			<clipPath id="SVGID_17_">
				<use xlink:href="#SVGID_157_"  overflow="visible"/>
			</clipPath>
			<path clip-path="url(#SVGID_17_)" fill="#72D54A" d="M285.5,74.6v73.4h-51.4V74.6h2.5c-0.2-0.6-0.2-1.1-0.2-1.7
				c0-3.4,3.1-6.6,6.6-6.6c0.9,0,1.7,0.2,2.5,0.5c0.4-3.1,2.6-5.1,5.8-5.1c1,0,1.9,0.2,2.7,0.6c0.8-2.5,3.2-4.3,5.9-4.3
				c2.9,0,4.9,1.9,5.6,4.5c0.9-0.6,2.4-0.9,3.6-0.9c3.1,0,5.3,1.9,5.8,4.8c0.5-0.1,1-0.2,1.5-0.2c3.4,0,6.6,3.1,6.6,6.6
				c0,0.6-0.1,1.2-0.2,1.7H285.5z"/>
			<path clip-path="url(#SVGID_17_)" fill="none" stroke="#72D54A" stroke-width="0.3571" stroke-miterlimit="10" d="M285.5,74.6
				v73.4h-51.4V74.6h2.5c-0.2-0.6-0.2-1.1-0.2-1.7c0-3.4,3.1-6.6,6.6-6.6c0.9,0,1.7,0.2,2.5,0.5c0.4-3.1,2.6-5.1,5.8-5.1
				c1,0,1.9,0.2,2.7,0.6c0.8-2.5,3.2-4.3,5.9-4.3c2.9,0,4.9,1.9,5.6,4.5c0.9-0.6,2.4-0.9,3.6-0.9c3.1,0,5.3,1.9,5.8,4.8
				c0.5-0.1,1-0.2,1.5-0.2c3.4,0,6.6,3.1,6.6,6.6c0,0.6-0.1,1.2-0.2,1.7H285.5z"/>
			<path clip-path="url(#SVGID_17_)" fill="#FFFFFF" d="M240.3,105.9c0-0.4-0.3-0.6-0.5-0.7c-0.1,0-0.3-0.1-0.4-0.1
				c-0.1,0-0.2,0-0.3,0v1.5c0,0,0,0,0,0c0.1,0,0.2,0,0.3,0c0.2,0,0.3,0,0.5-0.1C240.1,106.5,240.3,106.3,240.3,105.9L240.3,105.9z
				 M240.1,103.6c0-0.5-0.3-0.7-0.8-0.7c-0.1,0-0.2,0-0.3,0v1.4c0.1,0,0.1,0,0.2,0c0.1,0,0.2,0,0.4-0.1
				C239.9,104.1,240.1,103.9,240.1,103.6L240.1,103.6z M241.4,106c0,0.6-0.3,1-0.8,1.3c-0.4,0.2-0.8,0.3-1.6,0.3c-0.2,0-0.3,0-0.5,0
				c-0.1,0-0.2,0-0.4,0v0v-2.5v-0.7V102v0c0.1,0,0.3,0,0.4,0c0.2,0,0.5,0,0.7,0c0.3,0,0.7,0,1,0.1c0.3,0.1,1,0.4,1,1.4
				c0,0.6-0.3,1-0.9,1.2v0C240.9,104.8,241.4,105.3,241.4,106L241.4,106z"/>
			<path clip-path="url(#SVGID_17_)" fill="#FFFFFF" d="M243.9,103.7c0-0.5-0.4-0.8-0.9-0.8c-0.1,0-0.2,0-0.3,0v1.7c0,0,0.1,0,0.2,0
				c0.2,0,0.4,0,0.5-0.1C243.7,104.3,243.9,104.1,243.9,103.7L243.9,103.7z M241.7,104.4V102v0c0.1,0,0.3,0,0.4,0c0.2,0,0.5,0,0.6,0
				c0.4,0,0.8,0,1.1,0.1c0.4,0.1,1.1,0.5,1.1,1.5c0,0.7-0.4,1.1-0.6,1.3c-0.1,0.1-0.3,0.2-0.4,0.2v0c0.1,0.1,0.1,0.2,1.3,1.8
				c0.2,0.2,0.4,0.5,0.4,0.6v0H245h-0.4h-0.2c-0.4-0.6-0.9-1.4-1.5-2.3h-0.2v0.3v2v0h-0.5h-0.5v0v-2.5V104.4z"/>
			<path clip-path="url(#SVGID_17_)" fill="#FFFFFF" d="M250,104.8c0-1.1-0.8-1.9-1.8-1.9c-1.1,0-1.8,0.8-1.8,1.9
				c0,1.1,0.8,1.9,1.8,1.9C249.3,106.7,250,105.9,250,104.8L250,104.8z M251.1,104.8c0,1.6-1.2,2.9-2.9,2.9c-1.6,0-2.9-1.3-2.9-2.9
				c0-1.6,1.3-2.9,3-2.9C249.9,101.9,251.1,103.2,251.1,104.8L251.1,104.8z"/>
			<path clip-path="url(#SVGID_17_)" fill="#FFFFFF" d="M256.2,107.7h-0.1c-1.4-2.9-1.5-3.4-1.7-3.7h0c-0.1,0.4-0.3,0.8-1.7,3.7
				h-0.1l-1-3.5c-0.5-1.9-0.6-2.2-0.6-2.2v0h0.6h0.5v0c0,0.1,0.1,0.4,0.5,1.8c0.2,0.6,0.2,0.9,0.3,1.4h0c0.1-0.4,0.3-0.8,0.6-1.4
				c0.4-0.7,0.7-1.3,0.9-1.8h0.1c0.2,0.4,0.5,1,0.9,1.8c0.2,0.5,0.4,0.9,0.5,1.3h0c0.1-0.5,0.2-0.8,0.3-1.3c0.4-1.5,0.5-1.8,0.5-1.9
				v0h0.5h0.5v0c0,0.1-0.1,0.4-0.6,2.2L256.2,107.7z"/>
			<path clip-path="url(#SVGID_17_)" fill="#FFFFFF" d="M262.9,107.7h-0.1c-1.3-1.2-2-2-2.5-2.5c-0.4-0.4-0.6-0.6-1-1h0
				c0,0.3,0,0.5,0,1.1v2.4v0h-0.5h-0.5v0v-2.5v-3.2h0.1c1.3,1.3,2.1,2.1,2.6,2.6c0.3,0.3,0.6,0.6,0.9,1h0c0-0.3,0-0.6,0-1.2V102v0
				h0.5h0.5v0v2.4V107.7z"/>
			<path clip-path="url(#SVGID_17_)" fill="#FFFFFF" d="M267.5,105.9c0-0.4-0.3-0.6-0.5-0.7c-0.1,0-0.3-0.1-0.4-0.1
				c-0.1,0-0.2,0-0.3,0v1.5c0,0,0,0,0,0c0.1,0,0.2,0,0.3,0c0.2,0,0.3,0,0.5-0.1C267.2,106.5,267.5,106.3,267.5,105.9L267.5,105.9z
				 M267.3,103.6c0-0.5-0.3-0.7-0.8-0.7c-0.1,0-0.2,0-0.3,0v1.4c0.1,0,0.1,0,0.2,0c0.1,0,0.2,0,0.4-0.1
				C267.1,104.1,267.3,103.9,267.3,103.6L267.3,103.6z M268.6,106c0,0.6-0.3,1-0.8,1.3c-0.4,0.2-0.8,0.3-1.6,0.3c-0.2,0-0.3,0-0.5,0
				c-0.1,0-0.2,0-0.4,0v0v-2.5v-0.7V102v0c0.1,0,0.3,0,0.4,0c0.2,0,0.5,0,0.7,0c0.3,0,0.7,0,1,0.1c0.3,0.1,1,0.4,1,1.4
				c0,0.6-0.3,1-0.9,1.2v0C268.1,104.8,268.6,105.3,268.6,106L268.6,106z"/>
		</g>
		<polygon fill="#FFFFFF" points="269,104.4 269,102 269,102 270.5,102 271.8,102 271.8,102.9 271.8,102.9 271,102.9 270.1,102.9 
			270.1,104.3 271,104.3 271.6,104.3 271.7,104.3 271.7,104.7 271.7,105.2 271.6,105.2 271.1,105.2 270.1,105.2 270.1,106.6 
			270.1,106.7 271.3,106.7 271.9,106.7 271.9,106.7 271.9,107.6 270.6,107.6 269,107.6 269,107.6 269,105.1 		"/>
		<g>
			<defs>
				<rect id="SVGID_159_" x="0" width="360.1" height="360"/>
			</defs>
			<clipPath id="SVGID_19_">
				<use xlink:href="#SVGID_159_"  overflow="visible"/>
			</clipPath>
			<path clip-path="url(#SVGID_19_)" fill="#FFFFFF" d="M275.4,105.6L275.4,105.6c-0.4-1.1-0.5-1.4-0.6-1.6h0
				c-0.1,0.2-0.2,0.5-0.6,1.6v0H275.4z M273.9,106.5c-0.3,0.7-0.4,1-0.4,1.1v0h-0.5h-0.6v0c0,0,0.2-0.4,1.1-2.5l1.4-3.2h0.2l1.4,3.2
				c0.9,2.1,1,2.5,1.1,2.5v0h-0.6h-0.6v0c0,0-0.1-0.4-0.4-1.1H273.9z"/>
			<path clip-path="url(#SVGID_19_)" fill="#FFFFFF" d="M279.9,103.7c0-0.5-0.4-0.8-0.9-0.8c-0.1,0-0.2,0-0.3,0v1.7c0,0,0.1,0,0.2,0
				c0.2,0,0.4,0,0.5-0.1C279.7,104.3,279.9,104.1,279.9,103.7L279.9,103.7z M277.8,104.4V102v0c0.1,0,0.3,0,0.4,0c0.2,0,0.5,0,0.6,0
				c0.4,0,0.8,0,1.1,0.1c0.4,0.1,1.1,0.5,1.1,1.5c0,0.7-0.4,1.1-0.6,1.3c-0.1,0.1-0.3,0.2-0.4,0.2v0c0.1,0.1,0.1,0.2,1.3,1.8
				c0.2,0.2,0.4,0.5,0.4,0.6v0h-0.6h-0.4h-0.2c-0.4-0.6-0.9-1.4-1.5-2.3h-0.2v0.3v2v0h-0.5h-0.5v0v-2.5V104.4z"/>
		</g>
		<polygon fill="#FFFFFF" points="239.5,109.5 238.3,109.5 237.8,109.5 237.8,109.5 237.8,108.5 239.6,108.5 240.4,108.5 
			242.3,108.5 242.3,109.5 242.3,109.5 241.8,109.5 240.6,109.5 240.6,112 240.6,114.8 240.6,114.8 240.1,114.8 239.5,114.8 
			239.5,114.8 239.5,112 		"/>
		<g>
			<defs>
				<rect id="SVGID_161_" x="0" width="360.1" height="360"/>
			</defs>
			<clipPath id="SVGID_20_">
				<use xlink:href="#SVGID_161_"  overflow="visible"/>
			</clipPath>
			<path clip-path="url(#SVGID_20_)" fill="#FFFFFF" d="M244.7,112.6L244.7,112.6c-0.4-1.2-0.6-1.6-0.6-1.8h0
				c-0.1,0.3-0.2,0.6-0.7,1.8v0H244.7z M243,113.6c-0.3,0.8-0.5,1.2-0.5,1.2v0h-0.6h-0.6v0c0,0,0.2-0.4,1.2-2.8l1.5-3.6h0.2l1.5,3.6
				c1,2.4,1.1,2.8,1.2,2.8v0h-0.6h-0.7v0c0,0-0.2-0.4-0.5-1.2H243z"/>
			<path clip-path="url(#SVGID_20_)" fill="#FFFFFF" d="M246.6,111.6c0-1.9,1.3-3.2,3.5-3.2c0.2,0,0.4,0,0.6,0c0.2,0,0.4,0,0.5,0.1
				c0,0.3,0,0.6,0,1.1h0c-0.1,0-0.2,0-0.3-0.1c-0.2,0-0.4-0.1-0.6-0.1c-1.4,0-2.3,0.8-2.3,2.1c0,1.3,0.9,2.2,2.2,2.2
				c0.3,0,0.5,0,0.7,0c0.1,0,0.2,0,0.4-0.1h0c0,0.2,0,0.8,0,1.1c-0.1,0-0.3,0.1-0.5,0.1c-0.3,0-0.5,0.1-0.7,0.1
				C248,114.9,246.6,113.7,246.6,111.6L246.6,111.6z"/>
			<path clip-path="url(#SVGID_20_)" fill="#FFFFFF" d="M251.8,111.2v-2.6v0h0.6h0.6v0v2.2v0.4h0l1.1-1.4c0.6-0.8,0.8-1.1,0.9-1.2v0
				h0.7h0.7v0c-0.1,0.1-0.3,0.4-1,1.2l-1.4,1.7l1.5,1.8c0.9,1.1,1.2,1.4,1.3,1.5v0H256h-0.7v0c0-0.1-0.3-0.4-1.1-1.5L253,112h0v0.6
				v2.3v0h-0.6h-0.6v0V112V111.2z"/>
			<path clip-path="url(#SVGID_20_)" fill="#FFFFFF" d="M257.2,111.2v-2.6v0h0.6h0.6v0v2.6v0.8v1.8c0,0,0,0,0,0h1.3h0.3h0.2h0v1
				h-1.4h-1.7v0V112V111.2z"/>
		</g>
		<polygon fill="#FFFFFF" points="260.9,111.2 260.9,108.5 260.9,108.5 262.5,108.5 264,108.5 264,109.5 264,109.5 263.1,109.5 
			262.1,109.5 262.1,111.1 263.1,111.1 263.8,111.1 263.8,111.1 263.8,111.6 263.8,112.1 263.8,112.1 263.2,112.1 262.1,112.1 
			262.1,113.7 262.1,113.8 263.5,113.8 264.1,113.8 264.1,113.8 264.1,114.8 262.6,114.8 260.9,114.8 260.9,114.8 260.9,112 		"/>
		<g>
			<defs>
				<rect id="SVGID_163_" x="0" width="360.1" height="360"/>
			</defs>
			<clipPath id="SVGID_22_">
				<use xlink:href="#SVGID_163_"  overflow="visible"/>
			</clipPath>
			<path clip-path="url(#SVGID_22_)" fill="#FFFFFF" d="M269,112.9c0-0.4-0.3-0.7-0.6-0.8c-0.1,0-0.3-0.1-0.5-0.1
				c-0.1,0-0.2,0-0.3,0v1.7c0,0,0,0,0,0c0.1,0,0.2,0,0.3,0c0.2,0,0.4,0,0.5-0.1C268.7,113.6,269,113.3,269,112.9L269,112.9z
				 M268.8,110.2c0-0.5-0.4-0.8-0.8-0.8c-0.1,0-0.2,0-0.3,0v1.6c0.1,0,0.2,0,0.2,0c0.1,0,0.3,0,0.4-0.1
				C268.5,110.9,268.8,110.7,268.8,110.2L268.8,110.2z M270.2,113c0,0.6-0.4,1.2-0.8,1.4c-0.4,0.2-0.9,0.3-1.8,0.3
				c-0.2,0-0.4,0-0.6,0c-0.1,0-0.2,0-0.4,0v0V112v-0.8v-2.6v0c0.1,0,0.3,0,0.4,0c0.2,0,0.6,0,0.8,0c0.4,0,0.8,0.1,1.1,0.2
				c0.4,0.1,1.1,0.5,1.1,1.5c0,0.6-0.4,1.2-1,1.3v0C269.6,111.6,270.2,112.2,270.2,113L270.2,113z"/>
			<path clip-path="url(#SVGID_22_)" fill="#FFFFFF" d="M275.7,111.6c0-1.2-0.8-2.1-2-2.1c-1.2,0-2,0.9-2,2.1c0,1.2,0.8,2.1,2,2.1
				C274.9,113.8,275.7,112.8,275.7,111.6L275.7,111.6z M276.9,111.6c0,1.8-1.3,3.3-3.2,3.3c-1.8,0-3.2-1.4-3.2-3.2
				c0-1.8,1.4-3.3,3.3-3.3C275.6,108.4,276.9,109.8,276.9,111.6L276.9,111.6z"/>
			<path clip-path="url(#SVGID_22_)" fill="#FFFFFF" d="M278.3,111.6l-0.4-0.7c-1.3-2-1.5-2.4-1.6-2.5v0h0.7h0.7v0
				c0,0.1,0.3,0.4,0.7,1.2c0.2,0.3,0.3,0.6,0.5,0.9h0c0.2-0.3,0.4-0.6,0.5-0.9c0.4-0.7,0.6-1.1,0.7-1.2v0h0.7h0.6v0
				c-0.1,0.1-0.3,0.4-1.5,2.5l-0.4,0.6l0.4,0.7c1.3,2.1,1.5,2.5,1.5,2.5v0h-0.7h-0.7v0c0,0-0.3-0.4-0.7-1.2c-0.2-0.4-0.4-0.7-0.6-1
				h0c-0.2,0.3-0.3,0.6-0.5,1c-0.4,0.8-0.6,1.1-0.7,1.2v0H277h-0.6v0c0-0.1,0.2-0.4,1.6-2.6L278.3,111.6z"/>
			<path clip-path="url(#SVGID_22_)" fill="#FFFFFF" d="M244,68.5c-1,0.9-2,2.2-2.7,3.4c-0.7,1.3-1.1,2.8-0.9,4.3
				c0.3,1.4,1.3,2.8,2.8,2.9c1,0.1,1.9-0.5,2.4-1.3c0.4-0.8,0.4-1.9-0.2-2.7c-0.2-0.3-0.5-0.6-0.8-0.9c-0.6-0.8-0.9-1.8-0.9-2.8
				C243.6,70.4,243.9,69.5,244,68.5"/>
			<path clip-path="url(#SVGID_22_)" fill="#FFFFFF" d="M251.3,64.1c-1,0.9-2,2.2-2.7,3.4c-0.7,1.3-1.1,2.8-0.9,4.3
				c0.3,1.4,1.3,2.8,2.8,2.9c1,0.1,1.9-0.5,2.4-1.3c0.4-0.8,0.4-1.9-0.2-2.7c-0.2-0.3-0.5-0.6-0.8-0.9c-0.6-0.8-0.9-1.8-0.9-2.8
				C251,66,251.3,65.1,251.3,64.1"/>
			<path clip-path="url(#SVGID_22_)" fill="#FFFFFF" d="M260.8,61.3c-1.1,0.8-2.2,2-3,3.2c-0.8,1.2-1.4,2.7-1.2,4.2
				c0.1,1.4,1.1,2.9,2.5,3.1c0.9,0.1,2-0.3,2.5-1.1c0.5-0.8,0.5-1.9,0-2.7c-0.2-0.4-0.5-0.7-0.7-1c-0.5-0.8-0.7-1.9-0.6-2.8
				C260.3,63.1,260.7,62.2,260.8,61.3"/>
			<path clip-path="url(#SVGID_22_)" fill="#FFFFFF" d="M238.4,87.9c0,0,0-0.2,0.1-0.6c0-0.2,0.1-0.4,0.2-0.7c0-0.1,0-0.1,0.1-0.2
				c0-0.1,0.1-0.1,0.1-0.2c0.1-0.1,0.1-0.3,0.2-0.5c0.3-0.7,0.7-1.4,1.3-2.3c0.6-0.8,1.4-1.7,2.5-2.4c0.1,0,0.1-0.1,0.2-0.1
				c0.1,0,0.1-0.1,0.2-0.1c0.1-0.1,0.3-0.2,0.4-0.3c0.1,0,0.1-0.1,0.2-0.1c0.1,0,0.1-0.1,0.2-0.1c0.1,0,0.1-0.1,0.2-0.1
				c0.1,0,0.2-0.1,0.2-0.1c0.3-0.2,0.6-0.3,1-0.4c0.1,0,0.2-0.1,0.3-0.1c0.1,0,0.2-0.1,0.3-0.1c0.2-0.1,0.4-0.1,0.5-0.2l0.1,0l0.1,0
				c0.1,0,0.2,0,0.3-0.1c0.2,0,0.4-0.1,0.5-0.1c0.4-0.1,0.7-0.2,1-0.2c0.7-0.2,1.3-0.4,1.8-0.7l0.1-0.1l0,0c0,0,0,0,0,0l0,0l0.1,0
				l0.1-0.1c0,0,0.1-0.1,0.1-0.1l0.1-0.1l0.1-0.1l0.2-0.2c0.3-0.2,0.6-0.5,0.9-0.7c0.3-0.3,0.7-0.5,1-0.8c0.2-0.1,0.4-0.2,0.6-0.3
				c0.1,0,0.1-0.1,0.2-0.1l0.1,0l0,0l0,0l0,0l0.3-0.1c1.6-0.7,3.4-1,5.2-1c1.8,0.1,3.5,0.4,5.1,1.3c0,0,0.1,0,0.1,0l0.1,0.1l0.1,0.1
				c0,0,0.1,0,0.1,0.1c0.1,0.1,0.2,0.1,0.3,0.2l0.1,0.1l0.1,0.1c0.1,0.1,0.2,0.1,0.3,0.2c0.3,0.3,0.6,0.6,0.9,0.8
				c0.3,0.3,0.5,0.5,0.8,0.7l0,0l0,0c0,0,0,0,0,0l0,0l0.1,0.1c0.1,0,0.2,0.1,0.2,0.1l0.1,0c0,0,0.1,0,0.1,0c0.1,0,0.1,0.1,0.2,0.1
				c0.3,0.1,0.6,0.2,0.9,0.3c0.3,0.1,0.7,0.1,1,0.2c0.4,0.1,0.7,0.1,1.1,0.2c0.1,0,0.2,0,0.3,0.1c0.1,0,0.2,0,0.3,0.1
				c0.1,0,0.2,0.1,0.3,0.1l0.1,0l0,0l0,0l0,0l0.1,0c0.7,0.2,1.4,0.5,2,0.8c0.3,0.2,0.6,0.3,0.9,0.5c0.1,0,0.1,0.1,0.2,0.1
				c0.1,0,0.1,0.1,0.2,0.1c0.1,0.1,0.3,0.2,0.4,0.3c0.1,0,0.1,0.1,0.2,0.1c0.1,0,0.1,0.1,0.2,0.1c0.1,0.1,0.2,0.2,0.4,0.3
				c0.1,0.1,0.2,0.2,0.3,0.3c0.1,0.1,0.2,0.2,0.3,0.3c0.1,0.1,0.2,0.2,0.3,0.3c0.1,0.1,0.2,0.2,0.3,0.3c0,0.1,0.1,0.1,0.1,0.2
				c0,0.1,0.1,0.1,0.1,0.2c0.1,0.1,0.2,0.2,0.2,0.3c0.6,0.8,1,1.6,1.3,2.3c0.1,0.2,0.1,0.3,0.2,0.5c0,0.1,0.1,0.1,0.1,0.2
				c0,0.1,0,0.1,0.1,0.2s0,0.1,0.1,0.2c0,0.1,0,0.1,0.1,0.2c0,0.1,0.1,0.2,0.1,0.3c0,0.2,0.1,0.3,0.1,0.4c0,0.1,0,0.1,0,0.1
				s-0.1-0.2-0.3-0.5c-0.2-0.3-0.4-0.8-0.8-1.4c-0.4-0.6-0.9-1.2-1.6-1.9c-0.3-0.3-0.7-0.7-1.1-1c-0.1-0.1-0.2-0.2-0.3-0.2
				c-0.1-0.1-0.2-0.2-0.3-0.2c-0.1-0.1-0.2-0.2-0.4-0.2c-0.1,0-0.1-0.1-0.2-0.1c-0.1,0-0.1-0.1-0.2-0.1c-0.1-0.1-0.3-0.1-0.4-0.2
				c0,0,0,0,0,0l0,0l0,0l0,0l-0.1,0c-0.1,0-0.1-0.1-0.2-0.1c-0.3-0.1-0.6-0.2-0.8-0.4c-0.6-0.2-1.2-0.4-1.8-0.6l-0.1,0l0,0
				c0,0,0,0,0,0l0,0l-0.1,0c-0.1,0-0.1,0-0.2,0c-0.1,0-0.2,0-0.2,0c-0.1,0-0.2,0-0.2,0c-0.3,0-0.7-0.1-1-0.1c-0.4,0-0.8-0.1-1.2-0.1
				c-0.4-0.1-0.8-0.1-1.3-0.3c-0.1,0-0.2-0.1-0.3-0.1c-0.1,0-0.1,0-0.2-0.1l-0.2-0.1c-0.1-0.1-0.2-0.1-0.3-0.1l-0.1-0.1l0,0l-0.1,0
				l0,0l-0.1,0c-0.4-0.2-0.7-0.5-1-0.8c-0.3-0.3-0.6-0.5-0.9-0.7c-0.1-0.1-0.1-0.1-0.2-0.2l-0.1-0.1l-0.1-0.1
				c-0.1,0-0.1-0.1-0.2-0.1c0,0,0,0,0,0l0,0l0,0c0,0,0,0,0,0l-0.1-0.1l0,0l0,0c0,0,0,0,0,0l-0.1,0l-0.2-0.1
				c-0.2-0.1-0.3-0.1-0.5-0.2c-0.2-0.1-0.3-0.1-0.5-0.2c-0.2-0.1-0.3-0.1-0.5-0.1c-0.7-0.2-1.4-0.2-2.2-0.3c-0.7,0-1.5,0-2.2,0.1
				l-0.3,0l-0.3,0.1l-0.3,0.1c-0.1,0-0.2,0-0.3,0.1l-0.3,0.1c-0.1,0-0.2,0.1-0.2,0.1l-0.2,0.1c-0.1,0-0.2,0.1-0.3,0.1l-0.3,0.1
				l-0.2,0.1c-0.1,0.1-0.3,0.2-0.4,0.2c-0.3,0.2-0.6,0.4-0.9,0.6c-0.3,0.2-0.6,0.5-0.9,0.7c-0.1,0.1-0.2,0.1-0.3,0.2l-0.1,0.1
				l-0.1,0.1c0,0-0.1,0.1-0.1,0.1l-0.1,0.1l-0.1,0l0,0c0,0,0,0,0,0l0,0l-0.1,0.1c-0.4,0.2-0.8,0.4-1.2,0.5c-0.4,0.1-0.8,0.2-1.2,0.3
				c-0.4,0.1-0.7,0.1-1.1,0.2c-0.2,0-0.3,0.1-0.5,0.1c-0.1,0-0.2,0-0.3,0l-0.1,0l-0.1,0c-0.2,0-0.3,0.1-0.5,0.1
				c-0.1,0-0.2,0-0.2,0.1c-0.1,0-0.2,0-0.2,0.1c-0.3,0.1-0.6,0.2-0.9,0.3c-0.1,0-0.1,0.1-0.2,0.1c-0.1,0-0.1,0.1-0.2,0.1
				c-0.1,0-0.1,0.1-0.2,0.1c-0.1,0-0.1,0.1-0.2,0.1c-0.1,0.1-0.3,0.1-0.4,0.2c-0.1,0-0.1,0.1-0.2,0.1c-0.1,0-0.1,0.1-0.2,0.1
				c-1,0.6-1.8,1.2-2.5,1.9c-0.7,0.7-1.2,1.3-1.6,1.9c-0.4,0.6-0.7,1.1-0.8,1.4C238.5,87.7,238.4,87.9,238.4,87.9"/>
			<path clip-path="url(#SVGID_22_)" fill="#FFFFFF" d="M274.7,68.3c1,0.9,2,2.2,2.7,3.4c0.7,1.3,1.1,2.8,0.9,4.3
				c-0.3,1.4-1.3,2.8-2.8,2.9c-1,0.1-1.9-0.5-2.4-1.3c-0.4-0.8-0.4-1.9,0.2-2.7c0.2-0.3,0.5-0.6,0.8-0.9c0.6-0.8,0.9-1.8,0.9-2.8
				C275,70.2,274.7,69.3,274.7,68.3"/>
			<path clip-path="url(#SVGID_22_)" fill="#FFFFFF" d="M267.5,64c1,0.9,2,2.2,2.7,3.4c0.7,1.3,1.1,2.8,0.9,4.3
				c-0.3,1.4-1.3,2.8-2.8,2.9c-1,0.1-1.9-0.5-2.4-1.3c-0.4-0.8-0.4-1.9,0.2-2.7c0.2-0.3,0.5-0.6,0.8-0.9c0.6-0.8,0.9-1.8,0.9-2.8
				C267.9,65.9,267.6,64.9,267.5,64"/>
			<path clip-path="url(#SVGID_22_)" fill="#FFFFFF" d="M247.1,89c-1-0.7-1.7-1.8-1.9-3c-2.4,1.5-3.4,4.8-2.4,7.4
				c1,2.6,3.7,4.5,6.5,4.6c1.8,0.1,3.7-0.5,5.3-1.3c1.3-0.6,2.5-1.4,3.9-1.5c2.6-0.3,5,1.6,7.5,2.4c2.1,0.7,4.5,0.5,6.5-0.5
				c2-1,3.5-3,3.8-5.2c0.4-2.2-0.4-4.6-2.2-6c-0.1,1.4-1.1,2.8-2.5,3.3c1-1.6,0.4-3.8-0.8-5.2c-1.2-1.4-3.1-2.2-4.9-2.7
				c0.8,0.2,1.8,0.1,2.5,0.2c0.9,0.1,1.7,0.3,2.6,0.6c1.6,0.5,3.1,1.2,4.3,2.4c2.1,2.1,3,5.4,2.4,8.3c-0.8,3.4-3.8,6.2-7.3,6.7
				c-2.1,0.3-4.3-0.1-6.3-1c-1.9-0.8-3.8-1.9-5.8-1.6c-1.3,0.2-2.4,1-3.6,1.6c-2,1-4.3,1.5-6.5,1.2c-2.2-0.3-4.3-1.4-5.7-3.1
				c-1.3-1.6-1.9-3.7-1.8-5.7c0.1-2,1-4,2.4-5.5c2.5-2.7,6.4-3.7,10-4.4c-1.7,0.7-3.3,1.5-4.6,2.9C247.2,85.3,246.5,87.3,247.1,89"
				/>
		</g>
		<rect x="115.8" y="198.9" fill="#FFFFFF" width="244.2" height="106"/>
		
			<rect x="115.8" y="198.9" fill="none" stroke="#000000" stroke-width="0.1785" stroke-miterlimit="10" width="244.2" height="106"/>
		<g>
			<defs>
				<rect id="SVGID_165_" x="0" width="360.1" height="360"/>
			</defs>
			<clipPath id="SVGID_24_">
				<use xlink:href="#SVGID_165_"  overflow="visible"/>
			</clipPath>
			<path clip-path="url(#SVGID_24_)" fill="#72D54A" d="M125,226.6c0,0.3-0.2,0.5-0.4,0.6c-0.2,0.1-0.4,0.1-0.8,0.1
				c-0.1,0-0.2,0-0.3,0c0,0-0.1,0-0.2,0v0v-1.2v-0.3v-1.1v0c0,0,0.1,0,0.2,0c0.1,0,0.2,0,0.4,0c0.2,0,0.3,0,0.5,0.1
				c0.2,0,0.5,0.2,0.5,0.7c0,0.3-0.2,0.5-0.4,0.6v0C124.7,226,125,226.3,125,226.6L125,226.6z M124.3,225.4c0-0.2-0.2-0.3-0.4-0.3
				c0,0-0.1,0-0.1,0v0.7c0,0,0.1,0,0.1,0c0.1,0,0.1,0,0.2,0C124.2,225.7,124.3,225.6,124.3,225.4L124.3,225.4z M124.4,226.6
				c0-0.2-0.1-0.3-0.3-0.3c-0.1,0-0.1,0-0.2,0c0,0-0.1,0-0.1,0v0.7c0,0,0,0,0,0c0,0,0.1,0,0.1,0c0.1,0,0.2,0,0.2,0
				C124.3,226.9,124.4,226.7,124.4,226.6L124.4,226.6z"/>
			<path clip-path="url(#SVGID_24_)" fill="#72D54A" d="M125.1,225.8v-1.1v0c0.1,0,0.1,0,0.2,0c0.1,0,0.2,0,0.3,0
				c0.2,0,0.4,0,0.5,0.1c0.2,0.1,0.5,0.2,0.5,0.7c0,0.3-0.2,0.5-0.3,0.6c-0.1,0.1-0.1,0.1-0.2,0.1v0c0,0,0.1,0.1,0.6,0.9
				c0.1,0.1,0.2,0.3,0.2,0.3v0h-0.3h-0.2h-0.1c-0.2-0.3-0.4-0.7-0.7-1.1h-0.1v0.1v0.9v0h-0.2h-0.2v0v-1.2V225.8z M126.1,225.5
				c0-0.3-0.2-0.4-0.4-0.4c-0.1,0-0.1,0-0.1,0v0.8c0,0,0.1,0,0.1,0c0.1,0,0.2,0,0.3-0.1C126,225.8,126.1,225.7,126.1,225.5
				L126.1,225.5z"/>
			<path clip-path="url(#SVGID_24_)" fill="#72D54A" d="M129.6,226c0,0.8-0.6,1.4-1.4,1.4c-0.8,0-1.4-0.6-1.4-1.4
				c0-0.8,0.6-1.4,1.4-1.4C129,224.6,129.6,225.2,129.6,226L129.6,226z M129.1,226c0-0.5-0.4-0.9-0.9-0.9c-0.5,0-0.9,0.4-0.9,0.9
				c0,0.5,0.4,0.9,0.9,0.9C128.7,226.9,129.1,226.5,129.1,226L129.1,226z"/>
			<path clip-path="url(#SVGID_24_)" fill="#72D54A" d="M132.1,227.4L132.1,227.4c-0.7-1.4-0.8-1.6-0.9-1.8h0
				c-0.1,0.2-0.2,0.4-0.8,1.8h-0.1l-0.5-1.7c-0.3-0.9-0.3-1-0.3-1.1v0h0.3h0.2v0c0,0,0.1,0.2,0.3,0.9c0.1,0.3,0.1,0.4,0.2,0.6h0
				c0.1-0.2,0.2-0.4,0.3-0.7c0.2-0.3,0.3-0.6,0.4-0.9h0.1c0.1,0.2,0.2,0.5,0.4,0.9c0.1,0.2,0.2,0.5,0.3,0.6h0c0-0.2,0.1-0.4,0.1-0.6
				c0.2-0.7,0.2-0.9,0.3-0.9v0h0.2h0.3v0c0,0-0.1,0.2-0.3,1.1L132.1,227.4z"/>
			<path clip-path="url(#SVGID_24_)" fill="#72D54A" d="M135.3,227.4L135.3,227.4c-0.7-0.6-1-1-1.3-1.2c-0.2-0.2-0.3-0.3-0.5-0.5h0
				c0,0.1,0,0.2,0,0.5v1.1v0h-0.3H133v0v-1.2v-1.5h0.1c0.6,0.6,1,1,1.2,1.2c0.1,0.2,0.3,0.3,0.5,0.5h0c0-0.2,0-0.3,0-0.6v-1.1v0h0.3
				h0.2v0v1.1V227.4z"/>
			<path clip-path="url(#SVGID_24_)" fill="#72D54A" d="M138,226.6c0,0.3-0.2,0.5-0.4,0.6c-0.2,0.1-0.4,0.1-0.8,0.1
				c-0.1,0-0.2,0-0.3,0c0,0-0.1,0-0.2,0v0v-1.2v-0.3v-1.1v0c0,0,0.1,0,0.2,0c0.1,0,0.2,0,0.4,0c0.2,0,0.3,0,0.5,0.1
				c0.2,0,0.5,0.2,0.5,0.7c0,0.3-0.2,0.5-0.4,0.6v0C137.8,226,138,226.3,138,226.6L138,226.6z M137.4,225.4c0-0.2-0.2-0.3-0.4-0.3
				c0,0-0.1,0-0.1,0v0.7c0,0,0.1,0,0.1,0c0.1,0,0.1,0,0.2,0C137.3,225.7,137.4,225.6,137.4,225.4L137.4,225.4z M137.5,226.6
				c0-0.2-0.1-0.3-0.3-0.3c-0.1,0-0.1,0-0.2,0c0,0-0.1,0-0.1,0v0.7c0,0,0,0,0,0c0,0,0.1,0,0.1,0c0.1,0,0.2,0,0.2,0
				C137.4,226.9,137.5,226.7,137.5,226.6L137.5,226.6z"/>
		</g>
		<polygon fill="#72D54A" points="138.2,225.8 138.2,224.7 138.2,224.7 138.9,224.7 139.6,224.7 139.6,225.1 139.6,225.1 
			139.2,225.1 138.7,225.1 138.7,225.8 139.2,225.8 139.5,225.8 139.5,225.8 139.5,226 139.5,226.2 139.5,226.2 139.2,226.2 
			138.7,226.2 138.7,226.9 138.7,226.9 139.3,226.9 139.6,226.9 139.6,226.9 139.6,227.4 139,227.4 138.2,227.4 138.2,227.4 
			138.2,226.2 		"/>
		<g>
			<defs>
				<rect id="SVGID_167_" x="0" width="360.1" height="360"/>
			</defs>
			<clipPath id="SVGID_25_">
				<use xlink:href="#SVGID_167_"  overflow="visible"/>
			</clipPath>
			<path clip-path="url(#SVGID_25_)" fill="#72D54A" d="M140.6,226.8c-0.1,0.3-0.2,0.5-0.2,0.5v0h-0.3h-0.3v0c0,0,0.1-0.2,0.5-1.2
				l0.7-1.5h0.1l0.7,1.5c0.4,1,0.5,1.2,0.5,1.2v0H142h-0.3v0c0,0-0.1-0.2-0.2-0.5H140.6z M141.3,226.4L141.3,226.4
				c-0.2-0.5-0.2-0.7-0.3-0.8h0c0,0.1-0.1,0.3-0.3,0.8v0H141.3z"/>
			<path clip-path="url(#SVGID_25_)" fill="#72D54A" d="M142.4,225.8v-1.1v0c0.1,0,0.1,0,0.2,0c0.1,0,0.2,0,0.3,0
				c0.2,0,0.4,0,0.5,0.1c0.2,0.1,0.5,0.2,0.5,0.7c0,0.3-0.2,0.5-0.3,0.6c-0.1,0.1-0.1,0.1-0.2,0.1v0c0,0,0.1,0.1,0.6,0.9
				c0.1,0.1,0.2,0.3,0.2,0.3v0H144h-0.2h-0.1c-0.2-0.3-0.4-0.7-0.7-1.1h-0.1v0.1v0.9v0h-0.2h-0.2v0v-1.2V225.8z M143.5,225.5
				c0-0.3-0.2-0.4-0.4-0.4c-0.1,0-0.1,0-0.1,0v0.8c0,0,0.1,0,0.1,0c0.1,0,0.2,0,0.3-0.1C143.4,225.8,143.5,225.7,143.5,225.5
				L143.5,225.5z"/>
		</g>
		<polygon fill="#72D54A" points="124.5,227.8 124.1,227.8 123.2,227.8 123.2,228.3 123.2,228.3 123.5,228.3 124,228.3 124,229.5 
			124,230.8 124,230.8 124.3,230.8 124.6,230.8 124.6,230.8 124.6,229.5 124.6,228.3 125.1,228.3 125.4,228.3 125.4,228.3 
			125.4,227.8 		"/>
		<g>
			<defs>
				<rect id="SVGID_169_" x="0" width="360.1" height="360"/>
			</defs>
			<clipPath id="SVGID_27_">
				<use xlink:href="#SVGID_169_"  overflow="visible"/>
			</clipPath>
			<path clip-path="url(#SVGID_27_)" fill="#72D54A" d="M125.7,230.2c-0.2,0.4-0.2,0.6-0.2,0.6v0h-0.3h-0.3v0c0,0,0.1-0.2,0.6-1.4
				l0.7-1.7h0.1l0.7,1.7c0.5,1.2,0.5,1.3,0.6,1.4v0h-0.3h-0.3v0c0,0-0.1-0.2-0.2-0.6H125.7z M126.5,229.8L126.5,229.8
				c-0.2-0.6-0.3-0.8-0.3-0.9h0c0,0.1-0.1,0.3-0.3,0.9v0H126.5z"/>
			<path clip-path="url(#SVGID_27_)" fill="#72D54A" d="M127.4,229.3c0-0.9,0.6-1.5,1.7-1.5c0.1,0,0.2,0,0.3,0c0.1,0,0.2,0,0.2,0
				c0,0.2,0,0.3,0,0.5h0c0,0-0.1,0-0.2,0c-0.1,0-0.2,0-0.3,0c-0.7,0-1.1,0.4-1.1,1c0,0.6,0.4,1,1,1c0.1,0,0.2,0,0.3,0
				c0.1,0,0.1,0,0.2,0h0c0,0.1,0,0.4,0,0.5c-0.1,0-0.2,0-0.2,0.1c-0.1,0-0.2,0-0.4,0C128.1,230.9,127.4,230.3,127.4,229.3
				L127.4,229.3z"/>
			<path clip-path="url(#SVGID_27_)" fill="#72D54A" d="M130,229.1v-1.3v0h0.3h0.3v0v1v0.2h0l0.5-0.7c0.3-0.4,0.4-0.5,0.4-0.6v0h0.3
				h0.3v0c0,0-0.2,0.2-0.5,0.6l-0.7,0.8l0.7,0.9c0.5,0.6,0.6,0.7,0.6,0.7v0H132h-0.4v0c0,0-0.2-0.2-0.5-0.7l-0.5-0.7h0v0.3v1.1v0
				h-0.3H130v0v-1.4V229.1z"/>
			<path clip-path="url(#SVGID_27_)" fill="#72D54A" d="M132.5,229.1v-1.3v0h0.3h0.3v0v1.3v0.4v0.8c0,0,0,0,0,0h0.6h0.2h0.1h0v0.5
				h-0.7h-0.8v0v-1.3V229.1z"/>
		</g>
		<polygon fill="#72D54A" points="135.1,227.8 134.3,227.8 134.3,227.8 134.3,229.1 134.3,229.5 134.3,230.8 134.3,230.8 
			135.2,230.8 135.8,230.8 135.8,230.3 135.8,230.3 135.6,230.3 134.9,230.3 134.9,230.3 134.9,229.5 135.4,229.5 135.7,229.5 
			135.7,229.5 135.7,229.3 135.7,229 135.7,229 135.4,229 134.9,229 134.9,228.3 135.4,228.3 135.8,228.3 135.8,228.3 135.8,227.8 
					"/>
		<g>
			<defs>
				<rect id="SVGID_171_" x="123.2" y="205.5" width="21.1" height="25.4"/>
			</defs>
			<clipPath id="SVGID_29_">
				<use xlink:href="#SVGID_171_"  overflow="visible"/>
			</clipPath>
			<path clip-path="url(#SVGID_29_)" fill="#72D54A" d="M138.8,230c0,0.3-0.2,0.6-0.4,0.7c-0.2,0.1-0.4,0.2-0.9,0.2
				c-0.1,0-0.2,0-0.3,0c0,0-0.1,0-0.2,0v0v-1.3v-0.4v-1.3v0c0.1,0,0.1,0,0.2,0c0.1,0,0.3,0,0.4,0c0.2,0,0.4,0,0.5,0.1
				c0.2,0.1,0.5,0.2,0.5,0.7c0,0.3-0.2,0.6-0.5,0.6v0C138.5,229.3,138.8,229.6,138.8,230L138.8,230z M138.1,228.6
				c0-0.2-0.2-0.4-0.4-0.4c0,0-0.1,0-0.2,0v0.7c0,0,0.1,0,0.1,0c0.1,0,0.1,0,0.2,0C138,229,138.1,228.8,138.1,228.6L138.1,228.6z
				 M138.2,229.9c0-0.2-0.1-0.3-0.3-0.4c-0.1,0-0.2,0-0.2,0c0,0-0.1,0-0.1,0v0.8c0,0,0,0,0,0c0,0,0.1,0,0.1,0c0.1,0,0.2,0,0.3-0.1
				C138.1,230.2,138.2,230.1,138.2,229.9L138.2,229.9z"/>
			<path clip-path="url(#SVGID_29_)" fill="#72D54A" d="M142,229.3c0,0.9-0.6,1.6-1.5,1.6c-0.9,0-1.5-0.7-1.5-1.6
				c0-0.9,0.7-1.6,1.6-1.6C141.4,227.8,142,228.4,142,229.3L142,229.3z M141.4,229.3c0-0.6-0.4-1-0.9-1c-0.6,0-1,0.4-1,1
				c0,0.6,0.4,1,1,1C141,230.3,141.4,229.9,141.4,229.3L141.4,229.3z"/>
		</g>
		<g>
			<defs>
				<rect id="SVGID_173_" x="0" width="360.1" height="360"/>
			</defs>
			<clipPath id="SVGID_30_">
				<use xlink:href="#SVGID_173_"  overflow="visible"/>
			</clipPath>
			<path clip-path="url(#SVGID_30_)" fill="#72D54A" d="M142.7,229.3l-0.2-0.3c-0.6-1-0.7-1.1-0.7-1.2v0h0.4h0.3v0
				c0,0,0.1,0.2,0.3,0.6c0.1,0.1,0.2,0.3,0.2,0.4h0c0.1-0.1,0.2-0.3,0.2-0.4c0.2-0.4,0.3-0.5,0.3-0.6v0h0.3h0.3v0
				c0,0-0.1,0.2-0.7,1.2l-0.2,0.3l0.2,0.3c0.6,1,0.7,1.2,0.7,1.2v0h-0.3h-0.3v0c0,0-0.1-0.2-0.3-0.6c-0.1-0.2-0.2-0.3-0.3-0.5h0
				c-0.1,0.2-0.2,0.3-0.3,0.5c-0.2,0.4-0.3,0.5-0.3,0.6v0h-0.3h-0.3v0c0,0,0.1-0.2,0.8-1.2L142.7,229.3z"/>
			<path clip-path="url(#SVGID_30_)" fill="#855D31" d="M126.2,208.9c-0.5,0.4-1,1.1-1.3,1.7c-0.3,0.6-0.5,1.4-0.4,2.1
				c0.1,0.7,0.6,1.3,1.3,1.4c0.5,0,0.9-0.2,1.1-0.6c0.2-0.4,0.2-0.9-0.1-1.3c-0.1-0.2-0.3-0.3-0.4-0.4c-0.3-0.4-0.4-0.9-0.4-1.3
				C126,209.8,126.2,209.4,126.2,208.9"/>
			<path clip-path="url(#SVGID_30_)" fill="#855D31" d="M129.7,206.8c-0.5,0.4-1,1.1-1.3,1.7c-0.3,0.6-0.5,1.4-0.4,2.1
				c0.1,0.7,0.6,1.3,1.3,1.4c0.5,0,0.9-0.2,1.1-0.6s0.2-0.9-0.1-1.3c-0.1-0.2-0.3-0.3-0.4-0.4c-0.3-0.4-0.4-0.9-0.4-1.3
				C129.6,207.7,129.7,207.3,129.7,206.8"/>
			<path clip-path="url(#SVGID_30_)" fill="#855D31" d="M134.3,205.5c-0.5,0.4-1,1-1.4,1.5c-0.4,0.6-0.7,1.3-0.6,2
				c0.1,0.7,0.5,1.4,1.2,1.5c0.5,0.1,0.9-0.2,1.2-0.5c0.2-0.4,0.2-0.9,0-1.3c-0.1-0.2-0.2-0.3-0.3-0.5c-0.3-0.4-0.3-0.9-0.3-1.4
				C134.1,206.3,134.2,205.9,134.3,205.5"/>
			<path clip-path="url(#SVGID_30_)" fill="#855D31" d="M123.5,218.3c0,0,0-0.1,0.1-0.3c0-0.1,0.1-0.2,0.1-0.3c0,0,0-0.1,0-0.1
				c0,0,0-0.1,0-0.1c0-0.1,0.1-0.1,0.1-0.2c0.1-0.3,0.3-0.7,0.6-1.1s0.7-0.8,1.2-1.2c0,0,0.1,0,0.1-0.1c0,0,0.1,0,0.1-0.1
				c0.1,0,0.1-0.1,0.2-0.1c0,0,0.1,0,0.1-0.1c0,0,0.1,0,0.1-0.1c0,0,0.1,0,0.1-0.1c0,0,0.1,0,0.1-0.1c0.2-0.1,0.3-0.2,0.5-0.2
				c0,0,0.1,0,0.1,0c0,0,0.1,0,0.1,0c0.1,0,0.2-0.1,0.3-0.1l0.1,0l0.1,0c0,0,0.1,0,0.1,0c0.1,0,0.2,0,0.3-0.1c0.2,0,0.3-0.1,0.5-0.1
				c0.3-0.1,0.6-0.2,0.9-0.3l0,0l0,0c0,0,0,0,0,0l0,0l0,0l0.1,0c0,0,0,0,0,0l0,0l0.1,0l0.1-0.1c0.1-0.1,0.3-0.2,0.4-0.3
				c0.2-0.1,0.3-0.2,0.5-0.4c0.1-0.1,0.2-0.1,0.3-0.2c0,0,0,0,0.1,0l0,0l0,0l0,0l0,0l0.1-0.1c0.8-0.3,1.6-0.5,2.5-0.5
				c0.8,0,1.7,0.2,2.5,0.6c0,0,0,0,0,0l0,0l0,0c0,0,0,0,0,0c0,0,0.1,0.1,0.1,0.1l0.1,0l0.1,0.1c0,0,0.1,0.1,0.1,0.1
				c0.2,0.1,0.3,0.3,0.4,0.4c0.1,0.1,0.3,0.2,0.4,0.3l0,0l0,0c0,0,0,0,0,0l0,0l0.1,0c0,0,0.1,0.1,0.1,0.1l0,0c0,0,0,0,0,0
				c0,0,0.1,0,0.1,0c0.1,0.1,0.3,0.1,0.4,0.1c0.2,0,0.3,0.1,0.5,0.1c0.2,0,0.4,0.1,0.5,0.1c0,0,0.1,0,0.1,0c0,0,0.1,0,0.1,0
				c0,0,0.1,0,0.1,0l0.1,0l0,0l0,0l0,0l0,0c0.3,0.1,0.7,0.2,0.9,0.4c0.1,0.1,0.3,0.2,0.4,0.2c0,0,0.1,0,0.1,0.1c0,0,0.1,0,0.1,0.1
				c0.1,0,0.1,0.1,0.2,0.1c0,0,0.1,0,0.1,0.1c0,0,0.1,0,0.1,0.1c0.1,0,0.1,0.1,0.2,0.1c0.1,0,0.1,0.1,0.2,0.1c0.1,0,0.1,0.1,0.2,0.1
				s0.1,0.1,0.1,0.1c0,0,0.1,0.1,0.1,0.1c0,0,0,0,0.1,0.1c0,0,0,0,0.1,0.1c0,0,0.1,0.1,0.1,0.1c0.3,0.4,0.5,0.8,0.6,1.1
				c0,0.1,0.1,0.2,0.1,0.2c0,0,0,0.1,0,0.1c0,0,0,0.1,0,0.1c0,0,0,0.1,0,0.1c0,0,0,0.1,0,0.1c0,0.1,0,0.1,0,0.1c0,0.1,0,0.2,0,0.2
				s0,0.1,0,0.1s0-0.1-0.1-0.3c-0.1-0.2-0.2-0.4-0.4-0.7c-0.2-0.3-0.4-0.6-0.8-0.9c-0.2-0.2-0.3-0.3-0.6-0.5c-0.1,0-0.1-0.1-0.2-0.1
				c-0.1,0-0.1-0.1-0.2-0.1c-0.1,0-0.1-0.1-0.2-0.1c0,0-0.1,0-0.1,0c0,0-0.1,0-0.1-0.1c-0.1,0-0.1-0.1-0.2-0.1c0,0,0,0,0,0l0,0l0,0
				l0,0l0,0c0,0-0.1,0-0.1,0c-0.1-0.1-0.3-0.1-0.4-0.2c-0.3-0.1-0.6-0.2-0.9-0.3l0,0l0,0c0,0,0,0,0,0l0,0l-0.1,0c0,0-0.1,0-0.1,0
				c0,0-0.1,0-0.1,0c0,0-0.1,0-0.1,0c-0.2,0-0.3,0-0.5,0c-0.2,0-0.4,0-0.6-0.1c-0.2,0-0.4-0.1-0.6-0.1c-0.1,0-0.1,0-0.2-0.1
				c0,0-0.1,0-0.1,0l-0.1,0c-0.1,0-0.1,0-0.1-0.1l-0.1,0l0,0l0,0l0,0l0,0c-0.2-0.1-0.4-0.3-0.5-0.4c-0.1-0.1-0.3-0.3-0.4-0.4
				c0,0-0.1-0.1-0.1-0.1l0,0l0,0c0,0-0.1,0-0.1-0.1c0,0,0,0,0,0l0,0l0,0c0,0,0,0,0,0l-0.1,0l0,0l0,0c0,0,0,0,0,0l0,0l-0.1,0
				c-0.1,0-0.2-0.1-0.2-0.1c-0.1,0-0.2-0.1-0.2-0.1c-0.1,0-0.2,0-0.3-0.1c-0.3-0.1-0.7-0.1-1-0.1c-0.4,0-0.7,0-1.1,0.1l-0.1,0
				l-0.1,0l-0.1,0c0,0-0.1,0-0.1,0l-0.1,0c0,0-0.1,0-0.1,0l-0.1,0c0,0-0.1,0-0.1,0.1l-0.1,0.1l-0.1,0c-0.1,0-0.1,0.1-0.2,0.1
				c-0.1,0.1-0.3,0.2-0.4,0.3c-0.1,0.1-0.3,0.2-0.5,0.3c0,0-0.1,0.1-0.1,0.1l-0.1,0l-0.1,0c0,0,0,0-0.1,0l-0.1,0l0,0l0,0
				c0,0,0,0,0,0l0,0l-0.1,0c-0.2,0.1-0.4,0.2-0.6,0.2c-0.2,0.1-0.4,0.1-0.6,0.1c-0.2,0-0.4,0.1-0.5,0.1c-0.1,0-0.2,0-0.2,0
				c0,0-0.1,0-0.1,0l-0.1,0l-0.1,0c-0.1,0-0.2,0-0.2,0c0,0-0.1,0-0.1,0c0,0-0.1,0-0.1,0c-0.1,0-0.3,0.1-0.4,0.1c0,0-0.1,0-0.1,0
				c0,0-0.1,0-0.1,0s-0.1,0-0.1,0c0,0-0.1,0-0.1,0c-0.1,0-0.1,0.1-0.2,0.1c0,0-0.1,0-0.1,0c0,0-0.1,0-0.1,0.1
				c-0.5,0.3-0.9,0.6-1.2,0.9c-0.3,0.3-0.6,0.6-0.8,0.9c-0.2,0.3-0.3,0.5-0.4,0.7S123.5,218.3,123.5,218.3"/>
			<path clip-path="url(#SVGID_30_)" fill="#855D31" d="M140.9,208.8c0.5,0.4,1,1.1,1.3,1.7c0.3,0.6,0.5,1.4,0.4,2.1
				c-0.1,0.7-0.6,1.3-1.3,1.4c-0.5,0-0.9-0.2-1.1-0.6c-0.2-0.4-0.2-0.9,0.1-1.3c0.1-0.2,0.3-0.3,0.4-0.4c0.3-0.4,0.4-0.9,0.4-1.3
				C141.1,209.7,141,209.3,140.9,208.8"/>
			<path clip-path="url(#SVGID_30_)" fill="#855D31" d="M137.5,206.8c0.5,0.4,1,1.1,1.3,1.7c0.3,0.6,0.5,1.4,0.4,2.1
				c-0.1,0.7-0.6,1.3-1.3,1.4c-0.5,0-0.9-0.2-1.1-0.6c-0.2-0.4-0.2-0.9,0.1-1.3c0.1-0.2,0.3-0.3,0.4-0.4c0.3-0.4,0.4-0.9,0.4-1.3
				C137.7,207.6,137.5,207.2,137.5,206.8"/>
			<path clip-path="url(#SVGID_30_)" fill="#855D31" d="M127.7,218.8c-0.5-0.3-0.8-0.9-0.9-1.5c-1.1,0.7-1.6,2.3-1.2,3.6
				c0.5,1.3,1.8,2.2,3.1,2.2c0.9,0,1.8-0.2,2.5-0.6c0.6-0.3,1.2-0.7,1.9-0.7c1.3-0.1,2.4,0.8,3.6,1.1c1,0.3,2.2,0.2,3.1-0.2
				c0.9-0.5,1.7-1.4,1.8-2.5c0.2-1-0.2-2.2-1-2.9c-0.1,0.7-0.5,1.3-1.2,1.6c0.5-0.8,0.2-1.8-0.4-2.5c-0.6-0.7-1.5-1-2.3-1.3
				c0.4,0.1,0.8,0,1.2,0.1c0.4,0.1,0.8,0.2,1.2,0.3c0.8,0.2,1.5,0.6,2.1,1.2c1,1,1.5,2.6,1.1,4c-0.4,1.6-1.8,3-3.5,3.2
				c-1,0.2-2.1-0.1-3-0.5c-0.9-0.4-1.8-0.9-2.8-0.8c-0.6,0.1-1.2,0.5-1.7,0.7c-1,0.5-2,0.7-3.1,0.6c-1.1-0.1-2.1-0.7-2.8-1.5
				c-0.6-0.8-0.9-1.8-0.9-2.7c0.1-1,0.5-1.9,1.1-2.6c1.2-1.3,3.1-1.8,4.8-2.1c-0.8,0.3-1.6,0.7-2.2,1.4
				C127.8,217,127.4,217.9,127.7,218.8"/>
		</g>
		<text transform="matrix(1 0 0 1 146.6621 209.038)" fill="#72D54A" font-family="'PenumbraFlareStd-Regular'" font-size="2.8565">83</text>
		<text transform="matrix(1 0 0 1 149.8359 209.038)" fill="#72D54A" font-family="'PenumbraFlareStd-Regular'" font-size="2.8565">6 Deve</text>
		<text transform="matrix(1 0 0 1 159.2646 209.038)" fill="#72D54A" font-family="'PenumbraFlareStd-Regular'" font-size="2.8565">lo</text>
		<text transform="matrix(1 0 0 1 163.0288 209.038)" fill="#72D54A" font-family="'PenumbraFlareStd-Regular'" font-size="2.8565">pm</text>
		<text transform="matrix(1 0 0 1 167.1943 209.038)" fill="#72D54A" font-family="'PenumbraFlareStd-Regular'" font-size="2.8565">ent Dr. </text>
		<text transform="matrix(1 0 0 1 146.665 212.6005)" fill="#72D54A" font-family="'PenumbraFlareStd-Regular'" font-size="2.8565">Kings</text>
		<text transform="matrix(1 0 0 1 154.746 212.6005)" fill="#72D54A" font-family="'PenumbraFlareStd-Regular'" font-size="2.8565">to</text>
		
			<text transform="matrix(1 0 0 1 158.8159 212.6005)" fill="#72D54A" font-family="'PenumbraFlareStd-Regular'" font-size="2.8565">n, ONtario</text>
		<text transform="matrix(1 0 0 1 146.665 216.0283)" fill="#72D54A" font-family="'PenumbraFlareStd-Regular'" font-size="2.8565">K7M 4W6</text>
		<rect x="77.1" y="253.9" fill="#FFFFFF" width="243.5" height="106"/>
		<g>
			<defs>
				<rect id="SVGID_175_" x="0" width="360.1" height="360"/>
			</defs>
			<clipPath id="SVGID_32_">
				<use xlink:href="#SVGID_175_"  overflow="visible"/>
			</clipPath>
			
				<rect x="77.1" y="253.9" clip-path="url(#SVGID_32_)" fill="none" stroke="#000000" stroke-width="0.1785" stroke-miterlimit="10" width="243.5" height="106"/>
			<path clip-path="url(#SVGID_32_)" fill="#FFFFFF" d="M77.4,253.9l105.5,68.4c0,0,2,3.4,9.4,2.5c0,0,5.2-6.5,12.2-0.2
				c0,0,5.5,1.4,9.2-2.3l106.6-68.3H77.4z"/>
			<path clip-path="url(#SVGID_32_)" fill="none" stroke="#000000" stroke-width="0.1785" stroke-miterlimit="10" d="M77.4,253.9
				l105.5,68.4c0,0,2,3.4,9.4,2.5c0,0,5.2-6.5,12.2-0.2c0,0,5.5,1.4,9.2-2.3l106.6-68.3H77.4z"/>
			<path clip-path="url(#SVGID_32_)" fill="#855D31" d="M184.2,296.3c-1,0.8-1.9,2.1-2.5,3.2c-0.7,1.2-1.1,2.6-0.8,4
				c0.2,1.3,1.2,2.6,2.6,2.7c0.9,0.1,1.8-0.5,2.2-1.3c0.4-0.8,0.3-1.8-0.2-2.5c-0.2-0.3-0.5-0.6-0.7-0.9c-0.6-0.7-0.8-1.7-0.8-2.6
				C183.9,298.1,184.2,297.2,184.2,296.3"/>
			<path clip-path="url(#SVGID_32_)" fill="#855D31" d="M191.1,292.2c-1,0.8-1.9,2.1-2.5,3.2c-0.7,1.2-1.1,2.6-0.8,4
				c0.2,1.3,1.2,2.6,2.6,2.7c0.9,0.1,1.8-0.5,2.2-1.3c0.4-0.8,0.3-1.8-0.2-2.5c-0.2-0.3-0.5-0.6-0.7-0.9c-0.6-0.7-0.8-1.7-0.8-2.6
				C190.7,294,191,293.1,191.1,292.2"/>
			<path clip-path="url(#SVGID_32_)" fill="#855D31" d="M199.9,289.6c-1,0.8-2,1.9-2.8,3c-0.8,1.2-1.3,2.5-1.2,3.9
				c0.1,1.3,1,2.7,2.3,2.9c0.9,0.1,1.8-0.3,2.3-1.1c0.5-0.8,0.5-1.8,0-2.5c-0.2-0.3-0.5-0.6-0.7-0.9c-0.5-0.8-0.7-1.7-0.6-2.6
				C199.5,291.3,199.8,290.5,199.9,289.6"/>
			<path clip-path="url(#SVGID_32_)" fill="#855D31" d="M179,314.4c0,0,0-0.2,0.1-0.5c0-0.2,0.1-0.4,0.2-0.6c0-0.1,0-0.1,0.1-0.2
				c0-0.1,0.1-0.1,0.1-0.2c0.1-0.1,0.1-0.3,0.2-0.4c0.3-0.6,0.7-1.3,1.3-2.1c0.6-0.8,1.3-1.6,2.3-2.3c0.1,0,0.1-0.1,0.2-0.1
				c0.1,0,0.1-0.1,0.2-0.1c0.1-0.1,0.3-0.2,0.4-0.3c0.1,0,0.1-0.1,0.2-0.1c0.1,0,0.1-0.1,0.2-0.1c0.1,0,0.1-0.1,0.2-0.1
				c0.1,0,0.1-0.1,0.2-0.1c0.3-0.1,0.6-0.3,0.9-0.4c0.1,0,0.2-0.1,0.2-0.1c0.1,0,0.2-0.1,0.2-0.1c0.2-0.1,0.3-0.1,0.5-0.2l0.1,0
				l0.1,0c0.1,0,0.2,0,0.2-0.1c0.2,0,0.3-0.1,0.5-0.1c0.3-0.1,0.7-0.1,1-0.2c0.6-0.2,1.2-0.4,1.7-0.7l0.1-0.1l0,0c0,0,0,0,0,0l0,0
				l0.1,0l0.1-0.1c0,0,0.1,0,0.1-0.1l0.1-0.1l0.1-0.1l0.2-0.2c0.3-0.2,0.5-0.4,0.8-0.7c0.3-0.2,0.6-0.5,1-0.7
				c0.2-0.1,0.4-0.2,0.5-0.3c0,0,0.1,0,0.1-0.1l0.1,0l0,0l0,0l0,0l0.3-0.1c1.5-0.7,3.2-0.9,4.8-0.9c1.6,0.1,3.3,0.4,4.8,1.2
				c0,0,0,0,0.1,0l0.1,0l0.1,0c0,0,0.1,0,0.1,0c0.1,0.1,0.2,0.1,0.3,0.2l0.1,0.1l0.1,0.1c0.1,0.1,0.2,0.1,0.2,0.2
				c0.3,0.3,0.6,0.5,0.8,0.8c0.3,0.2,0.5,0.4,0.7,0.6l0,0l0,0c0,0,0,0,0,0l0,0l0.1,0.1c0.1,0,0.2,0.1,0.2,0.1l0.1,0c0,0,0,0,0.1,0
				c0.1,0,0.1,0.1,0.2,0.1c0.3,0.1,0.5,0.2,0.9,0.2c0.3,0.1,0.6,0.1,1,0.2c0.3,0,0.7,0.1,1,0.2c0.1,0,0.2,0,0.3,0.1
				c0.1,0,0.2,0,0.3,0.1c0.1,0,0.2,0,0.3,0.1l0.1,0l0,0l0,0l0,0l0.1,0c0.6,0.2,1.3,0.5,1.8,0.8c0.3,0.1,0.6,0.3,0.8,0.5
				c0.1,0,0.1,0.1,0.2,0.1c0.1,0,0.1,0.1,0.2,0.1c0.1,0.1,0.2,0.2,0.4,0.2c0.1,0,0.1,0.1,0.2,0.1s0.1,0.1,0.2,0.1
				c0.1,0.1,0.2,0.2,0.3,0.3c0.1,0.1,0.2,0.2,0.3,0.3c0.1,0.1,0.2,0.2,0.3,0.3c0.1,0.1,0.2,0.2,0.3,0.3c0.1,0.1,0.2,0.2,0.3,0.3
				c0,0,0.1,0.1,0.1,0.1c0,0,0.1,0.1,0.1,0.1c0.1,0.1,0.2,0.2,0.2,0.3c0.6,0.8,1,1.5,1.2,2.1c0.1,0.2,0.1,0.3,0.2,0.4
				c0,0.1,0.1,0.1,0.1,0.2c0,0.1,0,0.1,0.1,0.2c0,0.1,0,0.1,0.1,0.2c0,0.1,0,0.1,0,0.2c0,0.1,0.1,0.2,0.1,0.3c0,0.2,0.1,0.3,0.1,0.4
				c0,0.1,0,0.1,0,0.1s-0.1-0.2-0.2-0.5c-0.2-0.3-0.4-0.8-0.8-1.3c-0.4-0.5-0.9-1.2-1.5-1.8c-0.3-0.3-0.7-0.6-1.1-0.9
				c-0.1-0.1-0.2-0.1-0.3-0.2c-0.1-0.1-0.2-0.1-0.3-0.2c-0.1-0.1-0.2-0.1-0.3-0.2c-0.1,0-0.1-0.1-0.2-0.1c-0.1,0-0.1-0.1-0.2-0.1
				c-0.1-0.1-0.3-0.1-0.4-0.2c0,0,0,0,0,0l0,0l0,0l0,0l-0.1,0c-0.1,0-0.1-0.1-0.2-0.1c-0.3-0.1-0.5-0.2-0.8-0.3
				c-0.5-0.2-1.1-0.4-1.7-0.5l-0.1,0l0,0c0,0,0,0,0,0l0,0l-0.1,0c-0.1,0-0.1,0-0.2,0c-0.1,0-0.1,0-0.2,0c-0.1,0-0.1,0-0.2,0
				c-0.3,0-0.6-0.1-1-0.1c-0.3,0-0.7-0.1-1.1-0.1c-0.4-0.1-0.8-0.1-1.2-0.3c-0.1,0-0.2-0.1-0.3-0.1c0,0-0.1,0-0.2-0.1l-0.2-0.1
				c-0.1-0.1-0.2-0.1-0.3-0.1l-0.1-0.1l0,0l0,0l0,0l-0.1,0c-0.4-0.2-0.7-0.5-1-0.7c-0.3-0.2-0.6-0.5-0.8-0.7c-0.1,0-0.1-0.1-0.2-0.1
				l-0.1-0.1l-0.1-0.1c-0.1,0-0.1-0.1-0.2-0.1c0,0,0,0,0,0l0,0l0,0c0,0,0,0,0,0l-0.1-0.1l0,0l0,0c0,0,0,0,0,0l-0.1,0l-0.2-0.1
				c-0.1-0.1-0.3-0.1-0.5-0.2c-0.2-0.1-0.3-0.1-0.5-0.1c-0.2-0.1-0.3-0.1-0.5-0.1c-0.7-0.1-1.3-0.2-2-0.2c-0.7,0-1.4,0-2,0.1l-0.3,0
				l-0.2,0.1l-0.2,0.1c-0.1,0-0.2,0-0.2,0.1l-0.2,0.1c-0.1,0-0.1,0-0.2,0.1l-0.2,0.1c-0.1,0-0.2,0.1-0.3,0.1l-0.3,0.1l-0.2,0.1
				c-0.1,0.1-0.3,0.1-0.4,0.2c-0.3,0.2-0.6,0.4-0.8,0.6c-0.3,0.2-0.6,0.4-0.9,0.7c-0.1,0.1-0.2,0.1-0.2,0.2l-0.1,0.1l-0.1,0.1
				c0,0-0.1,0.1-0.1,0.1l-0.1,0.1l-0.1,0l0,0c0,0,0,0,0,0l0,0l-0.1,0.1c-0.4,0.2-0.8,0.4-1.1,0.5c-0.4,0.1-0.7,0.2-1.1,0.3
				c-0.4,0.1-0.7,0.1-1,0.2c-0.2,0-0.3,0.1-0.5,0.1c-0.1,0-0.2,0-0.2,0l-0.1,0l-0.1,0c-0.1,0-0.3,0.1-0.4,0.1c-0.1,0-0.1,0-0.2,0.1
				c-0.1,0-0.1,0-0.2,0.1c-0.3,0.1-0.6,0.2-0.8,0.3c-0.1,0-0.1,0.1-0.2,0.1c-0.1,0-0.1,0.1-0.2,0.1c-0.1,0-0.1,0.1-0.2,0.1
				c-0.1,0-0.1,0.1-0.2,0.1c-0.1,0.1-0.2,0.1-0.4,0.2c-0.1,0-0.1,0.1-0.2,0.1c-0.1,0-0.1,0.1-0.2,0.1c-0.9,0.5-1.7,1.2-2.4,1.8
				c-0.6,0.6-1.1,1.2-1.5,1.8c-0.4,0.5-0.6,1-0.8,1.3C179.1,314.2,179,314.4,179,314.4"/>
			<path clip-path="url(#SVGID_32_)" fill="#855D31" d="M212.8,296.1c1,0.8,1.9,2.1,2.5,3.2c0.7,1.2,1.1,2.6,0.8,4
				c-0.2,1.3-1.2,2.6-2.6,2.7c-0.9,0.1-1.8-0.5-2.2-1.3c-0.4-0.8-0.3-1.8,0.2-2.5c0.2-0.3,0.5-0.6,0.7-0.9c0.6-0.7,0.8-1.7,0.8-2.6
				C213.1,297.9,212.8,297,212.8,296.1"/>
			<path clip-path="url(#SVGID_32_)" fill="#855D31" d="M206.2,292.1c1,0.8,1.9,2.1,2.5,3.2c0.7,1.2,1.1,2.6,0.8,4
				c-0.2,1.3-1.2,2.6-2.6,2.7c-0.9,0.1-1.8-0.5-2.2-1.3c-0.4-0.8-0.3-1.8,0.2-2.5c0.2-0.3,0.5-0.6,0.7-0.9c0.6-0.7,0.8-1.7,0.8-2.6
				C206.5,293.8,206.2,293,206.2,292.1"/>
			<path clip-path="url(#SVGID_32_)" fill="#855D31" d="M187.1,315.4c-0.9-0.6-1.6-1.7-1.7-2.8c-2.2,1.4-3.1,4.5-2.3,6.9
				c0.9,2.5,3.4,4.2,6,4.3c1.7,0.1,3.4-0.4,4.9-1.2c1.2-0.6,2.3-1.3,3.6-1.4c2.5-0.3,4.6,1.5,7,2.2c2,0.6,4.2,0.5,6-0.5
				c1.8-1,3.2-2.8,3.6-4.8c0.3-2-0.4-4.3-2-5.6c-0.1,1.3-1,2.6-2.3,3c0.9-1.5,0.4-3.5-0.8-4.8c-1.2-1.3-2.9-2-4.5-2.5
				c0.7,0.2,1.6,0.1,2.4,0.2c0.8,0.1,1.6,0.3,2.4,0.6c1.5,0.5,2.9,1.1,4,2.2c1.9,2,2.8,5,2.2,7.7c-0.7,3.2-3.6,5.8-6.8,6.3
				c-2,0.3-4-0.1-5.9-0.9c-1.8-0.7-3.6-1.8-5.4-1.5c-1.2,0.2-2.2,0.9-3.3,1.4c-1.9,0.9-4,1.4-6,1.1c-2.1-0.3-4-1.3-5.4-2.9
				c-1.2-1.5-1.8-3.4-1.7-5.3c0.1-1.9,0.9-3.7,2.2-5.1c2.3-2.5,5.9-3.4,9.3-4.1c-1.6,0.6-3.1,1.4-4.3,2.7
				C187.2,312,186.6,313.8,187.1,315.4"/>
		</g>
		<text transform="matrix(1 0 0 1 317.04 129.6787)" fill="#72D54A" font-family="'PenumbraFlareStd-Regular'" font-size="2.8565">83</text>
		
			<text transform="matrix(1 0 0 1 320.2129 129.6787)" fill="#72D54A" font-family="'PenumbraFlareStd-Regular'" font-size="2.8565">6 Deve</text>
		
			<text transform="matrix(1 0 0 1 329.6425 129.6787)" fill="#72D54A" font-family="'PenumbraFlareStd-Regular'" font-size="2.8565">lo</text>
		
			<text transform="matrix(1 0 0 1 333.4073 129.6787)" fill="#72D54A" font-family="'PenumbraFlareStd-Regular'" font-size="2.8565">pm</text>
		
			<text transform="matrix(1 0 0 1 337.5723 129.6787)" fill="#72D54A" font-family="'PenumbraFlareStd-Regular'" font-size="2.8565">ent Dr. </text>
		<text transform="matrix(1 0 0 1 318.4111 134.209)" fill="#72D54A" font-family="'PenumbraFlareStd-Regular'" font-size="2.8565">Kings</text>
		<text transform="matrix(1 0 0 1 326.4912 134.209)" fill="#72D54A" font-family="'PenumbraFlareStd-Regular'" font-size="2.8565">to</text>
		<text transform="matrix(1 0 0 1 330.5616 134.209)" fill="#72D54A" font-family="'PenumbraFlareStd-Regular'" font-size="2.8565">n, ONtario</text>
		
			<text transform="matrix(1 0 0 1 326.4462 137.7802)" fill="#72D54A" font-family="'PenumbraFlareStd-Regular'" font-size="2.8565">K7M 4W6</text>
		
			<text transform="matrix(1 0 0 1 324.6143 125.4335)" fill="#72D54A" font-family="'PenumbraFlareStd-Regular'" font-size="2.8565">61</text>
		<text transform="matrix(1 0 0 1 327.375 125.4335)" fill="#72D54A" font-family="'PenumbraFlareStd-Regular'" font-size="2.8565">3-38</text>
		
			<text transform="matrix(1 0 0 1 332.7793 125.4335)" fill="#72D54A" font-family="'PenumbraFlareStd-Regular'" font-size="2.8565">9-11</text>
		
			<text transform="matrix(1 0 0 1 337.5488 125.4335)" fill="#72D54A" font-family="'PenumbraFlareStd-Regular'" font-size="2.8565">19</text>
		
			<text transform="matrix(1 0 0 1 340.3545 125.4335)" fill="#72D54A" font-family="'PenumbraFlareStd-Regular'" font-size="2.8565"> </text>
		
			<text transform="matrix(1 0 0 1 312.8457 141.8593)" fill="#72D54A" font-family="'PenumbraFlareStd-Regular'" font-size="2.8565">brownbea</text>
		
			<text transform="matrix(1 0 0 1 328.2969 141.8593)" fill="#72D54A" font-family="'PenumbraFlareStd-Regular'" font-size="2.8565">rt</text>
		
			<text transform="matrix(1 0 0 1 331.2881 141.8593)" fill="#72D54A" font-family="'PenumbraFlareStd-Regular'" font-size="2.8565">ac</text>
		
			<text transform="matrix(1 0 0 1 335.0694 141.8593)" fill="#72D54A" font-family="'PenumbraFlareStd-Regular'" font-size="2.8565">kleb</text>
		
			<text transform="matrix(1 0 0 1 341.1709 141.8593)" fill="#72D54A" font-family="'PenumbraFlareStd-Regular'" font-size="2.8565">ox</text>
		
			<text transform="matrix(1 0 0 1 345.3867 141.8593)" fill="#72D54A" font-family="'PenumbraFlareStd-Regular'" font-size="2.8565">.c</text>
		
			<text transform="matrix(1 0 0 1 347.8184 141.8593)" fill="#72D54A" font-family="'PenumbraFlareStd-Regular'" font-size="2.8565">om</text>
	</g>
</g>
<g id="Isolation_Mode">
	<g>
		<defs>
			<rect id="SVGID_203_" x="398" y="-796" width="360" height="360"/>
		</defs>
		<clipPath id="SVGID_34_">
			<use xlink:href="#SVGID_203_"  overflow="visible"/>
		</clipPath>
		<g clip-path="url(#SVGID_34_)">
			<g>
				<defs>
					<rect id="SVGID_205_" x="-1985.9" y="-854" width="2880.3" height="1924.1"/>
				</defs>
				<clipPath id="SVGID_35_">
					<use xlink:href="#SVGID_205_"  overflow="visible"/>
				</clipPath>
				<rect x="-1962.9" y="-833.7" clip-path="url(#SVGID_35_)" fill="#8DC63F" width="2833" height="1881"/>
				<polygon clip-path="url(#SVGID_35_)" fill="#83A656" points="-534.3,-833.7 -1220.3,-422.6 -1723.2,-107.5 -1180.6,213.4 
					-682.5,-80.3 521.7,618.3 870.1,412.7 870.1,-833.7 				"/>
				<g clip-path="url(#SVGID_35_)">
					<defs>
						<rect id="SVGID_207_" x="-1962.9" y="-833.7" width="2833" height="1881"/>
					</defs>
					<clipPath id="SVGID_37_">
						<use xlink:href="#SVGID_207_"  overflow="visible"/>
					</clipPath>
				</g>
				<g clip-path="url(#SVGID_35_)">
					<defs>
						<rect id="SVGID_212_" x="-1962.9" y="-833.7" width="2833" height="1881"/>
					</defs>
					<clipPath id="SVGID_39_">
						<use xlink:href="#SVGID_212_"  overflow="visible"/>
					</clipPath>
				</g>
				<g clip-path="url(#SVGID_35_)">
					<defs>
						<rect id="SVGID_217_" x="-1962.9" y="-833.7" width="2833" height="1881"/>
					</defs>
					<clipPath id="SVGID_40_">
						<use xlink:href="#SVGID_217_"  overflow="visible"/>
					</clipPath>
				</g>
				<g clip-path="url(#SVGID_35_)">
					<defs>
						<rect id="SVGID_222_" x="-1962.9" y="-833.7" width="2833" height="1881"/>
					</defs>
					<clipPath id="SVGID_42_">
						<use xlink:href="#SVGID_222_"  overflow="visible"/>
					</clipPath>
				</g>
				<g clip-path="url(#SVGID_35_)">
					<defs>
						<rect id="SVGID_227_" x="-1962.9" y="-833.7" width="2833" height="1881"/>
					</defs>
					<clipPath id="SVGID_44_">
						<use xlink:href="#SVGID_227_"  overflow="visible"/>
					</clipPath>
				</g>
				<g clip-path="url(#SVGID_35_)">
					<defs>
						<rect id="SVGID_232_" x="-1962.9" y="-833.7" width="2833" height="1881"/>
					</defs>
					<clipPath id="SVGID_45_">
						<use xlink:href="#SVGID_232_"  overflow="visible"/>
					</clipPath>
				</g>
				<g clip-path="url(#SVGID_35_)">
					<defs>
						<rect id="SVGID_237_" x="-1962.9" y="-833.7" width="2833" height="1881"/>
					</defs>
					<clipPath id="SVGID_47_">
						<use xlink:href="#SVGID_237_"  overflow="visible"/>
					</clipPath>
				</g>
				<g clip-path="url(#SVGID_35_)">
					<defs>
						<rect id="SVGID_242_" x="-1962.9" y="-833.7" width="2833" height="1881"/>
					</defs>
					<clipPath id="SVGID_49_">
						<use xlink:href="#SVGID_242_"  overflow="visible"/>
					</clipPath>
				</g>
				<g clip-path="url(#SVGID_35_)">
					<defs>
						<rect id="SVGID_247_" x="-1962.9" y="-833.7" width="2833" height="1881"/>
					</defs>
					<clipPath id="SVGID_50_">
						<use xlink:href="#SVGID_247_"  overflow="visible"/>
					</clipPath>
					<polygon clip-path="url(#SVGID_50_)" fill="#C3913D" points="28.1,310.7 32.5,308.1 32.5,298 28.1,300.6 					"/>
					<polygon clip-path="url(#SVGID_50_)" fill="#C3913D" points="28.1,310.7 -62.2,257.2 -62.2,247 28.1,300.6 					"/>
					<polygon clip-path="url(#SVGID_50_)" fill="#CDA25F" points="32.5,298 28.1,300.6 -62.2,247 -57.8,244.4 					"/>
					<polygon clip-path="url(#SVGID_50_)" fill="#C3913D" points="28.1,280.7 32.5,278.1 32.5,267.9 28.1,270.5 					"/>
					<polygon clip-path="url(#SVGID_50_)" fill="#C3913D" points="28.1,280.7 -62.2,227.2 -62.2,217 28.1,270.5 					"/>
					<polygon clip-path="url(#SVGID_50_)" fill="#CDA25F" points="32.5,267.9 28.1,270.5 -62.2,217 -57.8,214.3 					"/>
					<polygon clip-path="url(#SVGID_50_)" fill="#C3913D" points="28.1,250.6 32.5,248 32.5,237.8 28.1,240.4 					"/>
					<polygon clip-path="url(#SVGID_50_)" fill="#C3913D" points="28.1,250.6 -62.2,197.1 -62.2,186.9 28.1,240.4 					"/>
					<polygon clip-path="url(#SVGID_50_)" fill="#CDA25F" points="32.5,237.8 28.1,240.4 -62.2,186.9 -57.8,184.2 					"/>
					<polygon clip-path="url(#SVGID_50_)" fill="#CDA25F" points="33.2,230.6 26.3,226.5 33.8,222.1 40.6,226.2 					"/>
					<polygon clip-path="url(#SVGID_50_)" fill="#D7B681" points="33.2,330.6 33.2,230.6 40.6,226.2 40.6,326.2 					"/>
					<polygon clip-path="url(#SVGID_50_)" fill="#C3913D" points="26.3,326.5 33.2,330.6 33.2,230.6 26.3,226.5 					"/>
					<polygon clip-path="url(#SVGID_50_)" fill="#C3913D" points="125.3,368.3 129.7,365.7 129.7,355.5 125.3,358.1 					"/>
					<polygon clip-path="url(#SVGID_50_)" fill="#C3913D" points="125.3,368.3 35,314.8 35,304.6 125.3,358.1 					"/>
					<polygon clip-path="url(#SVGID_50_)" fill="#CDA25F" points="129.7,355.5 125.3,358.1 35,304.6 39.4,301.9 					"/>
					<polygon clip-path="url(#SVGID_50_)" fill="#C3913D" points="125.3,338.2 129.7,335.6 129.7,325.4 125.3,328.1 					"/>
					<polygon clip-path="url(#SVGID_50_)" fill="#C3913D" points="125.3,338.2 35,284.7 35,274.5 125.3,328 					"/>
					<polygon clip-path="url(#SVGID_50_)" fill="#CDA25F" points="129.7,325.4 125.3,328 35,274.5 39.4,271.9 					"/>
					<polygon clip-path="url(#SVGID_50_)" fill="#C3913D" points="125.3,308.2 129.7,305.5 129.7,295.4 125.3,298 					"/>
					<polygon clip-path="url(#SVGID_50_)" fill="#C3913D" points="125.3,308.2 35,254.7 35,244.5 125.3,298 					"/>
					<polygon clip-path="url(#SVGID_50_)" fill="#CDA25F" points="129.7,295.4 125.3,298 35,244.5 39.4,241.8 					"/>
					<polygon clip-path="url(#SVGID_50_)" fill="#CDA25F" points="130.6,288.1 123.7,284 131.2,279.6 138,283.7 					"/>
					<polygon clip-path="url(#SVGID_50_)" fill="#D7B681" points="130.6,388.1 130.6,288.1 138,283.7 138,383.7 					"/>
					<polygon clip-path="url(#SVGID_50_)" fill="#C3913D" points="123.7,384 130.6,388.1 130.6,288.1 123.7,284 					"/>
					<polygon clip-path="url(#SVGID_50_)" fill="#CDA25F" points="227.1,413 222.7,415.6 132.4,362.1 136.8,359.4 					"/>
					<polygon clip-path="url(#SVGID_50_)" fill="#C3913D" points="222.7,395.7 132.3,342.2 132.3,332 222.7,385.5 					"/>
					<polygon clip-path="url(#SVGID_50_)" fill="#CDA25F" points="227.1,382.9 222.7,385.5 132.4,332 136.8,329.4 					"/>
					<polygon clip-path="url(#SVGID_50_)" fill="#C3913D" points="222.6,365.6 227.1,363 227.1,352.9 222.6,355.5 					"/>
					<polygon clip-path="url(#SVGID_50_)" fill="#C3913D" points="222.7,365.6 132.3,312.1 132.3,302 222.7,355.5 					"/>
					<polygon clip-path="url(#SVGID_50_)" fill="#CDA25F" points="227.1,352.9 222.7,355.5 132.4,302 136.8,299.3 					"/>
					<polygon clip-path="url(#SVGID_50_)" fill="#CDA25F" points="228.4,346.4 221.6,342.3 229,337.9 235.9,342 					"/>
					<polygon clip-path="url(#SVGID_50_)" fill="#D7B681" points="228.5,446.4 228.4,346.4 235.9,342 235.9,442 					"/>
					<polygon clip-path="url(#SVGID_50_)" fill="#C3913D" points="221.6,442.3 228.5,446.4 228.5,346.4 221.6,342.3 					"/>
					<polygon clip-path="url(#SVGID_50_)" fill="#CDA25F" points="325,411.2 320.6,413.8 230.2,360.3 234.7,357.6 					"/>
					<polygon clip-path="url(#SVGID_50_)" fill="#BCBEBF" points="718.7,62.1 339.1,286.6 339.1,27.7 718.7,-188.2 					"/>
					<polygon clip-path="url(#SVGID_50_)" fill="#8E9092" points="340.8,29.5 340.8,287.8 -418.3,-161.2 -418.3,-420.4 
						-194.5,-549.2 69.7,-131.6 					"/>
				</g>
				<g clip-path="url(#SVGID_35_)">
					<defs>
						<rect id="SVGID_252_" x="-1962.9" y="-833.7" width="2833" height="1881"/>
					</defs>
					<clipPath id="SVGID_52_">
						<use xlink:href="#SVGID_252_"  overflow="visible"/>
					</clipPath>
				</g>
				<g clip-path="url(#SVGID_35_)">
					<defs>
						<rect id="SVGID_257_" x="-1962.9" y="-833.7" width="2833" height="1881"/>
					</defs>
					<clipPath id="SVGID_54_">
						<use xlink:href="#SVGID_257_"  overflow="visible"/>
					</clipPath>
					<polygon clip-path="url(#SVGID_54_)" fill="#D7B681" points="44.5,102.1 41.9,109.1 41.9,-104.3 44.5,-107 					"/>
					<polygon clip-path="url(#SVGID_54_)" fill="#2E2D2D" points="227,231.8 109.5,162.3 109.5,-54.8 227,14.7 					"/>
					<polygon clip-path="url(#SVGID_54_)" fill="#B6B3B3" points="109.5,162.3 82.3,146.2 82.3,-70.8 109.5,-54.8 					"/>
					<polygon clip-path="url(#SVGID_54_)" fill="#B6B3B3" points="254.1,247.8 227,231.8 227,14.7 254.1,30.8 					"/>
					<polygon clip-path="url(#SVGID_54_)" fill="#808285" points="123.9,170.8 108.9,161.9 108.9,-55.1 123.9,-46.2 					"/>
					<polygon clip-path="url(#SVGID_54_)" fill="#B6B3B3" points="82.3,-70.8 82.3,-82.4 254.2,19.2 254.2,30.8 					"/>
					<polygon clip-path="url(#SVGID_54_)" fill="#EAE9E8" points="82.3,-82.4 92.2,-88.2 264,13.4 254.2,19.2 					"/>
					<polygon clip-path="url(#SVGID_54_)" fill="#CECCCC" points="263.9,242 254.1,247.9 254.1,19.2 263.9,13.4 					"/>
					<polygon clip-path="url(#SVGID_54_)" fill="#5B5D5F" points="108.9,162 123.9,159.2 226.9,220.1 226.9,231.8 					"/>
					<polygon clip-path="url(#SVGID_54_)" fill="#B62025" points="731.1,-187.1 351.5,37.4 68.3,-131.7 447.9,-356.2 					"/>
					<polygon clip-path="url(#SVGID_54_)" fill="#C3913D" points="41.9,109.1 -265.3,-72.6 -265.3,-286.1 41.9,-104.3 					"/>
					<polygon clip-path="url(#SVGID_54_)" fill="#8E9092" points="373.6,229.1 339,249.6 339,230.4 373.6,209.9 					"/>
					<polygon clip-path="url(#SVGID_54_)" fill="#EDEDED" points="373.6,87.9 339,108.3 339,89.2 373.6,68.7 					"/>
					<polygon clip-path="url(#SVGID_54_)" fill="#EDEDED" points="356.3,220.3 339,230.6 339,211.4 356.3,201.2 					"/>
					<polygon clip-path="url(#SVGID_54_)" fill="#BCBEBF" points="339.1,230.6 321.8,220.3 321.8,201.2 339.1,211.4 					"/>
					<polygon clip-path="url(#SVGID_54_)" fill="#BCBEBF" points="61.8,17.2 44.5,6.9 44.5,-12.3 61.8,-2 					"/>
					<polygon clip-path="url(#SVGID_54_)" fill="#616264" points="339.1,249.6 304.4,229.1 304.4,209.9 339.1,230.4 					"/>
					<polygon clip-path="url(#SVGID_54_)" fill="#BCBEBF" points="292.7,27.7 258.1,7.2 258.1,-12 292.7,8.5 					"/>
					<polygon clip-path="url(#SVGID_54_)" fill="#616264" points="306.2,54.8 271.6,34.3 271.6,15.2 306.2,35.6 					"/>
					<polygon clip-path="url(#SVGID_54_)" fill="#B52E37" points="383.9,18.9 381.3,20.5 99.3,-149.9 101.4,-151.4 					"/>
					<polygon clip-path="url(#SVGID_54_)" fill="#A81E2A" points="385.3,18.1 383.9,18.9 101.6,-151.2 102.6,-151.9 					"/>
				</g>
				<g clip-path="url(#SVGID_35_)">
					<defs>
						<rect id="SVGID_268_" x="-1962.9" y="-833.7" width="2833" height="1881"/>
					</defs>
					<clipPath id="SVGID_55_">
						<use xlink:href="#SVGID_268_"  overflow="visible"/>
					</clipPath>
				</g>
			</g>
		</g>
	</g>
</g>
</svg>
