<?xml version="1.0" encoding="utf-8"?>
<!-- Generator: Adobe Illustrator 18.1.1, SVG Export Plug-In . SVG Version: 6.00 Build 0)  -->
<!DOCTYPE svg PUBLIC "-//W3C//DTD SVG 1.1//EN" "http://www.w3.org/Graphics/SVG/1.1/DTD/svg11.dtd">
<svg version="1.1" xmlns="http://www.w3.org/2000/svg" xmlns:xlink="http://www.w3.org/1999/xlink" x="0px" y="0px"
	 viewBox="0 0 360 360" enable-background="new 0 0 360 360" xml:space="preserve">
<g id="Layer_1">
	<g>
		<defs>
			<rect id="SVGID_1_" x="0" width="360" height="360"/>
		</defs>
		<clipPath id="SVGID_2_">
			<use xlink:href="#SVGID_1_"  overflow="visible"/>
		</clipPath>
		<g clip-path="url(#SVGID_2_)">
			<defs>
				<rect id="SVGID_3_" x="-2" y="-18" width="479.7" height="383.4"/>
			</defs>
			<clipPath id="SVGID_4_">
				<use xlink:href="#SVGID_3_"  overflow="visible"/>
			</clipPath>
			<g clip-path="url(#SVGID_4_)">
				<defs>
					<rect id="SVGID_5_" x="-2" y="-18" width="481.3" height="383.4"/>
				</defs>
				<clipPath id="SVGID_6_">
					<use xlink:href="#SVGID_5_"  overflow="visible"/>
				</clipPath>
				<g clip-path="url(#SVGID_6_)">
					
						<image overflow="visible" width="1883" height="1500" xlink:href="23F68C244F61A492.png"  transform="matrix(0.2556 0 0 0.2556 -2.0016 -18.0143)">
					</image>
				</g>
			</g>
		</g>
	</g>
	<g>
		
			<image overflow="visible" opacity="0.2" width="1602" height="1152" xlink:href="23F68C244F61A496.png"  transform="matrix(0.24 0 0 0.24 -48.945 -270.2184)">
		</image>
		<g>
			
				<image overflow="visible" width="2394" height="1603" xlink:href="../../lotlocator/6.png"  transform="matrix(0.1887 2.837918e-03 -2.837918e-03 0.1887 -93.6583 -290.6788)">
			</image>
		</g>
	</g>
	<g>
		<defs>
			<rect id="SVGID_177_" x="6" y="248.3" width="127.6" height="110.7"/>
		</defs>
		<clipPath id="SVGID_8_">
			<use xlink:href="#SVGID_177_"  overflow="visible"/>
		</clipPath>
		<g clip-path="url(#SVGID_8_)">
			<defs>
				<rect id="SVGID_179_" x="6" y="248.3" width="127.6" height="110.7"/>
			</defs>
			<clipPath id="SVGID_10_">
				<use xlink:href="#SVGID_179_"  overflow="visible"/>
			</clipPath>
			<g clip-path="url(#SVGID_10_)">
				
					<image overflow="visible" width="738" height="640" xlink:href="23F68C244F61A493.png"  transform="matrix(0.1729 0 0 0.1729 6.0048 248.3425)">
				</image>
			</g>
		</g>
	</g>
	<g>
		<defs>
			
				<rect id="SVGID_181_" x="25.3" y="-9.7" transform="matrix(-0.6561 -0.7547 0.7547 -0.6561 81.6844 133.7768)" width="92.1" height="116"/>
		</defs>
		<clipPath id="SVGID_12_">
			<use xlink:href="#SVGID_181_"  overflow="visible"/>
		</clipPath>
		<g clip-path="url(#SVGID_12_)">
			<defs>
				
					<rect id="SVGID_183_" x="13.3" y="2.2" transform="matrix(-0.7547 0.6561 -0.6561 -0.7547 156.8264 37.9163)" width="116" height="92.1"/>
			</defs>
			<clipPath id="SVGID_14_">
				<use xlink:href="#SVGID_183_"  overflow="visible"/>
			</clipPath>
			<g transform="matrix(1 0 0 1 1.430511e-06 0)" clip-path="url(#SVGID_14_)">
				
					<image overflow="visible" width="500" height="397" xlink:href="23F68C244F61A491.png"  transform="matrix(0.1751 -0.1522 0.1522 0.1751 -2.6654 51.5714)">
				</image>
			</g>
		</g>
	</g>
	<g>
		<defs>
			
				<rect id="SVGID_185_" x="42.7" y="101.5" transform="matrix(0.893 0.4501 -0.4501 0.893 85.6533 -12.831)" width="54.3" height="144.3"/>
		</defs>
		<clipPath id="SVGID_15_">
			<use xlink:href="#SVGID_185_"  overflow="visible"/>
		</clipPath>
		<g clip-path="url(#SVGID_15_)">
			<defs>
				
					<rect id="SVGID_187_" x="-8.8" y="130.8" transform="matrix(0.4501 -0.893 0.893 0.4501 -116.6424 157.8775)" width="157.3" height="85.8"/>
			</defs>
			<clipPath id="SVGID_17_">
				<use xlink:href="#SVGID_187_"  overflow="visible"/>
			</clipPath>
			<g clip-path="url(#SVGID_17_)">
				
					<image overflow="visible" width="607" height="331" xlink:href="23F68C244F61A49E.png"  transform="matrix(-0.1166 0.2314 -0.2314 -0.1166 143.5669 122.7317)">
				</image>
			</g>
		</g>
	</g>
</g>
<g id="Isolation_Mode">
	<g>
		<defs>
			<rect id="SVGID_203_" x="0" y="-796" width="360" height="360"/>
		</defs>
		<clipPath id="SVGID_19_">
			<use xlink:href="#SVGID_203_"  overflow="visible"/>
		</clipPath>
		<g clip-path="url(#SVGID_19_)">
			<g>
				<defs>
					<rect id="SVGID_205_" x="-2383.9" y="-854" width="2880.3" height="1924.1"/>
				</defs>
				<clipPath id="SVGID_20_">
					<use xlink:href="#SVGID_205_"  overflow="visible"/>
				</clipPath>
				<rect x="-2360.9" y="-833.7" clip-path="url(#SVGID_20_)" fill="#8DC63F" width="2833" height="1881"/>
				<polygon clip-path="url(#SVGID_20_)" fill="#83A656" points="-932.3,-833.7 -1618.3,-422.6 -2121.2,-107.5 -1578.6,213.4 
					-1080.5,-80.3 123.7,618.3 472.1,412.7 472.1,-833.7 				"/>
				<g clip-path="url(#SVGID_20_)">
					<defs>
						<rect id="SVGID_207_" x="-2360.9" y="-833.7" width="2833" height="1881"/>
					</defs>
					<clipPath id="SVGID_22_">
						<use xlink:href="#SVGID_207_"  overflow="visible"/>
					</clipPath>
					<polygon clip-path="url(#SVGID_22_)" fill="#67452A" points="344.2,456.2 227.8,525 111.5,456.2 167,423.4 -3.6,322.5 
						211.4,195.4 290.3,242.1 335.9,215.1 394,249.5 348.5,276.4 426.3,322.5 272.2,413.6 					"/>
				</g>
				<g clip-path="url(#SVGID_20_)">
					<defs>
						<rect id="SVGID_212_" x="-2360.9" y="-833.7" width="2833" height="1881"/>
					</defs>
					<clipPath id="SVGID_24_">
						<use xlink:href="#SVGID_212_"  overflow="visible"/>
					</clipPath>
				</g>
				<g clip-path="url(#SVGID_20_)">
					<defs>
						<rect id="SVGID_217_" x="-2360.9" y="-833.7" width="2833" height="1881"/>
					</defs>
					<clipPath id="SVGID_25_">
						<use xlink:href="#SVGID_217_"  overflow="visible"/>
					</clipPath>
				</g>
				<g clip-path="url(#SVGID_20_)">
					<defs>
						<rect id="SVGID_222_" x="-2360.9" y="-833.7" width="2833" height="1881"/>
					</defs>
					<clipPath id="SVGID_27_">
						<use xlink:href="#SVGID_222_"  overflow="visible"/>
					</clipPath>
				</g>
				<g clip-path="url(#SVGID_20_)">
					<defs>
						<rect id="SVGID_227_" x="-2360.9" y="-833.7" width="2833" height="1881"/>
					</defs>
					<clipPath id="SVGID_29_">
						<use xlink:href="#SVGID_227_"  overflow="visible"/>
					</clipPath>
				</g>
				<g clip-path="url(#SVGID_20_)">
					<defs>
						<rect id="SVGID_232_" x="-2360.9" y="-833.7" width="2833" height="1881"/>
					</defs>
					<clipPath id="SVGID_30_">
						<use xlink:href="#SVGID_232_"  overflow="visible"/>
					</clipPath>
				</g>
				<g clip-path="url(#SVGID_20_)">
					<defs>
						<rect id="SVGID_237_" x="-2360.9" y="-833.7" width="2833" height="1881"/>
					</defs>
					<clipPath id="SVGID_32_">
						<use xlink:href="#SVGID_237_"  overflow="visible"/>
					</clipPath>
				</g>
				<g clip-path="url(#SVGID_20_)">
					<defs>
						<rect id="SVGID_242_" x="-2360.9" y="-833.7" width="2833" height="1881"/>
					</defs>
					<clipPath id="SVGID_34_">
						<use xlink:href="#SVGID_242_"  overflow="visible"/>
					</clipPath>
				</g>
				<g clip-path="url(#SVGID_20_)">
					<defs>
						<rect id="SVGID_247_" x="-2360.9" y="-833.7" width="2833" height="1881"/>
					</defs>
					<clipPath id="SVGID_35_">
						<use xlink:href="#SVGID_247_"  overflow="visible"/>
					</clipPath>
					<polygon clip-path="url(#SVGID_35_)" fill="#C3913D" points="420.4,367.9 330,421.2 330,411 420.4,357.7 					"/>
					<polygon clip-path="url(#SVGID_35_)" fill="#CDA25F" points="420.4,357.7 330,411 325.6,408.4 415.9,355.1 					"/>
					<polygon clip-path="url(#SVGID_35_)" fill="#BCBEBF" points="320.7,62.1 -58.9,286.6 -58.9,27.7 320.7,-188.2 					"/>
				</g>
				<g clip-path="url(#SVGID_20_)">
					<defs>
						<rect id="SVGID_252_" x="-2360.9" y="-833.7" width="2833" height="1881"/>
					</defs>
					<clipPath id="SVGID_37_">
						<use xlink:href="#SVGID_252_"  overflow="visible"/>
					</clipPath>
				</g>
				<g clip-path="url(#SVGID_20_)">
					<defs>
						<rect id="SVGID_257_" x="-2360.9" y="-833.7" width="2833" height="1881"/>
					</defs>
					<clipPath id="SVGID_39_">
						<use xlink:href="#SVGID_257_"  overflow="visible"/>
					</clipPath>
					<polygon clip-path="url(#SVGID_39_)" fill="#2E2D2D" points="107,182.9 53.2,214.7 53.4,39.6 107.1,7.8 					"/>
					<polygon clip-path="url(#SVGID_39_)" fill="#EAE9E8" points="117.3,1.8 43.2,45.6 43.2,34.3 117.3,-9.4 					"/>
					<polygon clip-path="url(#SVGID_39_)" fill="#EAE9E8" points="43.2,229.8 53.1,223.9 53.1,39.8 43.2,45.6 					"/>
					<polygon clip-path="url(#SVGID_39_)" fill="#B6B3B3" points="107.5,189.2 117.7,183.2 117.7,2.4 107.5,8.5 					"/>
					<polyline clip-path="url(#SVGID_39_)" fill="#EAE9E8" points="117.3,1.8 117.3,185.9 107.1,192 107.1,7.8 					"/>
					<polygon clip-path="url(#SVGID_39_)" fill="#CECCCC" points="43.6,35 40.2,32.6 114.3,-11.1 117.7,-8.7 					"/>
					<polygon clip-path="url(#SVGID_39_)" fill="#B6B3B3" points="43.2,229.8 40.2,228 40.2,32.6 43.2,34.3 					"/>
					<polygon clip-path="url(#SVGID_39_)" fill="#B6B3B3" points="107.1,7.8 97.6,13.4 97.6,197.6 107.1,192 					"/>
					<polygon clip-path="url(#SVGID_39_)" fill="#808285" points="107.1,192 53.1,223.9 53.1,212.8 97.7,186.5 					"/>
					<polygon clip-path="url(#SVGID_39_)" fill="#B62025" points="333.1,-187.1 -46.5,37.4 -329.7,-131.7 49.9,-356.2 					"/>
					<polygon clip-path="url(#SVGID_39_)" fill="#8E9092" points="169.7,17.3 135,37.8 135,18.7 169.7,-1.8 					"/>
					<polygon clip-path="url(#SVGID_39_)" fill="#8E9092" points="320.3,10.6 285.6,31.1 285.6,11.9 320.3,-8.6 					"/>
					<polygon clip-path="url(#SVGID_39_)" fill="#EDEDED" points="190,24.3 155.3,44.8 155.3,25.6 190,5.1 					"/>
					<polygon clip-path="url(#SVGID_39_)" fill="#EDEDED" points="304.2,39.9 269.6,60.4 269.6,41.2 304.2,20.7 					"/>
					<polygon clip-path="url(#SVGID_39_)" fill="#CDA25F" points="294.8,80.5 312.9,51.9 283.9,45.4 					"/>
					<polygon clip-path="url(#SVGID_39_)" fill="#CDA25F" points="309.1,118.2 305.5,120.3 282.8,47.8 286.4,45.7 					"/>
					<polygon clip-path="url(#SVGID_39_)" fill="#C3913D" points="282.9,47.7 278.8,46.5 301.6,119.5 305.5,120.3 					"/>
					<polygon clip-path="url(#SVGID_39_)" fill="#C3913D" points="315.5,51.9 319.9,52.9 277.3,116.4 273.5,114.3 					"/>
					<polygon clip-path="url(#SVGID_39_)" fill="#999882" points="293.3,79.2 178.4,147.2 167.6,112.4 282.4,44.5 					"/>
					<polygon clip-path="url(#SVGID_39_)" fill="#CDA25F" points="297.3,80.4 182.4,148.4 172,113.4 286.5,45.7 					"/>
					<polygon clip-path="url(#SVGID_39_)" fill="#CDA25F" points="197.8,184.1 194.2,186.2 182.4,148.4 186,146.2 					"/>
					<polygon clip-path="url(#SVGID_39_)" fill="#D9D8D8" points="297.3,80.4 182.4,148.4 201.2,118.7 313.5,52.3 314.9,52.7 					
						"/>
					<polygon clip-path="url(#SVGID_39_)" fill="#A48552" points="301.1,82.5 186.2,150.4 205,120.8 319.9,52.9 					"/>
					<polygon clip-path="url(#SVGID_39_)" fill="#C3913D" points="171.6,113.3 167.6,112.4 190.4,185.4 194.2,186.2 					"/>
					<polygon clip-path="url(#SVGID_39_)" fill="#A48552" points="171,179.3 166.3,182.1 186.3,150.3 191,147.6 					"/>
					<polygon clip-path="url(#SVGID_39_)" fill="#C3913D" points="201.2,118.7 205,120.8 166,182.3 162.2,180.2 					"/>
					<polygon clip-path="url(#SVGID_39_)" fill="#A48552" points="282,113.7 277.3,116.4 315.2,55.6 319.9,52.9 					"/>
					<polygon clip-path="url(#SVGID_39_)" fill="#D7B681" points="319.9,52.9 282.4,44.5 279.5,46.2 317.2,54.5 					"/>
					<polygon clip-path="url(#SVGID_39_)" fill="#D7B681" points="282.4,44.5 286.8,45.4 172,113.4 167.6,112.4 					"/>
					<polygon clip-path="url(#SVGID_39_)" fill="#D7B681" points="314.6,51.7 319.9,52.9 205,120.8 201.2,118.7 					"/>
					<polygon clip-path="url(#SVGID_39_)" fill="#D7B681" points="207.7,119.2 170.3,110.8 167.6,112.4 205,120.8 					"/>
					<polygon clip-path="url(#SVGID_39_)" fill="#C3913D" points="182.4,148.4 200.6,119.8 171.6,113.3 					"/>
					<polygon clip-path="url(#SVGID_39_)" fill="#6CB7E5" points="296.3,62.5 286.5,60.5 192.9,115.9 202.5,118 					"/>
				</g>
				<g clip-path="url(#SVGID_20_)">
					<defs>
						<rect id="SVGID_268_" x="-2360.9" y="-833.7" width="2833" height="1881"/>
					</defs>
					<clipPath id="SVGID_40_">
						<use xlink:href="#SVGID_268_"  overflow="visible"/>
					</clipPath>
					<polygon clip-path="url(#SVGID_40_)" fill="#8DC63F" points="260.4,294.7 281,282.5 279.7,299.4 270,305.1 					"/>
					<polygon clip-path="url(#SVGID_40_)" fill="#D399A0" points="264.3,296.6 284.9,284.4 283.6,301.3 273.9,307 					"/>
					<polygon clip-path="url(#SVGID_40_)" fill="#C68D97" points="264.3,296.6 260.4,294.7 270,305.1 273.9,307 					"/>
					<polygon clip-path="url(#SVGID_40_)" fill="#E8BBC3" points="281,282.5 284.9,284.4 264.3,296.6 260.4,294.7 					"/>
					<polygon clip-path="url(#SVGID_40_)" fill="#D399A0" points="299.6,372.8 258,348.3 258,299.1 299.6,323.7 					"/>
					<polygon clip-path="url(#SVGID_40_)" fill="#DCB6BD" points="365.1,334.4 299.6,372.8 299.6,323.7 365.1,285.3 					"/>
					<polygon clip-path="url(#SVGID_40_)" fill="#F4E1E3" points="299.6,323.7 258,299.1 323.5,260.7 365.1,285.3 					"/>
					<polygon clip-path="url(#SVGID_40_)" fill="#DCB6BD" points="287.3,359.8 277.4,365.7 277.4,342.7 287.3,336.9 					"/>
					<polygon clip-path="url(#SVGID_40_)" fill="#D399A0" points="277.4,365.7 258,354.2 258,331.2 277.4,342.7 					"/>
					<polygon clip-path="url(#SVGID_40_)" fill="#261911" points="265.8,350.6 260.1,347.2 260.1,340.5 265.8,343.9 					"/>
					<polygon clip-path="url(#SVGID_40_)" fill="#261911" points="287.3,336.9 281.7,333.5 281.7,326.8 287.3,330.1 					"/>
					<polygon clip-path="url(#SVGID_40_)" fill="#261911" points="273.6,328.7 267.9,325.4 267.9,318.7 273.6,322 					"/>
					<polygon clip-path="url(#SVGID_40_)" fill="#261911" points="275.5,355.6 269.8,352.3 269.8,345.5 275.5,348.9 					"/>
					<polygon clip-path="url(#SVGID_40_)" fill="#F4E1E3" points="277.4,342.7 258,331.3 267.9,325.5 287.3,336.9 					"/>
					<polygon clip-path="url(#SVGID_40_)" fill="#8DC63F" points="304.1,323.2 324.7,311 323.4,327.9 313.7,333.6 					"/>
					<polygon clip-path="url(#SVGID_40_)" fill="#D399A0" points="307.9,325.1 328.6,312.9 327.3,329.8 317.6,335.5 					"/>
					<polygon clip-path="url(#SVGID_40_)" fill="#C68D97" points="307.9,325.1 304.1,323.2 313.7,333.6 317.6,335.5 					"/>
					<polygon clip-path="url(#SVGID_40_)" fill="#E8BBC3" points="324.7,311 328.6,312.9 307.9,325.1 304.1,323.2 					"/>
					<polygon clip-path="url(#SVGID_40_)" fill="#D399A0" points="187.1,344.8 181.5,351.4 175.1,347.4 174.3,337.2 					"/>
					<polygon clip-path="url(#SVGID_40_)" fill="#F4E1E3" points="184.5,346.8 171.7,339.1 174.3,337.2 187.1,344.8 					"/>
					<polygon clip-path="url(#SVGID_40_)" fill="#D8ABB3" points="184.5,346.8 178.9,353.4 172.5,349.4 171.7,339.1 					"/>
					<polygon clip-path="url(#SVGID_40_)" fill="#C68D97" points="178.9,353.4 181.5,351.4 187.1,344.8 184.5,346.8 					"/>
					<polygon clip-path="url(#SVGID_40_)" fill="#D399A0" points="163.2,391.1 115.3,362.7 115.3,334.1 163.2,362.5 					"/>
					<polygon clip-path="url(#SVGID_40_)" fill="#DCB6BD" points="188.9,375.8 163.2,390.8 163.2,362.5 188.9,347.5 					"/>
					<polygon clip-path="url(#SVGID_40_)" fill="#F4E1E3" points="163.2,362.5 115.3,334.1 141,319.1 188.9,347.5 					"/>
					<polygon clip-path="url(#SVGID_40_)" fill="#261911" points="182.8,363.4 179,365.7 179,361.2 182.8,358.9 					"/>
					<polygon clip-path="url(#SVGID_40_)" fill="#D399A0" points="159.8,363.3 154.2,369.8 147.8,365.9 147,355.6 					"/>
					<polygon clip-path="url(#SVGID_40_)" fill="#F4E1E3" points="157.2,365.2 144.4,357.6 147,355.6 159.8,363.3 					"/>
					<polygon clip-path="url(#SVGID_40_)" fill="#D8ABB3" points="157.2,365.2 151.6,371.8 145.2,367.8 144.4,357.6 					"/>
					<polygon clip-path="url(#SVGID_40_)" fill="#D399A0" points="245.2,255.6 238.7,263.2 231.3,258.7 230.4,246.8 					"/>
					<polygon clip-path="url(#SVGID_40_)" fill="#F4E1E3" points="242.2,257.9 227.4,249.1 230.4,246.8 245.2,255.6 					"/>
					<polygon clip-path="url(#SVGID_40_)" fill="#D8ABB3" points="242.2,257.9 235.8,265.5 228.3,260.9 227.4,249.1 					"/>
					<polygon clip-path="url(#SVGID_40_)" fill="#C68D97" points="235.8,265.5 238.7,263.2 245.2,255.6 242.2,257.9 					"/>
					<polygon clip-path="url(#SVGID_40_)" fill="#D399A0" points="217.6,309.2 162.1,276.3 162.1,243.2 217.6,276.1 					"/>
					<polygon clip-path="url(#SVGID_40_)" fill="#DCB6BD" points="247.3,291.5 217.6,308.9 217.6,276.1 247.3,258.7 					"/>
					<polygon clip-path="url(#SVGID_40_)" fill="#F4E1E3" points="217.6,276.1 162.1,243.2 191.9,225.8 247.3,258.7 					"/>
					<polygon clip-path="url(#SVGID_40_)" fill="#DCB6BD" points="247.7,296.8 233.3,305.2 233.3,289.8 247.7,281.4 					"/>
					<polygon clip-path="url(#SVGID_40_)" fill="#D399A0" points="233.3,305.2 225.9,301 225.9,285.6 233.3,289.8 					"/>
					<polygon clip-path="url(#SVGID_40_)" fill="#261911" points="239.1,297.5 234.7,300.1 234.7,294.9 239.1,292.3 					"/>
					<polygon clip-path="url(#SVGID_40_)" fill="#261911" points="240.3,277.1 235.9,279.7 235.9,274.5 240.3,271.9 					"/>
					<polygon clip-path="url(#SVGID_40_)" fill="#261911" points="230.3,283 225.9,285.6 225.9,280.4 230.3,277.8 					"/>
					<polygon clip-path="url(#SVGID_40_)" fill="#261911" points="246.4,293.1 242,295.7 242,290.5 246.4,287.9 					"/>
					<polygon clip-path="url(#SVGID_40_)" fill="#F4E1E3" points="233.3,289.8 225.9,285.6 240.3,277.2 247.7,281.4 					"/>
					<polygon clip-path="url(#SVGID_40_)" fill="#D399A0" points="213.6,277 207.1,284.6 199.7,280 198.8,268.1 					"/>
					<polygon clip-path="url(#SVGID_40_)" fill="#F4E1E3" points="210.7,279.3 195.8,270.4 198.8,268.1 213.6,277 					"/>
					<polygon clip-path="url(#SVGID_40_)" fill="#D8ABB3" points="210.7,279.3 204.2,286.8 196.8,282.3 195.8,270.4 					"/>
					<polygon clip-path="url(#SVGID_40_)" fill="#C68D97" points="204.2,286.8 207.1,284.6 213.6,277 210.7,279.3 					"/>
				</g>
			</g>
		</g>
	</g>
</g>
</svg>
