<?xml version="1.0" encoding="utf-8"?>
<!-- Generator: Adobe Illustrator 18.1.1, SVG Export Plug-In . SVG Version: 6.00 Build 0)  -->
<!DOCTYPE svg PUBLIC "-//W3C//DTD SVG 1.1//EN" "http://www.w3.org/Graphics/SVG/1.1/DTD/svg11.dtd">
<svg version="1.1" xmlns="http://www.w3.org/2000/svg" xmlns:xlink="http://www.w3.org/1999/xlink" x="0px" y="0px"
	 viewBox="0 0 360 360" enable-background="new 0 0 360 360" xml:space="preserve">
<g id="Layer_1">
	<rect fill="#D5E2E1" width="360" height="360"/>
	<g>
		
			<image overflow="visible" opacity="0.2" width="1608" height="1146" xlink:href="23CC74E4AD19FF27.png"  transform="matrix(0.24 0 0 0.24 -55.7042 138.2046)">
		</image>
		<g>
			
				<image overflow="visible" width="2394" height="1603" xlink:href="../../lotlocator/2.png"  transform="matrix(0.1887 0 0 0.1887 -101.8305 120.709)">
			</image>
		</g>
	</g>
	<g>
		<defs>
			<rect id="SVGID_74_" x="398" y="-398" width="360" height="360"/>
		</defs>
		<clipPath id="SVGID_2_">
			<use xlink:href="#SVGID_74_"  overflow="visible"/>
		</clipPath>
		<g clip-path="url(#SVGID_2_)">
			<g>
				<defs>
					<rect id="SVGID_76_" x="-1213.6" y="-989.8" width="1991.6" height="1298.9"/>
				</defs>
				<clipPath id="SVGID_4_">
					<use xlink:href="#SVGID_76_"  overflow="visible"/>
				</clipPath>
				<rect x="-1197.7" y="-976" clip-path="url(#SVGID_4_)" fill="#8DC63F" width="1958.9" height="1269.8"/>
				<polygon clip-path="url(#SVGID_4_)" fill="#83A656" points="-209.9,-976 -684.3,-698.6 -1032,-485.8 -656.8,-269.2 
					-312.4,-467.5 520.3,4.2 761.2,-134.6 761.2,-976 				"/>
				<polygon clip-path="url(#SVGID_4_)" fill="#E8E1AF" points="-407.5,293.8 126.9,293.8 539.4,55.6 272.7,-101.8 				"/>
				<g clip-path="url(#SVGID_4_)">
					<defs>
						<rect id="SVGID_78_" x="-1197.7" y="-976" width="1958.9" height="1269.8"/>
					</defs>
					<clipPath id="SVGID_6_">
						<use xlink:href="#SVGID_78_"  overflow="visible"/>
					</clipPath>
					<polygon clip-path="url(#SVGID_6_)" fill="#885A37" points="776.7,-31.4 186.1,309.6 779.1,309.1 					"/>
					<polygon clip-path="url(#SVGID_6_)" fill="#723F1A" points="773.1,49.6 325.7,307.7 325.7,302.3 773.1,44.2 					"/>
					<polygon clip-path="url(#SVGID_6_)" fill="#67452A" points="773.1,44.2 325.7,302.3 325.7,299.3 773.1,41.2 					"/>
					<polygon clip-path="url(#SVGID_6_)" fill="#723F1A" points="770.3,30.6 292.6,306.5 292.6,301.1 770.3,25.2 					"/>
					<polygon clip-path="url(#SVGID_6_)" fill="#67452A" points="770.3,25.2 292.6,301.1 292.6,298.1 770.3,22.2 					"/>
					<polygon clip-path="url(#SVGID_6_)" fill="#723F1A" points="768,12.7 261.2,304.9 261.2,299.6 768,7.3 					"/>
					<polygon clip-path="url(#SVGID_6_)" fill="#67452A" points="768,7.3 261.2,299.6 261.2,296.5 768,4.3 					"/>
					<polygon clip-path="url(#SVGID_6_)" fill="#723F1A" points="764.6,-5.7 222.2,307.7 222.2,302.3 764.6,-11.1 					"/>
					<polygon clip-path="url(#SVGID_6_)" fill="#67452A" points="764.6,-11.1 222.2,302.3 222.2,299.3 764.6,-14.1 					"/>
					<path clip-path="url(#SVGID_6_)" fill="#F7F296" d="M345.9,274.6c0,13.1,0.5,18.3-0.7,19c-1.1,0.7-0.5-4.5-0.5-17.6
						c0-13.1,0.4-19.8,0.4-19.8S345.9,261.5,345.9,274.6"/>
					<path clip-path="url(#SVGID_6_)" fill="#F7F296" d="M351,271.6c0,13.1,0.5,18.3-0.7,19c-1.1,0.7-0.5-4.5-0.5-17.6
						c0-13.1,0.4-19.8,0.4-19.8S351,258.6,351,271.6"/>
					<path clip-path="url(#SVGID_6_)" fill="#F7F296" d="M356.1,268.7c0,13.1,0.5,18.3-0.7,19c-1.1,0.7-0.5-4.5-0.5-17.6
						c0-13.1,0.4-19.8,0.4-19.8S356.1,255.6,356.1,268.7"/>
					<path clip-path="url(#SVGID_6_)" fill="#F7F296" d="M361.3,265.7c0,13.1,0.5,18.3-0.7,19c-1.1,0.7-0.5-4.5-0.5-17.6
						c0-13.1,0.4-19.8,0.4-19.8S361.3,252.6,361.3,265.7"/>
					<path clip-path="url(#SVGID_6_)" fill="#F7F296" d="M307.5,277.8c0,13.1,0.5,18.3-0.7,19s-0.5-4.5-0.5-17.6
						c0-13.1,0.4-19.8,0.4-19.8S307.5,264.7,307.5,277.8"/>
					<path clip-path="url(#SVGID_6_)" fill="#F7F296" d="M312.6,274.8c0,13.1,0.5,18.3-0.7,19c-1.1,0.7-0.5-4.5-0.5-17.6
						c0-13.1,0.4-19.8,0.4-19.8S312.6,261.7,312.6,274.8"/>
					<path clip-path="url(#SVGID_6_)" fill="#F7F296" d="M317.8,271.9c0,13.1,0.5,18.3-0.7,19c-1.1,0.7-0.5-4.5-0.5-17.6
						c0-13.1,0.4-19.8,0.4-19.8S317.8,258.8,317.8,271.9"/>
					<path clip-path="url(#SVGID_6_)" fill="#F7F296" d="M322.9,268.9c0,13.1,0.5,18.3-0.7,19c-1.1,0.7-0.5-4.5-0.5-17.6
						c0-13.1,0.4-19.8,0.4-19.8S322.9,255.8,322.9,268.9"/>
					<path clip-path="url(#SVGID_6_)" fill="#F7F296" d="M328,266c0,13.1,0.5,18.3-0.7,19c-1.1,0.7-0.5-4.5-0.5-17.6
						c0-13.1,0.4-19.8,0.4-19.8S328,252.9,328,266"/>
					<path clip-path="url(#SVGID_6_)" fill="#F7F296" d="M333.1,263c0,13.1,0.5,18.3-0.7,19s-0.5-4.5-0.5-17.6
						c0-13.1,0.4-19.8,0.4-19.8S333.1,249.9,333.1,263"/>
					<path clip-path="url(#SVGID_6_)" fill="#F7F296" d="M338.2,260.1c0,13.1,0.5,18.3-0.7,19c-1.1,0.7-0.5-4.5-0.5-17.6
						c0-13.1,0.4-19.8,0.4-19.8S338.2,247,338.2,260.1"/>
					<path clip-path="url(#SVGID_6_)" fill="#F7F296" d="M343.3,257.1c0,13.1,0.5,18.3-0.7,19c-1.1,0.7-0.5-4.5-0.5-17.6
						c0-13.1,0.4-19.8,0.4-19.8S343.3,244,343.3,257.1"/>
					<path clip-path="url(#SVGID_6_)" fill="#F7F296" d="M348.4,254.2c0,13.1,0.5,18.3-0.7,19c-1.1,0.7-0.5-4.5-0.5-17.6
						c0-13.1,0.4-19.8,0.4-19.8S348.4,241.1,348.4,254.2"/>
					<path clip-path="url(#SVGID_6_)" fill="#F7F296" d="M353.5,251.2c0,13.1,0.5,18.3-0.7,19c-1.1,0.7-0.5-4.5-0.5-17.6
						c0-13.1,0.4-19.8,0.4-19.8S353.5,238.1,353.5,251.2"/>
					<path clip-path="url(#SVGID_6_)" fill="#F7F296" d="M358.7,248.3c0,13.1,0.5,18.3-0.7,19c-1.1,0.7-0.5-4.5-0.5-17.6
						c0-13.1,0.4-19.8,0.4-19.8S358.7,235.2,358.7,248.3"/>
					<path clip-path="url(#SVGID_6_)" fill="#F7F296" d="M274.1,277.5c0,13.1,0.5,18.3-0.7,19c-1.1,0.7-0.5-4.5-0.5-17.6
						c0-13.1,0.4-19.8,0.4-19.8S274.1,264.4,274.1,277.5"/>
					<path clip-path="url(#SVGID_6_)" fill="#F7F296" d="M279.2,274.5c0,13.1,0.5,18.3-0.7,19c-1.1,0.7-0.5-4.5-0.5-17.6
						c0-13.1,0.4-19.8,0.4-19.8S279.2,261.5,279.2,274.5"/>
					<path clip-path="url(#SVGID_6_)" fill="#F7F296" d="M284.3,271.6c0,13.1,0.5,18.3-0.7,19c-1.1,0.7-0.5-4.5-0.5-17.6
						c0-13.1,0.4-19.8,0.4-19.8S284.3,258.5,284.3,271.6"/>
					<path clip-path="url(#SVGID_6_)" fill="#F7F296" d="M289.4,268.6c0,13.1,0.5,18.3-0.7,19c-1.1,0.7-0.5-4.5-0.5-17.6
						c0-13.1,0.4-19.8,0.4-19.8S289.4,255.6,289.4,268.6"/>
					<path clip-path="url(#SVGID_6_)" fill="#F7F296" d="M294.5,265.7c0,13.1,0.5,18.3-0.7,19c-1.1,0.7-0.5-4.5-0.5-17.6
						c0-13.1,0.4-19.8,0.4-19.8S294.5,252.6,294.5,265.7"/>
					<path clip-path="url(#SVGID_6_)" fill="#F7F296" d="M299.6,262.7c0,13.1,0.5,18.3-0.7,19c-1.1,0.7-0.5-4.5-0.5-17.6
						c0-13.1,0.4-19.8,0.4-19.8S299.6,249.7,299.6,262.7"/>
					<path clip-path="url(#SVGID_6_)" fill="#F7F296" d="M304.7,259.8c0,13.1,0.5,18.3-0.7,19c-1.1,0.7-0.5-4.5-0.5-17.6
						c0-13.1,0.4-19.8,0.4-19.8S304.7,246.7,304.7,259.8"/>
					<path clip-path="url(#SVGID_6_)" fill="#F7F296" d="M309.9,256.8c0,13.1,0.5,18.3-0.7,19c-1.1,0.7-0.5-4.5-0.5-17.6
						c0-13.1,0.4-19.8,0.4-19.8S309.9,243.8,309.9,256.8"/>
					<path clip-path="url(#SVGID_6_)" fill="#F7F296" d="M315,253.9c0,13.1,0.5,18.3-0.7,19c-1.1,0.7-0.5-4.5-0.5-17.6
						c0-13.1,0.4-19.8,0.4-19.8S315,240.8,315,253.9"/>
					<path clip-path="url(#SVGID_6_)" fill="#F7F296" d="M320.1,250.9c0,13.1,0.5,18.3-0.7,19s-0.5-4.5-0.5-17.6
						c0-13.1,0.4-19.8,0.4-19.8S320.1,237.9,320.1,250.9"/>
					<path clip-path="url(#SVGID_6_)" fill="#F7F296" d="M325.2,248c0,13.1,0.5,18.3-0.7,19c-1.1,0.7-0.5-4.5-0.5-17.6
						c0-13.1,0.4-19.8,0.4-19.8S325.2,234.9,325.2,248"/>
					<path clip-path="url(#SVGID_6_)" fill="#F7F296" d="M330.3,245c0,13.1,0.5,18.3-0.7,19c-1.1,0.7-0.5-4.5-0.5-17.6
						c0-13.1,0.4-19.8,0.4-19.8S330.3,231.9,330.3,245"/>
					<path clip-path="url(#SVGID_6_)" fill="#F7F296" d="M335.4,242.1c0,13.1,0.5,18.3-0.7,19c-1.1,0.7-0.5-4.5-0.5-17.6
						c0-13.1,0.4-19.8,0.4-19.8S335.4,229,335.4,242.1"/>
					<path clip-path="url(#SVGID_6_)" fill="#F7F296" d="M340.5,239.1c0,13.1,0.5,18.3-0.7,19c-1.1,0.7-0.5-4.5-0.5-17.6
						c0-13.1,0.4-19.8,0.4-19.8S340.5,226,340.5,239.1"/>
					<path clip-path="url(#SVGID_6_)" fill="#F7F296" d="M345.6,236.2c0,13.1,0.5,18.3-0.7,19c-1.1,0.7-0.5-4.5-0.5-17.6
						c0-13.1,0.4-19.8,0.4-19.8S345.6,223.1,345.6,236.2"/>
					<path clip-path="url(#SVGID_6_)" fill="#F7F296" d="M350.8,233.2c0,13.1,0.5,18.3-0.7,19c-1.1,0.7-0.5-4.5-0.5-17.6
						c0-13.1,0.4-19.8,0.4-19.8S350.8,220.1,350.8,233.2"/>
					<path clip-path="url(#SVGID_6_)" fill="#F7F296" d="M355.9,230.3c0,13.1,0.5,18.3-0.7,19c-1.1,0.7-0.5-4.5-0.5-17.6
						c0-13.1,0.4-19.8,0.4-19.8S355.9,217.2,355.9,230.3"/>
					<path clip-path="url(#SVGID_6_)" fill="#F7F296" d="M361,227.3c0,13.1,0.5,18.3-0.7,19c-1.1,0.7-0.5-4.5-0.5-17.6
						c0-13.1,0.4-19.8,0.4-19.8S361,214.2,361,227.3"/>
					<path clip-path="url(#SVGID_6_)" fill="#F7F296" d="M240.3,276.4c0,13.1,0.5,18.3-0.7,19c-1.1,0.7-0.5-4.5-0.5-17.6
						c0-13.1,0.4-19.8,0.4-19.8S240.3,263.3,240.3,276.4"/>
					<path clip-path="url(#SVGID_6_)" fill="#F7F296" d="M245.5,273.5c0,13.1,0.5,18.3-0.7,19c-1.1,0.7-0.5-4.5-0.5-17.6
						c0-13.1,0.4-19.8,0.4-19.8S245.5,260.4,245.5,273.5"/>
					<path clip-path="url(#SVGID_6_)" fill="#F7F296" d="M250.6,270.5c0,13.1,0.5,18.3-0.7,19s-0.5-4.5-0.5-17.6
						c0-13.1,0.4-19.8,0.4-19.8S250.6,257.4,250.6,270.5"/>
					<path clip-path="url(#SVGID_6_)" fill="#F7F296" d="M255.7,267.6c0,13.1,0.5,18.3-0.7,19c-1.1,0.7-0.5-4.5-0.5-17.6
						c0-13.1,0.4-19.8,0.4-19.8S255.7,254.5,255.7,267.6"/>
					<path clip-path="url(#SVGID_6_)" fill="#F7F296" d="M260.8,264.6c0,13.1,0.5,18.3-0.7,19c-1.1,0.7-0.5-4.5-0.5-17.6
						c0-13.1,0.4-19.8,0.4-19.8S260.8,251.5,260.8,264.6"/>
					<path clip-path="url(#SVGID_6_)" fill="#F7F296" d="M265.9,261.7c0,13.1,0.5,18.3-0.7,19c-1.1,0.7-0.5-4.5-0.5-17.6
						c0-13.1,0.4-19.8,0.4-19.8S265.9,248.6,265.9,261.7"/>
					<path clip-path="url(#SVGID_6_)" fill="#F7F296" d="M271,258.7c0,13.1,0.5,18.3-0.7,19c-1.1,0.7-0.5-4.5-0.5-17.6
						c0-13.1,0.4-19.8,0.4-19.8S271,245.6,271,258.7"/>
					<path clip-path="url(#SVGID_6_)" fill="#F7F296" d="M276.1,255.8c0,13.1,0.5,18.3-0.7,19c-1.1,0.7-0.5-4.5-0.5-17.6
						c0-13.1,0.4-19.8,0.4-19.8S276.1,242.7,276.1,255.8"/>
					<path clip-path="url(#SVGID_6_)" fill="#F7F296" d="M281.2,252.8c0,13.1,0.5,18.3-0.7,19c-1.1,0.7-0.5-4.5-0.5-17.6
						c0-13.1,0.4-19.8,0.4-19.8S281.2,239.7,281.2,252.8"/>
					<path clip-path="url(#SVGID_6_)" fill="#F7F296" d="M286.4,249.9c0,13.1,0.5,18.3-0.7,19c-1.1,0.7-0.5-4.5-0.5-17.6
						c0-13.1,0.4-19.8,0.4-19.8S286.4,236.8,286.4,249.9"/>
					<path clip-path="url(#SVGID_6_)" fill="#F7F296" d="M291.5,246.9c0,13.1,0.5,18.3-0.7,19c-1.1,0.7-0.5-4.5-0.5-17.6
						c0-13.1,0.4-19.8,0.4-19.8S291.5,233.8,291.5,246.9"/>
					<path clip-path="url(#SVGID_6_)" fill="#F7F296" d="M296.6,243.9c0,13.1,0.5,18.3-0.7,19c-1.1,0.7-0.5-4.5-0.5-17.6
						c0-13.1,0.4-19.8,0.4-19.8S296.6,230.9,296.6,243.9"/>
					<path clip-path="url(#SVGID_6_)" fill="#F7F296" d="M301.7,241c0,13.1,0.5,18.3-0.7,19c-1.1,0.7-0.5-4.5-0.5-17.6
						c0-13.1,0.4-19.8,0.4-19.8S301.7,227.9,301.7,241"/>
					<path clip-path="url(#SVGID_6_)" fill="#F7F296" d="M306.8,238c0,13.1,0.5,18.3-0.7,19c-1.1,0.7-0.5-4.5-0.5-17.6
						c0-13.1,0.4-19.8,0.4-19.8S306.8,225,306.8,238"/>
					<path clip-path="url(#SVGID_6_)" fill="#F7F296" d="M311.9,235.1c0,13.1,0.5,18.3-0.7,19c-1.1,0.7-0.5-4.5-0.5-17.6
						c0-13.1,0.4-19.8,0.4-19.8S311.9,222,311.9,235.1"/>
					<path clip-path="url(#SVGID_6_)" fill="#F7F296" d="M317,232.1c0,13.1,0.5,18.3-0.7,19c-1.1,0.7-0.5-4.5-0.5-17.6
						c0-13.1,0.4-19.8,0.4-19.8S317,219.1,317,232.1"/>
					<path clip-path="url(#SVGID_6_)" fill="#F7F296" d="M322.1,229.2c0,13.1,0.5,18.3-0.7,19c-1.1,0.7-0.5-4.5-0.5-17.6
						c0-13.1,0.4-19.8,0.4-19.8S322.1,216.1,322.1,229.2"/>
					<path clip-path="url(#SVGID_6_)" fill="#F7F296" d="M327.3,226.2c0,13.1,0.5,18.3-0.7,19c-1.1,0.7-0.5-4.5-0.5-17.6
						c0-13.1,0.4-19.8,0.4-19.8S327.3,213.2,327.3,226.2"/>
					<path clip-path="url(#SVGID_6_)" fill="#F7F296" d="M332.4,223.3c0,13.1,0.5,18.3-0.7,19c-1.1,0.7-0.5-4.5-0.5-17.6
						c0-13.1,0.4-19.8,0.4-19.8S332.4,210.2,332.4,223.3"/>
					<path clip-path="url(#SVGID_6_)" fill="#F7F296" d="M337.5,220.3c0,13.1,0.5,18.3-0.7,19c-1.1,0.7-0.5-4.5-0.5-17.6
						c0-13.1,0.4-19.8,0.4-19.8S337.5,207.3,337.5,220.3"/>
					<path clip-path="url(#SVGID_6_)" fill="#F7F296" d="M342.6,217.4c0,13.1,0.5,18.3-0.7,19c-1.1,0.7-0.5-4.5-0.5-17.6
						c0-13.1,0.4-19.8,0.4-19.8S342.6,204.3,342.6,217.4"/>
					<path clip-path="url(#SVGID_6_)" fill="#F7F296" d="M347.7,214.4c0,13.1,0.5,18.3-0.7,19c-1.1,0.7-0.5-4.5-0.5-17.6
						c0-13.1,0.4-19.8,0.4-19.8S347.7,201.4,347.7,214.4"/>
					<path clip-path="url(#SVGID_6_)" fill="#F7F296" d="M352.8,211.5c0,13.1,0.5,18.3-0.7,19c-1.1,0.7-0.5-4.5-0.5-17.6
						c0-13.1,0.4-19.8,0.4-19.8S352.8,198.4,352.8,211.5"/>
					<path clip-path="url(#SVGID_6_)" fill="#F7F296" d="M357.9,208.5c0,13.1,0.5,18.3-0.7,19c-1.1,0.7-0.5-4.5-0.5-17.6
						c0-13.1,0.4-19.8,0.4-19.8S357.9,195.5,357.9,208.5"/>
				</g>
				<g clip-path="url(#SVGID_4_)">
					<defs>
						<rect id="SVGID_83_" x="-1197.7" y="-976" width="1958.9" height="1269.8"/>
					</defs>
					<clipPath id="SVGID_8_">
						<use xlink:href="#SVGID_83_"  overflow="visible"/>
					</clipPath>
				</g>
				<g clip-path="url(#SVGID_4_)">
					<defs>
						<rect id="SVGID_88_" x="-1197.7" y="-976" width="1958.9" height="1269.8"/>
					</defs>
					<clipPath id="SVGID_10_">
						<use xlink:href="#SVGID_88_"  overflow="visible"/>
					</clipPath>
				</g>
				<g clip-path="url(#SVGID_4_)">
					<defs>
						<rect id="SVGID_93_" x="-1197.7" y="-976" width="1958.9" height="1269.8"/>
					</defs>
					<clipPath id="SVGID_12_">
						<use xlink:href="#SVGID_93_"  overflow="visible"/>
					</clipPath>
				</g>
				<g clip-path="url(#SVGID_4_)">
					<defs>
						<rect id="SVGID_98_" x="-1197.7" y="-976" width="1958.9" height="1269.8"/>
					</defs>
					<clipPath id="SVGID_14_">
						<use xlink:href="#SVGID_98_"  overflow="visible"/>
					</clipPath>
				</g>
				<g clip-path="url(#SVGID_4_)">
					<defs>
						<rect id="SVGID_103_" x="-1197.7" y="-976" width="1958.9" height="1269.8"/>
					</defs>
					<clipPath id="SVGID_15_">
						<use xlink:href="#SVGID_103_"  overflow="visible"/>
					</clipPath>
				</g>
				<g clip-path="url(#SVGID_4_)">
					<defs>
						<rect id="SVGID_108_" x="-1197.7" y="-976" width="1958.9" height="1269.8"/>
					</defs>
					<clipPath id="SVGID_17_">
						<use xlink:href="#SVGID_108_"  overflow="visible"/>
					</clipPath>
				</g>
				<g clip-path="url(#SVGID_4_)">
					<defs>
						<rect id="SVGID_113_" x="-1197.7" y="-976" width="1958.9" height="1269.8"/>
					</defs>
					<clipPath id="SVGID_19_">
						<use xlink:href="#SVGID_113_"  overflow="visible"/>
					</clipPath>
				</g>
				<g clip-path="url(#SVGID_4_)">
					<defs>
						<rect id="SVGID_118_" x="-1197.7" y="-976" width="1958.9" height="1269.8"/>
					</defs>
					<clipPath id="SVGID_20_">
						<use xlink:href="#SVGID_118_"  overflow="visible"/>
					</clipPath>
					<path clip-path="url(#SVGID_20_)" fill="#686868" d="M294.2,140.4c0,8.8-5.6,19.5-12.6,23.9c-3.2,2-6.2,2.4-8.4,1.2l-3.9-2
						c-2.5-1.3-4.1-4.5-4.1-9.2c0-8.8,5.7-19.5,12.6-23.9c3.3-2,6.2-2.4,8.5-1.2l3.8,2C292.6,132.5,294.2,135.7,294.2,140.4"/>
					<path clip-path="url(#SVGID_20_)" fill="#B7B7B8" d="M288.7,146.3c0,3.8-2.5,8.5-5.5,10.4c-3,1.9-5.5,0.4-5.5-3.5
						c0-3.8,2.5-8.5,5.5-10.4C286.2,140.9,288.7,142.5,288.7,146.3"/>
					<polygon clip-path="url(#SVGID_20_)" fill="#CC2027" points="236.2,22.9 253.2,33.6 330.7,-15.2 330.7,-34.6 					"/>
					<polygon clip-path="url(#SVGID_20_)" fill="#020202" points="415,37.5 331,-15.4 235.3,44.9 319.3,97.9 					"/>
					<polygon clip-path="url(#SVGID_20_)" fill="#D13842" points="269,110.7 198.5,65.6 170.1,83.9 245.9,136.4 					"/>
					<polygon clip-path="url(#SVGID_20_)" fill="#B72028" points="245.9,172.1 245.9,136.4 170.1,83.9 170.1,119.7 					"/>
					<polygon clip-path="url(#SVGID_20_)" fill="#C62127" points="415,37.5 330.7,-15.2 330.7,-34.6 415,18.2 					"/>
					<path clip-path="url(#SVGID_20_)" fill="#D13842" d="M330.4-37.3L234.8,23L317,80.2l98-61.9L330.4-37.3z M316.4,76.3
						l-79.1-52.1L330.5-34l79,52.1L316.4,76.3z"/>
					<polygon clip-path="url(#SVGID_20_)" fill="#CC2027" points="415,18.3 414.9,67.3 245.9,172.1 245.9,136.4 269.7,110 					"/>
					<polygon clip-path="url(#SVGID_20_)" fill="#D13842" points="213.2,14.3 283.2,59.1 317,37.5 247,-7.3 					"/>
					<polygon clip-path="url(#SVGID_20_)" fill="#C62127" points="198.5,65.6 269,110.7 283.7,59.4 213.2,14.3 					"/>
					<polygon clip-path="url(#SVGID_20_)" fill="#B8DDF5" points="203.4,61.3 267.2,101.7 277.8,64.7 214,24.2 					"/>
					<polygon clip-path="url(#SVGID_20_)" fill="#CC2027" points="317,80.2 269,110.7 283.2,59.1 317,37.5 					"/>
					<polygon clip-path="url(#SVGID_20_)" fill="#B8DDF5" points="312.8,78.8 276.1,102.1 287,62.7 312.8,46.2 					"/>
					<path clip-path="url(#SVGID_20_)" fill="#FBB376" d="M182.5,107.2l-5.7-3.6c-1.4-0.9-2.6-3.3-2.6-5.3v-1.4c0-2.1,1.1-3,2.6-2.1
						l5.7,3.6c1.4,0.9,2.6,3.3,2.6,5.3v1.4C185.1,107.1,183.9,108.1,182.5,107.2"/>
					<path clip-path="url(#SVGID_20_)" fill="#FBB376" d="M235.4,144.3l-5.7-3.6c-1.4-0.9-2.6-3.3-2.6-5.3V134c0-2.1,1.1-3,2.6-2.1
						l5.7,3.6c1.4,0.9,2.6,3.3,2.6,5.3v1.4C237.9,144.3,236.8,145.2,235.4,144.3"/>
					<path clip-path="url(#SVGID_20_)" fill="#444545" d="M219.4,148.4l-28.5-19.6c-1.5-1-2.7-3.5-2.7-5.7v-9.6
						c0-2.2,1.2-3.2,2.7-2.3l28.5,19.6c1.5,1,2.7,3.5,2.7,5.7v9.6C222.2,148.3,220.9,149.3,219.4,148.4"/>
					<path clip-path="url(#SVGID_20_)" fill="#B72028" d="M291.1,106.5c0,1.3-0.4,2.4-1,3c-0.1,0.1-0.2,0.2-0.4,0.3
						c0,0.1-0.1,0.2-0.1,0.2l-0.2,0.2c-0.8,0.8-2,0.9-3.4,0.1c-3.1-1.8-6.9-6.2-8.2-9.3l-3.9-2.5l-0.1-2.7l0.7-0.7l3.7,2.3l0.3,0.2
						c0,0,0-0.4,0.3-0.7v0c0-0.1,0.1-0.1,0.1-0.2l0.2-0.2c0.8-0.8,2.7-1.3,7.1,1.2C288.9,99.1,291.1,103.2,291.1,106.5"/>
					<path clip-path="url(#SVGID_20_)" fill="#B72028" d="M279.5,102.9c-0.2,0.4-0.3,0.7-0.3,0.7l-0.3-0.2c0.1-0.1,0.1-0.2,0.2-0.2
						l0.1-0.1C279.3,103,279.4,103,279.5,102.9"/>
					<path clip-path="url(#SVGID_20_)" fill="#B62025" d="M317.8,96.5c0,0-1.6,8.1-6.4,4.1L317.8,96.5z"/>
					<path clip-path="url(#SVGID_20_)" fill="#050606" d="M203.9,123.8c0,0,0.1,0.8,0.1,1.9c0.1,1.1,0.1,2.6,0.1,4.1
						c0,1.5,0,3-0.1,4.1c-0.1,1.1-0.1,1.9-0.1,1.9s-0.1-0.8-0.1-1.9c-0.1-1.1-0.1-2.6-0.1-4.1c0-1.5,0-3,0.1-4.1
						C203.9,124.6,203.9,123.8,203.9,123.8"/>
					<path clip-path="url(#SVGID_20_)" fill="#050606" d="M192.8,115.8c0,0,0.1,0.8,0.1,1.9c0.1,1.1,0.1,2.6,0.1,4.1
						c0,1.5,0,3-0.1,4.1c-0.1,1.1-0.1,1.9-0.1,1.9s-0.1-0.8-0.1-1.9c-0.1-1.1-0.1-2.6-0.1-4.1c0-1.5,0-3,0.1-4.1
						C192.7,116.5,192.8,115.8,192.8,115.8"/>
					<path clip-path="url(#SVGID_20_)" fill="#050606" d="M217,132.5c0,0,0.1,0.8,0.1,1.9c0.1,1.1,0.1,2.6,0.1,4.1
						c0,1.5,0,3-0.1,4.1c-0.1,1.1-0.1,1.9-0.1,1.9s-0.1-0.8-0.1-1.9c-0.1-1.1-0.1-2.6-0.1-4.1c0-1.5,0-3,0.1-4.1
						C216.9,133.2,217,132.5,217,132.5"/>
					<path clip-path="url(#SVGID_20_)" d="M191,116.5c0,0,1.9,1.1,4.6,2.9c1.4,0.9,3,1.9,4.6,3c1.7,1.1,3.5,2.3,5.3,3.6
						c1.8,1.2,3.5,2.5,5.2,3.6c1.7,1.2,3.2,2.3,4.5,3.2c2.6,1.9,4.3,3.2,4.3,3.2s-1.9-1.1-4.6-2.9c-1.4-0.9-3-1.9-4.6-3
						c-1.7-1.1-3.5-2.3-5.3-3.6c-1.8-1.2-3.5-2.5-5.2-3.6c-1.7-1.2-3.2-2.3-4.5-3.2C192.7,117.9,191,116.5,191,116.5"/>
					<path clip-path="url(#SVGID_20_)" d="M190.8,120.3c0,0,1.9,1.1,4.6,2.9c1.4,0.9,3,1.9,4.6,3c1.7,1.1,3.5,2.3,5.3,3.6
						c1.8,1.2,3.5,2.5,5.2,3.6c1.7,1.2,3.2,2.3,4.5,3.2c2.6,1.9,4.3,3.2,4.3,3.2s-1.9-1.1-4.6-2.9c-1.4-0.9-3-1.9-4.6-3
						c-1.7-1.1-3.5-2.3-5.3-3.6c-1.8-1.2-3.5-2.5-5.2-3.6c-1.7-1.2-3.2-2.3-4.5-3.2C192.5,121.7,190.8,120.3,190.8,120.3"/>
					<path clip-path="url(#SVGID_20_)" d="M190.8,124.4c0,0,1.9,1.1,4.6,2.9c1.4,0.9,3,1.9,4.6,3c1.7,1.1,3.5,2.3,5.3,3.6
						c1.8,1.2,3.5,2.5,5.2,3.6c1.7,1.2,3.2,2.3,4.5,3.2c2.6,1.9,4.3,3.2,4.3,3.2s-1.9-1.1-4.6-2.9c-1.4-0.9-3-1.9-4.6-3
						c-1.7-1.1-3.5-2.3-5.3-3.6c-1.8-1.2-3.5-2.5-5.2-3.6c-1.7-1.2-3.2-2.3-4.5-3.2C192.5,125.7,190.8,124.4,190.8,124.4"/>
				</g>
				<g clip-path="url(#SVGID_4_)">
					<defs>
						<rect id="SVGID_123_" x="-1197.7" y="-976" width="1958.9" height="1269.8"/>
					</defs>
					<clipPath id="SVGID_22_">
						<use xlink:href="#SVGID_123_"  overflow="visible"/>
					</clipPath>
				</g>
				<g clip-path="url(#SVGID_4_)">
					<defs>
						<rect id="SVGID_128_" x="-1197.7" y="-976" width="1958.9" height="1269.8"/>
					</defs>
					<clipPath id="SVGID_24_">
						<use xlink:href="#SVGID_128_"  overflow="visible"/>
					</clipPath>
				</g>
				<g clip-path="url(#SVGID_4_)">
					<defs>
						<rect id="SVGID_139_" x="-1197.7" y="-976" width="1958.9" height="1269.8"/>
					</defs>
					<clipPath id="SVGID_25_">
						<use xlink:href="#SVGID_139_"  overflow="visible"/>
					</clipPath>
					<path clip-path="url(#SVGID_25_)" fill="#634D34" d="M0.9,95.2c-0.3-4.7-6.5-6.7-10.3-7.2c-0.9-0.1-1.8-0.2-2.8-0.3
						c-1-0.1-2,0.1-3-0.1c-1-0.1-1.9-1.1-2.6-1.9c-0.8-0.9-1.5-2.1-1.4-3.3c-0.1,1.1-0.2,2.2,0.1,3.3c0.3,1.1,0.7,2.1,1.4,3
						c1,1.3,2.2,2.3,3.8,2.7c1.2,0.3,2.4,0.2,3.6,0.3c1,0.1,2,0.3,2.9,0.5c1.9,0.6,3.5,1.6,4.4,3.4c0.4,0.8,1,1.6,1.9,1.6
						C0.1,97.2,1,96.3,0.9,95.2"/>
					<path clip-path="url(#SVGID_25_)" fill="#87745F" d="M-18,80.2l-1.1,2.2c-0.2,0.4,0.2,1.4,0.4,1.8c0.8,1.8,2.5,3.6,4.5,3.7
						c1.1,0.1,2.1-0.2,3.2-0.1c0.6,0,1.1,0.1,1.7,0.2c1.6,0.3,3.2,0.7,4.7,1.3c1.8,0.7,3.6,1.9,4.7,3.5c0,0,1.3,2,0.6,3.4L2,93.6
						c0,0,0.7-4.9-7.3-7.2c0,0-3.6-1-8-0.9C-13.3,85.5-16.4,85.8-18,80.2"/>
					<polygon clip-path="url(#SVGID_25_)" fill="#B5B5B6" points="0.8,135.8 -21.7,148.7 -21.7,124.5 0.8,111.6 					"/>
					<polygon clip-path="url(#SVGID_25_)" fill="#7D7D7D" points="-21.7,124.5 -63.7,100.2 -41.2,87.3 0.8,111.6 					"/>
					<polygon clip-path="url(#SVGID_25_)" fill="#C1C1C1" points="7,118.6 -10.6,128.7 -10.6,110.3 7,100.2 					"/>
					<polygon clip-path="url(#SVGID_25_)" fill="#8F8E8E" points="-10.6,110.3 -30.8,98.9 -13.1,88.7 7,100.2 					"/>
					<polygon clip-path="url(#SVGID_25_)" fill="#39171C" points="-7.4,117.8 2.6,112 -2.3,121.6 					"/>
					<polygon clip-path="url(#SVGID_25_)" fill="#CECCCC" points="-3.8,118.9 6.2,113.1 1.3,122.7 					"/>
					<polygon clip-path="url(#SVGID_25_)" fill="#8F8E8E" points="2.6,112 -7.4,117.8 -3.8,118.9 6.2,113.1 					"/>
					<polygon clip-path="url(#SVGID_25_)" fill="#5C5C5C" points="1.3,122.7 -3.8,118.9 -7.4,117.8 -2.3,121.6 					"/>
					<polygon clip-path="url(#SVGID_25_)" fill="#39171C" points="-0.8,117.9 2.1,116.2 0.7,119 					"/>
					<polygon clip-path="url(#SVGID_25_)" fill="#848484" points="0.3,118.2 3.2,116.6 1.8,119.3 					"/>
					<polygon clip-path="url(#SVGID_25_)" fill="#707071" points="2.1,116.2 -0.8,117.9 0.3,118.2 3.2,116.6 					"/>
					<polygon clip-path="url(#SVGID_25_)" fill="#504F4F" points="1.8,119.3 0.3,118.2 -0.8,117.9 0.7,119 					"/>
					<polygon clip-path="url(#SVGID_25_)" fill="#B5B5B6" points="73.4,57.9 73.4,33.6 77.3,31.3 77.3,55.7 					"/>
					<polygon clip-path="url(#SVGID_25_)" fill="#4A494A" points="69.7,55.8 73.4,57.9 73.4,33.6 69.7,31.5 					"/>
					<polygon clip-path="url(#SVGID_25_)" fill="#383838" points="73.4,61.5 73.4,57.9 77.3,55.6 77.3,59.2 					"/>
					<polygon clip-path="url(#SVGID_25_)" fill="#0D0D0D" points="69.7,59.4 73.4,61.5 73.4,57.9 69.7,55.8 					"/>
					<polygon clip-path="url(#SVGID_25_)" fill="#B5B5B6" points="106.9,41.5 106.9,17.1 110.9,14.8 110.9,39.2 					"/>
					<polygon clip-path="url(#SVGID_25_)" fill="#4A494A" points="103.3,39.4 106.9,41.5 106.9,17.1 103.3,15 					"/>
					<polygon clip-path="url(#SVGID_25_)" fill="#383838" points="106.9,45.1 106.9,41.4 110.9,39.1 110.9,42.8 					"/>
					<polygon clip-path="url(#SVGID_25_)" fill="#0D0D0D" points="103.3,43 106.9,45.1 106.9,41.4 103.3,39.3 					"/>
					<polygon clip-path="url(#SVGID_25_)" fill="#B5B5B6" points="53.6,48.3 53.6,23.9 57.6,21.6 57.6,46 					"/>
					<polygon clip-path="url(#SVGID_25_)" fill="#4A494A" points="50,46.2 53.6,48.3 53.6,23.9 50,21.8 					"/>
					<polygon clip-path="url(#SVGID_25_)" fill="#383838" points="53.6,51.9 53.6,48.2 57.6,45.9 57.6,49.6 					"/>
					<polygon clip-path="url(#SVGID_25_)" fill="#0D0D0D" points="50,49.8 53.6,51.9 53.6,48.2 50,46.1 					"/>
					<polygon clip-path="url(#SVGID_25_)" fill="#B5B5B6" points="87.2,31.8 87.2,7.5 91.1,5.2 91.1,29.6 					"/>
					<polygon clip-path="url(#SVGID_25_)" fill="#4A494A" points="83.5,29.7 87.2,31.8 87.2,7.5 83.5,5.4 					"/>
					<polygon clip-path="url(#SVGID_25_)" fill="#383838" points="87.2,35.4 87.2,31.8 91.1,29.5 91.1,33.1 					"/>
					<polygon clip-path="url(#SVGID_25_)" fill="#0D0D0D" points="83.5,33.3 87.2,35.4 87.2,31.8 83.5,29.7 					"/>
					<polygon clip-path="url(#SVGID_25_)" fill="#5C5C5C" points="74.3,36.9 48.6,22 48.6,3.7 74.3,18.7 					"/>
					<polygon clip-path="url(#SVGID_25_)" fill="#B5B5B6" points="112.8,14.5 74.3,36.9 74.3,18.7 112.8,-3.8 					"/>
					<polygon clip-path="url(#SVGID_25_)" fill="#7D7D7D" points="74.3,18.7 48.6,3.7 87.1,-18.7 112.8,-3.8 					"/>
					<polygon clip-path="url(#SVGID_25_)" fill="#C1C1C1" points="81.9,10.9 59.5,23.8 59.5,5.4 81.9,-7.6 					"/>
					<polygon clip-path="url(#SVGID_25_)" fill="#686868" points="59.5,23.9 42.1,14.1 42.1,-4.4 59.5,5.4 					"/>
					<polygon clip-path="url(#SVGID_25_)" fill="#8F8E8E" points="59.5,5.4 42.1,-4.4 64.5,-17.4 81.9,-7.6 					"/>
					<polygon clip-path="url(#SVGID_25_)" fill="#0B0B0B" points="65.7,7.6 61.8,9.9 61.8,7.7 65.7,5.4 					"/>
					<path clip-path="url(#SVGID_25_)" fill="#634D34" d="M68.1,3.4c0.2-4.7,6.3-6.8,10.1-7.5c0.9-0.2,1.8-0.3,2.8-0.3
						c1-0.1,2,0,3-0.1c1-0.2,1.9-1.2,2.5-1.9c0.8-0.9,1.4-2.1,1.3-3.3c0.1,1.1,0.2,2.2,0,3.3c-0.2,1.1-0.7,2.1-1.3,3
						c-0.9,1.3-2.1,2.4-3.7,2.8c-1.2,0.3-2.4,0.2-3.5,0.4c-1,0.2-2,0.3-2.9,0.6c-1.8,0.6-3.5,1.7-4.3,3.5c-0.4,0.8-0.9,1.6-1.9,1.6
						C68.9,5.4,68,4.5,68.1,3.4"/>
					<path clip-path="url(#SVGID_25_)" fill="#87745F" d="M86.6-12l1.2,2.2C88-9.4,87.6-8.4,87.4-8C86.7-6.2,85-4.4,83-4.3
						c-1.1,0.1-2.1-0.2-3.2,0c-0.6,0.1-1.1,0.1-1.7,0.2c-1.6,0.3-3.2,0.7-4.7,1.4c-1.8,0.8-3.5,1.9-4.6,3.6c0,0-1.2,2.1-0.5,3.4
						l-1.4-2.5c0,0-0.8-4.9,7.1-7.3c0,0,3.6-1.1,8-1.1C82.1-6.6,85.2-6.4,86.6-12"/>
					<polygon clip-path="url(#SVGID_25_)" fill="#484748" points="44.3,7.3 52.9,11.5 47.5,15.6 					"/>
					<polygon clip-path="url(#SVGID_25_)" fill="#8F8E8E" points="55.3,10.8 52.9,11.5 44.3,7.3 46.8,6.5 					"/>
					<polygon clip-path="url(#SVGID_25_)" fill="#C1C1C1" points="47.5,15.6 49.9,14.9 55.3,10.8 52.9,11.5 					"/>
					<polygon clip-path="url(#SVGID_25_)" fill="#121212" points="47.3,10.5 49.4,11.5 48.1,12.5 					"/>
					<polygon clip-path="url(#SVGID_25_)" fill="#383838" points="49.9,11.3 49.4,11.5 47.3,10.5 47.9,10.3 					"/>
					<polygon clip-path="url(#SVGID_25_)" fill="#686868" points="48.1,12.5 48.6,12.3 49.9,11.3 49.4,11.5 					"/>
				</g>
			</g>
		</g>
	</g>
	<g>
		
			<image overflow="visible" opacity="0.2" width="1625" height="1129" xlink:href="23CC74E4AD19FF2B.png"  transform="matrix(0.24 0 0 0.24 12.4205 -27.1682)">
		</image>
		<g>
			
				<image overflow="visible" width="2394" height="1603" xlink:href="../../lotlocator/1.png"  transform="matrix(0.1885 -8.961789e-03 8.961789e-03 0.1885 -37.9528 -34.949)">
			</image>
		</g>
	</g>
	<g>
		<g>
			
				<image overflow="visible" width="2394" height="1603" xlink:href="../../lotlocator/3.png"  transform="matrix(0.1885 -8.815577e-03 8.815577e-03 0.1885 359.6734 -38.8568)">
			</image>
		</g>
	</g>
	<g>
		
			<image overflow="visible" opacity="0.2" width="1608" height="1146" xlink:href="23CC74E4AD19FF2D.png"  transform="matrix(0.24 0 0 0.24 348.3007 136.9279)">
		</image>
		<g>
			
				<image overflow="visible" width="2394" height="1603" xlink:href="../../lotlocator/4.png"  transform="matrix(0.1887 0 0 0.1887 302.1743 119.4323)">
			</image>
		</g>
	</g>
</g>
<g id="Isolation_Mode">
	<g>
		<defs>
			<rect id="SVGID_203_" x="796" y="-398" width="360" height="360"/>
		</defs>
		<clipPath id="SVGID_27_">
			<use xlink:href="#SVGID_203_"  overflow="visible"/>
		</clipPath>
		<g clip-path="url(#SVGID_27_)">
			<g>
				<defs>
					<rect id="SVGID_205_" x="-1587.9" y="-456" width="2880.3" height="1924.1"/>
				</defs>
				<clipPath id="SVGID_29_">
					<use xlink:href="#SVGID_205_"  overflow="visible"/>
				</clipPath>
				<rect x="-1564.9" y="-435.7" clip-path="url(#SVGID_29_)" fill="#8DC63F" width="2833" height="1881"/>
				<polygon clip-path="url(#SVGID_29_)" fill="#83A656" points="-136.3,-435.7 -822.3,-24.6 -1325.2,290.5 -782.6,611.4 
					-284.5,317.7 919.7,1016.3 1268.1,810.7 1268.1,-435.7 				"/>
				<g clip-path="url(#SVGID_29_)">
					<defs>
						<rect id="SVGID_207_" x="-1564.9" y="-435.7" width="2833" height="1881"/>
					</defs>
					<clipPath id="SVGID_30_">
						<use xlink:href="#SVGID_207_"  overflow="visible"/>
					</clipPath>
				</g>
				<g clip-path="url(#SVGID_29_)">
					<defs>
						<rect id="SVGID_212_" x="-1564.9" y="-435.7" width="2833" height="1881"/>
					</defs>
					<clipPath id="SVGID_32_">
						<use xlink:href="#SVGID_212_"  overflow="visible"/>
					</clipPath>
				</g>
				<g clip-path="url(#SVGID_29_)">
					<defs>
						<rect id="SVGID_217_" x="-1564.9" y="-435.7" width="2833" height="1881"/>
					</defs>
					<clipPath id="SVGID_34_">
						<use xlink:href="#SVGID_217_"  overflow="visible"/>
					</clipPath>
				</g>
				<g clip-path="url(#SVGID_29_)">
					<defs>
						<rect id="SVGID_222_" x="-1564.9" y="-435.7" width="2833" height="1881"/>
					</defs>
					<clipPath id="SVGID_35_">
						<use xlink:href="#SVGID_222_"  overflow="visible"/>
					</clipPath>
				</g>
				<g clip-path="url(#SVGID_29_)">
					<defs>
						<rect id="SVGID_227_" x="-1564.9" y="-435.7" width="2833" height="1881"/>
					</defs>
					<clipPath id="SVGID_37_">
						<use xlink:href="#SVGID_227_"  overflow="visible"/>
					</clipPath>
				</g>
				<g clip-path="url(#SVGID_29_)">
					<defs>
						<rect id="SVGID_232_" x="-1564.9" y="-435.7" width="2833" height="1881"/>
					</defs>
					<clipPath id="SVGID_39_">
						<use xlink:href="#SVGID_232_"  overflow="visible"/>
					</clipPath>
				</g>
				<g clip-path="url(#SVGID_29_)">
					<defs>
						<rect id="SVGID_237_" x="-1564.9" y="-435.7" width="2833" height="1881"/>
					</defs>
					<clipPath id="SVGID_40_">
						<use xlink:href="#SVGID_237_"  overflow="visible"/>
					</clipPath>
				</g>
				<g clip-path="url(#SVGID_29_)">
					<defs>
						<rect id="SVGID_242_" x="-1564.9" y="-435.7" width="2833" height="1881"/>
					</defs>
					<clipPath id="SVGID_42_">
						<use xlink:href="#SVGID_242_"  overflow="visible"/>
					</clipPath>
				</g>
				<g clip-path="url(#SVGID_29_)">
					<defs>
						<rect id="SVGID_247_" x="-1564.9" y="-435.7" width="2833" height="1881"/>
					</defs>
					<clipPath id="SVGID_44_">
						<use xlink:href="#SVGID_247_"  overflow="visible"/>
					</clipPath>
					<polygon clip-path="url(#SVGID_44_)" fill="#C3913D" points="0.4,404 -89.9,350.5 -89.9,340.3 0.4,393.8 					"/>
					<polygon clip-path="url(#SVGID_44_)" fill="#CDA25F" points="4.8,391.2 0.4,393.8 -89.9,340.3 -85.5,337.6 					"/>
					<polygon clip-path="url(#SVGID_44_)" fill="#EAE9E8" points="80.4,-77.7 -37.9,-7.7 -37.9,19.4 80.4,-50.5 					"/>
					<polygon clip-path="url(#SVGID_44_)" fill="#8E9092" points="738.8,427.5 738.8,685.8 -20.3,236.8 -20.3,-22.4 203.5,-151.2 
						467.7,266.4 					"/>
					<polygon clip-path="url(#SVGID_44_)" fill="#2E2D2D" points="70,278.3 132.7,316 132.7,113.8 70,76.8 					"/>
				</g>
				<g clip-path="url(#SVGID_29_)">
					<defs>
						<path id="SVGID_249_" d="M119.9,166.9l-55.2,28.9c-4.9,2.6-7.8,8.7-7.1,17.3c1.2,15.7,13.4,34,27.3,40.8
							c6.2,3.1,11.8,3.3,15.9,1.2l55.2-28.9c4.9-2.6,7.8-8.7,7.1-17.3c-1.2-15.7-13.4-34-27.2-40.8c-3.6-1.7-6.9-2.6-9.8-2.6
							C123.7,165.5,121.7,166,119.9,166.9"/>
					</defs>
					<clipPath id="SVGID_45_">
						<use xlink:href="#SVGID_249_"  overflow="visible"/>
					</clipPath>
					
						<linearGradient id="SVGID_47_" gradientUnits="userSpaceOnUse" x1="22.268" y1="-358.385" x2="24.6544" y2="-358.385" gradientTransform="matrix(14.6941 24.2217 -24.2217 14.6941 -8915.3037 4908.9282)">
						<stop  offset="0" style="stop-color:#FFF8AC"/>
						<stop  offset="1" style="stop-color:#D8A837"/>
					</linearGradient>
					<polygon clip-path="url(#SVGID_45_)" fill="url(#SVGID_47_)" points="17.2,190.2 85.7,305.8 203.4,232.6 135,117 					"/>
				</g>
				<g clip-path="url(#SVGID_29_)">
					<defs>
						<rect id="SVGID_252_" x="-1564.9" y="-435.7" width="2833" height="1881"/>
					</defs>
					<clipPath id="SVGID_49_">
						<use xlink:href="#SVGID_252_"  overflow="visible"/>
					</clipPath>
					<path clip-path="url(#SVGID_49_)" fill="#D8A837" d="M57.6,213.2c1.2,15.7,13.4,34,27.3,40.8c13.9,6.8,24.2-0.4,23-16.1
						c-1.2-15.7-13.4-34-27.3-40.8C66.7,190.2,56.4,197.5,57.6,213.2"/>
				</g>
				<g clip-path="url(#SVGID_29_)">
					<defs>
						<path id="SVGID_254_" d="M176.3,192L121.1,221c-4.9,2.6-7.8,8.7-7.1,17.3c1.2,15.7,13.4,34,27.3,40.8
							c6.2,3.1,11.8,3.3,15.9,1.2l55.2-28.9c4.9-2.6,7.8-8.7,7.1-17.3c-1.2-15.7-13.4-34-27.2-40.8c-3.6-1.7-6.9-2.6-9.8-2.6
							C180.1,190.6,178,191.1,176.3,192"/>
					</defs>
					<clipPath id="SVGID_50_">
						<use xlink:href="#SVGID_254_"  overflow="visible"/>
					</clipPath>
					
						<linearGradient id="SVGID_52_" gradientUnits="userSpaceOnUse" x1="23.2934" y1="-359.0864" x2="25.6797" y2="-359.0864" gradientTransform="matrix(14.6941 24.2217 -24.2217 14.6941 -8891.002 4919.4907)">
						<stop  offset="0" style="stop-color:#FFF8AC"/>
						<stop  offset="1" style="stop-color:#D8A837"/>
					</linearGradient>
					<polygon clip-path="url(#SVGID_50_)" fill="url(#SVGID_52_)" points="73.6,215.3 142,330.9 259.8,257.7 191.3,142.1 					"/>
				</g>
				<g clip-path="url(#SVGID_29_)">
					<defs>
						<rect id="SVGID_257_" x="-1564.9" y="-435.7" width="2833" height="1881"/>
					</defs>
					<clipPath id="SVGID_54_">
						<use xlink:href="#SVGID_257_"  overflow="visible"/>
					</clipPath>
					<path clip-path="url(#SVGID_54_)" fill="#D8A837" d="M113.9,238.3c1.2,15.7,13.4,34,27.3,40.8c13.9,6.8,24.2-0.4,23-16.1
						c-1.2-15.7-13.4-34-27.3-40.8C123.1,215.3,112.8,222.5,113.9,238.3"/>
					<polygon clip-path="url(#SVGID_54_)" fill="#B6B3B3" points="52,279.6 61,284.9 61,63 52,57.7 					"/>
					<path clip-path="url(#SVGID_54_)" fill="#2E2D2D" d="M142.5,56.1c0,0-29-114.2,43.7-116.9c0,0,116.2,30.4,92,204.4L142.5,56.1z
						"/>
					<polygon clip-path="url(#SVGID_54_)" fill="#CECCCC" points="61,284.9 70,290.3 70,76.8 61,71.5 					"/>
					<polygon clip-path="url(#SVGID_54_)" fill="#B6B3B3" points="386.4,252.5 61,63 61,71.5 386.4,263.7 					"/>
					<polygon clip-path="url(#SVGID_54_)" fill="#5B5D5F" points="377.3,463.3 70,278.3 61,285 377.3,472 					"/>
					<polygon clip-path="url(#SVGID_54_)" fill="#CDA25F" points="135.2,111 132.7,111.9 439.9,293.7 442.5,291 					"/>
					<polygon clip-path="url(#SVGID_54_)" fill="#EAE9E8" points="52,57.7 386.4,252.5 390.1,250.3 56.5,55.5 					"/>
					<path clip-path="url(#SVGID_54_)" fill="#B6B3B3" d="M205.5-59.8L205.5-59.8c-43.7-25.8-79.1-4.9-79.1,46.8v81l158.3,93.6v-81
						C284.6,28.9,249.2-34,205.5-59.8 M274,139.9L136.9,58.9V-3.9c0-44.8,30.7-62.9,68.5-40.5C243.3-22.1,274,32.4,274,77.1V139.9z"
						/>
					<path clip-path="url(#SVGID_54_)" fill="#CECCCC" d="M202.8-45.9c-32.4-7.4-55.9,14.3-55.9,56.4v54.3l-10.3-6.1V-4.1
						C136.6-47.9,166.1-66.2,202.8-45.9"/>
					<polygon clip-path="url(#SVGID_54_)" fill="#808285" points="136.6,58.7 146.9,54.2 274,128.3 274,139.9 					"/>
					<path clip-path="url(#SVGID_54_)" fill="#EAE9E8" d="M284.6,161.6l11-6.5v-2.2v-6.3V137v-12.1v-13.9v39.7v-15.3v-14.9v-13.8V95
						v-9.3v-6c0-6.8-0.6-13.4-1.9-20.1c-0.6-2.9-1.2-5.9-1.9-8.8c-0.8-3.5-1.7-7-2.7-10.5c-1.1-4-2.4-7.9-3.7-11.8
						c-1.5-4.3-3.1-8.5-4.8-12.6c-1.9-4.4-3.9-8.8-6.1-13.1c-2.3-4.5-4.8-8.9-7.5-13.2c-2.8-4.4-5.8-8.7-9-12.9
						c-3.3-4.3-6.9-8.3-10.7-12.1c-3.9-3.9-8.1-7.6-12.5-11c-4.6-3.5-9.4-6.7-14.5-9.5c-5.3-2.9-10.9-5.5-16.6-7.5
						c-5.3-1.9-10.7-3.5-16.1-4.7c0,0,75.9,26.4,95.7,131.5c1.1,5.7,1.4,11.4,1.4,17.2v5.3v8.5v11v12.9v14.2v14.8v-39.9v14.2v12.9
						v11.1v8.6v5.4V161.6z"/>
					<polygon clip-path="url(#SVGID_54_)" fill="#B62025" points="466.4,266.4 209.2,-140.3 592.6,-357.4 845.9,41.8 					"/>
					<polygon clip-path="url(#SVGID_54_)" fill="#C3913D" points="439.9,507.1 132.7,325.4 132.7,111.9 439.9,293.7 					"/>
					<polygon clip-path="url(#SVGID_54_)" fill="#BCBEBF" points="126.3,15 109,4.8 109,-14.4 126.3,-4.2 					"/>
					<polygon clip-path="url(#SVGID_54_)" fill="#616264" points="352,142 317.4,121.5 317.4,102.3 352,122.8 					"/>
					<polygon clip-path="url(#SVGID_54_)" fill="#BCBEBF" points="365.5,169.1 330.9,148.6 330.9,129.4 365.5,149.9 					"/>
					<polygon clip-path="url(#SVGID_54_)" fill="#616264" points="24.2,67.9 -10.5,47.4 -10.5,28.2 24.2,48.7 					"/>
					<polygon clip-path="url(#SVGID_54_)" fill="#BCBEBF" points="37.7,95 3,74.6 3,55.4 37.7,75.9 					"/>
					<polygon clip-path="url(#SVGID_54_)" fill="#A81E2A" points="500.7,246.1 499.6,246.8 240.9,-158.2 242.1,-159 					"/>
					<polygon clip-path="url(#SVGID_54_)" fill="#B52E37" points="574.8,202.2 572.5,203.6 314.8,-200.1 317.1,-201.4 					"/>
					<polygon clip-path="url(#SVGID_54_)" fill="#A81E2A" points="575.9,201.6 574.8,202.2 317.1,-201.4 318.4,-202.1 					"/>
					<polygon clip-path="url(#SVGID_54_)" fill="#B52E37" points="612.3,180 610,181.3 353,-221.7 355.1,-222.9 					"/>
					<polygon clip-path="url(#SVGID_54_)" fill="#A81E2A" points="613.6,179.3 612.3,180 355.1,-222.9 356.2,-223.5 					"/>
					<polygon clip-path="url(#SVGID_54_)" fill="#B52E37" points="541.7,221.8 539.4,223.2 281.3,-181.2 283.6,-182.4 					"/>
					<polygon clip-path="url(#SVGID_54_)" fill="#A81E2A" points="542.9,221.1 541.7,221.8 283.6,-182.4 284.8,-183.1 					"/>
					<polygon clip-path="url(#SVGID_54_)" fill="#B52E37" points="499.6,246.8 497.3,248.1 238.6,-157 240.9,-158.2 					"/>
				</g>
				<g clip-path="url(#SVGID_29_)">
					<defs>
						<rect id="SVGID_268_" x="-1564.9" y="-435.7" width="2833" height="1881"/>
					</defs>
					<clipPath id="SVGID_55_">
						<use xlink:href="#SVGID_268_"  overflow="visible"/>
					</clipPath>
				</g>
			</g>
		</g>
	</g>
</g>
</svg>
